<svg xmlns="http://www.w3.org/2000/svg" xmlns:xlink="http://www.w3.org/1999/xlink" xmlns:inkscape="http://www.inkscape.org/namespaces/inkscape" version="1.1" width="841.89" height="1190.55" viewBox="0 0 841.89 1190.55">
<defs>
<clipPath id="clip_0">
<path transform="matrix(1,0,0,-1,0,1190.55)" d="M0 1190.551H841.89V0H0Z"/>
</clipPath>
<clipPath id="clip_1">
<path transform="matrix(1,0,0,-1,0,1190.55)" d="M222.411 539.352H591.946V925.889H222.411Z"/>
</clipPath>
</defs>
<g>
<g inkscape:groupmode="layer" inkscape:label="Layer 1">
<g clip-path="url(#clip_0)">
<path transform="matrix(1,0,0,-1,562.4562,847.86196)" d="M0 0C-3.33 1.864-6.799 3.985-10.604 6.484L-10.732 6.571C-14.114 8.881-17.728 11.419-21.245 14.324-25.36 17.658-29.201 21.164-32.604 24.696-35.995 28.141-39.303 31.97-42.715 36.402-48.922 44.492-54.207 53.363-58.43 62.78-62.442 71.709-65.582 81.303-67.761 91.29-68.868 96.477-69.656 101.237-70.179 105.882-70.753 110.737-71.104 115.646-71.213 120.421L-71.407 128.91-6.595 130.492-6.407 121.971C-6.347 119.206-6.14 116.322-5.792 113.399-5.503 110.776-5.049 108.04-4.396 104.963-3.186 99.448-1.471 94.183 .688 89.371 2.875 84.494 5.588 79.935 8.751 75.816 10.583 73.445 12.188 71.583 13.787 69.974L13.905 69.853C15.541 68.14 17.412 66.435 19.625 64.64L19.722 64.561C21.388 63.168 23.391 61.779 25.335 60.435 27.861 58.791 29.865 57.569 31.818 56.478L39.277 52.311 7.392-4.14Z" fill="#ffffff"/>
<path transform="matrix(1,0,0,-1,562.4562,847.86196)" stroke-width="9.962" stroke-linecap="butt" stroke-miterlimit="10" stroke-linejoin="miter" fill="none" stroke="#ffffff" d="M0 0C-3.33 1.864-6.799 3.985-10.604 6.484L-10.732 6.571C-14.114 8.881-17.728 11.419-21.245 14.324-25.36 17.658-29.201 21.164-32.604 24.696-35.995 28.141-39.303 31.97-42.715 36.402-48.922 44.492-54.207 53.363-58.43 62.78-62.442 71.709-65.582 81.303-67.761 91.29-68.868 96.477-69.656 101.237-70.179 105.882-70.753 110.737-71.104 115.646-71.213 120.421L-71.407 128.91-6.595 130.492-6.407 121.971C-6.347 119.206-6.14 116.322-5.792 113.399-5.503 110.776-5.049 108.04-4.396 104.963-3.186 99.448-1.471 94.183 .688 89.371 2.875 84.494 5.588 79.935 8.751 75.816 10.583 73.445 12.188 71.583 13.787 69.974L13.905 69.853C15.541 68.14 17.412 66.435 19.625 64.64L19.722 64.561C21.388 63.168 23.391 61.779 25.335 60.435 27.861 58.791 29.865 57.569 31.818 56.478L39.277 52.311 7.392-4.14 0 0Z"/>
<path transform="matrix(1,0,0,-1,610.7746,888.28097)" d="M0 0C-2.305 0-4.769 .212-7.324 .63L-7.528 .666C-11.447 1.405-14.771 2.46-17.687 3.89-23.687 6.752-26.451 10.151-29.199 13.977-29.199 13.977-29.81 14.859-30.089 15.266-30.916 16.475-31.771 17.724-32.824 19.097L-33.303 19.713C-33.918 20.506-34.554 21.326-35.244 22.148-35.712 22.711-36.193 23.269-36.708 23.85L-37.501 24.728C-37.83 25.08-38.104 25.41-38.373 25.745L-38.596 26.013C-41.572 29.581-44.034 31.432-46.416 33.222L-47.138 33.766C-48.878 35.08-50.33 36.265-51.724 37.746-53.555 39.734-54.948 41.87-56.049 44.343-57.727 48.141-58.648 52.004-58.797 55.847-58.926 59.134-58.485 62.464-57.488 65.737-55.851 71.067-53.115 75.189-51.306 77.917L-51.13 78.181C-48.983 81.435-46.396 84.524-43.452 87.349-41.355 89.368-39.028 91.309-36.548 93.102-33.735 95.132-30.738 96.963-27.635 98.547-21.651 101.583-15.856 103.512-9.902 104.452-8.216 104.714-6.766 104.876-5.318 104.967-4.638 105.014-3.907 105.051-3.186 105.076-2.704 105.088-2.304 105.092-1.903 105.092-1.562 105.092-1.22 105.089-.883 105.085-.513 105.083-.154 105.072 .198 105.061 .352 105.056 .503 105.049 .646 105.047 1.208 105.076 1.762 105.096 2.308 105.108 2.742 105.118 3.179 105.123 3.609 105.123 4.327 105.123 5.028 105.11 5.715 105.088 11.482 104.98 17.2 104.295 22.711 103.053L23.438 102.895C26.415 102.249 31.396 101.17 36.428 99.205 39.631 97.926 49.194 94.105 52.832 84.146 55.006 78.229 54.111 72.404 52.793 68.243 54.598 64.586 55.404 60.625 55.106 56.714 54.773 52.604 53.181 48.702 50.558 45.462 54.641 38.651 55.287 31.662 52.145 25.781 49.57 21.041 45 17.601 39.577 16.292 37.948 15.909 36.319 15.721 34.687 15.721H34.686C29.596 15.721 25.025 17.482 20.773 19.805 22.213 15.384 21.491 11.886 20.259 9.373 18.744 6.283 16.045 3.885 12.235 2.25 10.859 1.661 9.342 1.176 7.716 .805L7.61 .781C6.137 .464 4.531 .239 2.841 .112 1.978 .04 .996 0 0 0" fill="#ffffff"/>
<path transform="matrix(1,0,0,-1,610.7746,888.28097)" stroke-width="9.962" stroke-linecap="butt" stroke-miterlimit="10" stroke-linejoin="miter" fill="none" stroke="#ffffff" d="M0 0C-2.305 0-4.769 .212-7.324 .63L-7.528 .666C-11.447 1.405-14.771 2.46-17.687 3.89-23.687 6.752-26.451 10.151-29.199 13.977-29.199 13.977-29.81 14.859-30.089 15.266-30.916 16.475-31.771 17.724-32.824 19.097L-33.303 19.713C-33.918 20.506-34.554 21.326-35.244 22.148-35.712 22.711-36.193 23.269-36.708 23.85L-37.501 24.728C-37.83 25.08-38.104 25.41-38.373 25.745L-38.596 26.013C-41.572 29.581-44.034 31.432-46.416 33.222L-47.138 33.766C-48.878 35.08-50.33 36.265-51.724 37.746-53.555 39.734-54.948 41.87-56.049 44.343-57.727 48.141-58.648 52.004-58.797 55.847-58.926 59.134-58.485 62.464-57.488 65.737-55.851 71.067-53.115 75.189-51.306 77.917L-51.13 78.181C-48.983 81.435-46.396 84.524-43.452 87.349-41.355 89.368-39.028 91.309-36.548 93.102-33.735 95.132-30.738 96.963-27.635 98.547-21.651 101.583-15.856 103.512-9.902 104.452-8.216 104.714-6.766 104.876-5.318 104.967-4.638 105.014-3.907 105.051-3.186 105.076-2.704 105.088-2.304 105.092-1.903 105.092-1.562 105.092-1.22 105.089-.883 105.085-.513 105.083-.154 105.072 .198 105.061 .352 105.056 .503 105.049 .646 105.047 1.208 105.076 1.762 105.096 2.308 105.108 2.742 105.118 3.179 105.123 3.609 105.123 4.327 105.123 5.028 105.11 5.715 105.088 11.482 104.98 17.2 104.295 22.711 103.053L23.438 102.895C26.415 102.249 31.396 101.17 36.428 99.205 39.631 97.926 49.194 94.105 52.832 84.146 55.006 78.229 54.111 72.404 52.793 68.243 54.598 64.586 55.404 60.625 55.106 56.714 54.773 52.604 53.181 48.702 50.558 45.462 54.641 38.651 55.287 31.662 52.145 25.781 49.57 21.041 45 17.601 39.577 16.292 37.948 15.909 36.319 15.721 34.687 15.721H34.686C29.596 15.721 25.025 17.482 20.773 19.805 22.213 15.384 21.491 11.886 20.259 9.373 18.744 6.283 16.045 3.885 12.235 2.25 10.859 1.661 9.342 1.176 7.716 .805L7.61 .781C6.137 .464 4.531 .239 2.841 .112 1.978 .04 .996 0 0 0Z"/>
<path transform="matrix(1,0,0,-1,645.3029,848.91769)" d="M0 0C-2.108 1.199-4.98 2.768-8.505 4.266-12.804 6.09-16.91 7.443-21.058 8.4-24.766 9.267-28.46 9.817-32.702 10.138L-31.421 27.097C-26.356 26.715-21.708 26.019-17.21 24.968-12.108 23.789-7.079 22.137-1.856 19.92 2.473 18.08 5.903 16.209 8.408 14.783Z" fill="#ffffff"/>
<path transform="matrix(1,0,0,-1,645.3029,848.91769)" stroke-width="9.962" stroke-linecap="butt" stroke-miterlimit="10" stroke-linejoin="miter" fill="none" stroke="#ffffff" d="M0 0C-2.108 1.199-4.98 2.768-8.505 4.266-12.804 6.09-16.91 7.443-21.058 8.4-24.766 9.267-28.46 9.817-32.702 10.138L-31.421 27.097C-26.356 26.715-21.708 26.019-17.21 24.968-12.108 23.789-7.079 22.137-1.856 19.92 2.473 18.08 5.903 16.209 8.408 14.783L0 0Z"/>
<path transform="matrix(1,0,0,-1,652.0441,829.22036)" d="M0 0C-2.483 1.464-4.87 2.677-7.296 3.706-10.906 5.265-14.596 6.442-18.308 7.229-22.888 8.186-27.507 8.587-32.425 8.47L-32.853 25.472C-26.698 25.626-20.625 25.088-14.806 23.872-9.973 22.849-5.201 21.326-.604 19.342 2.469 18.038 5.506 16.497 8.637 14.652Z" fill="#ffffff"/>
<path transform="matrix(1,0,0,-1,652.0441,829.22036)" stroke-width="9.962" stroke-linecap="butt" stroke-miterlimit="10" stroke-linejoin="miter" fill="none" stroke="#ffffff" d="M0 0C-2.483 1.464-4.87 2.677-7.296 3.706-10.906 5.265-14.596 6.442-18.308 7.229-22.888 8.186-27.507 8.587-32.425 8.47L-32.853 25.472C-26.698 25.626-20.625 25.088-14.806 23.872-9.973 22.849-5.201 21.326-.604 19.342 2.469 18.038 5.506 16.497 8.637 14.652L0 0Z"/>
<path transform="matrix(1,0,0,-1,591.2639,856.65988)" d="M0 0-5.615 16.055C-2.583 17.115 .423 17.761 3.574 18.029 8.017 18.409 12.672 18.056 17.408 16.976L13.625 .394C10.564 1.092 7.746 1.318 5.022 1.083 3.307 .937 1.666 .583 0 0" fill="#ffffff"/>
<path transform="matrix(1,0,0,-1,591.2639,856.65988)" stroke-width="9.962" stroke-linecap="butt" stroke-miterlimit="10" stroke-linejoin="miter" fill="none" stroke="#ffffff" d="M0 0-5.615 16.055C-2.583 17.115 .423 17.761 3.574 18.029 8.017 18.409 12.672 18.056 17.408 16.976L13.625 .394C10.564 1.092 7.746 1.318 5.022 1.083 3.307 .937 1.666 .583 0 0Z"/>
<path transform="matrix(1,0,0,-1,500.5461,756.72817)" d="M0 0C-5.886 .419-11.299 3.386-14.85 8.141-18.27 12.718-19.632 18.539-18.494 23.713-17.385 28.757-14.048 33.027-9.545 35.646-9.883 42.084-9.044 51.175-3.728 60.021 2.979 71.181 14.595 78.112 26.588 78.112 26.899 78.112 27.209 78.108 27.521 78.099 39.872 77.727 47.905 70.103 50.93 67.232 58.467 60.079 62.139 51.396 63.917 44.99 68.761 42.102 72.004 36.675 72.093 30.485 72.21 22.379 66.827 15.162 59.295 13.327L1.275-.091Z" fill="#ffffff"/>
<path transform="matrix(1,0,0,-1,500.5461,756.72817)" stroke-width="9.057" stroke-linecap="butt" stroke-miterlimit="10" stroke-linejoin="miter" fill="none" stroke="#ffffff" d="M0 0C-5.886 .419-11.299 3.386-14.85 8.141-18.27 12.718-19.632 18.539-18.494 23.713-17.385 28.757-14.048 33.027-9.545 35.646-9.883 42.084-9.044 51.175-3.728 60.021 2.979 71.181 14.595 78.112 26.588 78.112 26.899 78.112 27.209 78.108 27.521 78.099 39.872 77.727 47.905 70.103 50.93 67.232 58.467 60.079 62.139 51.396 63.917 44.99 68.761 42.102 72.004 36.675 72.093 30.485 72.21 22.379 66.827 15.162 59.295 13.327L1.275-.091 0 0Z"/>
<path transform="matrix(1,0,0,-1,284.9455,875.3982)" d="M0 0 4.035 10.607C11.953 31.419 19.846 64.486 12.48 103.831 3.789 150.253-22.022 181.205-36.636 195.523L-44.244 202.98-35.288 208.747C-12.818 223.217 34.182 247.49 96.501 247.49 100.933 247.49 105.43 247.366 109.868 247.121 178.493 243.326 227.127 211.52 250.009 192.897L254.976 188.854 252.462 182.964C238.603 150.484 229.329 116.308 224.9 81.382 221.165 51.923 220.9 21.985 224.113-7.6L225.222-17.804Z" fill="#ffffff"/>
<path transform="matrix(1,0,0,-1,284.9455,875.3982)" stroke-width="9.057" stroke-linecap="butt" stroke-miterlimit="10" stroke-linejoin="miter" fill="none" stroke="#ffffff" d="M0 0 4.035 10.607C11.953 31.419 19.846 64.486 12.48 103.831 3.789 150.253-22.022 181.205-36.636 195.523L-44.244 202.98-35.288 208.747C-12.818 223.217 34.182 247.49 96.501 247.49 100.933 247.49 105.43 247.366 109.868 247.121 178.493 243.326 227.127 211.52 250.009 192.897L254.976 188.854 252.462 182.964C238.603 150.484 229.329 116.308 224.9 81.382 221.165 51.923 220.9 21.985 224.113-7.6L225.222-17.804 0 0Z"/>
<path transform="matrix(1,0,0,-1,390.9894,675.6851)" d="M0 0C-9.17 0-18.43 4.067-25.404 11.16-32.939 18.822-36.998 29.021-36.835 39.887V147.947H34.689V40.011C35.529 20.281 22.23 2.863 4.332 .307 2.91 .104 1.452 0 0 0" fill="#ffffff"/>
<path transform="matrix(1,0,0,-1,390.9894,675.6851)" stroke-width="9.057" stroke-linecap="butt" stroke-miterlimit="10" stroke-linejoin="miter" fill="none" stroke="#ffffff" d="M0 0C-9.17 0-18.43 4.067-25.404 11.16-32.939 18.822-36.998 29.021-36.835 39.887V147.947H34.689V40.011C35.529 20.281 22.23 2.863 4.332 .307 2.91 .104 1.452 0 0 0Z"/>
<path transform="matrix(1,0,0,-1,223.551,823.99777)" d="M0 0C-.73 1.751-1.281 3.483-1.767 5.012L-2.16 6.237-4.123 12.446C-4.247 12.84-4.37 13.233-4.481 13.63L-4.55 13.889-5.618 18.214-6.999 23.939C-7.322 25.199-7.535 26.389-7.723 27.441L-8.308 30.685C-8.67 32.685-9.045 34.753-9.294 36.948L-10.066 43.116-10.572 49.508C-11.102 58.055-11.046 66.597-10.406 74.896-9.051 91.759-5.38 108.313 .506 124.127L3.476 132.106 64.203 109.418 61.236 101.457C57.445 91.282 55.083 80.629 54.216 69.793 53.82 64.599 53.786 59.18 54.115 53.718L54.429 49.682 54.974 45.383C55.069 44.441 55.267 43.373 55.475 42.242L55.972 39.471C56.052 39.007 56.134 38.526 56.205 38.271L56.271 38.019 57.272 33.926 57.966 31.031C57.986 30.968 58.178 30.381 58.178 30.381L59.448 26.401C59.561 26.054 59.683 25.661 59.804 25.27 60.045 24.488 60.273 23.751 60.497 23.239L64.108 14.978 3.142-7.525Z" fill="#ffffff"/>
<path transform="matrix(1,0,0,-1,223.551,823.99777)" stroke-width="9.057" stroke-linecap="butt" stroke-miterlimit="10" stroke-linejoin="miter" fill="none" stroke="#ffffff" d="M0 0C-.73 1.751-1.281 3.483-1.767 5.012L-2.16 6.237-4.123 12.446C-4.247 12.84-4.37 13.233-4.481 13.63L-4.55 13.889-5.618 18.214-6.999 23.939C-7.322 25.199-7.535 26.389-7.723 27.441L-8.308 30.685C-8.67 32.685-9.045 34.753-9.294 36.948L-10.066 43.116-10.572 49.508C-11.102 58.055-11.046 66.597-10.406 74.896-9.051 91.759-5.38 108.313 .506 124.127L3.476 132.106 64.203 109.418 61.236 101.457C57.445 91.282 55.083 80.629 54.216 69.793 53.82 64.599 53.786 59.18 54.115 53.718L54.429 49.682 54.974 45.383C55.069 44.441 55.267 43.373 55.475 42.242L55.972 39.471C56.052 39.007 56.134 38.526 56.205 38.271L56.271 38.019 57.272 33.926 57.966 31.031C57.986 30.968 58.178 30.381 58.178 30.381L59.448 26.401C59.561 26.054 59.683 25.661 59.804 25.27 60.045 24.488 60.273 23.751 60.497 23.239L64.108 14.978 3.142-7.525 0 0Z"/>
<path transform="matrix(1,0,0,-1,274.633,908.73696)" d="M0 0C-10.029 0-19.502 7.073-24.279 11.316-31.283 17.403-36.569 24.75-39.958 29.794-41.315 31.694-43.274 35.027-45.234 38.776-46.341 40.814-47.422 43.212-48.732 46.533-49.783 49.212-50.967 52.349-51.824 55.919-52.245 57.567-52.625 59.224-52.952 60.843-53.249 62.334-53.647 64.334-53.832 66.493-54.208 70.278-54.32 73.962-54.165 77.443L-54.157 77.618-54.143 77.792C-53.376 86.729-51.146 94.068-47.326 100.232-43.373 106.779-38.138 111.75-31.373 115.347-26.26 118.056-21.852 119.143-19.97 119.606-16.2 120.526-11.806 121.504-6.744 121.606-6.442 121.613-6.123 121.617-5.801 121.617-4.716 121.617-3.628 121.575-2.569 121.491-1.101 121.384 .384 121.197 1.793 120.94 5.041 120.348 8.138 119.356 11 117.992L11.104 117.941C15.303 115.87 17.508 113.486 19.514 110.548L20.496 109.144C20.6 108.999 20.777 108.757 20.842 108.689L21.003 108.531C21.877 107.646 22.884 106.821 24.077 106.014 27.561 103.955 29.771 103.552 31.724 103.196 35.413 102.496 38.971 101.59 42.587 98.107L42.717 97.979C43.721 96.97 44.617 95.821 45.381 94.565L45.694 94.036C46.075 93.396 46.592 92.526 47.053 91.455 48.11 89.09 48.604 86.717 48.945 84.703L48.977 84.507C49.342 82.006 49.306 79.415 48.874 77.008 48.36 73.963 47.204 71.323 45.435 69.16 43.714 67.048 41.442 65.448 38.77 64.424 42.138 62.505 45.273 59.811 47.152 55.474 49.822 49.48 48.395 43.688 47.655 41.479 46.092 36.846 42.68 32.981 38.04 30.578 36.448 29.749 34.722 29.097 32.896 28.635 32.513 24.338 31.036 20.607 28.489 17.515 25.791 14.203 21.9 11.93 17.435 10.975 13.71 3.796 8.184 1.204 3.812 .355 2.563 .118 1.29 0 0 0" fill="#ffffff"/>
<path transform="matrix(1,0,0,-1,274.633,908.73696)" stroke-width="9.057" stroke-linecap="butt" stroke-miterlimit="10" stroke-linejoin="miter" fill="none" stroke="#ffffff" d="M0 0C-10.029 0-19.502 7.073-24.279 11.316-31.283 17.403-36.569 24.75-39.958 29.794-41.315 31.694-43.274 35.027-45.234 38.776-46.341 40.814-47.422 43.212-48.732 46.533-49.783 49.212-50.967 52.349-51.824 55.919-52.245 57.567-52.625 59.224-52.952 60.843-53.249 62.334-53.647 64.334-53.832 66.493-54.208 70.278-54.32 73.962-54.165 77.443L-54.157 77.618-54.143 77.792C-53.376 86.729-51.146 94.068-47.326 100.232-43.373 106.779-38.138 111.75-31.373 115.347-26.26 118.056-21.852 119.143-19.97 119.606-16.2 120.526-11.806 121.504-6.744 121.606-6.442 121.613-6.123 121.617-5.801 121.617-4.716 121.617-3.628 121.575-2.569 121.491-1.101 121.384 .384 121.197 1.793 120.94 5.041 120.348 8.138 119.356 11 117.992L11.104 117.941C15.303 115.87 17.508 113.486 19.514 110.548L20.496 109.144C20.6 108.999 20.777 108.757 20.842 108.689L21.003 108.531C21.877 107.646 22.884 106.821 24.077 106.014 27.561 103.955 29.771 103.552 31.724 103.196 35.413 102.496 38.971 101.59 42.587 98.107L42.717 97.979C43.721 96.97 44.617 95.821 45.381 94.565L45.694 94.036C46.075 93.396 46.592 92.526 47.053 91.455 48.11 89.09 48.604 86.717 48.945 84.703L48.977 84.507C49.342 82.006 49.306 79.415 48.874 77.008 48.36 73.963 47.204 71.323 45.435 69.16 43.714 67.048 41.442 65.448 38.77 64.424 42.138 62.505 45.273 59.811 47.152 55.474 49.822 49.48 48.395 43.688 47.655 41.479 46.092 36.846 42.68 32.981 38.04 30.578 36.448 29.749 34.722 29.097 32.896 28.635 32.513 24.338 31.036 20.607 28.489 17.515 25.791 14.203 21.9 11.93 17.435 10.975 13.71 3.796 8.184 1.204 3.812 .355 2.563 .118 1.29 0 0 0Z"/>
<path transform="matrix(1,0,0,-1,295.4201,880.359)" d="M0 0C-1.368 .5-3.243 1.184-5.319 2.23-7.25 3.187-9.391 4.306-11.614 5.83-12.707 6.562-13.794 7.334-14.846 8.124L-14.946 8.201C-16.151 9.136-17.276 10.135-18.313 11.077-20.537 13.051-22.737 15.467-25.037 18.461L-25.106 18.554C-28.503 23.104-31.192 28.158-32.885 33.171L-16.771 38.612C-15.988 36.295-14.441 32.711-11.512 28.773-9.881 26.653-8.404 25.019-6.999 23.775L-6.914 23.699C-6.137 22.993-5.316 22.261-4.569 21.678-3.771 21.078-2.945 20.493-2.115 19.938L-2.023 19.876C-.595 18.893 .948 18.105 2.283 17.445 3.523 16.819 4.696 16.392 5.83 15.979Z" fill="#ffffff"/>
<path transform="matrix(1,0,0,-1,295.4201,880.359)" stroke-width="9.057" stroke-linecap="butt" stroke-miterlimit="10" stroke-linejoin="miter" fill="none" stroke="#ffffff" d="M0 0C-1.368 .5-3.243 1.184-5.319 2.23-7.25 3.187-9.391 4.306-11.614 5.83-12.707 6.562-13.794 7.334-14.846 8.124L-14.946 8.201C-16.151 9.136-17.276 10.135-18.313 11.077-20.537 13.051-22.737 15.467-25.037 18.461L-25.106 18.554C-28.503 23.104-31.192 28.158-32.885 33.171L-16.771 38.612C-15.988 36.295-14.441 32.711-11.512 28.773-9.881 26.653-8.404 25.019-6.999 23.775L-6.914 23.699C-6.137 22.993-5.316 22.261-4.569 21.678-3.771 21.078-2.945 20.493-2.115 19.938L-2.023 19.876C-.595 18.893 .948 18.105 2.283 17.445 3.523 16.819 4.696 16.392 5.83 15.979L0 0Z"/>
<path transform="matrix(1,0,0,-1,286.0099,899.0924)" d="M0 0C-1.604 .613-3.492 1.356-5.595 2.415-6.595 2.907-7.679 3.47-8.743 4.054-10.008 4.752-11.171 5.489-12.353 6.248-17.803 9.717-23.1 14.435-27.644 19.873L-27.768 20.024C-29.274 21.916-30.716 23.883-32.051 25.87L-32.113 25.964C-33.437 27.991-34.474 29.917-35.423 31.717-37.349 35.282-38.495 38.545-39.502 41.574L-23.361 46.938C-22.72 45.005-21.841 42.359-20.417 39.724-19.594 38.162-18.812 36.708-17.9 35.307-16.85 33.743-15.715 32.195-14.528 30.703-10.209 25.55-5.982 22.354-3.192 20.578-2.231 19.962-1.329 19.388-.544 18.954 .274 18.506 1.135 18.059 1.985 17.641 3.448 16.903 4.75 16.393 6.072 15.887Z" fill="#ffffff"/>
<path transform="matrix(1,0,0,-1,286.0099,899.0924)" stroke-width="9.057" stroke-linecap="butt" stroke-miterlimit="10" stroke-linejoin="miter" fill="none" stroke="#ffffff" d="M0 0C-1.604 .613-3.492 1.356-5.595 2.415-6.595 2.907-7.679 3.47-8.743 4.054-10.008 4.752-11.171 5.489-12.353 6.248-17.803 9.717-23.1 14.435-27.644 19.873L-27.768 20.024C-29.274 21.916-30.716 23.883-32.051 25.87L-32.113 25.964C-33.437 27.991-34.474 29.917-35.423 31.717-37.349 35.282-38.495 38.545-39.502 41.574L-23.361 46.938C-22.72 45.005-21.841 42.359-20.417 39.724-19.594 38.162-18.812 36.708-17.9 35.307-16.85 33.743-15.715 32.195-14.528 30.703-10.209 25.55-5.982 22.354-3.192 20.578-2.231 19.962-1.329 19.388-.544 18.954 .274 18.506 1.135 18.059 1.985 17.641 3.448 16.903 4.75 16.393 6.072 15.887L0 0Z"/>
<path transform="matrix(1,0,0,-1,278.4826,837.59146)" d="M0 0C-.363 .729-.698 1.471-.997 2.208-1.167 2.624-1.34 3.079-1.51 3.561L-1.65 3.998C-1.795 4.494-1.934 5.017-2.063 5.562-2.665 8.124-2.921 10.7-2.825 13.224-2.767 15.413-2.33 17.274-1.955 18.657-1.575 20.016-1.111 21.295-.559 22.52L14.945 15.527C14.743 15.08 14.574 14.613 14.441 14.139 14.392 13.954 14.187 13.197 14.177 12.762L14.172 12.605C14.131 11.599 14.239 10.54 14.493 9.459 14.53 9.3 14.57 9.143 14.612 8.99 14.661 8.857 14.711 8.729 14.762 8.605 14.902 8.259 15.05 7.932 15.219 7.594Z" fill="#ffffff"/>
<path transform="matrix(1,0,0,-1,278.4826,837.59146)" stroke-width="9.057" stroke-linecap="butt" stroke-miterlimit="10" stroke-linejoin="miter" fill="none" stroke="#ffffff" d="M0 0C-.363 .729-.698 1.471-.997 2.208-1.167 2.624-1.34 3.079-1.51 3.561L-1.65 3.998C-1.795 4.494-1.934 5.017-2.063 5.562-2.665 8.124-2.921 10.7-2.825 13.224-2.767 15.413-2.33 17.274-1.955 18.657-1.575 20.016-1.111 21.295-.559 22.52L14.945 15.527C14.743 15.08 14.574 14.613 14.441 14.139 14.392 13.954 14.187 13.197 14.177 12.762L14.172 12.605C14.131 11.599 14.239 10.54 14.493 9.459 14.53 9.3 14.57 9.143 14.612 8.99 14.661 8.857 14.711 8.729 14.762 8.605 14.902 8.259 15.05 7.932 15.219 7.594L0 0Z"/>
<path transform="matrix(1,0,0,-1,0,1190.55)" d="M310.615 613.205H312.02299V596.197H310.615Z" fill="#ffffff"/>
<path transform="matrix(1,0,0,-1,0,1190.55)" stroke-width="1.259" stroke-linecap="butt" stroke-miterlimit="10" stroke-linejoin="miter" fill="none" stroke="#ffffff" d="M310.615 613.205H312.02299V596.197H310.615Z"/>
<path transform="matrix(1,0,0,-1,432.2394,760.08169)" d="M0 0-27.98 33.641-46.964 5.217-53.727 17.414C-61.313 31.097-64.708 45.936-63.546 60.328-63.339 62.886-62.99 65.445-62.501 67.991-83.411 75.135-93.97 93.226-91.777 108.111-89.636 122.651-76.267 130.812-72.221 132.966L-64.227 117.954C-65.841 117.094-73.945 112.46-74.951 105.633-76.247 96.837-66.626 85.182-50.75 82.521L-41.023 80.891-44.066 71.511C-45.403 67.386-46.254 63.164-46.593 58.96-47.121 52.415-46.451 45.868-44.598 39.383L-29.473 62.031-14.318 43.812C-15.039 49.622-16.349 55.343-18.243 60.941-19.746 65.383-21.642 69.798-23.877 74.063L-27.305 80.606-21.306 84.916C-17.892 87.369-14.7 90.36-12.078 93.567L-11.483 94.295C-9.316 96.939-2.723 104.985-3.519 107.112-3.784 107.824-6.173 109.517-10.729 110.392L-7.52 127.095C-1.61 125.959 8.836 122.628 12.411 113.073 16.638 101.777 7.988 91.222 1.672 83.515L1.088 82.801C-.968 80.287-3.279 77.872-5.754 75.643-4.396 72.594-3.185 69.501-2.133 66.394 2.979 51.293 4.528 35.479 2.475 19.388Z" fill="#ffffff"/>
<path transform="matrix(1,0,0,-1,432.2394,760.08169)" stroke-width="9.057" stroke-linecap="butt" stroke-miterlimit="10" stroke-linejoin="miter" fill="none" stroke="#ffffff" d="M0 0-27.98 33.641-46.964 5.217-53.727 17.414C-61.313 31.097-64.708 45.936-63.546 60.328-63.339 62.886-62.99 65.445-62.501 67.991-83.411 75.135-93.97 93.226-91.777 108.111-89.636 122.651-76.267 130.812-72.221 132.966L-64.227 117.954C-65.841 117.094-73.945 112.46-74.951 105.633-76.247 96.837-66.626 85.182-50.75 82.521L-41.023 80.891-44.066 71.511C-45.403 67.386-46.254 63.164-46.593 58.96-47.121 52.415-46.451 45.868-44.598 39.383L-29.473 62.031-14.318 43.812C-15.039 49.622-16.349 55.343-18.243 60.941-19.746 65.383-21.642 69.798-23.877 74.063L-27.305 80.606-21.306 84.916C-17.892 87.369-14.7 90.36-12.078 93.567L-11.483 94.295C-9.316 96.939-2.723 104.985-3.519 107.112-3.784 107.824-6.173 109.517-10.729 110.392L-7.52 127.095C-1.61 125.959 8.836 122.628 12.411 113.073 16.638 101.777 7.988 91.222 1.672 83.515L1.088 82.801C-.968 80.287-3.279 77.872-5.754 75.643-4.396 72.594-3.185 69.501-2.133 66.394 2.979 51.293 4.528 35.479 2.475 19.388L0 0Z"/>
<g>
<g clip-path="url(#clip_1)">
<path transform="matrix(1,0,0,-1,303.3976,501.77406)" d="M0 0C-2.17 2.953-4.904 4.824-7.7 5.27-8.143 5.341-8.577 5.376-9.005 5.376-11.071 5.376-13.187 4.578-15.294 3.005L-24.356-3.763-68.671 113.966-50.757 122.778-80.313 167.847 9.684 236.578 279.449 182.01 246.01 165.291 287.578 122.447 239.669 111.003 244.54 49.558 184.727 133.585C159.762 137.192 134.392 139.673 109.292 140.962 95.334 141.677 81.171 142.04 67.195 142.04 52.545 142.04 37.751 141.642 23.042 140.853L32.7 127.336 12.188 97.565C12.886 77.353 13.578 57.141 14.27 36.929L16.295-22.17Z" fill="#ffffff"/>
<path transform="matrix(1,0,0,-1,303.3976,501.77406)" stroke-width="1" stroke-linecap="butt" stroke-miterlimit="10" stroke-linejoin="miter" fill="none" stroke="#ffffff" d="M0 0C-2.17 2.953-4.904 4.824-7.7 5.27-8.143 5.341-8.577 5.376-9.005 5.376-11.071 5.376-13.187 4.578-15.294 3.005L-24.356-3.763-68.671 113.966-50.757 122.778-80.313 167.847 9.684 236.578 279.449 182.01 246.01 165.291 287.578 122.447 239.669 111.003 244.54 49.558 184.727 133.585C159.762 137.192 134.392 139.673 109.292 140.962 95.334 141.677 81.171 142.04 67.195 142.04 52.545 142.04 37.751 141.642 23.042 140.853L32.7 127.336 12.188 97.565C12.886 77.353 13.578 57.141 14.27 36.929L16.295-22.17 0 0Z"/>
<path transform="matrix(1,0,0,-1,410.718,650.569)" d="M0 0C-66.644 0-114.021 58.334-116.006 60.817L-118.246 63.621-113.182 104.049C-113.633 103.961-114.087 103.894-114.543 103.847-115.059 103.795-115.569 103.769-116.076 103.769-120.918 103.769-125.724 106-129.973 110.222-136.687 116.913-140.459 127.042-139.59 136.038-138.787 144.258-134.011 153.051-127.703 157.925-124.092 160.712-120.263 162.124-116.317 162.124-115.463 162.124-114.602 162.055-113.757 161.918-112.19 161.667-110.665 161.185-109.205 160.496L-110.051 185.198C-110.773 206.325-111.497 227.452-112.228 248.579L-112.324 251.385-95.397 275.954-115.838 304.56-100.72 305.654C-80.635 307.106-60.248 307.843-40.125 307.843-25.86 307.843-11.404 307.473 2.843 306.742 29.076 305.396 55.596 302.773 81.665 298.947L88.832 297.896 91.239 127.089C109.161 124.128 120.066 117.623 124.477 107.308 128.573 97.721 126.563 85.126 118.665 70.883 102.434 41.615 62.553 8.341 17.733 1.372 11.875 .462 5.908 0 0 0" fill="#ffffff"/>
<path transform="matrix(1,0,0,-1,410.718,650.569)" stroke-width="1.259" stroke-linecap="butt" stroke-miterlimit="10" stroke-linejoin="miter" fill="none" stroke="#ffffff" d="M0 0C-66.644 0-114.021 58.334-116.006 60.817L-118.246 63.621-113.182 104.049C-113.633 103.961-114.087 103.894-114.543 103.847-115.059 103.795-115.569 103.769-116.076 103.769-120.918 103.769-125.724 106-129.973 110.222-136.687 116.913-140.459 127.042-139.59 136.038-138.787 144.258-134.011 153.051-127.703 157.925-124.092 160.712-120.263 162.124-116.317 162.124-115.463 162.124-114.602 162.055-113.757 161.918-112.19 161.667-110.665 161.185-109.205 160.496L-110.051 185.198C-110.773 206.325-111.497 227.452-112.228 248.579L-112.324 251.385-95.397 275.954-115.838 304.56-100.72 305.654C-80.635 307.106-60.248 307.843-40.125 307.843-25.86 307.843-11.404 307.473 2.843 306.742 29.076 305.396 55.596 302.773 81.665 298.947L88.832 297.896 91.239 127.089C109.161 124.128 120.066 117.623 124.477 107.308 128.573 97.721 126.563 85.126 118.665 70.883 102.434 41.615 62.553 8.341 17.733 1.372 11.875 .462 5.908 0 0 0Z"/>
<path transform="matrix(1,0,0,-1,294.3752,505.49867)" d="M0 0C-.174-.075-.495-.244-.964-.606-3.613-2.654-5.967-7.079-6.318-10.677-6.698-14.609-4.729-19.708-1.635-22.792-.904-23.517-.306-23.926 .078-24.134 .594-23.732 1.491-22.843 2.564-21.188 4.999-17.455 9.093-15.235 13.524-15.235H13.593C8.879-14.261 4.987-10.727 3.693-5.982 2.669-2.233 .759-.387 0 0M.261-50.352C-6.921-50.352-14.122-47.125-20.016-41.268-28.709-32.622-33.399-19.933-32.258-8.152-31.226 2.547-25.199 13.605-16.904 20.018-16.697 20.176-16.524 20.305-16.351 20.429-11.336 24.145-5.679 26.108 .018 26.108 1.35 26.108 2.694 26 4.015 25.788 11.24 24.636 17.892 20.376 22.728 13.797 25.512 9.992 27.571 5.643 28.859 .854 29.838-2.762 29.187-6.635 27.071-9.76 24.936-12.915 21.539-14.977 17.755-15.417L17.265-15.475H17.125C16.828-15.495 16.53-15.505 16.234-15.505H16.171C17.141-15.706 18.087-16.019 19.002-16.442 23.61-18.596 26.57-23.241 26.57-28.29 26.57-30.792 25.847-33.227 24.478-35.33 22.536-38.319 20.35-40.93 17.985-43.083 13.402-47.259 8.263-49.664 2.714-50.227 1.888-50.311 1.085-50.352 .261-50.352" fill="#ffffff"/>
<path transform="matrix(1,0,0,-1,294.3752,505.49867)" stroke-width="1" stroke-linecap="butt" stroke-miterlimit="10" stroke-linejoin="miter" fill="none" stroke="#ffffff" d="M0 0C-.174-.075-.495-.244-.964-.606-3.613-2.654-5.967-7.079-6.318-10.677-6.698-14.609-4.729-19.708-1.635-22.792-.904-23.517-.306-23.926 .078-24.134 .594-23.732 1.491-22.843 2.564-21.188 4.999-17.455 9.093-15.235 13.524-15.235H13.593C8.879-14.261 4.987-10.727 3.693-5.982 2.669-2.233 .759-.387 0 0ZM.261-50.352C-6.921-50.352-14.122-47.125-20.016-41.268-28.709-32.622-33.399-19.933-32.258-8.152-31.226 2.547-25.199 13.605-16.904 20.018-16.697 20.176-16.524 20.305-16.351 20.429-11.336 24.145-5.679 26.108 .018 26.108 1.35 26.108 2.694 26 4.015 25.788 11.24 24.636 17.892 20.376 22.728 13.797 25.512 9.992 27.571 5.643 28.859 .854 29.838-2.762 29.187-6.635 27.071-9.76 24.936-12.915 21.539-14.977 17.755-15.417L17.265-15.475H17.125C16.828-15.495 16.53-15.505 16.234-15.505H16.171C17.141-15.706 18.087-16.019 19.002-16.442 23.61-18.596 26.57-23.241 26.57-28.29 26.57-30.792 25.847-33.227 24.478-35.33 22.536-38.319 20.35-40.93 17.985-43.083 13.402-47.259 8.263-49.664 2.714-50.227 1.888-50.311 1.085-50.352 .261-50.352Z"/>
</g>
</g>
<path transform="matrix(1,0,0,-1,410.8078,650.5632)" d="M0 0C-66.676-.002-113.952 58.129-116.096 60.812L-118.336 63.615-111.449 118.561-94.576 116.419-100.552 68.753C-89.943 56.609-44.088 8.978 15.03 18.173 54.031 24.236 89.824 54.103 103.701 79.126 108.733 88.2 110.62 96.235 108.748 100.617 106.532 105.799 96.741 109.642 81.887 111.158L74.354 111.927 71.94 283.133C48.715 286.331 25.182 288.555 1.882 289.751-26.728 291.219-55.672 291.18-84.368 289.642L-74.71 276.125-95.223 246.354C-94.524 226.161-93.834 205.97-93.143 185.776L-91.697 143.483-108.695 142.921-110.141 185.195C-110.863 206.321-111.587 227.447-112.317 248.573L-112.414 251.379-95.487 275.948-115.928 304.554-100.81 305.648C-66.461 308.131-31.617 308.498 2.753 306.736 28.986 305.39 55.506 302.767 81.575 298.941L88.742 297.89 91.149 127.083C109.071 124.122 119.977 117.617 124.387 107.302 128.483 97.715 126.474 85.12 118.575 70.877 102.344 41.609 62.463 8.335 17.644 1.366 11.631 .432 5.741 0 0 0" fill="#ffffff"/>
<path transform="matrix(1,0,0,-1,410.8078,650.5632)" stroke-width="9.057" stroke-linecap="butt" stroke-miterlimit="10" stroke-linejoin="miter" fill="none" stroke="#ffffff" d="M0 0C-66.676-.002-113.952 58.129-116.096 60.812L-118.336 63.615-111.449 118.561-94.576 116.419-100.552 68.753C-89.943 56.609-44.088 8.978 15.03 18.173 54.031 24.236 89.824 54.103 103.701 79.126 108.733 88.2 110.62 96.235 108.748 100.617 106.532 105.799 96.741 109.642 81.887 111.158L74.354 111.927 71.94 283.133C48.715 286.331 25.182 288.555 1.882 289.751-26.728 291.219-55.672 291.18-84.368 289.642L-74.71 276.125-95.223 246.354C-94.524 226.161-93.834 205.97-93.143 185.776L-91.697 143.483-108.695 142.921-110.141 185.195C-110.863 206.321-111.587 227.447-112.317 248.573L-112.414 251.379-95.487 275.948-115.928 304.554-100.81 305.648C-66.461 308.131-31.617 308.498 2.753 306.736 28.986 305.39 55.506 302.767 81.575 298.941L88.742 297.89 91.149 127.083C109.071 124.122 119.977 117.617 124.387 107.302 128.483 97.715 126.474 85.12 118.575 70.877 102.344 41.609 62.463 8.335 17.644 1.366 11.631 .432 5.741 0 0 0Z"/>
<path transform="matrix(1,0,0,-1,276.6945,499.31117)" d="M0 0-1.64 4.365-41.968 111.503-24.054 120.315-53.61 165.384 36.387 234.115 306.152 179.547 272.713 162.828 314.281 119.984 266.372 108.54 271.243 47.095 208.157 135.709 221.946 145.667 222.417 145.015 249.427 107.071 248.267 121.702 281.27 129.585 244.334 167.653 254.367 172.67 40.578 215.915-30.708 161.475 .724 113.55-20.614 103.053 15.922 5.98Z" fill="#ffffff"/>
<path transform="matrix(1,0,0,-1,276.6945,499.31117)" stroke-width="9.057" stroke-linecap="butt" stroke-miterlimit="10" stroke-linejoin="miter" fill="none" stroke="#ffffff" d="M0 0-1.64 4.365-41.968 111.503-24.054 120.315-53.61 165.384 36.387 234.115 306.152 179.547 272.713 162.828 314.281 119.984 266.372 108.54 271.243 47.095 208.157 135.709 221.946 145.667 222.417 145.015 249.427 107.071 248.267 121.702 281.27 129.585 244.334 167.653 254.367 172.67 40.578 215.915-30.708 161.475 .724 113.55-20.614 103.053 15.922 5.98 0 0Z"/>
<path transform="matrix(1,0,0,-1,364.2248,526.1265)" d="M0 0C-17.382 0-31.522 14.141-31.522 31.522V123.148C-31.522 140.529-17.382 154.67 0 154.67H11.927C29.308 154.67 43.448 140.529 43.448 123.148V31.522C43.448 14.141 29.308 0 11.927 0Z" fill="#ffffff"/>
<path transform="matrix(1,0,0,-1,364.2248,526.1265)" stroke-width="9.057" stroke-linecap="butt" stroke-miterlimit="10" stroke-linejoin="miter" fill="none" stroke="#ffffff" d="M0 0C-17.382 0-31.522 14.141-31.522 31.522V123.148C-31.522 140.529-17.382 154.67 0 154.67H11.927C29.308 154.67 43.448 140.529 43.448 123.148V31.522C43.448 14.141 29.308 0 11.927 0H0Z"/>
<path transform="matrix(1,0,0,-1,400.591,566.6188)" d="M0 0V21.537H49.965C50.369 21.537 50.699 21.67 50.974 21.946 51.304 22.275 51.438 22.62 51.423 23.058 51.398 23.788 50.555 24.454 49.652 24.454H0V45.99H49.595C62.373 45.99 72.854 35.761 72.959 23.188 73.011 16.963 70.614 11.117 66.211 6.729 61.896 2.397 56.118 0 49.965 0Z" fill="#ffffff"/>
<path transform="matrix(1,0,0,-1,400.591,566.6188)" stroke-width="1.259" stroke-linecap="butt" stroke-miterlimit="10" stroke-linejoin="miter" fill="none" stroke="#ffffff" d="M0 0V21.537H49.965C50.369 21.537 50.699 21.67 50.974 21.946 51.304 22.275 51.438 22.62 51.423 23.058 51.398 23.788 50.555 24.454 49.652 24.454H0V45.99H49.595C62.373 45.99 72.854 35.761 72.959 23.188 73.011 16.963 70.614 11.117 66.211 6.729 61.896 2.397 56.118 0 49.965 0H0Z"/>
<path transform="matrix(1,0,0,-1,409.0949,571.14706)" d="M0 0C-7.186 0-13.032 5.847-13.032 13.032-13.032 20.218-7.186 26.065 0 26.065H41.461C41.865 26.065 42.195 26.199 42.47 26.475 42.8 26.804 42.934 27.148 42.919 27.586 42.895 28.316 42.051 28.982 41.148 28.982H0C-7.186 28.982-13.032 34.828-13.032 42.014-13.032 49.2-7.186 55.046 0 55.046H40.966C48.394 55.046 55.688 51.993 60.979 46.667 66.188 41.425 69.03 34.561 68.983 27.341 68.937 20.052 66.068 13.202 60.907 8.054 55.733 2.865 48.821 0 41.461 0Z" fill="#ffffff"/>
<path transform="matrix(1,0,0,-1,409.0949,571.14706)" stroke-width="1" stroke-linecap="butt" stroke-miterlimit="10" stroke-linejoin="miter" fill="none" stroke="#ffffff" d="M0 0C-7.186 0-13.032 5.847-13.032 13.032-13.032 20.218-7.186 26.065 0 26.065H41.461C41.865 26.065 42.195 26.199 42.47 26.475 42.8 26.804 42.934 27.148 42.919 27.586 42.895 28.316 42.051 28.982 41.148 28.982H0C-7.186 28.982-13.032 34.828-13.032 42.014-13.032 49.2-7.186 55.046 0 55.046H40.966C48.394 55.046 55.688 51.993 60.979 46.667 66.188 41.425 69.03 34.561 68.983 27.341 68.937 20.052 66.068 13.202 60.907 8.054 55.733 2.865 48.821 0 41.461 0H0Z"/>
<path transform="matrix(1,0,0,-1,439.0939,526.1265)" d="M0 0C-17.382 0-31.522 14.141-31.522 31.522V123.148C-31.522 140.529-17.382 154.67 0 154.67H11.926C29.308 154.67 43.448 140.529 43.448 123.148V31.522C43.448 14.141 29.308 0 11.926 0Z" fill="#ffffff"/>
<path transform="matrix(1,0,0,-1,439.0939,526.1265)" stroke-width="9.057" stroke-linecap="butt" stroke-miterlimit="10" stroke-linejoin="miter" fill="none" stroke="#ffffff" d="M0 0C-17.382 0-31.522 14.141-31.522 31.522V123.148C-31.522 140.529-17.382 154.67 0 154.67H11.926C29.308 154.67 43.448 140.529 43.448 123.148V31.522C43.448 14.141 29.308 0 11.926 0H0Z"/>
<path transform="matrix(1,0,0,-1,374.0314,526.1265)" d="M0 0C-13.819 0-25.062 11.243-25.062 25.062V90.975C-25.062 104.794-13.819 116.038 0 116.038H8.579C22.398 116.038 33.642 104.794 33.642 90.975V25.062C33.642 11.243 22.398 0 8.579 0Z" fill="#ffffff"/>
<path transform="matrix(1,0,0,-1,374.0314,526.1265)" stroke-width="1" stroke-linecap="butt" stroke-miterlimit="10" stroke-linejoin="miter" fill="none" stroke="#ffffff" d="M0 0C-13.819 0-25.062 11.243-25.062 25.062V90.975C-25.062 104.794-13.819 116.038 0 116.038H8.579C22.398 116.038 33.642 104.794 33.642 90.975V25.062C33.642 11.243 22.398 0 8.579 0H0Z"/>
<path transform="matrix(1,0,0,-1,447.258,526.1265)" d="M0 0C-13.819 0-25.062 11.243-25.062 25.062V90.975C-25.062 104.794-13.819 116.038 0 116.038H8.58C22.399 116.038 33.643 104.794 33.643 90.975V25.062C33.643 11.243 22.399 0 8.58 0Z" fill="#ffffff"/>
<path transform="matrix(1,0,0,-1,447.258,526.1265)" stroke-width="1" stroke-linecap="butt" stroke-miterlimit="10" stroke-linejoin="miter" fill="none" stroke="#ffffff" d="M0 0C-13.819 0-25.062 11.243-25.062 25.062V90.975C-25.062 104.794-13.819 116.038 0 116.038H8.58C22.399 116.038 33.643 104.794 33.643 90.975V25.062C33.643 11.243 22.399 0 8.58 0H0Z"/>
<path transform="matrix(1,0,0,-1,436.5422,605.0837)" d="M0 0C-20.359 0-40.032 4.201-58.472 12.485-83.242 23.614-99.948 39.762-109.601 51.348-111.846 54.044-112.915 57.592-112.534 61.083-112.151 64.582-110.335 67.826-107.551 69.981-105.278 71.74-102.448 72.708-99.58 72.708-95.698 72.708-92.045 70.996-89.558 68.011-81.669 58.543-68.019 45.349-47.79 36.261-32.729 29.495-16.653 26.064-.008 26.064 1.899 26.064 3.826 26.111 5.719 26.205 5.935 26.215 6.15 26.221 6.364 26.221 12.764 26.221 18.07 21.71 19.181 15.54L19.26 15.305 19.347 14.294C19.646 10.786 18.488 7.254 16.171 4.603 13.862 1.961 10.53 .347 7.031 .174 4.706 .059 2.341 0 0 0" fill="#ffffff"/>
<path transform="matrix(1,0,0,-1,436.5422,605.0837)" stroke-width="1" stroke-linecap="butt" stroke-miterlimit="10" stroke-linejoin="miter" fill="none" stroke="#ffffff" d="M0 0C-20.359 0-40.032 4.201-58.472 12.485-83.242 23.614-99.948 39.762-109.601 51.348-111.846 54.044-112.915 57.592-112.534 61.083-112.151 64.582-110.335 67.826-107.551 69.981-105.278 71.74-102.448 72.708-99.58 72.708-95.698 72.708-92.045 70.996-89.558 68.011-81.669 58.543-68.019 45.349-47.79 36.261-32.729 29.495-16.653 26.064-.008 26.064 1.899 26.064 3.826 26.111 5.719 26.205 5.935 26.215 6.15 26.221 6.364 26.221 12.764 26.221 18.07 21.71 19.181 15.54L19.26 15.305 19.347 14.294C19.646 10.786 18.488 7.254 16.171 4.603 13.862 1.961 10.53 .347 7.031 .174 4.706 .059 2.341 0 0 0Z"/>
<path transform="matrix(1,0,0,-1,378.9894,610.21749)" d="M0 0C-3.424 0-6.812 .299-10.126 .907-21.877 3.064-31.439 8.858-37.051 17.224-47.813 33.269-40.772 53.735-38.358 59.626L-22.62 53.177C-23.322 51.465-29.289 36.184-22.926 26.698-19.937 22.241-14.151 18.938-7.056 17.636 4.78 15.46 18.199 18.921 29.76 27.12L39.6 13.247C27.422 4.61 13.438 0 0 0" fill="#ffffff"/>
<path transform="matrix(1,0,0,-1,378.9894,610.21749)" stroke-width="9.057" stroke-linecap="butt" stroke-miterlimit="10" stroke-linejoin="miter" fill="none" stroke="#ffffff" d="M0 0C-3.424 0-6.812 .299-10.126 .907-21.877 3.064-31.439 8.858-37.051 17.224-47.813 33.269-40.772 53.735-38.358 59.626L-22.62 53.177C-23.322 51.465-29.289 36.184-22.926 26.698-19.937 22.241-14.151 18.938-7.056 17.636 4.78 15.46 18.199 18.921 29.76 27.12L39.6 13.247C27.422 4.61 13.438 0 0 0Z"/>
<path transform="matrix(1,0,0,-1,350.6057,606.94699)" d="M0 0-9.287 22.814-3.655 26.692C.49 29.547 5.515 31.119 10.493 31.119 10.763 31.119 11.036 31.115 11.312 31.105 16.503 30.934 20.669 29.163 23.662 27.292 25.21 27.654 26.795 27.84 28.384 27.84 33.202 27.84 37.788 26.142 41.297 23.058 46.684 18.321 48.19 11.42 47.805 6.54L47.164-1.558Z" fill="#ffffff"/>
<path transform="matrix(1,0,0,-1,350.6057,606.94699)" stroke-width="1" stroke-linecap="butt" stroke-miterlimit="10" stroke-linejoin="miter" fill="none" stroke="#ffffff" d="M0 0-9.287 22.814-3.655 26.692C.49 29.547 5.515 31.119 10.493 31.119 10.763 31.119 11.036 31.115 11.312 31.105 16.503 30.934 20.669 29.163 23.662 27.292 25.21 27.654 26.795 27.84 28.384 27.84 33.202 27.84 37.788 26.142 41.297 23.058 46.684 18.321 48.19 11.42 47.805 6.54L47.164-1.558 0 0Z"/>
<path transform="matrix(1,0,0,-1,398.4269,875.95968)" d="M0 0-16.934 1.58-2.327 158.068 14.606 156.488Z" fill="#ffffff"/>
<path transform="matrix(1,0,0,-1,398.4269,875.95968)" stroke-width="9.057" stroke-linecap="butt" stroke-miterlimit="10" stroke-linejoin="miter" fill="none" stroke="#ffffff" d="M0 0-16.934 1.58-2.327 158.068 14.606 156.488 0 0Z"/>
<path transform="matrix(1,0,0,-1,483.7189,769.52896)" d="M0 0-52.604 6.921-45.441 58.34-28.596 55.994-33.395 21.548-11.984 18.73-1.683 51.852 14.558 46.799Z" fill="#ffffff"/>
<path transform="matrix(1,0,0,-1,483.7189,769.52896)" stroke-width="9.057" stroke-linecap="butt" stroke-miterlimit="10" stroke-linejoin="miter" fill="none" stroke="#ffffff" d="M0 0-52.604 6.921-45.441 58.34-28.596 55.994-33.395 21.548-11.984 18.73-1.683 51.852 14.558 46.799 0 0Z"/>
<path transform="matrix(1,0,0,-1,428.8215,722.84347)" d="M0 0 14.366 27.611 74.86 17.985 74.098-15.97Z" fill="#ffffff"/>
<path transform="matrix(1,0,0,-1,428.8215,722.84347)" stroke-width="9.057" stroke-linecap="butt" stroke-miterlimit="10" stroke-linejoin="miter" fill="none" stroke="#ffffff" d="M0 0 14.366 27.611 74.86 17.985 74.098-15.97 0 0Z"/>
<path transform="matrix(1,0,0,-1,321.0392,762.90689)" d="M0 0-13.854 44.534 2.387 49.585 11.984 18.731 31.295 21.272 26.835 53.283 43.681 55.629 50.505 6.646Z" fill="#ffffff"/>
<path transform="matrix(1,0,0,-1,321.0392,762.90689)" stroke-width="9.057" stroke-linecap="butt" stroke-miterlimit="10" stroke-linejoin="miter" fill="none" stroke="#ffffff" d="M0 0-13.854 44.534 2.387 49.585 11.984 18.731 31.295 21.272 26.835 53.283 43.681 55.629 50.505 6.646 0 0Z"/>
<path transform="matrix(1,0,0,-1,302.0578,700.9607)" d="M0 0 57.82 9.199 71.821-17.715 .74-33.034Z" fill="#ffffff"/>
<path transform="matrix(1,0,0,-1,302.0578,700.9607)" stroke-width="9.057" stroke-linecap="butt" stroke-miterlimit="10" stroke-linejoin="miter" fill="none" stroke="#ffffff" d="M0 0 57.82 9.199 71.821-17.715 .74-33.034 0 0Z"/>
<path transform="matrix(1,0,0,-1,286.2023,739.07876)" d="M0 0C-.445 0-.89 .018-1.336 .054L-67.903 6.26-69.116 6.772C-74.929 9.231-79.221 13.943-81.2 20.039-83.137 26.003-82.495 32.546-79.484 37.541-76.527 42.444-71.389 45.816-65.555 46.849-63.655 53.863-59.491 63.7-50.398 71.55-42.624 78.261-33.075 81.956-23.51 81.956-19.294 81.956-15.223 81.233-11.409 79.807 1.282 75.061 6.817 64.059 8.901 59.917 14.206 49.375 14.709 38.553 14.124 31.068 18.144 26.457 19.58 19.668 17.441 13.188 14.88 5.424 7.708 0 0 0" fill="#ffffff"/>
<path transform="matrix(1,0,0,-1,286.2023,739.07876)" stroke-width="9.057" stroke-linecap="butt" stroke-miterlimit="10" stroke-linejoin="miter" fill="none" stroke="#ffffff" d="M0 0C-.445 0-.89 .018-1.336 .054L-67.903 6.26-69.116 6.772C-74.929 9.231-79.221 13.943-81.2 20.039-83.137 26.003-82.495 32.546-79.484 37.541-76.527 42.444-71.389 45.816-65.555 46.849-63.655 53.863-59.491 63.7-50.398 71.55-42.624 78.261-33.075 81.956-23.51 81.956-19.294 81.956-15.223 81.233-11.409 79.807 1.282 75.061 6.817 64.059 8.901 59.917 14.206 49.375 14.709 38.553 14.124 31.068 18.144 26.457 19.58 19.668 17.441 13.188 14.88 5.424 7.708 0 0 0Z"/>
<path transform="matrix(1,0,0,-1,566.6108,840.4419)" d="M0 0C-3.349 1.875-6.735 3.97-10.09 6.173-13.434 8.457-16.775 10.811-19.985 13.461-23.703 16.474-27.307 19.719-30.665 23.209-34.066 26.659-37.196 30.357-40.13 34.17-45.989 41.804-50.926 50.147-54.826 58.841-58.734 67.538-61.619 76.571-63.607 85.682-64.58 90.241-65.366 94.82-65.882 99.411-66.425 103.999-66.76 108.599-66.865 113.196L-19.064 114.363C-18.994 111.215-18.76 108.079-18.391 104.975-18.048 101.864-17.51 98.799-16.869 95.778-15.546 89.747-13.676 83.932-11.224 78.47-8.775 73.006-5.744 67.898-2.146 63.215-.344 60.882 1.541 58.631 3.601 56.558 5.621 54.444 7.804 52.488 10.114 50.615 12.081 48.97 14.251 47.466 16.442 45.952 18.704 44.48 21.018 43.029 23.517 41.633Z" fill="#ffffff"/>
<path transform="matrix(1,0,0,-1,566.6108,840.4419)" stroke-width="9.962" stroke-linecap="butt" stroke-miterlimit="10" stroke-linejoin="miter" fill="none" stroke="#643d92" d="M0 0C-3.349 1.875-6.735 3.97-10.09 6.173-13.434 8.457-16.775 10.811-19.985 13.461-23.703 16.474-27.307 19.719-30.665 23.209-34.066 26.659-37.196 30.357-40.13 34.17-45.989 41.804-50.926 50.147-54.826 58.841-58.734 67.538-61.619 76.571-63.607 85.682-64.58 90.241-65.366 94.82-65.882 99.411-66.425 103.999-66.76 108.599-66.865 113.196L-19.064 114.363C-18.994 111.215-18.76 108.079-18.391 104.975-18.048 101.864-17.51 98.799-16.869 95.778-15.546 89.747-13.676 83.932-11.224 78.47-8.775 73.006-5.744 67.898-2.146 63.215-.344 60.882 1.541 58.631 3.601 56.558 5.621 54.444 7.804 52.488 10.114 50.615 12.081 48.97 14.251 47.466 16.442 45.952 18.704 44.48 21.018 43.029 23.517 41.633L0 0Z"/>
<path transform="matrix(1,0,0,-1,655.6198,807.0532)" d="M0 0C-1.917 5.245-6.654 8.116-11.512 10.056-16.375 11.956-21.443 12.965-24.006 13.53-25.785 13.931-31.594 15.219-39.345 15.359-40.31 15.391-41.309 15.403-42.345 15.379-42.863 15.367-43.389 15.347-43.924 15.319-44.481 15.303-45.171 15.354-45.798 15.354-46.438 15.362-47.096 15.366-47.738 15.35-48.364 15.328-48.996 15.296-49.632 15.252-50.928 15.171-52.158 15.02-53.421 14.824-58.451 14.03-63.415 12.383-68.615 9.744-71.522 8.261-74.106 6.647-76.41 4.982-78.726 3.308-80.719 1.613-82.41-.017-85.803-3.27-87.914-6.269-88.887-7.745-90.581-10.3-92.883-13.688-94.199-17.969-94.855-20.123-95.245-22.472-95.144-25.053-95.043-27.658-94.447-30.434-93.125-33.427-92.33-35.213-91.422-36.518-90.376-37.654-89.35-38.744-88.171-39.684-86.847-40.684-84.217-42.677-80.859-45.034-76.911-49.766-76.622-50.099-76.41-50.402-76.087-50.744-75.782-51.082-75.484-51.412-75.192-51.735-74.615-52.384-74.078-53.009-73.574-53.612-72.565-54.815-71.705-55.953-70.92-56.959-69.359-58.994-68.21-60.748-67.138-62.289-64.967-65.31-63.164-67.624-58.83-69.683-56.365-70.897-53.576-71.681-50.797-72.205-47.997-72.664-45.203-72.849-42.639-72.635-41.359-72.539-40.145-72.374-39.024-72.133-37.899-71.876-36.87-71.551-35.964-71.163-34.15-70.385-32.836-69.365-32.221-68.108-30.861-65.338-32.766-61.227-37.07-56.588-41.386-51.936-48.052-46.689-56.463-41.182-55.264-41.006-53.672-40.858-51.783-40.839-49.88-40.789-47.715-40.961-45.322-41.365-36.971-42.829-30.8-47.214-24.819-51.046-18.893-54.857-13.213-58.068-7.263-56.669-2.627-55.55-.687-52.333-.201-51.438 2.372-46.625-.382-40.17-6.113-34.473-5.768-34.316-3.898-33.446-2.075-31.689-.248-29.956 1.5-27.337 1.782-23.867 2.192-18.491-.889-14.637-1.536-13.812 .079-10.616 1.88-5.118 0 0" fill="#ffffff"/>
<path transform="matrix(1,0,0,-1,655.6198,807.0532)" stroke-width="9.962" stroke-linecap="butt" stroke-miterlimit="10" stroke-linejoin="miter" fill="none" stroke="#643d92" d="M0 0C-1.917 5.245-6.654 8.116-11.512 10.056-16.375 11.956-21.443 12.965-24.006 13.53-25.785 13.931-31.594 15.219-39.345 15.359-40.31 15.391-41.309 15.403-42.345 15.379-42.863 15.367-43.389 15.347-43.924 15.319-44.481 15.303-45.171 15.354-45.798 15.354-46.438 15.362-47.096 15.366-47.738 15.35-48.364 15.328-48.996 15.296-49.632 15.252-50.928 15.171-52.158 15.02-53.421 14.824-58.451 14.03-63.415 12.383-68.615 9.744-71.522 8.261-74.106 6.647-76.41 4.982-78.726 3.308-80.719 1.613-82.41-.017-85.803-3.27-87.914-6.269-88.887-7.745-90.581-10.3-92.883-13.688-94.199-17.969-94.855-20.123-95.245-22.472-95.144-25.053-95.043-27.658-94.447-30.434-93.125-33.427-92.33-35.213-91.422-36.518-90.376-37.654-89.35-38.744-88.171-39.684-86.847-40.684-84.217-42.677-80.859-45.034-76.911-49.766-76.622-50.099-76.41-50.402-76.087-50.744-75.782-51.082-75.484-51.412-75.192-51.735-74.615-52.384-74.078-53.009-73.574-53.612-72.565-54.815-71.705-55.953-70.92-56.959-69.359-58.994-68.21-60.748-67.138-62.289-64.967-65.31-63.164-67.624-58.83-69.683-56.365-70.897-53.576-71.681-50.797-72.205-47.997-72.664-45.203-72.849-42.639-72.635-41.359-72.539-40.145-72.374-39.024-72.133-37.899-71.876-36.87-71.551-35.964-71.163-34.15-70.385-32.836-69.365-32.221-68.108-30.861-65.338-32.766-61.227-37.07-56.588-41.386-51.936-48.052-46.689-56.463-41.182-55.264-41.006-53.672-40.858-51.783-40.839-49.88-40.789-47.715-40.961-45.322-41.365-36.971-42.829-30.8-47.214-24.819-51.046-18.893-54.857-13.213-58.068-7.263-56.669-2.627-55.55-.687-52.333-.201-51.438 2.372-46.625-.382-40.17-6.113-34.473-5.768-34.316-3.898-33.446-2.075-31.689-.248-29.956 1.5-27.337 1.782-23.867 2.192-18.491-.889-14.637-1.536-13.812 .079-10.616 1.88-5.118 0 0Z"/>
<path transform="matrix(1,0,0,-1,649.5068,841.52658)" stroke-width="9.962" stroke-linecap="butt" stroke-miterlimit="10" stroke-linejoin="miter" fill="none" stroke="#643d92" d="M0 0C-2.272 1.292-5.456 3.032-9.383 4.701-13.317 6.371-17.969 8.053-23.347 9.295-28.311 10.455-32.722 10.958-36.265 11.227"/>
<path transform="matrix(1,0,0,-1,656.3622,821.89419)" stroke-width="9.962" stroke-linecap="butt" stroke-miterlimit="10" stroke-linejoin="miter" fill="none" stroke="#643d92" d="M0 0C-1.958 1.155-4.778 2.717-8.291 4.208-11.805 5.725-15.998 7.191-20.865 8.222-27.42 9.593-33.043 9.743-36.957 9.644"/>
<path transform="matrix(1,0,0,-1,606.7806,847.97537)" stroke-width="9.962" stroke-linecap="butt" stroke-miterlimit="10" stroke-linejoin="miter" fill="none" stroke="#643d92" d="M0 0C-2.346 .535-6.432 1.282-11.222 .871-14.275 .612-16.68-.082-18.324-.657"/>
<path transform="matrix(1,0,0,-1,557.8273,735.1389)" d="M0 0C-18.892-4.369-37.784-8.738-56.677-13.107-64.246-12.568-68.694-5.267-67.469 .298-66.561 4.425-62.47 7.886-57.475 8.287-57.926 10.159-60.684 22.462-53.72 34.051-48.376 42.944-39.188 48.285-30.015 48.009-20.908 47.735-14.883 42.017-12.204 39.474-3.669 31.374-1.311 20.873-.629 17.068 3.271 16.664 6.247 13.066 6.309 8.774 6.368 4.638 3.707 .903 0 0" fill="#ffffff"/>
<path transform="matrix(1,0,0,-1,557.8273,735.1389)" stroke-width="9.057" stroke-linecap="butt" stroke-miterlimit="10" stroke-linejoin="miter" fill="none" stroke="#643d92" d="M0 0C-18.892-4.369-37.784-8.738-56.677-13.107-64.246-12.568-68.694-5.267-67.469 .298-66.561 4.425-62.47 7.886-57.475 8.287-57.926 10.159-60.684 22.462-53.72 34.051-48.376 42.944-39.188 48.285-30.015 48.009-20.908 47.735-14.883 42.017-12.204 39.474-3.669 31.374-1.311 20.873-.629 17.068 3.271 16.664 6.247 13.066 6.309 8.774 6.368 4.638 3.707 .903 0 0Z"/>
<path transform="matrix(1,0,0,-1,500.6045,883.9159)" d="M0 0C-67.892 5.367-135.783 10.734-203.675 16.101-197.771 31.62-186.263 68.204-194.82 113.913-204.613 166.222-234.746 198.752-246.342 210.116-229.414 221.017-177.9 251.108-106.26 247.147-34.546 243.182 13.371 207.523 28.981 194.82 18.228 169.618 6.307 134.357 .805 90.97-3.722 55.274-2.624 24.167 0 0" fill="#ffffff"/>
<path transform="matrix(1,0,0,-1,500.6045,883.9159)" stroke-width="9.057" stroke-linecap="butt" stroke-miterlimit="10" stroke-linejoin="miter" fill="none" stroke="#643d92" d="M0 0C-67.892 5.367-135.783 10.734-203.675 16.101-197.771 31.62-186.263 68.204-194.82 113.913-204.613 166.222-234.746 198.752-246.342 210.116-229.414 221.017-177.9 251.108-106.26 247.147-34.546 243.182 13.371 207.523 28.981 194.82 18.228 169.618 6.307 134.357 .805 90.97-3.722 55.274-2.624 24.167 0 0Z"/>
<path transform="matrix(1,0,0,-1,417.1752,635.86557)" d="M0 0C.767-16.06-10.302-29.273-23.057-31.095-38.104-33.244-54.842-19.446-54.517 0V99.624H0Z" fill="#ffffff"/>
<path transform="matrix(1,0,0,-1,417.1752,635.86557)" stroke-width="9.057" stroke-linecap="butt" stroke-miterlimit="10" stroke-linejoin="miter" fill="none" stroke="#643d92" d="M0 0C.767-16.06-10.302-29.273-23.057-31.095-38.104-33.244-54.842-19.446-54.517 0V99.624H0V0Z"/>
<path transform="matrix(1,0,0,-1,231.3982,820.72109)" d="M0 0C-.761 1.822-1.31 3.722-1.923 5.598L-3.709 11.246C-3.854 11.718-4.01 12.186-4.144 12.661L-4.501 14.096-5.207 16.969-6.595 22.722C-6.85 23.703-7.027 24.699-7.204 25.695L-7.744 28.683C-8.104 30.674-8.47 32.665-8.696 34.678L-9.451 40.704-9.932 46.756C-10.433 54.832-10.394 62.931-9.775 70.965-8.483 87.038-4.994 102.78 .628 117.883L45.421 101.149C41.37 90.28 38.817 78.751 37.892 67.195 37.452 61.411 37.433 55.617 37.783 49.854L38.12 45.537 38.667 41.244C38.813 39.807 39.089 38.39 39.349 36.97L39.729 34.839C39.851 34.128 39.97 33.415 40.164 32.72L41.166 28.627 41.658 26.578 41.901 25.553C41.997 25.215 42.114 24.884 42.219 24.549L43.499 20.539C43.933 19.205 44.294 17.845 44.858 16.556Z" fill="#ffffff"/>
<path transform="matrix(1,0,0,-1,231.3982,820.72109)" stroke-width="9.057" stroke-linecap="butt" stroke-miterlimit="10" stroke-linejoin="miter" fill="none" stroke="#643d92" d="M0 0C-.761 1.822-1.31 3.722-1.923 5.598L-3.709 11.246C-3.854 11.718-4.01 12.186-4.144 12.661L-4.501 14.096-5.207 16.969-6.595 22.722C-6.85 23.703-7.027 24.699-7.204 25.695L-7.744 28.683C-8.104 30.674-8.47 32.665-8.696 34.678L-9.451 40.704-9.932 46.756C-10.433 54.832-10.394 62.931-9.775 70.965-8.483 87.038-4.994 102.78 .628 117.883L45.421 101.149C41.37 90.28 38.817 78.751 37.892 67.195 37.452 61.411 37.433 55.617 37.783 49.854L38.12 45.537 38.667 41.244C38.813 39.807 39.089 38.39 39.349 36.97L39.729 34.839C39.851 34.128 39.97 33.415 40.164 32.72L41.166 28.627 41.658 26.578 41.901 25.553C41.997 25.215 42.114 24.884 42.219 24.549L43.499 20.539C43.933 19.205 44.294 17.845 44.858 16.556L0 0Z"/>
<path transform="matrix(1,0,0,-1,276.8244,900.0332)" d="M0 0C-6.276-1.197-14.245 3.119-20.857 9.001-27.556 14.813-32.682 22.242-35.166 25.945-36.067 27.185-37.837 30.083-39.922 34.074-40.995 36.042-42.006 38.398-43.014 40.952-44.016 43.509-45.042 46.246-45.761 49.259-46.142 50.75-46.495 52.275-46.808 53.824-47.117 55.376-47.419 56.932-47.555 58.57-47.88 61.815-48.006 65.111-47.862 68.361-47.292 74.999-45.801 81.383-42.289 87.049-38.499 93.325-33.815 96.879-29.572 99.134-25.375 101.358-21.813 102.23-20.097 102.653-17.12 103.379-13.132 104.312-8.763 104.401-7.671 104.425-6.556 104.399-5.43 104.31-4.283 104.226-3.102 104.086-1.923 103.87 .438 103.44 2.828 102.719 5.149 101.612 7.891 100.259 9.036 98.907 10.324 97.012 10.651 96.546 10.996 96.052 11.374 95.511 11.758 94.98 12.176 94.413 12.762 93.851 13.888 92.711 15.341 91.45 17.336 90.122 22.008 87.32 25.259 86.628 28.008 86.127 30.705 85.615 32.539 85.163 34.496 83.279 35.039 82.732 35.514 82.116 35.924 81.443 36.319 80.762 36.757 80.087 37.072 79.337 37.742 77.862 38.097 76.178 38.371 74.575 38.608 72.95 38.583 71.284 38.305 69.763 38.058 68.27 37.527 66.9 36.66 65.84 34.759 63.507 30.837 62.307 25.792 63.193 20.708 64.015 14.474 66.988 8.624 72.669 8.561 71.645 8.502 70.245 8.727 68.658 8.98 67.09 9.455 65.295 10.296 63.418 10.649 62.583 11.097 61.828 11.588 61.123 12.073 60.414 12.591 59.747 13.136 59.12 13.681 58.492 14.252 57.904 14.842 57.351 15.459 56.819 16.104 56.329 16.755 55.865 18.072 54.949 19.387 54.115 20.785 53.434 22.186 52.755 23.581 52.154 24.927 51.583 30.423 49.365 35.202 47.904 37.158 43.389 38.715 39.894 37.717 36.422 37.399 35.474 36.549 32.952 34.673 30.842 31.938 29.426 30.568 28.712 28.989 28.182 27.243 27.884 25.493 27.58 23.548 27.472 21.511 27.663 21.623 27.29 22.205 25.269 22.296 22.692 22.357 20.096 21.942 16.9 19.732 14.215 16.293 9.996 10.597 10.202 9.311 10.312 8.286 6.802 6.134 1.191 0 0" fill="#ffffff"/>
<path transform="matrix(1,0,0,-1,276.8244,900.0332)" stroke-width="9.057" stroke-linecap="butt" stroke-miterlimit="10" stroke-linejoin="miter" fill="none" stroke="#643d92" d="M0 0C-6.276-1.197-14.245 3.119-20.857 9.001-27.556 14.813-32.682 22.242-35.166 25.945-36.067 27.185-37.837 30.083-39.922 34.074-40.995 36.042-42.006 38.398-43.014 40.952-44.016 43.509-45.042 46.246-45.761 49.259-46.142 50.75-46.495 52.275-46.808 53.824-47.117 55.376-47.419 56.932-47.555 58.57-47.88 61.815-48.006 65.111-47.862 68.361-47.292 74.999-45.801 81.383-42.289 87.049-38.499 93.325-33.815 96.879-29.572 99.134-25.375 101.358-21.813 102.23-20.097 102.653-17.12 103.379-13.132 104.312-8.763 104.401-7.671 104.425-6.556 104.399-5.43 104.31-4.283 104.226-3.102 104.086-1.923 103.87 .438 103.44 2.828 102.719 5.149 101.612 7.891 100.259 9.036 98.907 10.324 97.012 10.651 96.546 10.996 96.052 11.374 95.511 11.758 94.98 12.176 94.413 12.762 93.851 13.888 92.711 15.341 91.45 17.336 90.122 22.008 87.32 25.259 86.628 28.008 86.127 30.705 85.615 32.539 85.163 34.496 83.279 35.039 82.732 35.514 82.116 35.924 81.443 36.319 80.762 36.757 80.087 37.072 79.337 37.742 77.862 38.097 76.178 38.371 74.575 38.608 72.95 38.583 71.284 38.305 69.763 38.058 68.27 37.527 66.9 36.66 65.84 34.759 63.507 30.837 62.307 25.792 63.193 20.708 64.015 14.474 66.988 8.624 72.669 8.561 71.645 8.502 70.245 8.727 68.658 8.98 67.09 9.455 65.295 10.296 63.418 10.649 62.583 11.097 61.828 11.588 61.123 12.073 60.414 12.591 59.747 13.136 59.12 13.681 58.492 14.252 57.904 14.842 57.351 15.459 56.819 16.104 56.329 16.755 55.865 18.072 54.949 19.387 54.115 20.785 53.434 22.186 52.755 23.581 52.154 24.927 51.583 30.423 49.365 35.202 47.904 37.158 43.389 38.715 39.894 37.717 36.422 37.399 35.474 36.549 32.952 34.673 30.842 31.938 29.426 30.568 28.712 28.989 28.182 27.243 27.884 25.493 27.58 23.548 27.472 21.511 27.663 21.623 27.29 22.205 25.269 22.296 22.692 22.357 20.096 21.942 16.9 19.732 14.215 16.293 9.996 10.597 10.202 9.311 10.312 8.286 6.802 6.134 1.191 0 0Z"/>
<path transform="matrix(1,0,0,-1,298.335,872.3701)" stroke-width="9.057" stroke-linecap="butt" stroke-miterlimit="10" stroke-linejoin="miter" fill="none" stroke="#643d92" d="M0 0C-1.25 .457-2.778 1.014-4.407 1.836-6.045 2.646-7.899 3.602-9.758 4.881-10.698 5.509-11.665 6.191-12.649 6.932-13.62 7.685-14.572 8.53-15.549 9.417-17.529 11.169-19.394 13.292-21.207 15.652-24.501 20.065-26.55 24.369-27.743 27.903"/>
<path transform="matrix(1,0,0,-1,289.0457,891.14956)" stroke-width="9.057" stroke-linecap="butt" stroke-miterlimit="10" stroke-linejoin="miter" fill="none" stroke="#643d92" d="M0 0C-1.339 .512-3 1.157-4.805 2.067-5.715 2.515-6.681 3.014-7.694 3.569-8.702 4.127-9.721 4.772-10.795 5.461-15.099 8.201-19.775 12.142-24.153 17.382-25.588 19.182-26.877 20.956-28.028 22.669-29.159 24.402-30.089 26.133-30.936 27.741-32.66 30.934-33.681 33.944-34.467 36.313"/>
<path transform="matrix(1,0,0,-1,286.0917,833.7943)" stroke-width="9.057" stroke-linecap="butt" stroke-miterlimit="10" stroke-linejoin="miter" fill="none" stroke="#643d92" d="M0 0C-.224 .448-.474 .986-.725 1.604-.85 1.912-.976 2.241-1.098 2.588-1.202 2.945-1.301 3.322-1.394 3.715-1.764 5.29-2.017 7.14-1.934 9.154-1.906 10.424-1.633 11.618-1.357 12.632-1.072 13.652-.736 14.519-.416 15.226"/>
<path transform="matrix(1,0,0,-1,312.0238,585.8497)" d="M0 0H-1.409Z" fill="#1b1c1c"/>
<path transform="matrix(1,0,0,-1,312.0238,585.8497)" stroke-width="1.259" stroke-linecap="butt" stroke-miterlimit="10" stroke-linejoin="miter" fill="none" stroke="#643d92" d="M0 0H-1.409 0Z"/>
<path transform="matrix(1,0,0,-1,364.016,634.62167)" stroke-width="9.057" stroke-linecap="butt" stroke-miterlimit="10" stroke-linejoin="miter" fill="none" stroke="#643d92" d="M0 0C-1.938-1.032-13.492-7.395-15.141-18.588-17.085-31.783-4.698-47.846 16.068-51.326 14.709-55.518 13.593-60.381 13.154-65.817 11.807-82.492 17.524-95.968 21.935-103.922 27.789-95.156 33.643-86.39 39.497-77.624 47.086-86.748 54.674-95.872 62.263-104.995 63.679-93.894 63.766-78.721 58.035-61.792 56.251-56.523 54.126-51.738 51.879-47.45 53.766-46.095 58.323-42.663 62.728-37.275 68.243-30.532 75.273-22.324 72.67-15.368 70.35-9.166 61.635-7.204 59.099-6.717"/>
<path transform="matrix(1,0,0,-1,492.217,359.27503)" d="M0 0-1.069-.761C-24.951 2.744-51.044 5.516-79.092 6.956-116.542 8.876-150.93 8.097-181.605 5.878L-166.508-15.252-185.228-42.422C-184.132-74.102-183.054-105.782-181.967-137.463-185.382-132.817-190.01-129.656-195.181-128.832-199.954-128.062-204.799-129.393-209.201-132.681L-246.813-32.758-227.187-23.104-257.681 23.393-177.04 84.979 64.737 36.073 43.001 25.205 82.253-15.252 41.797-24.915 44.813-62.953Z" fill="#643d92"/>
<path transform="matrix(1,0,0,-1,527.3751,546.60397)" d="M0 0C10.415-24.372-39.768-84.789-100.231-94.19-170.655-105.139-222.777-41.896-226.019-37.839-224.262-23.783-222.496-9.736-220.739 4.311-218.62 6.24-216.926 8.45-215.649 10.415-215.16 11.167-214.934 11.991-214.934 12.815-214.934 14.509-215.903 16.166-217.569 16.945-219.625 17.896-222.061 17.19-223.302 15.288-225.177 12.399-228.274 8.731-232.069 8.341-234.759 8.07-237.802 9.473-240.637 12.29-245.536 17.172-248.407 24.788-247.782 31.255-247.203 37.187-243.662 43.753-239.16 47.231-236.661 49.16-234.179 49.948-231.77 49.558-227.088 48.807-222.867 43.816-221.101 37.359-220.522 35.231-218.43 33.881-216.238 34.135H-216.229C-213.503 34.452-211.637 37.105-212.353 39.75-213.376 43.554-215.024 46.995-217.125 49.866-218.212 81.547-219.29 113.227-220.386 144.907L-201.666 172.077-216.763 193.207C-186.088 195.426-151.7 196.204-114.25 194.284-86.202 192.844-60.109 190.073-36.227 186.568L-33.818 15.659C-19.092 14.156-4.356 10.189 0 0" fill="#ffffff"/>
<path transform="matrix(1,0,0,-1,527.3751,546.60397)" stroke-width="1.259" stroke-linecap="butt" stroke-miterlimit="10" stroke-linejoin="miter" fill="none" stroke="#643d92" d="M0 0C10.415-24.372-39.768-84.789-100.231-94.19-170.655-105.139-222.777-41.896-226.019-37.839-224.262-23.783-222.496-9.736-220.739 4.311-218.62 6.24-216.926 8.45-215.649 10.415-215.16 11.167-214.934 11.991-214.934 12.815-214.934 14.509-215.903 16.166-217.569 16.945-219.625 17.896-222.061 17.19-223.302 15.288-225.177 12.399-228.274 8.731-232.069 8.341-234.759 8.07-237.802 9.473-240.637 12.29-245.536 17.172-248.407 24.788-247.782 31.255-247.203 37.187-243.662 43.753-239.16 47.231-236.661 49.16-234.179 49.948-231.77 49.558-227.088 48.807-222.867 43.816-221.101 37.359-220.522 35.231-218.43 33.881-216.238 34.135H-216.229C-213.503 34.452-211.637 37.105-212.353 39.75-213.376 43.554-215.024 46.995-217.125 49.866-218.212 81.547-219.29 113.227-220.386 144.907L-201.666 172.077-216.763 193.207C-186.088 195.426-151.7 196.204-114.25 194.284-86.202 192.844-60.109 190.073-36.227 186.568L-33.818 15.659C-19.092 14.156-4.356 10.189 0 0Z"/>
<path transform="matrix(1,0,0,-1,310.2497,496.73774)" d="M0 0C2.101-2.871 3.749-6.312 4.773-10.116 5.488-12.761 3.623-15.414 .897-15.731H.888C-1.304-15.985-3.396-14.636-3.976-12.507-5.742-6.05-9.962-1.06-14.645-.308-17.054 .082-19.535-.706-22.035-2.635-26.536-6.113-30.077-12.679-30.657-18.612-31.282-25.078-28.411-32.695-23.511-37.576-20.676-40.393-17.633-41.797-14.944-41.525-11.149-41.135-8.051-37.468-6.177-34.578-4.936-32.677-2.5-31.97-.444-32.921 1.223-33.7 2.192-35.357 2.192-37.051 2.192-37.875 1.965-38.699 1.476-39.451 .199-41.416-1.494-43.626-3.614-45.555-6.367-48.064-9.827-50.102-14.02-50.527-14.554-50.582-15.079-50.609-15.614-50.609-20.559-50.609-25.567-48.299-29.896-43.997-36.725-37.205-40.556-26.898-39.668-17.733-38.862-9.383-33.999-.435-27.578 4.528-27.46 4.619-27.351 4.7-27.233 4.782-22.832 8.07-17.987 9.401-13.214 8.631-8.042 7.807-3.414 4.646 0 0" fill="#643d92"/>
<path transform="matrix(1,0,0,-1,310.612,507.36128)" stroke-width="9.057" stroke-linecap="butt" stroke-miterlimit="10" stroke-linejoin="miter" fill="none" stroke="#643d92" d="M0 0C-.118 3.541-.245 7.082-.362 10.623-1.449 42.304-2.527 73.984-3.623 105.665L15.098 132.835 0 153.964C30.675 156.183 65.063 156.962 102.513 155.042 130.561 153.602 156.654 150.83 180.536 147.325L182.945-23.584C197.672-25.087 212.407-29.054 216.763-39.243 227.178-63.614 176.995-124.032 116.533-133.432 46.108-144.382-6.014-81.139-9.256-77.082-7.499-63.026-5.733-48.979-3.976-34.932-3.586-31.852-3.206-28.782-2.817-25.712"/>
<path transform="matrix(1,0,0,-1,284.6555,496.32118)" stroke-width="9.057" stroke-linecap="butt" stroke-miterlimit="10" stroke-linejoin="miter" fill="none" stroke="#643d92" d="M0 0-1.639 4.365-39.252 104.288-19.626 113.942-50.12 160.44 30.521 222.025 272.299 173.119 250.563 162.251 289.815 121.795 249.358 112.131 252.374 74.093 207.562 137.046 207.091 137.698"/>
<path transform="matrix(1,0,0,-1,376.1512,517.62246)" d="M0 0H-11.926C-24.639 0-34.945 10.306-34.945 23.018V114.644C-34.945 127.356-24.639 137.662-11.926 137.662H0C12.713 137.662 23.018 127.356 23.018 114.644V23.018C23.018 10.306 12.713 0 0 0" fill="#ffffff"/>
<path transform="matrix(1,0,0,-1,376.1512,517.62246)" stroke-width="9.057" stroke-linecap="butt" stroke-miterlimit="10" stroke-linejoin="miter" fill="none" stroke="#643d92" d="M0 0H-11.926C-24.639 0-34.945 10.306-34.945 23.018V114.644C-34.945 127.356-24.639 137.662-11.926 137.662H0C12.713 137.662 23.018 127.356 23.018 114.644V23.018C23.018 10.306 12.713 0 0 0Z"/>
<path transform="matrix(1,0,0,-1,465.0464,543.5004)" d="M0 0C.034-4.052-1.594-7.722-4.247-10.366-6.864-12.993-10.487-14.614-14.49-14.614H-55.952V-10.086H-14.49C-11.828-10.086-9.328-9.053-7.453-7.169-5.478-5.204-4.44-2.569-4.534 .223-4.715 5.641-9.382 9.839-14.803 9.839H-55.952V14.367H-14.861C-6.845 14.367-.067 8.016 0 0" fill="#ffffff"/>
<path transform="matrix(1,0,0,-1,465.0464,543.5004)" stroke-width="1.259" stroke-linecap="butt" stroke-miterlimit="10" stroke-linejoin="miter" fill="none" stroke="#643d92" d="M0 0C.034-4.052-1.594-7.722-4.247-10.366-6.864-12.993-10.487-14.614-14.49-14.614H-55.952V-10.086H-14.49C-11.828-10.086-9.328-9.053-7.453-7.169-5.478-5.204-4.44-2.569-4.534 .223-4.715 5.641-9.382 9.839-14.803 9.839H-55.952V14.367H-14.861C-6.845 14.367-.067 8.016 0 0Z"/>
<path transform="matrix(1,0,0,-1,450.0606,524.60476)" d="M0 0H-40.966C-43.467 0-45.494-2.027-45.494-4.528-45.494-7.029-43.467-9.057-40.966-9.057H.182C5.604-9.057 10.271-13.255 10.452-18.673 10.546-21.465 9.507-24.1 7.533-26.065 5.658-27.949 3.158-28.981 .496-28.981H-40.966C-43.467-28.981-45.494-31.009-45.494-33.51-45.494-36.011-43.467-38.038-40.966-38.038H.496C5.585-38.038 10.358-36.055 13.936-32.468 17.501-28.912 19.482-24.188 19.514-19.146 19.582-8.614 10.532 0 0 0" fill="#643d92"/>
<path transform="matrix(1,0,0,-1,451.02,517.62246)" d="M0 0H-11.926C-24.639 0-34.945 10.306-34.945 23.018V114.644C-34.945 127.356-24.639 137.662-11.926 137.662H0C12.713 137.662 23.018 127.356 23.018 114.644V23.018C23.018 10.306 12.713 0 0 0" fill="#ffffff"/>
<path transform="matrix(1,0,0,-1,451.02,517.62246)" stroke-width="9.057" stroke-linecap="butt" stroke-miterlimit="10" stroke-linejoin="miter" fill="none" stroke="#643d92" d="M0 0H-11.926C-24.639 0-34.945 10.306-34.945 23.018V114.644C-34.945 127.356-24.639 137.662-11.926 137.662H0C12.713 137.662 23.018 127.356 23.018 114.644V23.018C23.018 10.306 12.713 0 0 0Z"/>
<path transform="matrix(1,0,0,-1,382.6109,517.62246)" d="M0 0H-8.579C-17.725 0-25.138 7.414-25.138 16.559V82.471C-25.138 91.616-17.725 99.029-8.579 99.029H0C9.145 99.029 16.559 91.616 16.559 82.471V16.559C16.559 7.414 9.145 0 0 0" fill="#643d92"/>
<path transform="matrix(1,0,0,-1,455.8376,517.62246)" d="M0 0H-8.579C-17.724 0-25.138 7.414-25.138 16.559V82.471C-25.138 91.616-17.724 99.029-8.579 99.029H0C9.145 99.029 16.559 91.616 16.559 82.471V16.559C16.559 7.414 9.145 0 0 0" fill="#643d92"/>
<path transform="matrix(1,0,0,-1,447.4149,591.5115)" d="M0 0C.217-2.544-1.711-4.779-4.261-4.905-19.969-5.681-42.162-3.976-65.859 6.67-88.622 16.896-104.236 31.571-113.939 43.219-115.577 45.185-115.241 48.118-113.218 49.685-111.286 51.18-108.527 50.871-106.964 48.995-97.916 38.136-83.36 24.462-62.148 14.932-40.065 5.011-19.381 3.418-4.736 4.138-2.298 4.258-.207 2.435 0 .003Z" fill="#643d92"/>
<path transform="matrix(1,0,0,-1,348.5003,553.81588)" stroke-width="9.057" stroke-linecap="butt" stroke-miterlimit="10" stroke-linejoin="miter" fill="none" stroke="#643d92" d="M0 0C-1.066-2.6-8.392-21.184 .501-34.441 10.69-49.63 39.766-54.235 65.169-36.218"/>
<path transform="matrix(1,0,0,-1,389.9333,599.7366)" d="M0 0C-11.177 .369-22.354 .738-33.532 1.107-35.075 4.897-36.618 8.688-38.161 12.478-36.941 13.318-33.337 15.564-28.299 15.396-22.002 15.187-18.013 11.357-17.129 10.466-12.637 13.025-7.189 12.575-3.644 9.459 .376 5.925 .049 .629 0 0" fill="#643d92"/>
<path transform="matrix(1,0,0,-1,389.9598,875.16928)" stroke-width="9.057" stroke-linecap="butt" stroke-miterlimit="10" stroke-linejoin="miter" fill="none" stroke="#643d92" d="M0 0 14.606 156.488"/>
<path transform="matrix(1,0,0,-1,446.7008,712.36227)" stroke-width="9.057" stroke-linecap="butt" stroke-miterlimit="10" stroke-linejoin="miter" fill="none" stroke="#643d92" d="M0 0-5.981-42.932C6.355-44.555 18.69-46.178 31.026-47.801 35.169-34.481 39.312-21.161 43.456-7.841"/>
<path transform="matrix(1,0,0,-1,447.9022,704.59317)" d="M0 0C15.703-2.499 31.407-4.997 47.11-7.496 46.989-12.91 46.867-18.324 46.745-23.738 29.033-19.92 11.321-16.103-6.391-12.285-4.261-8.19-2.13-4.095 0 0" fill="#ffffff"/>
<path transform="matrix(1,0,0,-1,447.9022,704.59317)" stroke-width="9.057" stroke-linecap="butt" stroke-miterlimit="10" stroke-linejoin="miter" fill="none" stroke="#643d92" d="M0 0C15.703-2.499 31.407-4.997 47.11-7.496 46.989-12.91 46.867-18.324 46.745-23.738 29.033-19.92 11.321-16.103-6.391-12.285-4.261-8.19-2.13-4.095 0 0Z"/>
<path transform="matrix(1,0,0,-1,356.2969,708.45077)" stroke-width="9.057" stroke-linecap="butt" stroke-miterlimit="10" stroke-linejoin="miter" fill="none" stroke="#643d92" d="M0 0C1.881-13.499 3.761-26.998 5.642-40.497-5.994-42.028-17.63-43.559-29.266-45.09-33.174-32.526-37.083-19.961-40.991-7.397"/>
<path transform="matrix(1,0,0,-1,355.1637,701.12228)" d="M0 0C-14.813-2.357-29.625-4.714-44.438-7.071-44.323-12.178-44.208-17.285-44.094-22.391-27.386-18.79-10.679-15.189 6.028-11.588 4.019-7.726 2.009-3.863 0 0" fill="#ffffff"/>
<path transform="matrix(1,0,0,-1,355.1637,701.12228)" stroke-width="9.057" stroke-linecap="butt" stroke-miterlimit="10" stroke-linejoin="miter" fill="none" stroke="#643d92" d="M0 0C-14.813-2.357-29.625-4.714-44.438-7.071-44.323-12.178-44.208-17.285-44.094-22.391-27.386-18.79-10.679-15.189 6.028-11.588 4.019-7.726 2.009-3.863 0 0Z"/>
<path transform="matrix(1,0,0,-1,285.5525,730.54806)" d="M0 0C-21.718 2.025-43.436 4.049-65.153 6.074-72.989 9.389-74.955 18.975-71.551 24.62-69.027 28.807-63.374 31.118-57.917 29.758-57.687 31.968-55.968 46.416-44.192 56.582-35.154 64.383-23.377 66.916-13.738 63.311-4.168 59.732 .071 51.308 1.955 47.564 7.959 35.632 6.495 23.299 5.782 18.892 9.772 17.046 11.573 12.04 10.016 7.323 8.517 2.78 4.279-.348 0 0" fill="#ffffff"/>
<path transform="matrix(1,0,0,-1,285.5525,730.54806)" stroke-width="9.057" stroke-linecap="butt" stroke-miterlimit="10" stroke-linejoin="miter" fill="none" stroke="#643d92" d="M0 0C-21.718 2.025-43.436 4.049-65.153 6.074-72.989 9.389-74.955 18.975-71.551 24.62-69.027 28.807-63.374 31.118-57.917 29.758-57.687 31.968-55.968 46.416-44.192 56.582-35.154 64.383-23.377 66.916-13.738 63.311-4.168 59.732 .071 51.308 1.955 47.564 7.959 35.632 6.495 23.299 5.782 18.892 9.772 17.046 11.573 12.04 10.016 7.323 8.517 2.78 4.279-.348 0 0Z"/>
</g>
</g>
</g>
</svg>
