<?xml version="1.0" encoding="UTF-8"?><svg id="Layer_1" xmlns="http://www.w3.org/2000/svg" viewBox="0 0 2630.58993 2620.23805"><defs><style>.cls-1{stroke:#fff;stroke-miterlimit:10;}.cls-1,.cls-2{fill:#6f35a5;}</style></defs><path class="cls-2" d="m2407.61207,2453.65118c0,15.34422-.0232,30.68844.01593,46.03265.00984,3.83207.11481,7.67047.36036,11.4941.41261,6.43169,4.1411,10.68575,9.74684,13.12323,6.46821,2.81261,13.50368,3.7913,20.33576,5.40262,2.05415.48431,3.80159,3.19171,3.80065,5.9987-.00023.63755-.04756,1.28142-.14269,1.9117-.27109,1.79267-2.13194,3.70883-3.47169,4.18423-2.47402.87841-5.00756.94824-7.54648.9569-14.0653.04803-28.13084.05131-42.19615.05295-17.26216.00164-34.52431.00679-51.78647-.04335-2.54853-.0075-5.09683-.30389-7.64395-.4822-1.9609-.13707-4.58558-3.0441-4.6964-5.34498-.03046-.6352-.12606-1.27767-.06748-1.90514.25539-2.74185,2.06891-4.87426,4.51482-5.46495,4.32269-1.04407,8.83633-1.26221,12.88839-3.46819,4.22217-2.29831,6.74188-5.73159,7.76743-10.33546.27671-1.24182.43581-2.52488.50001-3.79646.12887-2.55276.21322-5.11091.21415-7.66672.01312-34.52449.02226-69.04875-.01804-103.57324-.00305-2.53777-.40371-5.07389-.59584-7.6126-.16331-2.15444-2.88124-4.64441-5.22476-4.77117-3.1842-.17292-6.36723-.36645-9.55283-.50821-5.10128-.22657-10.20443-.40605-15.30595-.63216-1.39083-.06139-3.77113-2.29784-3.84049-3.68469-.12723-2.5387-.24907-5.07834-.30249-7.61916-.01289-.61294.27343-1.22706.37981-1.8482.24649-1.44051,2.48855-3.81005,3.79175-3.93399,3.16592-.30038,6.33185-.6509,9.50644-.80531,5.10034-.24883,10.20889-.31959,15.31087-.5382,2.40818-.10333,5.15564-2.49887,5.44782-4.56592.17854-1.26455.49321-2.52183.54312-3.79036.27906-7.07627,1.94309-13.90441,3.51363-20.76371,1.86928-8.16392,4.8815-15.89601,8.88085-23.19955,12.05169-22.00858,30.51981-35.58027,54.84672-41.46228,9.39843-2.2723,18.87042-3.12892,28.51581-3.03192,7.78524.07826,15.23753,1.62679,22.54151,4.08114,4.28684,1.44075,8.08163,3.81848,11.45117,6.83564,5.50545,4.92933,8.66904,10.96129,8.67044,18.49282.00094,5.17675-.62208,10.18926-3.20013,14.81375-4.37681,7.85159-10.94577,12.3205-19.96486,12.93626-2.5422.17362-5.11956.16542-7.65989-.03023-7.35787-.56679-13.49032-3.75405-18.36198-9.23938-3.40937-3.83887-5.94009-8.29771-8.49846-12.73405-2.55017-4.42205-4.08627-9.37317-7.18964-13.50656-.99556-1.32594-3.74817-1.71699-5.01295-.69659-3.09188,2.49348-5.10151,5.7508-6.40893,9.35747-2.18348,6.02306-3.74044,12.24576-4.11462,18.67042-.81725,14.03984-1.40114,28.08811-.61528,42.15396.1366,2.44779,2.39178,5.15426,4.48272,5.40426.62911.07474,1.23244.34771,1.86085.44729.62864.09935,1.27345.10473,1.91193.13496,13.40363.6338,26.84545-.4986,40.23314.86881,8.91131-1.20082,17.88822-.31772,26.81663-.86248,1.87631-.11434,3.81167-.54195,5.54458-1.2526,1.07452-.44049,2.3721-1.56071,2.60758-2.59494.70409-3.09424.98666-6.29064,1.33999-9.45775,1.1413-10.223,3.53472-20.13929,7.38903-29.67389,9.37054-23.18081,25.587-39.47326,49.15921-48.07041,10.86986-3.96469,22.1528-5.97597,33.79609-6.08961,9.03807-.0881,17.85682.81515,26.4401,3.73718,4.91548,1.67341,9.30611,4.20298,13.08216,7.76279,5.38151,5.07366,8.24049,11.23684,8.18731,18.729-.03702,5.22455-1.08905,10.13654-3.70248,14.69378-4.1097,7.16601-10.34384,11.19255-18.45828,12.14009-3.14905.36763-6.40144.30764-9.56431.00094-7.34357-.71135-13.34833-4.17627-18.09136-9.75345-3.32502-3.90986-5.79107-8.39705-8.34218-12.83949-2.53307-4.41104-3.79292-9.53484-7.42558-13.32099-1.05414-1.09889-2.24651-1.32476-3.39484-.58858-1.05765.67855-2.28728,1.29524-2.99957,2.2641-1.50306,2.04362-3.03729,4.16971-3.98224,6.4966-1.9227,4.73532-3.57643,9.622-3.9888,14.76033-1.2779,15.93186-2.16287,31.87941-1.03211,47.86586.15862,2.24465,2.70364,4.59075,5.12541,4.79249,1.90583.15886,3.80792.4651,5.71445.4904,6.39253.08458,12.78717.015,19.179.11903,3.8283.06209,7.6545.30952,11.47835.52836,1.99065.11364,4.98178,2.97287,5.18703,4.9066.3381,3.1875.61974,6.42373-.49157,9.48118-.37582,1.03446-1.51548,2.1364-2.55579,2.50684-1.75518.62607-3.70529.91871-5.58114.95526-7.03054.1373-14.06484.06186-21.09608.17268-3.82619.06045-7.65098.30811-11.47366.52274-2.30017.1291-4.86065,2.6657-5.08464,4.93284-.18768,1.89881-.54218,3.79716-.54429,5.69597-.0396,35.16368-.04077,70.32735-.03351,105.49103.00023,1.91568.16425,3.83067.22236,5.74682.2261,7.41836,5.00053,12.95922,12.52522,15.0497,6.14745,1.70762,12.37035,3.14204,18.54052,4.7714.53867.14246.97471.79664,1.38685,1.27509,1.84421,2.13898,1.87936,4.69947,1.13005,7.14586-.57123,1.86554-2.24159,3.15305-4.12915,3.62612-1.8339.45947-3.78589.61388-5.68634.61529-32.60583.02765-65.21189.01429-97.81771-.00961-1.27321-.00094-2.54549-.21088-3.81987-.30061-4.51458-.31819-7.29835-5.774-4.99069-10.10584.54616-1.02556,1.75166-1.95224,2.86226-2.36696,1.77158-.66215,3.73927-.77649,5.58418-1.27041,2.45528-.65676,4.94383-1.27837,7.29156-2.22895,5.20039-2.10524,7.86842-6.27049,8.83188-11.64359.22493-1.25447.38403-2.53308.42737-3.80536.10895-3.19382.1851-6.39069.18651-9.58615.01406-32.60646.02156-65.21293-.00656-97.81939-.00281-3.18726-.22517-6.37663-.40347-9.56155-.168-3.00403-3.15374-5.68707-6.44642-5.88295-1.27438-.07568-2.54619-.22236-3.82127-.25328-8.30493-.20314-16.61079-.55648-24.91548-.53023-12.7771.0403-25.55349.32334-38.32895.56444-1.90466.03585-3.80276.40863-5.70508.61412-1.19566.12887-3.5209,2.68022-3.89813,3.82387-.82335,2.49606-.79148,5.04414-.79593,7.58682-.03046,17.90143-.01617,35.8031-.01617,53.70453h-.02648Z"/><path class="cls-2" d="m769.08189,2294.909c17.26333,0,34.52654-.01008,51.78987.00914,3.18127.00375,6.37941-.10708,9.4843.85615,1.36447.42316,2.23773,1.18582,2.69427,2.38922,1.19378,3.14626,1.14001,6.19434-.69061,9.09036-.33447.52906-.79511,1.16708-1.33284,1.34468-1.8018.59467-3.63922,1.228-5.50932,1.44121-5.7612.6577-11.27521,2.17881-16.68237,4.21165-3.39132,1.27533-5.93365,5.75478-5.07539,9.31576.59795,2.4806,1.21217,4.96611,1.99698,7.39188,5.50756,17.02232,10.99826,34.05096,16.61477,51.03766,9.02635,27.29873,18.15263,54.5649,27.20323,81.85567.42011,1.26689.89434,2.42952,2.00248,3.1793.47833.32358,1.09514.54125,1.66942.59678.56784.05459,1.42457.05225,1.69391-.28866.7718-.97706,1.53434-2.06705,1.90724-3.23787,5.23448-16.4396,10.41683-32.89606,15.58512-49.35675,11.29301-35.96735,22.56623-71.94078,33.86521-107.90625.76301-2.42905,1.52954-4.87543,2.55626-7.19811,1.08132-2.44592,3.04467-4.23765,5.78182-4.37004,9.569-.46322,19.15452-.90817,28.70618.23946,1.9145.23009,3.71759,1.27767,4.48623,3.14017,1.94613,4.71658,3.80686,9.47579,5.49948,14.2889,16.74633,47.62078,33.39286,95.27647,50.24146,142.86093,2.12011,5.98745,3.39367,12.37299,7.12532,17.72336.34126.48946,1.00001.92387,1.57546,1.02767.40628.0731,1.08354-.34232,1.36213-.73572,2.24534-3.17133,3.32502-6.85415,4.45155-10.50721,9.03795-29.3058,18.13365-58.59426,27.0712-87.93075,3.53741-11.61126,6.74621-23.32374,10.05096-35.00505,1.39892-4.94549,2.24487-9.99923,1.89939-15.1542-.22411-3.34542-1.7779-6.03033-4.65833-7.92094-2.15361-1.41357-4.4068-2.55979-6.87274-3.31496-7.35599-2.25332-15.02326-2.96327-22.4991-4.60598-1.93629-.42527-3.05451-2.03776-3.6077-4.00054-.53667-1.9042-.35977-3.77631-.0676-5.67606.25035-1.62866,2.26643-3.95696,3.53249-4.09754,1.90044-.21134,3.79972-.61505,5.69993-.61763,26.85365-.03819,53.70718-.03889,80.56071.01617,1.88111.00375,3.7641.49884,5.64053.80133,1.45316.23407,2.18056,1.11623,2.65479,2.39414,1.16906,3.14977,1.08202,6.21777-.25961,9.26351-.25363.57592-.52953,1.38522-1.00376,1.58086-2.95107,1.21769-5.97922,2.2477-8.94786,3.42532-2.96641,1.17668-5.95731,2.32127-8.82415,3.71351-7.15074,3.47241-12.62726,8.68454-15.68939,16.12235-2.43032,5.90357-4.84155,11.82658-6.93834,17.85363-12.80885,36.81319-25.55748,73.6477-38.261,110.49744-8.1217,23.55898-16.10867,47.16435-24.21561,70.72872-1.24545,3.61979-2.67716,7.19295-4.31284,10.6506-.47119.99603-1.87291,1.702-2.99933,2.19685-1.14259.50212-2.47051.79383-3.72076.80554-7.66867.07263-15.3384.06537-23.00766.03187-4.39696-.01898-7.01496-2.44404-8.44773-6.43146-2.15982-6.01158-4.39415-11.99646-6.5371-18.0139-16.5057-46.35107-32.9895-92.70988-49.50692-139.05674-1.28563-3.60737-2.71957-7.16507-4.19499-10.69957-.59853-1.43372-1.6563-1.97239-2.71676-1.69473-1.32417.34677-2.29618,1.17083-2.82173,2.43725-.72986,1.75917-1.49521,3.51248-2.08051,5.32179-5.11229,15.80697-10.19448,31.62355-15.27279,47.44153-11.52404,35.89448-23.02851,71.79504-34.58289,107.67968-.97553,3.02934-2.1679,5.99963-3.43936,8.91885-1.11342,2.55651-3.32759,3.83887-6.03779,3.91127-7.0248.18838-14.05347.28304-21.08074.29476-1.894.00328-3.80183-.34818-5.67966-.67246-1.98831-.34326-3.67343-1.5333-4.40247-3.28872-1.95808-4.714-3.7101-9.52102-5.36546-14.3524-20.29499-59.2393-40.54969-118.49219-60.84234-177.73219-1.86272-5.43777-3.70588-10.8992-5.94665-16.18491-1.75236-4.13362-4.47451-7.72295-7.95769-10.67567-5.41712-4.59169-11.31117-8.35277-18.12276-10.51541-2.43302-.77227-4.91969-1.37514-7.38048-2.06049-2.35699-.65652-3.91347-2.80206-4.19241-5.7194-.18276-1.91006-.04264-3.74725.62313-5.61748.49591-1.39365,1.16531-2.07782,2.57313-2.54597,2.49042-.82827,5.02326-.85826,7.56054-.86248,18.54205-.03093,37.08397-.01664,55.62602-.01664v-.02202Z"/><path class="cls-2" d="m73.92559,2294.90783c19.18211,0,38.36451.06959,57.54614-.02062,17.3963-.08177,34.37817,2.70787,51.12702,7.12243,16.89401,4.45345,32.30023,12.09861,46.24153,22.56013,18.40843,13.8135,31.47548,31.6362,38.7244,53.5288,1.80057,5.43847,3.18168,11.07868,4.10765,16.73248,3.45301,21.08237,3.28923,42.13334-3.12726,62.64892-7.29168,23.3139-21.23081,42.06843-41.14553,56.26736-15.29183,10.90272-32.34177,17.98414-50.45374,22.60207-16.81288,4.28639-33.97212,6.02189-51.27252,6.3614-10.86605.21345-21.7389.09372-32.6087.09677-25.5761.00679-51.15232.02601-76.72831-.03561-3.81676-.00937-7.63505-.3934-11.44777-.67082-2.1013-.15253-4.28649-2.81425-4.45583-5.45862-.08048-1.25752.02074-2.54409.19424-3.79622.26646-1.92342,1.87409-3.66501,3.54175-3.98132,6.27591-1.19051,12.56634-2.30838,18.82497-3.583,3.21109-.65395,5.87776-2.4185,8.12879-4.78195,2.26004-2.37211,3.83135-5.14582,4.19751-8.42165.35421-3.16969.60866-6.36656.63608-9.55382.08798-10.22979.05922-20.46075.05992-30.69125.00299-41.5614.01587-83.12279-.01874-124.68419-.0048-5.75033-.07545-11.51215-.43651-17.24842-.44248-7.03081-4.36726-11.93226-10.55976-14.84069-4.62072-2.17061-9.51388-3.74069-14.62272-4.47501-1.89482-.27226-3.77605-.63942-5.66326-.96487-2.36706-.40816-4.18064-2.56049-4.5779-5.39208-.26717-1.90444-.16477-3.73952.49438-5.61444.48232-1.37233,1.14897-2.1207,2.46389-2.66734,1.83355-.76243,3.71964-.93113,5.61206-.94894,8.9509-.08318,17.90269-.09185,26.85412-.10075,12.78805-.01312,25.57604-.00328,38.3641-.00328v.01453Zm23.96233,114.7597c0,25.50981-.00609,51.01938.00592,76.52919.00205,4.46353-.11756,8.94064.19002,13.38589.2179,3.1493.82411,6.3211,1.6693,9.36848,2.46324,8.88136,8.86755,13.93745,17.39676,16.01199,12.01959,2.9232,24.20665,2.04151,35.99164-1.13919,14.74842-3.98062,26.1751-12.91915,34.21726-25.97772,4.02857-6.54111,7.01022-13.56982,9.3361-20.8968,2.71454-8.55122,4.04544-17.35854,5.307-26.20312,3.27441-22.95634,2.62281-45.80959-1.88223-68.51828-2.2403-11.29307-5.91145-22.16369-11.42504-32.34076-3.66552-6.76581-8.0599-13.0028-13.53701-18.43495-9.26557-9.18994-20.15377-15.3147-32.92729-18.42557-12.62187-3.07386-25.26225-2.8515-38.0028-1.6624-2.8639.26758-5.87911,3.50967-5.98947,6.48418-.16536,4.4572-.32984,8.91744-.33506,13.37652-.03075,26.14759-.01511,52.29494-.01511,78.44253Z"/><path class="cls-2" d="m1601.19214,2620.09405c-14.40247.49813-28.36327-1.44895-42.27347-3.47616-8.20183-1.19543-16.28347-3.39064-23.90258-6.83681-3.48364-1.57571-6.99587-3.22616-10.16179-5.34194-11.58683-7.74357-17.29472-18.44947-15.86453-32.61794.53468-5.29672,2.62515-9.82491,6.09356-13.78351,3.42811-3.91338,7.57366-6.92514,12.31247-8.95165,5.28451-2.26058,10.69436-4.2161,16.49739-4.86489,3.15491-.35263,6.27725-1.03118,9.39397-1.6631.50539-.10263,1.02321-.6516,1.32991-1.12678.80929-1.25471.66332-2.60665-.6195-3.41524-3.23083-2.03705-6.66925-3.75569-9.82884-5.89138-2.63171-1.77955-5.15564-3.79552-7.43144-6.01088-8.03102-7.81808-10.37173-17.34917-7.84522-28.12021.42643-1.81704,1.366-3.5905,2.38967-5.17675,3.57244-5.53477,8.69621-9.34201,14.53509-12.14805,4.02231-1.93279,8.24471-3.44594,12.34059-5.23111,1.37373-.59865,2.05134-1.6385,1.81141-2.64836-.13496-.56702-.61247-1.22003-1.12044-1.50518-4.45202-2.4977-8.96074-4.89395-13.42331-7.37337-5.05582-2.80909-9.74379-6.1517-13.79093-10.29141-12.14494-12.42477-16.09883-27.24367-12.44415-44.10315,2.4035-11.08712,8.63623-19.77517,17.42359-26.78232,8.12381-6.47785,17.33268-10.94606,27.17886-13.86997,9.1838-2.72755,18.59207-4.71704,28.26721-4.95065,12.16158-.29359,24.25849-.32686,36.23028,2.60525,9.33633,2.28636,18.89362,2.98037,28.55095,2.81261,13.42518-.23384,26.85833-.07498,40.2875.01078,2.53635.01617,5.07012.46861,7.60389.73455,1.32944.13965,3.60431,2.48153,3.89508,3.80887.69354,3.16266.74251,6.30587.14738,9.4861-.27203,1.45457-2.30954,3.60245-3.80745,3.72804-3.17553.26641-6.35223.55413-9.53432.69917-5.73484.26125-11.49826-.39738-17.21553.63403-1.5129.27297-3.13734,2.85244-2.4855,4.32974,1.28516,2.91242,2.51737,5.85413,3.9471,8.69532,1.74463,3.46702,2.76456,7.13063,3.53706,10.90529,3.68585,18.01249-2.21816,32.7365-15.5358,44.78826-2.81845,2.55089-6.07528,4.70041-9.36773,6.62898-10.61283,6.21684-22.10875,9.96737-34.30032,11.51191-8.25783,1.04641-16.56533,1.34281-24.88783,1.35827-5.75288.01078-11.506.15277-17.25888.24298-8.09124.12676-12.86262,8.2089-11.37596,14.56234.60076,2.56729,1.88357,4.74797,4.05839,6.26604,2.65022,1.84984,5.58184,3.22639,8.7972,3.58722,4.44218.49813,8.91693.97073,13.37856.97752,19.85216.02999,39.58576,2.1453,59.377,3.21842,13.16323.71323,24.86956,5.60038,35.16326,13.73102,7.1805,5.67184,12.25741,12.90744,15.29751,21.62057,3.04971,8.74101,3.24957,17.59379,1.19027,26.45758-3.01222,12.96578-10.10157,23.39004-20.87701,31.18751-3.61227,2.61392-7.43284,5.00852-11.38275,7.07439-10.84619,5.67348-22.40959,9.48751-34.46597,11.35048-13.26258,2.04877-26.59896,3.84051-39.83389,3.16758Zm10.08986-13.25585c3.91898-.33131,9.00503-.67902,14.07186-1.21066,5.8063-.6092,11.1119-2.81026,16.11125-5.69551,7.62544-4.40097,12.12245-11.11078,13.88442-19.67161.90418-4.39323,1.09163-8.83895.75446-13.3238-.68651-9.12996-7.44667-17.0031-16.40624-18.81944-3.11813-.63216-6.27913-1.12279-9.44435-1.43981-15.89147-1.5914-31.82536-1.62538-47.76861-1.12068-2.69849.08552-4.88994,1.4466-6.79226,3.15071-5.91127,5.29484-9.25222,12.08315-10.97366,19.72082-1.3025,5.77986-.72541,11.36102,1.77228,16.79504,1.62631,3.53849,3.76153,6.67701,6.57248,9.3078,7.20229,6.74027,15.58172,10.9866,25.57692,11.60751,3.81659.23735,7.63599.42433,12.64144.69964Zm16.08454-189.42967c-.01312-4.16502-1.20995-12.34862-3.31775-20.36352-.79828-3.03449-2.23878-5.96097-3.76012-8.73164-2.86367-5.21729-7.25946-8.52381-12.93432-10.61663-8.19363-3.02184-19.31701,1.25752-23.73646,7.87385-2.12749,3.18562-4.06495,6.45958-4.89345,10.26353-.54171,2.48645-1.16848,4.95768-1.61225,7.4617-2.3714,13.37605-1.70995,26.61105,2.03564,39.67289,1.2376,4.31498,3.24184,8.28154,5.8377,11.94046,7.16995,10.10631,20.15277,10.9948,28.7241,4.83631,5.42743-3.89932,8.64537-9.38887,10.40992-15.57384,2.09539-7.34314,3.24067-14.91638,3.24699-26.76311Z"/><path class="cls-2" d="m2076.13387,2462.09181c-.39668,10.81907-.82288,21.03855-1.12255,31.26131-.13098,4.46915-.0649,8.94744.02976,13.41893.06795,3.22006.8517,6.31642,2.04735,9.31084,2.05532,5.1484,5.75499,8.39611,11.20913,9.39965,4.37634.80531,8.80095,1.3489,13.2047,2.00472,1.21463.18088,3.26972,2.70576,3.38617,4.28428.09302,1.26033-.01781,2.53706-.06279,3.80583-.07451,2.08743-1.34983,3.48788-2.82524,4.72759-.47775.40207-1.09748.66262-1.68793.89856-9.54487,3.81895-19.33809,6.65897-29.69084,6.94084-5.1062.13941-10.22505.00797-15.33313-.1605-5.14627-.16964-10.09009-1.39201-14.96878-3.0516-6.25406-2.12726-11.3373-5.80118-15.37647-10.95216-1.95457-2.49278-3.15749-5.60858-6.02936-7.31878-.42222-.25118-1.17035-.21533-1.66825-.03632-3.71466,1.33554-6.24703,4.37121-9.30705,6.64257-4.64345,3.44617-9.53292,6.42092-14.83078,8.73328-8.27704,3.613-16.84322,6.02635-25.93846,6.15334-4.47241.06256-8.95981.2083-13.41769-.05975-12.6159-.75892-23.49419-5.63552-32.58638-14.40863-6.20837-5.9905-9.72505-13.47539-11.0976-21.85464-1.80391-11.01308-.37372-21.69906,4.78637-31.684,3.90328-7.55308,9.7131-13.38776,16.95077-17.85668,6.02233-3.71867,12.53412-6.4181,19.11808-8.81857,8.99636-3.27981,18.18274-6.04532,27.32038-8.92658,8.52916-2.6896,17.13376-5.14301,25.63948-7.90313,3.62821-1.17715,7.18073-2.68678,10.59478-4.39136,2.37608-1.18559,3.69006-3.48342,3.96514-6.17724,1.11552-10.92638.16846-21.76092-2.51339-32.33467-1.80063-7.10017-6.24633-12.46554-13.35747-15.26479-5.55536-2.18678-11.16274-2.64367-16.87766-.8435-2.42974.76571-4.82527,1.65678-7.19268,2.60033-2.90913,1.15935-5.07808,4.89933-4.45132,7.69718.83553,3.73085,1.95316,7.40617,2.6289,11.1628.56186,3.12306.93324,6.33094.91402,9.49852-.05858,9.71666-7.52563,18.62544-16.89078,20.70443-8.25455,1.83251-16.50606,2.05369-24.70226.00328-7.94644-1.98762-13.48985-6.81057-16.45006-14.61857-3.84189-10.13373-1.14926-18.79343,5.6772-26.5438,4.27746-4.85716,9.64937-8.35816,15.28463-11.42381,6.19947-3.37189,12.77475-5.95746,19.56068-7.76489,6.77867-1.80579,13.68081-3.51834,20.63544-4.22336,18.52389-1.87749,37.03559-1.65889,55.26027,2.81917,3.70154.90934,7.3492,2.18842,10.86869,3.6622,15.30688,6.41108,24.43094,17.92275,27.87123,34.10485,1.47096,6.92022,2.10054,13.89035,1.98362,20.94905-.20103,12.1436-.3791,24.28767-.55788,35.83379Zm-58.01007,21.43265c.20572-10.69419.36294-17.06191.42971-23.43105.01992-1.9035-.22259-3.80911-.32685-5.71472-.11692-2.13265-3.48809-4.19923-5.65143-3.59683-8.03173,2.23551-15.53697,5.69176-22.74207,9.79703-2.75027,1.56727-5.39393,3.41571-7.80539,5.46612-6.03006,5.12591-9.79206,11.70943-11.24451,19.46659-1.0607,5.66528-1.04289,11.42967-.01172,17.10924.9419,5.18964,3.4991,9.53484,7.80375,12.6975,4.27559,3.14157,9.21778,4.37636,14.40177,4.12331,7.89911-.3859,14.82726-3.22006,20.51407-8.92471,2.3728-2.38031,3.8194-5.17183,3.99091-8.40338.40511-7.62993.53656-15.27439.64176-18.58912Z"/><path class="cls-2" d="m2241.93599,2448.29073c-14.04633,0-28.09289-.02531-42.13921.01921-3.18514.01008-6.37004.24626-9.55377.40793-2.51011.1277-4.9129,2.45342-5.10479,4.73977-1.08858,12.98007,1.24884,25.4271,6.04178,37.42848,1.41028,3.53122,3.27441,6.931,5.30325,10.15669,7.24868,11.52339,18.05926,17.73461,31.19602,20.13882,5.66103,1.03587,11.41954,1.10311,17.18249.94589,10.58729-.28866,19.95244-3.96492,28.43427-10.07937,5.72148-4.12495,10.71803-9.04702,15.3357-14.37841,1.22307-1.41193,2.77698-2.56448,4.28613-3.69266,1.13357-.84772,2.38147-.68698,3.62399-.14082,2.97567,1.30789,5.49843,3.14766,7.3246,5.86538.7561,1.12537.97143,2.39343.49837,3.67766-.4344,1.17903-.87091,2.40984-1.57992,3.42766-14.97698,21.50013-35.80549,34.0601-61.04993,39.83925-.62184.14246-1.24908.27812-1.88123.35825-23.18913,2.93843-45.86559,1.44614-67.62077-7.88744-1.75822-.75423-3.46677-1.6303-5.1704-2.50449-24.46468-12.55856-38.45688-32.80258-43.52255-59.52515-.83108-4.38456-1.45855-8.83145-1.81656-13.27858-1.69332-21.02824,2.84235-40.62605,14.12857-58.4996,12.1494-19.23955,29.69108-31.26483,51.32793-37.61123,9.24613-2.71232,18.68415-3.9675,28.34265-3.98531,11.53411-.02156,22.93584.59935,34.16723,3.59472,8.10647,2.16171,15.71832,5.33163,22.71958,9.87458,15.89874,10.31672,25.1704,25.00863,28.20488,43.65187,1.13005,6.94201,1.86483,13.9351,1.02907,20.97623-.14714,1.24041-.50633,2.60197-1.21323,3.58816-.69893.97495-1.89037,2.0394-2.99184,2.20013-3.1432.45901-6.34989.63263-9.53245.64481-15.32305.05834-30.64657.02671-45.96986.02671v.02085Zm-32.43713-13.09559c9.0957-.43909,16.7338-.77274,24.36697-1.19309,3.16405-.17432,5.57364-3.04691,5.5174-6.56478-.08201-5.09568-.27367-10.18996-.42761-15.28447-.21439-7.1072-2.14131-13.85263-4.60877-20.43334-.88169-2.35173-2.31704-4.53921-3.74887-6.63109-2.2102-3.22873-5.2674-5.39489-8.92818-6.90054-5.027-2.06705-9.86001-1.86484-14.86124.07615-4.30019,1.66919-7.75618,4.31966-10.62079,7.84924-2.84399,3.50404-4.95624,7.44764-6.42252,11.67405-3.5865,10.33851-5.32363,20.98091-4.78145,31.95697.10028,2.03377,2.84188,5.03031,4.95765,5.07741,7.00149.15628,14.00415.27015,19.5574.37348Z"/><path class="cls-2" d="m546.32828,2448.29589c-14.70086,0-29.40195-.03561-44.10257.02835-3.18314.01382-6.36524.37817-9.54686.5949-1.2417.08482-3.63781,2.62165-3.71361,3.8944-.07533,1.26549-.40992,2.51762-.46029,3.7824-.41331,10.37553,1.92552,20.3436,4.93551,30.13079,1.68676,5.4851,4.21959,10.69372,7.54801,15.45528,7.35201,10.51799,17.55703,16.56847,30.00188,18.90356,6.29448,1.18114,12.69497,1.2772,19.10871.96323,9.21075-.45034,17.45358-3.54926,25.04657-8.63042,5.34074-3.57363,10.10497-7.80098,14.47159-12.50396,2.16263-2.3297,4.38595-4.60692,6.66386-6.82369.95151-.92551,2.22824-.91122,3.58076-.45643,2.47965.83366,4.45694,2.40796,6.42451,4.05513,2.0627,1.72613,2.81166,4.81217,1.62643,6.83751-.32111.54898-.4952,1.19098-.85322,1.70996-15.73051,22.80522-37.70172,35.95633-64.61933,40.89245-11.99183,2.19919-24.23904,1.69731-36.31862.17151-12.10476-1.52861-23.81331-4.72501-34.68259-10.4723-3.38394-1.78916-6.75957-3.64392-9.92877-5.78032-14.24443-9.60419-24.20343-22.64097-30.01067-38.74153-6.89781-19.12474-8.14993-38.87531-3.69862-58.56403,4.80313-21.24521,15.95474-38.92874,33.84987-51.82657,15.43001-11.12132,32.79245-17.10479,51.77593-17.96141,7.64384-.34513,15.3507-.18042,22.9854.36364,11.56481.82382,22.67858,3.73132,33.09599,8.94978,5.15868,2.58416,9.931,5.77634,14.31449,9.55499,9.49016,8.18055,15.88679,18.39347,19.01065,30.42273,2.08203,8.01724,3.63043,16.23388,3.38629,24.62109-.05506,1.89694-.42843,3.78662-.683,5.67559-.20068,1.48925-2.35804,3.84262-3.6698,3.98086-2.53143.26687-5.06625.69495-7.60108.70526-15.97899.06443-31.95821.03257-47.93743.03257v.03468Zm-31.27345-13.2828c6.54752-.20221,12.29209-.33529,18.03173-.58225,1.90056-.08177,3.78542-.48431,5.68306-.68956,2.11659-.22915,4.29761-3.02606,4.39579-5.4769.3333-8.31786-.29218-16.58979-1.48455-24.79893-.82932-5.71003-2.82759-11.11922-5.65892-16.17108-4.73565-8.44977-15.55782-12.96273-24.64896-9.30873-4.91864,1.97707-8.8737,4.88457-12.03353,9.06857-2.33625,3.09331-4.18632,6.47996-5.39053,10.09741-3.44123,10.33781-5.9231,20.87805-5.30477,31.90683.03479.62021.36926,1.22214.41448,1.84352.09314,1.28025,2.56411,3.60597,3.86415,3.81028,7.63564,1.20222,15.29189.12535,22.13206.30085Z"/><path class="cls-2" d="m1329.19075,2396.03398c0,31.91221-.00398,63.82443.00398,95.73664.00117,5.10552.16144,10.21339.06279,15.31634-.20056,10.37459,4.94781,16.75755,14.54352,19.94903,2.41779.80437,4.83675,1.60898,7.23392,2.47146,2.95364,1.06234,4.48881,4.16783,3.90867,7.77661-.35239,2.1924-3.04901,4.94174-5.01927,5.07014-2.54478.16565-5.09191.41542-7.63833.41777-28.08258.02835-56.16515.03116-84.24773-.01218-2.53529-.00398-5.07152-.36107-7.60471-.58389-1.86202-.16355-4.53016-3.36697-4.42496-5.5739.05986-1.25588.03456-2.62305.53234-3.72031.48923-1.07828,1.42774-2.34681,2.45727-2.70647,2.38311-.83225,4.97663-1.03938,7.41726-1.73644,2.43501-.69565,4.88092-1.4855,7.15648-2.57877,4.32151-2.07642,6.89922-5.67161,7.46776-10.40224.45525-3.78755.56432-7.63345.57674-11.45427.06022-18.50899.04007-37.01821.041-55.52719.00211-38.93295.00914-77.86567-.01218-116.79863-.00328-5.7426-.07978-11.48754-.25856-17.2271-.1216-3.90353-1.55227-7.44554-3.41171-10.85023-2.22238-4.06919-5.48343-6.94998-9.5929-9.00999-4.61217-2.3119-9.59231-3.41594-14.52747-4.71283-3.59048-.94355-5.71738-5.28008-4.59471-9.20775.5553-1.94286,1.97495-3.4225,3.73142-4.06685,1.74557-.64012,3.75473-.65418,5.65846-.7561,21.03001-1.12678,42.06013-2.25121,63.09483-3.28614,3.80417-.18698,7.62896-.00469,11.44297.07826,2.24932.04874,5.00849,2.62844,5.27771,4.75172.1598,1.25893.54242,2.50543.56491,3.76248.10356,5.74213.15136,11.48614.15347,17.22944.01242,32.55046.00609,65.10093.00703,97.65139Z"/><path class="cls-2" d="m1393.54696,2448.91844c0-15.35218.03327-30.7046-.02788-46.05655-.01265-3.18304-.35685-6.36585-.5874-9.54632-.15183-2.09212-2.96231-4.79132-5.15892-4.93893-3.18139-.21416-6.36652-.377-9.55096-.54382-3.81987-.20033-7.64231-.35544-11.46054-.58178-2.27416-.13449-4.30886-2.6029-4.60549-5.30257-.28117-2.55792-.25375-5.07647.28726-7.60486.47236-2.20739,3.08954-4.58138,5.39393-4.6737,6.3848-.2561,12.77405-.42386,19.15557-.74673,4.91688-.24883,6.6819-3.2128,6.85528-7.52356.20595-5.10951.1844-10.22932.22259-15.34492.04756-6.39631.01218-12.79356.10755-19.18894.02835-1.90725.3791-3.80934.57545-5.71448.11528-1.11975,2.74792-3.55184,3.99114-3.68305.63075-.06678,1.24135-.39715,1.86764-.41988,14.70261-.53843,29.4064-.59842,44.10784.03725,2.93865.12676,5.77139,3.26318,5.87167,6.47832.15933,5.11091.29288,10.22323.35661,15.33602.08763,7.03503.03866,14.07264.1851,21.10627.03913,1.88054.32568,3.84449.97846,5.59077.39621,1.06117,1.56914,2.18068,2.6453,2.56026,1.77228.6256,3.74489.89435,5.63971.92598,8.95325.14996,17.90954.10778,26.86232.27062,2.52674.04592,5.04762.53234,7.56546.86131,1.40606.18346,3.46162,2.35501,3.83065,3.92439.7404,3.15001.8688,6.28525-.00164,9.44651-.33506,1.21698-2.69099,3.62284-3.92554,3.65986-7.02586.21111-14.05242.38965-21.07874.57827-5.74515.15441-11.51302-.37137-17.2317.62935-1.27719.22376-3.79737,2.40843-4.03051,3.67602-.22962,1.24674-.69752,2.46771-.78492,3.71914-.17784,2.54901-.22774,5.11138-.22892,7.66813-.01312,25.58713-.06139,51.17449.03468,76.76116.0239,6.38741.46837,12.77623.84068,19.15731.2261,3.87518,1.44683,7.52075,3.12797,11.00605,2.98434,6.18661,7.77985,9.96948,14.62904,11.09204,5.73601.94027,11.47226.60451,17.22326.23126,3.79972-.24672,7.61232-.9794,11.4118.04663,1.40864.38051,2.17364,1.22495,2.57407,2.46209.81585,2.52019.78234,5.06757.13777,7.55941-.47353,1.83227-1.30906,3.46234-3.22684,4.46657-9.71849,5.08772-20.0628,8.45024-30.75388,10.5133-11.37619,2.19521-22.94967,2.13523-34.39052.48267-5.00311-.72236-10.00527-2.32525-14.67075-4.31755-7.85014-3.35221-13.94721-8.97907-18.11713-16.50286-3.12539-5.63904-5.4436-11.60071-5.92181-18.0952-.37512-5.09779-.64668-10.21386-.67737-15.3236-.0881-14.71206-.03093-29.42506-.03093-44.13759h-.0164Z"/><path class="cls-2" d="m1777.70175,2542.76845c-15.35047,0-30.7014.04053-46.0514-.04053-2.52346-.01336-5.04575-.54898-7.56523-.86693-1.39435-.1762-3.33462-2.31119-3.5059-4.04904-.12278-1.24932.02366-2.52722.07732-3.79107.09325-2.19545,1.57851-3.6151,3.31564-4.23883,2.37819-.85428,5.03099-.91332,7.47385-1.62796,2.43396-.71229,4.8405-1.64248,7.10247-2.78683,2.9752-1.50448,4.9546-4.04435,5.78967-7.26981.63801-2.46419,1.1652-5.00337,1.32382-7.53527.27999-4.46306.31912-8.9465.32381-13.42127.02648-24.9449.03889-49.88956-.01031-74.83446-.01008-5.11044-.02015-10.24924-.52906-15.32477-.97752-9.74642-6.02631-16.65774-15.29236-20.22668-2.38405-.91848-4.86768-1.57571-7.27071-2.44896-4.42414-1.60781-5.52935-3.557-5.13947-8.82208.10872-1.46769,2.12022-3.75897,3.50637-3.98765,1.88849-.3121,3.76738-.77555,5.66853-.90442,12.7621-.86342,25.51975-1.88124,38.29708-2.4007,10.85205-.44143,21.70551-1.37397,32.58685-.75212,1.3182.07521,3.95694,2.1999,4.19663,3.4785.34982,1.86554.84771,3.7107,1.0764,5.58983.38426,3.16219.43135,6.37546,1.00048,9.49805.1769.97049,1.50377,1.83415,2.47379,2.49981.32756.22517,1.30836-.14996,1.76759-.52438,2.96138-2.41546,5.76155-5.03781,8.80446-7.34197,4.07104-3.08276,8.1613-6.18942,12.51468-8.84059,10.11423-6.15826,21.12443-9.08216,33.00297-7.77966,12.3038,1.3496,21.56329,7.36259,27.33632,18.49071,2.72449,5.25079,3.62141,10.84227,3.67811,16.68913.07053,7.26887-1.86319,13.91097-5.86254,19.92607-6.16971,9.27992-14.91841,13.70314-26.02983,13.35332-6.5364-.20572-12.5688-2.28612-18.09698-5.67067-6.53593-4.00171-9.45044-10.28954-9.97107-17.65424-.26804-3.79365.26195-7.64305.41964-11.46786.07053-1.71324-1.92739-3.56051-3.80417-3.36604-1.87772.19471-3.85548.28164-5.57832.95526-5.40588,2.11367-10.11516,5.39067-14.51915,9.16651-4.65399,3.9907-6.99563,8.83239-6.97361,15.06563.09981,28.14223.03585,56.28517.05084,84.42788.00258,4.49469.42479,8.94041,1.93231,13.22516,1.11623,3.17297,3.2095,5.68121,6.15448,7.02824,3.46091,1.5825,7.15777,2.72849,10.84643,3.70883,3.07361.81656,6.2892,1.08905,9.43099,1.66217,2.44567.44659,4.20366,2.64836,4.45202,5.50572.05483.62981-.01546,1.27673-.08177,1.9103-.2732,2.62024-2.44356,5.12216-4.62986,5.26977-3.1842.21556-6.37191.51688-9.55869.52906-14.71081.056-29.4221.0246-44.13314.0246v-.02976Z"/><path class="cls-2" d="m1205.56954,2442.27516c0,19.17418-.04323,38.34883.03245,57.52254.01757,4.46165.18932,8.95306.7438,13.37394.59127,4.7133,3.46466,8.19742,7.43202,10.63514,4.38173,2.69241,9.34489,4.06052,14.15153,5.77728,3.31108,1.18278,4.695,6.22058,2.80099,9.76141-.63579,1.18863-1.5491,2.05228-2.85465,2.42225-1.2096.34279-2.43454.76196-3.67308.84514-2.54736.17104-5.10819.18393-7.66352.1851-26.20474.01125-52.40937.03069-78.61411-.01804-3.82116-.00703-7.64372-.3285-11.46183-.56491-2.27135-.14011-4.37915-2.68889-4.49795-5.31944-.02859-.6338-.08927-1.27673-.0205-1.90303.31912-2.90492,1.99065-4.87403,4.44054-5.48135,3.70623-.91895,7.5514-1.10616,11.15782-2.62797,5.85879-2.47239,9.1073-6.87594,10.06362-12.96484.49274-3.13689.57381-6.36234.57791-9.5482.03866-30.03964.02941-60.07952.00246-90.11916-.00223-2.55136-.00586-5.13762-.39691-7.64727-1.26325-8.11003-5.41162-14.32967-12.96079-17.78732-4.04375-1.85195-8.3908-3.03707-12.58509-4.56685-3.14788-1.14786-4.59952-3.6301-4.46233-7.56058.02191-.62677.28937-1.24159.35075-1.87117.13484-1.3817.82159-2.41171,2.22074-2.81542,1.81235-.52297,3.65-1.18301,5.50616-1.29501,17.22256-1.04219,34.44816-2.04619,51.68033-2.91289,7.01496-.35286,14.04773-.40019,21.07335-.43698,1.20526-.00633,2.56704.5143,3.57947,1.20035,1.00376.68042,2.02322,1.75542,2.39483,2.87095,1.01794,3.05464.95139,6.29064.95128,9.48868-.00059,20.45255-.00023,40.90511-.00023,61.35766h.03093Z"/><path class="cls-2" d="m380.95692,2442.42746c0,18.5125-.0253,37.025.01828,55.5375.01054,4.46353.0314,8.94626.43499,13.38519.5662,6.22738,4.11603,10.70965,9.56115,13.39479,3.98259,1.96419,8.32109,3.2046,12.49511,4.78335,3.37598,1.27697,4.73787,5.74119,2.97579,9.7108-.55882,1.25893-1.48069,2.10008-2.77124,2.45014-1.21733.33014-2.43794.76969-3.67952.86248-2.5422.19002-5.09941.24063-7.65051.24204-26.81112.015-53.62213.0239-80.43325-.01078-3.18514-.00422-6.37215-.24251-9.55424-.43885-3.14659-.19401-5.35363-3.12986-5.22956-6.82064.0922-2.74934,1.82383-5.27352,4.07538-5.77611,1.86424-.41566,3.7743-.64668,5.61499-1.14224,2.44907-.65934,4.94676-1.27814,7.25196-2.30135,4.99186-2.21536,8.14771-6.03501,8.87089-11.55948.33025-2.52324.52789-5.08373.53129-7.62759.04124-31.27959.03889-62.55941.03362-93.839-.00035-1.91358-.05284-3.83231-.19564-5.73979-.68733-9.17588-5.66666-15.31915-13.74091-19.20792-4.59834-2.21489-9.9706-2.45318-14.24466-5.43613-.94073-.65629-1.82582-1.93326-1.99206-3.0366-.27695-1.83766-.23606-3.84004.22997-5.62732.26277-1.00798,1.51829-1.96137,2.55427-2.50777,1.08542-.57264,2.43056-.77649,3.68479-.88638,24.17438-2.12726,48.40463-3.16664,72.66312-3.59659,1.24146-.02226,2.48562.46158,3.73856.63989,1.23174.17526,3.85794,2.62774,3.95588,3.75358.27589,3.16945.73689,6.34031.74743,9.51188.06783,20.42772.03468,40.8552.03468,61.28291h.01945Z"/><path class="cls-2" d="m1206.22325,2303.00989c.10485,7.4767-2.49441,13.87067-7.19374,19.41341-7.54437,8.89893-17.38036,12.76428-28.85906,12.29473-10.00809-.4091-18.52775-4.34637-25.22758-11.94186-8.75503-9.92496-10.15933-24.49784-2.98809-35.57769,6.24785-9.65316,15.08804-15.43817,26.84475-16.0626,2.54197-.13519,5.1192-.15441,7.64782.097,11.68735,1.16356,20.18698,7.28129,26.07131,17.22874,2.6583,4.49399,3.88641,9.41441,3.70459,14.54828Z"/><path class="cls-2" d="m381.50004,2303.5748c.17772,8.05075-2.93056,14.79454-8.48745,20.58728-7.59065,7.91321-17.01555,11.04541-27.71331,10.53369-8.55868-.40957-16.11078-3.50498-22.42049-9.46595-5.82469-5.50291-9.0308-12.27294-9.90944-20.1592-.20923-1.87843-.17444-3.85199.1523-5.71074,2.30193-13.09559,10.05905-21.7656,22.2259-26.56114,4.81215-1.89671,9.97528-1.94825,15.11393-1.71184,8.71625.40066,16.00207,3.91994,22.10148,10.03579,6.16479,6.18075,9.39444,13.56068,8.93708,22.45212Z"/><path class="cls-2" d="m981.24516,537.23094c-.37325-19.90639,3.35993-38.65694,10.25305-56.73211,18.73406-49.12502,51.25671-86.48426,96.9857-112.29515,16.27878-9.18818,33.85233-15.00307,52.20095-18.48052,1.88264-.35685,3.78648-.65488,5.69442-.81574,14.05652-1.18547,28.15533-1.50588,42.12703.4617,15.86277,2.23387,31.3291,6.23593,46.13961,12.53653,30.70444,13.06185,56.11946,32.87123,76.16703,59.54706,3.4499,4.59052,6.79483,9.25988,10.20678,13.87922.96205,1.30262,4.11392,1.23409,5.06426-.09337,3.34376-4.67053,6.61489-9.39531,10.05167-13.99626,24.10736-32.27187,55.31299-54.56408,93.82282-66.51883,24.81918-7.70456,50.1126-9.72217,75.84604-6.07871,7.62521,1.07968,14.96738,3.33359,22.25964,5.70605,11.59831,3.77326,22.56564,8.97415,33.06038,15.1597,47.1934,27.81608,82.94921,75.1585,97.71579,121.49154,4.69898,14.74393,7.44948,29.78659,7.83023,45.19981.41425,16.76774-2.47941,33.08855-7.73603,49.02087-4.01598,12.17137-8.9495,23.95425-14.69019,35.39084-7.45862,14.8592-15.43599,29.44521-23.87657,43.77055-9.76089,16.56565-21.04782,32.04928-33.20963,46.93204-11.73421,14.35931-23.46865,28.72823-34.80806,43.39824-34.46644,44.59003-65.68448,91.36321-93.35327,140.47511-13.49899,23.96093-26.01695,48.42503-37.26778,73.53711-4.98225,11.12004-9.05025,22.50191-12.08988,34.30612-7.49728,29.11917-13.69745,58.47605-17.92383,88.27014-2.9663,20.91144-4.8487,41.91239-6.63761,62.93512-.10825,1.27123-.33014,2.53285-.43745,3.80407-.20244,2.4014-2.6296,4.95908-4.83253,5.12696-8.28337.63145-23.9635.2083-32.47204-.87255-1.19636-.15195-3.95038-2.61825-4.01809-3.68715-.24251-3.82094-.64598-7.6427-.66214-11.46552-.12278-28.77978-.0635-57.56062-.26336-86.33969-.2664-38.37214-.70877-76.74311-1.09537-115.1142-.04522-4.47606-.2083-8.95107-.32826-13.42619-.87442-32.60435-1.72448-65.20953-2.64413-97.81271-.27039-9.58803-.68628-19.17289-1.12865-28.75483-.73712-15.97099-1.59936-31.93635-2.31282-47.90827-.5136-11.50219-1.09209-22.98997-2.40279-34.44166-.79945-6.98395-1.09233-14.02543-1.63685-21.03914-.69284-8.92799-1.8503-17.78135-4.47756-26.37897-.17667-.57874-.82967-1.53236-1.08132-1.47812-1.12935.24356-2.43583.5382-3.2163,1.29243-.85568.82675-1.53305,2.12539-1.72401,3.30922-2.13826,13.25714-3.96092,26.5513-4.76997,39.97397-.6926,11.48954-1.65091,22.9629-2.38897,34.44998-.49204,7.65711-.84842,15.32383-1.18746,22.98962-.84771,19.1661-1.74604,38.33055-2.44286,57.50239-.60404,16.61626-1.06726,33.23932-1.40372,49.86332-.82803,40.92256-1.7458,81.84489-2.25659,122.77202-.54242,43.48505-.6523,86.97536-.9644,130.46346-.04592,6.39268-.12137,12.78595-.29218,19.17617-.03304,1.22554-.49087,2.46736-.90629,3.64732-.46275,1.31387-1.40864,2.17108-2.62983,2.49032-1.2301.32158-2.48316.69401-3.73997.75271-7.6641.35802-15.33149.66719-23.00028.90161-1.24205.03796-2.49605-.38707-3.74723-.58155-1.4384-.22353-3.67999-2.47286-3.79199-3.87354-.25492-3.18246-.60404-6.36316-.70315-9.55112-.7158-23.05147-3.44639-45.86993-7.25384-68.60813-4.12798-24.65038-10.14211-48.80355-17.91235-72.52866-10.78949-32.94398-25.24737-64.23411-43.13981-93.9073-8.25221-13.68557-16.67921-27.28268-25.52046-40.59219-13.09001-19.70559-26.53183-39.18003-39.97881-58.64569-34.52806-49.98153-69.15664-99.89346-103.7038-149.86187-5.09015-7.36212-10.14129-14.76326-14.88865-22.34785-10.90465-17.42181-19.63215-35.83965-25.29213-55.6857-4.76822-16.71901-7.52856-33.66986-7.18413-50.62001Z"/><path class="cls-2" d="m819.87068,596.94951c18.20066-.22704,33.40293,1.50085,48.34957,5.3328,8.06992,2.06904,15.83243,5.02855,23.37704,8.53131,12.78518,5.93637,24.84378,13.14807,36.47431,21.08998,14.26915,9.74361,27.86034,20.36727,40.98151,31.60035,34.55805,29.58497,66.25267,62.0252,95.79977,96.56667,16.62157,19.4311,32.65784,39.3492,47.9229,59.87755,45.69713,61.45361,81.37457,128.32413,108.1646,199.9985,8.29063,22.18114,14.98226,44.83406,19.63238,68.06548,2.63358,13.15674,5.15868,26.33257,6.36758,39.72432.86177,9.54527,2.74582,18.99142,2.87398,28.60675.0253,1.89319-.11809,3.86031-.63848,5.66212-.31631,1.09573-1.34514,2.18596-2.34375,2.82877-1.02087.65711-2.38452,1.02017-3.61708,1.07359-15.34496.66601-30.5402,2.91922-45.80315,4.41128-12.70376,1.24194-25.31356,3.45613-37.95711,5.29449-4.42484.6434-8.81665,1.51104-13.24008,2.16475-4.02945.59537-7.48779-.40535-10.28878-3.63022-4.18796-4.82166-8.46894-9.56917-12.86039-14.20608-5.74245-6.06372-12.28494-11.19197-19.36844-15.59399-5.98906-3.72206-12.30556-6.82767-19.12851-8.70809-15.59449-4.29822-25.56134-3.93833-41.40994,1.30696-14.79247,4.89594-27.84827,12.74518-39.30178,23.26352-8.50959,7.8148-15.98543,16.54726-22.47239,26.10366-3.9478,5.81594-7.6764,11.78019-11.60522,17.60913-10.78621,16.00297-23.48728,30.27899-38.48066,42.48058-19.11269,15.55392-40.44917,26.76616-64.38046,32.82624-21.91709,5.55024-44.06356,6.97669-66.55176,3.96305-20.45959-2.74208-40.09643-8.09761-58.49508-17.45742-50.14716-25.51098-82.25591-65.69536-96.90908-119.93528-18.2419-75.76559,11.88662-149.78408,69.80145-191.93499,5.1574-3.7537,10.41191-7.3736,15.6123-11.06837,1.26841-.90102,1.0211-3.89697-.43698-4.92851-4.68691-3.3159-9.4529-6.52249-14.08698-9.90996-28.0192-20.48208-48.8716-46.64243-62.1316-78.76412-11.69578-28.33237-16.14101-57.83956-12.85032-88.25854,8.38506-77.51105,62.12258-138.12245,134.35997-158.03586,15.49187-4.27081,31.34035-6.1408,44.64065-5.95043Z"/><path class="cls-2" d="m1824.50842,600.0475c83.46281.00738,152.66982,53.51134,175.98266,127.24644,3.28448,10.38771,5.9033,20.91261,6.91433,31.79658.35497,3.81977.98267,7.61588,1.28094,11.43881.34794,4.45884.76664,8.9431.64691,13.40276-1.17176,43.65433-14.82492,82.73982-42.96326,116.45595-10.72061,12.84546-23.05276,23.92356-36.813,33.43427-3.66452,2.53261-7.85366,4.41081-10.72365,7.9398-.64574.79395-.77297,2.50836-.3859,3.50756.41542,1.07394,1.62139,1.94146,2.64928,2.66125,4.18983,2.93386,8.53806,5.64747,12.65784,8.67377,31.89752,23.43081,54.24058,53.85929,66.64794,91.48528,6.25828,18.97842,9.61,38.50991,9.18029,58.47546-1.98854,92.41934-65.86513,157.56631-137.67035,175.43494-27.13294,6.75199-54.38303,7.94062-81.75285,2.39648-23.49232-4.75875-44.94782-14.44987-64.36558-28.5832-18.29685-13.31771-33.58405-29.50215-46.17112-48.2684-3.56143-5.30984-6.97056-10.72136-10.53199-16.03109-6.79413-10.12881-14.54774-19.45921-23.51457-27.74614-14.40505-13.31232-31.12198-22.24734-50.31504-26.48253-8.25197-1.82079-16.48309-1.78037-24.73038.02601-10.12196,2.217-19.41424,6.32262-27.97948,12.12497-6.37613,4.31931-12.26749,9.21642-17.60424,14.76888-3.54409,3.68727-6.95463,7.50809-10.60181,11.08876-1.35639,1.33144-3.32455,1.81739-5.31098,1.71594-1.27368-.0649-2.56915-.03901-3.81518-.26769-18.24483-3.35046-36.60658-5.74377-55.07072-7.58389-13.36567-1.33203-26.70979-2.76106-40.13028-3.40189-1.90607-.09091-3.79503-.50481-5.69665-.72893-1.80719-.2131-4.52911-3.60585-4.44171-5.63669.24672-5.746.20127-11.52515.82686-17.23026,2.09117-19.06839,4.86674-38.03627,9.00526-56.78893,5.6615-25.6552,13.60513-50.59623,23.23716-75.01722,30.24263-76.67517,70.70516-147.43247,122.24701-211.83704,26.80234-33.49085,54.91936-65.77116,85.61466-95.7698,17.39243-16.9976,35.32868-33.37733,54.3746-48.51583,12.02287-9.5564,24.41079-18.59978,37.49342-26.67208,8.71683-5.37837,17.67125-10.28977,27.02422-14.48572,13.53062-6.06993,27.65872-9.90317,42.38711-11.49047,8.26345-.89071,16.52152-2.01023,22.41826-1.53611Z"/><path class="cls-2" d="m1276.30856,1320.39583c7.02398.3456,14.04914.66941,21.07078,1.05766,1.26407.06982,2.5094.43511,3.77066.61177,2.22566.31186,4.94781,2.91289,5.08652,5.03125.29171,4.45368.65324,8.90924.74392,13.36879.64996,31.96142,1.17691,63.92588,1.88334,95.88613.22587,10.22323.9077,20.43615,1.32429,30.6561.57264,14.05343,1.16262,28.10685,1.61038,42.1645.38707,12.14524.95549,24.27221,2.0736,36.37715.64691,7.00059,1.11529,14.02554,1.40114,21.05003.59912,14.7226,2.69825,29.27557,4.69921,43.84143.16893,1.22987.77344,2.40609,1.22002,3.59027.49954,1.32453,1.47799,2.02159,2.79408,2.37445,1.23057.33014,2.13873-.13965,2.58087-1.74042,2.39084-8.65502,3.64836-17.50053,4.303-26.43743,1.77415-24.22464,4.38548-48.39563,4.65938-72.71774.03585-3.19429.23618-6.39069.47189-9.57795,2.12093-28.70996,2.43935-57.48435,3.1521-86.24585.41191-16.6172.98994-33.23042,1.44683-49.84668.33435-12.1429.58084-24.2879.89926-36.4315.05014-1.91381.26687-3.82364.41753-5.7344.23524-2.98248,3.08931-5.44644,6.58419-5.71144.63661-.04803,1.26688-.20127,1.90302-.22634,12.13815-.47916,24.2756-.98596,36.41656-1.37444,1.87373-.05975,3.83439.20759,5.62237.75587,1.08132.33154,2.38803,1.31352,2.76995,2.31658,2.51151,6.59805,3.45248,13.58856,4.73576,20.4877,3.97545,21.37384,8.8286,42.53447,15.23894,63.32255,3.20435,10.39099,6.95299,20.56666,11.34456,30.5263,7.85319,17.81075,18.8798,33.27541,33.2094,46.45792,15.65576,14.40254,33.10771,26.07613,52.33216,35.13626,19.17713,9.03811,39.19916,15.46043,60.01384,19.46097,1.84796.35521,3.61485,1.14224,5.4129,1.74792,1.42481.48033,2.55954,3.34073,1.94543,4.87286-.9487,2.36579-1.7772,4.78921-2.87351,7.0847-50.91134,106.62647-138.81375,181.32972-238.90235,218.13822-1.19941.44096-2.38874.90864-3.5776,1.37725-5.66619,2.23364-11.17094,1.84586-16.72607-.61341-103.98988-46.03523-181.6492-119.67988-232.40485-221.5462-.85053-1.70715-1.43301-3.54809-2.14389-5.32507-.50364-1.25893.96463-4.32388,2.31282-4.77984,5.43833-1.83907,10.90559-3.5987,16.3049-5.54625,21.14517-7.62712,41.15607-17.47218,59.5143-30.54574,8.87159-6.31759,17.17792-13.29076,25.06368-20.80378,12.64706-12.04964,22.58028-26.0049,30.23033-41.68417,7.87627-16.1432,13.78918-33.00197,18.75491-50.21595,4.60561-15.96607,8.56102-32.09333,11.83718-48.39024,1.25775-6.25667,2.87257-12.44117,4.30207-18.66363.30249-1.31727,2.7915-3.51295,4.10853-3.54575,4.46444-.11176,8.92911-.20525,13.39426-.27062,2.55486-.03749,5.11065-.00679,7.66598-.00679.00047.0956.00094.19119.00141.28702Z"/><path class="cls-2" d="m1325.07554,1189.31252c28.80775.00211,57.56981.96721,86.3082,2.81179,5.74398.36868,11.50178.52133,17.25138.81046,10.2206.5136,20.45198.87501,30.59034,2.45552,2.52393.39363,5.08418.59373,7.63575.76395,21.09069,1.40736,41.92389,4.75032,62.70951,8.4049,10.71592,1.88417,21.23807,4.62988,31.55919,8.07793,5.46679,1.8263,10.71686,4.1792,15.62694,7.25258,3.27792,2.05228,6.26296,4.4408,8.75831,7.39305,3.81378,4.51179,6.21634,9.60466,6.52585,15.62585.38496,7.48068-2.28611,13.74602-7.21611,19.19831-2.59797,2.87306-5.63549,5.19948-8.95934,7.15242-6.09848,3.58371-12.65104,6.08516-19.37324,8.23257-8.54743,2.7306-17.29215,4.76836-26.06967,6.37851-11.30707,2.07478-22.68303,3.84964-34.07656,5.50455-20.28679,2.94663-40.76994,3.62354-61.08485,6.09898-2.53588.30905-5.09987.44073-7.6552.53305-38.99156,1.40841-77.97094,3.68516-117.00773,2.78379-29.41436-.67902-58.81631-1.87913-88.22376-2.84705-20.31878-2.43678-40.86331-2.58392-61.08309-6.02424-11.53575-.5949-22.81248-3.05277-34.17368-4.8595-11.37221-1.80884-22.57548-4.47594-33.57878-7.89868-6.11488-1.90209-12.04138-4.29904-17.62709-7.47107-3.9239-2.22825-7.479-4.93401-10.37723-8.41275-4.21959-5.06452-6.78534-10.75721-6.65167-17.5174.11914-6.03291,2.42201-11.19126,6.08337-15.80967,2.80955-3.54364,6.31088-6.28713,10.20607-8.60476,4.98003-2.96291,10.31116-5.0726,15.72805-7.03304,7.84229-2.83838,15.95685-4.76355,24.08557-6.39549,10.64586-2.13745,21.3544-3.99655,32.10781-5.63997,17.72479-2.70893,35.61957-3.68106,53.37564-5.98757,5.06414-.6577,10.20303-.77403,15.31239-1.04559,16.60763-.88263,33.20998-1.94111,49.8285-2.52125,19.8142-.69167,39.64293-.95901,59.4651-1.41017Zm-1.80555,69.86249c20.09748-.26055,38.00748-.36763,55.91117-.76618,12.78647-.28468,25.60762-.46275,38.33621-1.57149,22.29197-1.94169,44.67907-2.72287,66.88482-5.83398,9.50246-1.33156,18.99718-2.61134,28.401-4.50711,1.61248-.32522,2.28072-1.28353,1.86038-2.19404-.25445-.55202-.69378-1.17832-1.21393-1.42224-3.50238-1.64295-7.2283-2.57127-11.05168-3.04082-5.07785-.62349-10.18428-1.02251-15.25323-1.70621-25.36863-3.42215-50.85628-5.47198-76.41563-6.67889-8.94411-.42234-17.89548-.71206-26.84639-.95234-26.21329-.70339-52.42331-1.68196-78.65441-.97811-8.9509.24016-17.90274.44952-26.85435.6577-49.6796,1.15536-80.91229,3.50697-128.11669,9.4615-4.46104.56257-8.83481,1.47613-12.95927,3.31543-.51922.23149-.99392.87373-1.19706,1.43231-.32568.89528.42784,1.81212,2.01057,2.11461,6.28018,1.19988,12.54022,2.6828,18.88237,3.34636,17.80352,1.86297,35.51741,4.67393,53.45132,5.23017,3.83311.11879,7.67336.36528,11.48362.79195,14.64064,1.64108,29.34782,2.08017,44.05278,2.40351,19.82217.43628,39.64973.63192,57.28841.89786Z"/><path class="cls-2" d="m1584.14566,1518.86596c-37.24974-.20689-68.12289-11.951-94.22348-35.99804-10.38602-9.56881-19.50914-20.22949-27.58163-31.7892-7.69363-11.01729-14.38747-22.63113-20.32733-34.68593-13.62294-27.64738-23.07057-56.74066-30.02449-86.69244-.42643-1.83508-.27203-3.7995-.46228-5.69621-.14175-1.41591,1.79079-4.13643,3.09141-4.29319,8.87546-1.07007,17.73381-2.33579,26.63457-3.12681,10.81925-.96159,21.65513-1.64858,32.36145-3.63947,3.13031-.58202,6.34942-.6837,9.52565-1.02462,8.07531-.8667,10.36235.28866,13.12715,7.56667,4.09049,10.76776,9.17373,21.06948,15.14053,30.93563,7.31663,12.09885,15.98496,23.10279,26.28335,32.80515,7.95745,7.49661,16.71716,13.86997,26.59545,18.60013,18.40205,8.8113,37.55129,11.91164,57.78232,7.90688,11.98398-2.37235,23.53683-5.95933,34.57281-11.08384,8.10108-3.76178,15.9941-7.98631,23.88267-12.18695,6.76414-3.60198,13.32514-7.58659,20.09935-11.16842,5.07316-2.68257,10.31573-5.05163,15.53955-7.43663,1.72729-.78867,3.59306-1.40747,5.45977-1.7341,8.37779-1.46605,14.87155.53562,17.828,10.08569,1.35077,4.36301,1.76572,8.80615,1.14762,13.25913-1.05414,7.5908-2.45903,15.11249-5.139,22.35863-15.85445,42.86765-43.87681,74.39256-86.18098,92.63022-21.37654,9.21572-43.7053,14.03281-65.13246,14.4077Z"/><path class="cls-2" d="m1065.86039,1515.48047c-35.42685-.87373-67.929-10.96949-96.86175-31.62824-21.81212-15.57454-37.6203-36.22414-49.22388-60.24143-3.90843-8.08988-6.87051-16.50239-9.19306-25.16632-2.01291-7.50856-2.48855-15.10523-1.58472-22.80569.38285-3.2599,1.70164-6.11913,3.74958-8.6651,2.57337-3.19874,5.9538-4.85036,10.00516-4.64956,2.51831.12465,5.0823.60287,7.494,1.34843,5.50944,1.7027,10.69132,4.23601,15.74339,6.99122,6.73216,3.67134,13.34013,7.57253,20.10064,11.18927,8.44891,4.51999,16.88598,9.08849,25.53381,13.2036,10.41168,4.95416,21.35194,8.44251,32.64296,10.94091,10.76419,2.38195,21.58531,2.68514,32.40608,1.31305,7.59487-.96276,14.98261-3.06847,22.13604-6.00596,11.98714-4.9223,22.52675-11.99411,32.01866-20.71708,10.91426-10.02993,19.86692-21.65056,27.42793-34.34642,4.90798-8.24077,9.25445-16.77934,12.84259-25.69749,1.18769-2.95225,2.72941-5.76252,4.12774-8.62878.57838-1.18582,3.43795-2.43491,4.99842-2.22403,6.32482.85615,12.66428,1.61343,18.97527,2.56049,15.1786,2.27792,30.43617,3.77959,45.72946,5.01649,3.14413.25446,6.2366,1.21628,9.33575,1.9267,1.73573.39809,3.37914,2.74255,3.14448,4.22969-1.3961,8.84715-3.74653,17.4675-6.19689,26.063-6.67264,23.40762-15.11581,46.12544-26.23719,67.81841-6.42955,12.54145-13.70202,24.54962-22.10148,35.86753-9.57146,12.8976-20.44999,24.54728-33.14039,34.44248-12.73,9.92613-26.72783,17.48507-42.22649,22.08285-13.5612,4.02303-27.40438,6.24589-41.64612,5.78196Z"/><path class="cls-2" d="m1210.89036,2068.35311c-4.47264,0-8.9468-.0806-13.41745.01336-24.46878.51454-48.22504,5.09475-71.43818,12.68321-1.18769.38871-2.22238,1.23057-3.3502,1.81962-1.52497.79664-1.77017,3.66782-.60029,4.91691,2.2246,2.37492,4.92977,4.05302,7.70897,5.61678,5.02654,2.82831,10.32908,4.99446,15.8582,6.68381,2.39518.73174,4.63056,2.03354,6.87215,3.20366,1.33272.69565,1.69801,1.92271,1.21522,3.29832-.62864,1.79103-1.14926,3.63924-1.9691,5.34123-4.46069,9.2593-10.31046,17.62964-16.63211,25.69116-2.53529,3.23295-6.00663,3.97617-10.28937,2.35032-15.74597-5.97691-29.71228-14.73807-41.7655-26.52295-1.82769-1.78682-3.66183-3.56731-5.52549-5.3164-1.70632-1.60125-5.3104-2.22872-7.14594-1.14857-5.49714,3.23553-11.08319,6.34406-16.39839,9.85912-6.92511,4.57998-13.59962,9.53718-20.43405,14.2568-2.09211,1.4445-4.32737,2.69124-6.55069,3.93259-1.11178.62091-2.36156.40722-3.58181-.31491-.54956-.32522-1.17398-.5546-1.65759-.9562-8.84441-7.34338-17.69328-14.68184-26.47396-22.10113-.93019-.7861-2.0661-2.10781-2.0074-3.11697.10942-1.88171,1.39329-3.49842,2.87574-4.76859.96897-.83085,2.01221-1.57571,3.03073-2.34774,13.75485-10.42614,27.78243-20.45677,42.51668-29.47379,2.71266-1.66006,5.3876-3.42719,7.84709-5.43051.85709-.69776,1.37092-2.24582,1.41251-3.42766.0888-2.52839.07814-5.13622-.43674-7.59737-3.58463-17.13572-3.23692-34.21755-.39211-51.44535,1.7738-10.74198,4.07749-21.31316,6.95662-31.78991.67363-2.45131,1.05941-4.98345,1.54477-7.48466.26195-1.35007-1.08987-4.25874-2.30556-4.97783-2.1863-1.29313-4.33768-2.65937-6.59603-3.81426-27.88037-14.25587-56.44948-27.04662-84.98157-39.91633-4.05862-1.83063-8.37838-3.14556-11.88615-6.06524-1.06866-.88966-1.14751-1.96091.03444-3.13923.88731-.88474,1.81809-1.89905,2.93408-2.35501,13.62364-5.56453,26.81112-11.99341,39.50211-19.45347,2.30895-1.35757,4.93621-1.3168,7.39922-.34373,3.56202,1.40724,7.10189,2.8918,10.5614,4.53288,16.73638,7.93758,33.44546,15.93279,50.15723,23.92239,3.45658,1.65279,6.86548,3.4054,10.32686,5.04812,6.80116,3.22803,8.58141,2.98412,13.63102-1.73199.46697-.43604.92503-.88216,1.37537-1.33578,16.07072-16.17741,35.47875-26.98945,56.50806-35.22014,5.36886-2.10125,10.8428-3.77982,16.4695-5.04296,2.7382-.61458,5.71703.71393,6.74528,2.48364,3.20786,5.52048,6.18939,11.1717,9.31935,16.7381,3.12035,5.54977,7.64126,10.26142,9.87664,16.33369.51488,1.3981.04182,2.73482-1.10123,3.19851-5.3309,2.16288-11.00833,3.16688-16.50676,4.77656-12.34996,3.61581-23.87821,9.01351-34.6185,16.07736-.99825.65629-1.71851,1.81938-2.39576,2.859-.8968,1.37655-.55975,2.46373.73736,3.16125,5.10409,2.74466,11.22378,2.34587,16.25898,5.27118.49473.28726,1.08893.84045,1.14657,1.32805.06525.55249-.2623,1.3578-.69635,1.72824-2.41392,2.06049-4.80102,4.18189-7.40063,5.98979-9.47282,6.58727-18.39689,13.81092-26.26262,22.27475-2.42037,2.60454-5.36979,3.11158-8.67864,2.86017-1.25751-.0956-2.53846-.00422-3.79995.10403-1.27837.10966-2.32278.81117-3.08521,1.96559-.34536.52274-.68968,1.07593-.88415,1.66474-6.07341,18.38363-9.33962,37.11052-6.94455,56.54174.17491,1.41872,2.70165,3.47077,4.17449,3.11369,1.24053-.30061,2.49757-.5546,3.71103-.94238,3.04198-.97284,6.07599-1.97332,9.0909-3.02653,15.72699-5.49424,31.93548-9.07209,48.2794-12.08971,3.13582-.5792,6.32529-.94003,9.50667-1.18652,10.82979-.83881,21.6624-1.6549,32.50402-2.31424,3.22696-.19658,6.36149.72447,9.13495,2.441,13.26961,8.21336,24.20027,18.77024,31.91908,32.42933.90606,1.60335,1.2711,3.61979,1.45655,5.48721.1325,1.33414-.76418,2.53636-1.85921,2.97287-1.15782.46182-2.45364.79336-3.69205.80226-8.94551.06561-17.89185.03515-26.83783.03515-.00012.13004-.00012.25985-.00012.38988Z"/><path class="cls-2" d="m1940.26965,1728.1493c-.25445,6.16787-.55507,13.83013-.89504,21.49053-.11832,2.67296-1.42035,4.90964-3.07572,6.85977-1.22893,1.44778-2.76901,2.64976-4.25286,3.86042-40.1898,32.78711-82.72334,62.19085-127.57533,88.23534-2.19051,1.27205-4.60877,2.15397-6.92815,3.20155-1.62842.73595-4.21139-.49017-4.65727-1.97121-1.86483-6.19434-.88145-12.74741-2.47285-18.94573-.46345-1.80462-1.55039-3.43844-3.67671-3.95836-2.4609-.60193-4.90728-1.26994-7.34381-1.96512-1.65794-.47353-3.76645,1.1249-3.78097,2.86181-.02132,2.55276-.16659,5.11443-.00703,7.65664.44049,7.01582.86248,14.03867,1.58015,21.02918.54171,5.2761-2.08742,8.41767-6.31381,10.7066-3.36953,1.82477-6.78874,3.55887-10.19319,5.31874-18.73499,9.68362-37.82848,18.60599-57.15087,27.05201-6.43377,2.81214-12.68455,6.04134-19.11996,8.84926-17.57003,7.66649-35.48379,14.42012-53.90622,19.77377-1.31304.38168-4.13969-1.60827-4.33698-3.00122-.17807-1.25564-.61341-2.4909-.66261-3.74608-.4255-10.87132.0246-21.72179.93089-32.55632.29265-3.49912,2.16404-6.07953,5.30911-7.35134,9.47036-3.82996,18.92853-7.72717,28.56618-11.09883,21.75893-7.61283,42.62961-17.24866,63.23412-27.46462,16.02058-7.94367,31.7963-16.38219,47.67185-24.61828,2.22683-1.15536,2.85992-3.98203,1.47167-6.61094-2.08555-3.94876-4.17953-7.89517-6.36652-11.78816-15.33289-27.29475-30.68617-54.57825-46.04109-81.86059-29.4563-52.33712-58.9344-104.66182-88.34244-157.02612-2.17482-3.87261-4.9846-7.51817-5.71422-12.04332-.17643-1.09561.41191-2.50895,1.07241-3.49116.68019-1.01056,1.77486-1.86179,2.86601-2.45693,6.7386-3.67485,13.24126-7.72295,19.63613-11.96319,3.83978-2.54597,6.83584-1.64483,9.39725,2.70108,2.26947,3.85128,4.44921,7.75552,6.64254,11.65132,43.25684,76.8284,86.50151,153.6636,129.78014,230.47981,3.1289,5.55305,6.4811,10.98098,9.76816,16.44405.98056,1.62983,3.62211,2.56448,4.93258,1.80626,3.86228-2.23528,7.8246-4.31615,11.56551-6.73887,35.45169-22.95916,69.22014-48.17843,101.30346-75.65195,3.88243-3.3248,7.73697-6.68779,11.74639-9.85326.84748-.66894,2.30837-.66918,3.50332-.76103,1.4965-.11504,2.68724,1.96536,2.66943,4.38222-.01898,2.5551.0246,5.11302-.07732,7.66485-.17831,4.46985-.44752,8.93642-.75634,14.8974Z"/><path class="cls-2" d="m1308.10111,298.96421c0-19.82883.01921-39.65778-.01687-59.48655-.00703-3.83137-.21181-7.66315-.36153-11.49328-.10637-2.72088-1.99721-5.09123-4.34401-5.4308-2.52627-.36552-5.09308-.5153-7.58585-1.03059-1.85499-.3835-3.72427-.99715-5.40798-1.85845-6.89254-3.52613-10.46264-9.21841-10.3326-16.99455.13051-7.79588,4.01036-13.16646,10.95022-16.61931,4.13032-2.05504,8.65029-2.12398,12.98282-3.13208,1.46628-.34115,3.50028-2.47403,3.62258-3.90412.10872-1.27374.32592-2.54075.38285-3.81579.08576-1.91609.09841-3.83658.09864-5.75519.00679-37.09916.01781-74.19832-.01148-111.29748-.00258-3.18779-.29405-6.37487-.42831-9.56325-.09255-2.19386-2.76175-4.6983-5.13479-4.81006-2.54642-.12002-5.09964-.37764-7.6402-.29036-7.67043.26359-15.33477.71282-23.00496.99029-3.18397.11516-6.37801-.06455-9.56642-.02572-1.56141.01904-2.3714-.63866-2.6446-2.21694-.20666-1.19256-.26523-2.50813.61669-3.55612,9.05822-10.7653,18.1736-21.48262,27.27493-32.21166.41378-.48765.83061-.97442,1.27204-1.43641,2.74652-2.872,5.95462-4.72167,10.06573-4.79946,15.99082-.30249,31.98117-.41947,47.9591.41624,15.96833.83512,31.9329,1.75067,47.89326,2.72943,5.10339.31297,10.19202.89581,15.27853,1.43928,3.17834.33968,6.32786.99264,9.51089,1.23807,22.98458,1.77223,45.65214,5.81641,68.37125,9.48546,1.22869.1984,2.45856.73765,3.54714,1.3629,1.19261.68517,1.77369,1.82893,1.66919,2.9956-.05389.60053-.33646,1.3923-.78843,1.71043-2.605,1.8335-5.18375,3.74755-7.96823,5.27557-14.59507,8.00957-29.79839,14.71563-45.26647,20.84068-4.2531,1.68425-8.65217,2.20552-13.17729,1.78629-8.27822-.76688-16.56557-1.45633-24.82855-2.36368-16.54425-1.81675-33.13418-2.57572-49.77028-2.4557-2.39412.01728-5.00756,2.39086-5.22007,4.62596-.1209,1.27-.3948,2.53015-.44682,3.80103-.1045,2.5554-.14152,5.11507-.14199,7.67299-.00726,36.4595-.01406,72.91901.01593,109.37851.00258,3.19259.26195,6.38513.40956,9.57731.06256,1.34433,2.25916,3.891,3.52699,4.11587,4.38829.77848,8.80048,1.45697,13.14753,2.42465,9.26347,2.0623,14.2408,11.49457,13.78765,18.49212-.54007,8.34275-6.83724,16.16101-15.26354,17.35731-3.79245.53843-7.60951.90237-11.41251,1.36864-1.26829.15558-3.34751,2.64561-3.48528,4.14651-.23266,2.53548-.65886,5.06885-.67855,7.60568-.08505,10.87325-.05904,21.7475-.06045,32.62128-.00445,30.06319.01476,60.12626-.02085,90.18945-.00539,4.47032-.22962,8.94169-.4098,13.41014-.08037,1.98738-1.04406,3.71632-2.16849,5.24576-3.79386,5.15953-8.08655,9.86697-13.07607,13.92175-1.79969,1.46265-5.21913,1.20035-6.89722-.78715-17.22115-20.39327-14.59038-12.15051-14.7961-39.07986-.13191-17.26927-.02484-34.54031-.02695-51.81063Z"/><path class="cls-2" d="m2166.87768,497.24984c-26.33838-46.23193-56.2373-90.03784-89.71143-131.39551-5.75-7.104-6.98682-8.51172-18.15039-7.26392-4.37061.48853-8.79248.52466-14.82861.84448-.1958.01025-.38965.01587-.58545.01587-4.02637-.00269-9.6499-.05664-15.27148.03345-1.89355.03027-3.7793.46362-5.67139.69116-1.67773.20166-2.57764,2.97485-1.67383,4.55469,2.56836,4.49097,6.22656,8.10889,9.52002,12,22.34326,26.39795,43.13184,53.96826,62.36523,82.70166,7.47021,11.1604,14.63574,22.52759,21.80908,33.88306,2.54785,4.03345,5.94482,6.58813,10.58691,7.53247,3.12451.6355,39.40576,4.70605,41.10498,4.54541,1.58496-.1499,2.1543-1.10913,2.08008-2.71973-.08984-1.95728-.62549-3.7583-1.57373-5.4231Z"/><path class="cls-2" d="m2248.0271,680.30721c-15.59131-47.46509-34.44775-93.59521-57.05078-138.1687-2.60156-5.12988-5.31641-10.21509-8.26416-15.15063-1.31982-2.20996-3.6665-3.56445-6.2793-4.01196-3.60254-.61694-6.40479-.99707-7.61182-.90942-5.80127.42139-19.1123.69995-37.48633,1.04517-1.03516-.89819-3.35938-3.20312-3.98486-3.78882-.90576-.84814-1.69336-1.46948-2.20068-1.85107-.54639-.40479-1.37354-.91699-2.47168-1.2644-.7124-.22534-1.35742-.32397-1.87891-.36426-23.5293,13.3894-47.07959,26.7417-70.62402,40.10498-27.81104,15.78467-55.63135,31.55273-83.41748,47.38159-3.31445,1.88843-6.81299,3.52734-9.57007,6.30957-1.12769,1.1377-1.38867,2.14307-.49072,3.36353.375.51025.60596,1.16187,1.06177,1.57227,7.59912,6.84521,15.29834,13.57764,23.9248,19.12646,1.58984,1.02246,3.49072,1.51782,5.42041.48511,3.38037-1.80884,6.82715-3.49854,10.16406-5.38281,14.47998-8.17651,28.93262-16.40112,43.39111-24.61572,29.47266-16.74438,58.93896-33.50098,88.42041-50.23022,3.33447-1.89185,6.73633-3.66699,10.13232-5.44727,2.75684-1.44531,6.42822-.13428,8.09473,2.85059.93555,1.67529,1.85889,3.3584,2.73535,5.06494,15.20459,29.60815,28.7959,59.93896,40.72559,91.01221,1.83301,4.77515,3.53271,9.60181,5.39941,14.36328,1.66699,4.2522,4.21143,7.72241,8.19482,10.30493,13.97705,9.06226,28.71973,16.7002,43.65332,24.00488,1.50684.73682,2.54346.29565,2.99219-1.12378.18604-.58887.50342-1.18799.49512-1.77881-.0625-4.58325-2.0918-8.69214-3.47461-12.90161Z"/><path class="cls-2" d="m1308.12571,1850.87258c0-13.43556-.03983-26.87113.03515-40.30622.01406-2.53027.47986-5.0589.74767-7.58682.15745-1.48667,2.56095-2.84963,4.37587-2.55464,4.39134.71393,8.54579,3.10057,13.12363,2.31026,4.39157-.75821,8.70746-1.95294,13.0585-2.94827,2.29408-.52484,5.25381,1.67271,5.47921,4.02701.1216,1.26877.40746,2.52839.4426,3.79693.08857,3.1971.10192,6.39678.10122,9.59553-.00445,21.11283-.05717,42.22589-.00328,63.33871.01125,4.45954.38403,8.91908.6188,13.37699.07662,1.45785,2.84891,3.44101,4.24021,3.03192,3.67272-1.07968,7.35623-2.12984,10.99521-3.31613,7.2925-2.3775,14.54633-4.87356,21.84117-7.24474,2.54478-.82687,5.07457-.36833,7.41527.81562,10.85416,5.48978,21.19472,11.87345,31.48983,18.32178,3.77488,2.36415,7.36279,5.03383,10.96709,7.65899,1.09045.79453,1.47448,2.13453,1.16192,3.47804-.10872.46721-.74017,1.00283-1.24088,1.15794-3.04198.94097-6.08512,1.91287-9.18568,2.62305-4.35572.99697-8.89819,1.35733-13.11614,2.73763-7.27422,2.38078-14.36404,5.32554-21.52064,8.06129-1.38497.52953-2.00377,1.59703-1.90068,3.01622.08622,1.1884.79874,2.10828,2.14365,2.67577,1.73362.73221,3.55557,1.28774,5.21093,2.16241,1.27368.67316,1.58038,1.97754,1.24228,3.37939-.14761.61201-.11176,1.30204-.38215,1.84563-5.12588,10.30079-10.28129,20.58728-15.44934,30.86721-.28046.55788-.75727,1.01337-1.0928,1.54806-.60825.96885-3.956,2.52371-5.08746,2.26667-4.98272-1.1331-9.97013-2.24887-14.9327-3.46515-1.8578-.45549-3.67928-1.09725-5.47172-1.77487-12.07676-4.56545-24.42508-7.42374-37.4714-6.45559-3.28284.24344-6.16643-1.28962-9.01791-2.82948-1.00892-.54476-2.48972-.66918-3.63383-.42245-3.1118.67058-6.20837,1.49487-9.22246,2.51855-15.7441,5.34498-31.55989,10.40458-47.66001,14.63216-16.76871,4.40331-33.76025,7.18803-50.98866,8.73726-14.71421,1.32336-29.40874.95198-44.05418-.86225-5.05465-.62607-10.24286-.53703-15.10445-2.37656-.50575-.19143-.96709-.69401-1.27907-1.1652-.80097-1.20902-.68136-2.42389.10157-3.63596,1.76607-2.73411,4.30464-4.6812,6.796-6.65358,11.56305-9.15339,23.93738-17.08534,36.77118-24.32328,5.62964-3.17484,11.50154-5.12146,18.07437-5.70183,19.59466-1.73105,45.09578-7.71639,57.70992-13.18767.97658-.42339,1.06117-2.10524.65652-3.34917-.18393-.56561-.67901-1.1884-1.20175-1.46207-11.95879-6.25526-24.37049-11.253-37.84289-13.11597-4.81484-.66566-8.1784-3.29481-10.79254-7.17468-6.07388-9.01398-12.63441-17.71258-17.7269-27.36036-.59431-1.12584-1.07757-2.31471-1.54805-3.49983-.90875-2.28964.6994-5.85436,2.82946-6.15545,12.76761-1.80556,25.45977-1.73105,38.13799.82897,13.23294,2.67155,25.87191,7.084,38.23499,12.42734,9.99122,4.31755,19.66308,9.27078,29.34384,14.21955,2.83696,1.45012,5.79248,2.67038,8.70652,3.96727,1.41754.63075,4.16711-1.04149,4.24911-2.57244.17081-3.18047.56163-6.35695.57873-9.53671.06818-12.79521.02835-25.59111.02835-38.38679h.01874Z"/><path class="cls-2" d="m1018.36322,1537.60152c0,1.42997.22388,2.17365-.03491,2.66054-2.39834,4.50968-4.74713,9.05404-7.35787,13.44119-32.0374,53.83691-64.11862,107.64781-96.18508,161.46762-16.68764,28.00821-33.37552,56.01619-50.04512,84.03518-2.28599,3.84262-4.45753,7.75318-6.69783,11.62321-1.19823,2.06962-.51828,5.84499,1.2144,6.91835,2.17259,1.34632,4.29551,2.78379,6.53147,4.01506,17.36115,9.56108,35.04552,18.49212,52.92472,27.04006,5.7735,2.75989,11.74733,5.02,17.76779,7.1714,13.25051,4.73509,26.16468,10.25064,38.65159,16.75169,1.54547.80437,1.82312,3.72663.46697,4.69643-.51606.3688-.88333.97167-1.42656,1.27345-15.1738,8.4247-31.25846,14.5607-48.06021,18.79507-1.70749.43042-3.89977.01828-5.57364-.69308-5.87624-2.49793-11.61987-5.30773-17.42207-7.98139-24.98156-11.51144-49.28234-24.32844-73.15212-37.98566-24.98835-14.29757-49.27179-29.7006-72.84905-46.21611-2.60055-1.82126-5.04552-3.87682-7.46963-5.93356-1.14048-.96768-1.20374-2.25262-.48126-3.45999.30916-.51664.57826-1.10241,1.01536-1.4855.46732-.40957,1.07991-.73853,1.68301-.89481,13.60923-3.52747,27.19093-7.14,40.52075-11.64922,2.48714-.84139,5.12108-.53469,7.40531.82194,6.58853,3.91267,13.10489,7.94672,19.66425,11.90836,1.39142.84022,4.1247.12793,5.12448-1.21792.76067-1.02392,1.67657-1.94685,2.33754-3.0284,3.00004-4.90824,5.94524-9.85022,8.89022-14.79172,47.12849-79.0761,94.24914-158.15688,141.39356-237.22337,2.28166-3.82668,4.20448-7.89353,7.34322-11.17639,1.1304-1.18207,3.76024-2.10946,5.15552-1.58391,1.19284.4487,2.46078.73361,3.59681,1.29196,7.47068,3.67087,15.25944,6.52917,23.10806,9.25508,1.33753.46463,1.9343,1.65443,1.96031,2.15444Z"/><path class="cls-2" d="m502.83795,1472.79207c-1.71581,0-3.02101.18042-4.2613-.02741-13.84717-2.32338-27.75724-4.3363-41.33602-8.03481-2.57395-.70104-4.47276-2.39203-5.9231-4.56404-1.06199-1.5907-2.07512-3.22522-2.97192-4.91339-27.92899-52.57752-50.72683-107.3069-68.7206-164.04639-.58026-1.82993-.66671-3.72195.25106-5.49283.27742-.53515.8155-1.29993,1.25669-1.31563,1.25505-.04452,2.61027.00562,3.77055.43675,13.16229,4.88879,26.30022,9.84178,39.06736,15.7177,2.43267,1.11951,4.27008,2.84354,5.3077,5.24189,1.51829,3.50943,2.86144,7.09736,4.19089,10.68458,14.21385,38.35352,30.43511,75.82323,49.34255,112.1097,1.76759,3.39228,3.64039,6.7302,5.51026,10.06789,1.30191,2.32431,3.73177,2.91312,5.93611,1.56797,4.35561-2.65843,8.66798-5.39536,13.10313-7.91532,73.28087-41.63591,146.57732-83.24463,219.87353-124.85383,4.99725-2.83697,10.10931-5.48322,15.00557-8.48328,5.35972-3.28403,10.45865-3.87729,16.17405-.60568,9.49414,5.43425,19.93663,8.41814,30.56808,10.75651,1.49252.32803,2.02263,1.38311,1.54922,2.94077-.17819.586-.41038,1.19309-.76735,1.68114-1.55836,2.12961-3.95576,3.16407-6.13831,4.41409-16.06755,9.20236-32.16592,18.35083-48.26862,27.49157-68.85579,39.08549-137.71733,78.16066-206.57288,117.24662-3.33087,1.89061-6.7516,3.66056-9.9071,5.81383-5.02982,3.43305-11.06269,2.54198-16.03955,4.08161Z"/><path class="cls-2" d="m1262.13102,2024.5234c3.18397.23337,6.36535.51055,9.55236.69284,18.52623,1.06023,36.78535,3.90611,54.92966,7.7513,5.56614,1.17973,11.2178,3.60058,16.9032,2.45131,4.92743-.99557,9.56712-3.45859,14.30265-5.35131,17.8287-7.12735,36.16398-12.41188,55.02432-16.10946,11.30168-2.21536,22.68279-3.65775,34.06882-5.17066,10.82112-1.43747,21.65677-1.47472,32.44697.30835,5.65307.93394,11.42867,1.10171,16.96365,2.80886,2.06657.63731,3.66523,4.01272,2.77112,6.25362-4.51482,11.31674-10.05893,22.04888-17.83199,31.5221-1.7212,2.09751-3.94592,3.08885-6.63551,3.09659-1.27626.00351-2.5722.1523-3.82573-.01453-11.55215-1.53751-22.90983-.01148-34.23729,2.07525-3.76691.69401-7.53219,1.3967-11.30309,2.06962-1.47284.26313-2.3154.94238-2.71418,2.06939-.56959,1.60851.47494,3.13642,2.86555,4.28733,2.2676,1.09186,5.03685,1.2294,6.76133,3.33487.78492.95784.98759,2.33369.34888,3.46491-.60732,1.0757-1.58718,1.99558-2.55322,2.80581-11.39494,9.55358-24.62588,15.87562-38.22843,21.49592-3.66288,1.51338-7.5418,1.27205-11.27966.10614-8.52681-2.65937-17.01473-5.44433-25.53077-8.13955-1.81961-.57569-3.66827-1.14529-5.54716-1.41966-1.21534-.17737-2.61203-.07873-3.74887.35943-2.97239,1.14552-5.93025,2.38804-8.74659,3.8719-11.29348,5.94949-22.52393,12.01895-33.79141,18.01788-10.70374,5.69855-21.33695,11.53839-32.15901,17.00381-16.58759,8.37643-33.97616,14.62537-52.10512,18.7843-19.39901,4.45064-38.97669,6.80143-58.89726,5.01625-1.87432-.168-3.70693-.84233-5.54822-1.32289-1.43523-.37419-2.79092-3.4928-2.05345-4.70158.32428-.53141.42093-1.20667.76407-1.72121,6.74141-10.10584,12.67424-20.6557,17.95125-31.60481,1.40325-2.91125,4.19206-4.74586,7.70616-4.89887.63743-.02788,1.27251-.10637,1.90935-.15347.63661-.04733,1.27345-.10356,1.91122-.12348,18.10729-.56632,35.28697-5.3178,52.036-11.79144,11.91099-4.60411,23.5004-9.94323,34.3316-16.78379,1.19214-.75329,1.62935-2.01925,1.36764-3.33886-.22704-1.14552-1.14317-1.92459-2.5176-2.36438-.60802-.19424-1.22916-.34724-1.83789-.53961-1.8892-.59654-3.35946-1.73293-4.2367-3.51974-.56163-1.14412-1.0464-2.33298-1.47378-3.53474-3.69241-10.3849-9.60836-19.39818-16.89816-27.58131-1.67985-1.88569-3.72169-3.52115-4.59389-6.01252-.1919-.54828-.16331-1.19894-.1291-1.79619.08962-1.56563.95889-2.32783,2.51889-2.41054,1.26677-.06725,2.53482-.38496,3.79081-.3299,5.73824.25235,11.47261.59678,17.20838.90817l-.00984.17854Z"/><path class="cls-2" d="m2119.63755,956.55373c37.08034,0,74.16045.0246,111.24079-.02577,5.73671-.00785,11.49803.42269,17.2085-.69308,2.11741-.41367,4.48553-2.96514,4.52653-5.34428.05506-3.19007.23852-6.38729.09794-9.56963-.50844-11.49422-1.17246-22.98165-1.64084-34.47739-.04405-1.08156.75751-2.27487,1.39318-3.27161.28163-.44167,1.13778-.73068,1.71722-.7069.5464.02249,1.16777.44952,1.59304.86517,11.87573,11.61618,23.70928,23.27535,35.60352,34.87243,2.92272,2.84963,4.20577,6.32965,4.49701,10.26306.42479,5.73733,1.00634,11.47477,1.12888,17.22054.44916,21.09408.69565,42.19016-.69167,63.26725-.37793,5.74096-.78023,11.48544-.9337,17.23483-.58131,21.75787-2.92295,43.3823-5.50639,64.95027-1.89693,15.83532-3.57525,31.75382-7.27891,47.3375-.37817,1.59105-1.00118,2.46654-2.6132,2.10711-1.17597-.26242-2.70059-.48829-3.36204-1.30426-9.66577-11.92183-18.70055-24.3179-27.32109-37.01399-2.22988-3.28391-3.04947-6.9037-2.60922-10.91467,1.53423-13.97868,3.23832-27.94846,4.32175-41.96452,1.08366-14.01652,1.59046-28.08096,2.17646-42.13158.34583-8.29829.43721-16.61064.45057-24.9169.00305-1.85277-.55202-3.82036-1.3264-5.51778-.47025-1.03141-1.74604-1.88757-2.85617-2.38125-1.12302-.49931-2.48527-.60299-3.747-.6229-6.39159-.10075-12.78436-.1571-19.17689-.15816-65.21001-.00984-130.42026-.00211-195.63027-.01324-6.3923-.00105-12.78483-.07791-19.17689-.15499-3.45927-.04182-6.25828-1.58871-7.91785-4.52831-5.03591-8.92061-11.1365-17.14263-16.574-25.79472-.60943-.96991-.63356-2.36801-.72892-3.58324-.08552-1.09163,2.73972-2.72369,4.63993-2.8078,1.27696-.0567,2.55298-.168,3.82994-.17725,4.47522-.03257,8.9502-.04089,13.42542-.04124,37.08034-.00269,74.16045-.00152,111.24079-.00269Z"/><path class="cls-2" d="m509.44498,993.5724c-35.76835,0-71.53671-.00527-107.30506.00551-5.74773.00176-11.4985-.02284-17.24247.14574-5.08312.14902-8.60507,1.51959-8.55915,7.8237.06057,8.29759.2418,16.60021.63239,24.88831.60123,12.75936,1.45281,25.50653,2.12924,38.2626.13379,2.52265.571,5.11911-.52391,7.55578-.49192,1.09468-1.58589,1.71196-3.0148,1.69227-.59584-.0082-1.28001-.31643-1.76513-.69296-11.60218-9.00121-22.8536-18.41772-33.73658-28.28282-4.06542-3.68516-5.96012-8.13803-6.04072-13.52554-.03807-2.55323-.28117-5.10283-.33447-7.65618-.69284-33.21554-.95842-66.42147,2.01853-99.5652.51395-5.7228.63321-11.4804,1.10674-17.20765.57862-6.99614,1.31855-13.97927,2.02638-20.96428.51512-5.08268,1.21897-10.14919,1.61506-15.24019.89282-11.47618,3.17998-22.74149,4.97054-34.082.21427-1.3578,1.24767-2.07033,2.77147-2.02405.58588.01757,1.20128.22599,1.73444.48759.55272.27133,1.17445.60849,1.50576,1.09421,10.45315,15.32618,19.34735,31.55291,27.61713,48.13051,1.74053,3.48893,2.24675,7.26137,1.79911,11.18576-2.02884,17.78568-2.49511,35.67247-3.34927,53.53302-.20338,4.25101,2.51011,6.85028,7.07459,7.02707,1.91415.07416,3.82924.1639,5.74421.1769,4.47088.03034,8.942.02296,13.413.0232,28.74238.00129,57.48487.00059,86.22725.00059,53.01376.00012,106.02763-.01652,159.04139.02484,5.73449.00445,11.47003.31385,17.20194.55566,1.28996.05424,2.55298.84315,2.87351,2.14519.26359,1.07101-.14503,2.36063-.45783,3.49783-.15499.56304-.72119,1.04629-1.17644,1.48831-8.25432,8.0156-16.19256,16.31202-23.16335,25.4988-2.06094,2.71607-5.04341,3.75358-8.37088,3.89557-1.27555.05436-2.55205.11563-3.82842.12406-3.19345.02097-6.38714.01722-9.58071.01722-37.6845.00082-75.36899.00059-113.05349.00059v-.03995Z"/><path class="cls-2" d="m1787.72307,175.45454c.24087-1.26859-.1038-2.43385-1.06749-3.4645-2.21933-2.37381-5.07808-3.82399-7.8396-5.4192-28.24425-16.31588-57.36386-30.90441-87.15006-44.17695-4.66758-2.07987-9.38788-4.04377-14.02477-6.18878-1.74627-.80777-3.05041-2.25162-3.99958-3.96094,1.54126-1.10241,3.02909-2.29298,4.64275-3.27636,1.0785-.65723,2.31118-1.09362,3.51761-1.50319,13.31389-4.51947,26.49727-9.37352,39.36692-15.05913,2.4049-1.0624,4.97874-1.08536,7.45042-.08763,2.36694.95556,4.71491,1.97075,7.01719,3.07298,53.16769,25.4524,103.6362,55.44993,151.38841,90.0088,1.52064,1.10059,2.77182,2.57643,4.1343,3.89205,1.23361,1.19121.63098,4.18687-.9016,4.81182-13.0592,5.32436-26.71424,8.62819-40.37349,11.89934-3.87915.92902-7.56898.22341-10.98232-1.9923-4.28262-2.78021-8.63811-5.4489-12.9786-8.13908-1.84421-1.14294-5.50545-.17497-6.74352,1.82067-3.03143,4.88627-6.0631,9.77401-9.00737,14.71312-43.19147,72.45514-86.35858,144.92464-129.57137,217.36695-2.9356,4.92136-5.49257,10.09096-9.20559,14.53317-1.14364,1.36835-4.0776,1.75718-5.13619.49028-6.95791-8.32852-13.69674-16.82538-19.17502-26.22514-.55952-.96007-.65863-2.65515-.2008-3.65669,1.58765-3.47206,3.38219-6.86774,5.33418-10.15224,23.83299-40.10155,47.69949-80.18319,71.57466-120.25967,19.95033-33.48886,39.94003-66.95423,59.85498-100.46406,1.61272-2.7135,3.65257-5.28108,4.07596-8.58332Z"/><path class="cls-2" d="m2095.07282,1526.56407c-.17362-5.46518.08388-8.59715,1.91942-11.42873,2.7833-4.29319,5.56052-8.59293,8.23206-12.95617,6.01108-9.81741,12.00741-19.64467,17.90462-29.53073,2.6849-4.50055,3.63945-7.68148-2.27322-11.07142-4.43843-2.54456-8.80048-5.22174-13.22884-7.78411-74.17919-42.92248-148.36518-85.83348-222.54273-128.75877-5.52701-3.19851-11.27661-6.04556-16.3308-10.00767-1.22049-.9569-1.32944-2.20716-.5075-3.36252.34232-.48033.75024-1.18184,1.21956-1.26455,11.99475-2.11039,23.65516-5.41645,35.04634-9.6937,5.09659-1.91334,9.97481-1.6774,14.72604,1.12092,4.40821,2.59658,8.901,5.04859,13.32959,7.61096,22.69709,13.13261,45.38082,26.2877,68.07767,39.42101,42.07173,24.34437,84.14112,48.69226,126.23417,73.00008,4.97569,2.87353,10.08494,5.5165,15.14568,8.24171,1.27274.68581,4.32479-.30272,5.10714-1.61273,1.6331-2.73482,3.43327-5.3888,4.84144-8.23585,8.21987-16.62329,16.34368-33.29345,23.66734-50.34013,1.25892-2.92999,2.75402-5.75853,4.15516-8.62667.75024-1.53564,3.59353-1.81985,4.65844-.51805.40019.48946,1.07757.78141,1.39528,1.30485,6.30186,10.38959,12.57817,20.79487,18.8327,31.21305.65488,1.0914,1.2383,2.2484,1.68418,3.43867.90512,2.41569,1.49674,4.88293.54382,7.45702-.44401,1.19871-.71486,2.47169-1.24955,3.62518-26.43893,57.02698-57.77389,111.19966-94.63539,162.14312-.72517,1.00236-1.72261,1.83415-2.6945,2.62001-.45666.36903-1.14036.52461-1.74651.62771-1.54102.26149-2.53752-.36341-2.93888-1.76573-4.4136-15.41873-6.30396-31.29997-8.57274-44.86675Z"/><path class="cls-2" d="m704.18841,600.7926c.20771,1.40724-.12348,2.67015-1.24474,3.4061-9.0656,5.9516-18.12967,11.90754-27.28371,17.72102-1.61518,1.02567-3.67108.96686-5.46515-.00679-5.6123-3.04527-11.26396-6.02506-16.79085-9.21958-44.81532-25.90227-89.60135-51.85492-134.40871-77.77101-5.52678-3.19675-11.12853-6.26393-16.68846-9.40363-1.37244-.77485-4.122-.02859-5.17427,1.09093-2.67459,2.84564-4.29738,6.34758-6.10844,9.69815-15.81087,29.25202-30.29008,59.14874-42.79878,89.96722-5.7646,14.20245-11.10615,28.57617-16.76836,42.82091-.39609.99627-1.77568,1.74335-2.85875,2.28495-1.09631.54839-2.43032.04956-3.13816-1.23866-7.38247-13.43744-14.73612-26.89116-21.99523-40.39549-.89598-1.66685-1.11939-3.70683-.43838-5.58257,1.52497-4.20063,3.10852-8.38217,4.7722-12.52985,8.09171-20.17373,17.0958-39.94422,26.67991-59.44408,15.79775-32.14195,33.21514-63.38944,52.38711-93.64687,2.0422-3.22311,4.35057-6.28642,6.67639-9.31565.79476-1.03505,2.15302-1.37057,3.32771-1.05543.51067.13707.96381.85112,1.25025,1.40314,1.78376,3.4382,2.68958,7.15558,3.32888,10.94571,2.33965,13.87161,3.95858,27.82323,4.6725,41.87759.02706.53445.39597,1.18102.80941,1.54173,1.22096,1.06527,2.38358.85463,3.33451-.47623,1.47659-2.06599,2.90503-4.16842,4.44019-6.18977.76547-1.00775,1.64658-1.96067,2.6146-2.77219,1.03176-.86506,2.36823-1.19918,3.54655-.72318,2.35382.95105,4.71269,1.95552,6.9114,3.21409,14.41934,8.25319,28.80201,16.57069,43.1862,24.88527,39.83506,23.02558,79.67715,46.03898,119.47929,69.12138,4.4034,2.55335,9.08071,4.7256,12.86777,8.24663.4139.38473.59045,1.02462.87712,1.54618Z"/><path class="cls-2" d="m1609.58832,1914.71294c0,5.75033.15652,11.50746-.09161,17.24702-.07826,1.80978-1.07944,3.80044-3.01386,4.59146-4.71632,1.92857-9.52495,3.63033-14.25111,5.53594-2.95599,1.19215-5.91736,2.43139-8.69036,3.98203-.92035.51454-1.72776,2.04877-1.76478,3.14438-.06303,1.86039.39035,3.77795.86201,5.61092,3.844,14.94566,6.15659,30.05651,4.97804,45.54202-.14386,1.89108-.64715,3.75475-.98572,5.63084-.27601,1.52838-3.15866,2.72404-4.66149,1.97567-1.13567-.56561-2.41521-.89786-3.45178-1.59867-10.06596-6.80447-20.25938-13.39339-30.93031-19.23041-2.95622-1.61718-4.48576-4.34731-5.08933-7.69648-.67831-3.76389-1.43558-7.52965-2.47473-11.20544-.50329-1.77979-1.63615-3.41501-2.65819-5.0036-.75399-1.17223-2.00307-1.46254-3.33251-1.48878-2.64483-.05202-4.9614,1.06843-7.37169,1.86554-20.06655,6.63695-40.6802,11.09696-61.36953,15.1884-8.7719,1.7348-17.64267,3.06941-26.52281,4.13222-12.7204,1.52252-25.49351,1.73878-38.25397.20924-2.47004-.29593-4.33557-3.32714-3.482-5.6538.2165-.59092.20853-1.27017.45689-1.84258,4.58956-10.57024,10.08353-20.67655,15.89757-30.60783,1.31093-2.23973,3.3611-3.90705,5.99843-4.41104,3.7634-.71862,7.54508-1.48714,11.35463-1.79525,19.18697-1.5497,37.84394-6.02236,56.56956-10.10959,2.47871-.54101,4.86487-1.57243,7.23439-2.52511,1.52626-.61365,1.98667-1.65537,1.40489-2.65398-.3135-.53797-.69612-1.14622-1.20948-1.43653-1.66052-.93957-3.31026-2.07267-5.11768-2.54808-7.41433-1.94966-14.83898-3.89885-22.51855-4.59521-2.59141-.23454-4.90329-1.27814-7.03289-2.78824-14.60538-10.35468-29.72435-19.92794-44.83934-29.50988-1.16028-.73549-1.27321-2.13171-1.14364-3.41009.14058-1.3885.86341-2.1357,2.38733-2.46138,3.74864-.80039,7.45065-1.85359,11.22413-2.49676,19.00843-3.23928,38.15557-4.76672,57.24787-1.45082,19.71275,3.42321,38.22375,10.34132,54.67474,22.05099,4.68234,3.333,9.08844,7.05307,13.7429,10.42731,1.54032,1.11647,3.56588,1.60617,5.47195,1.03399,4.8897-1.46793,9.75059-3.04223,14.58265-4.6915,8.46613-2.88899,16.89031-5.90076,25.36043-8.77733,1.79899-.6106,3.72099-.8592,5.58488-1.28095,2.42107-.54781,5.48413,1.62796,5.45203,3.95485-.08833,6.38272-.22728,12.76498-.3463,19.14724.03936-.00023.07896-.00047.11832-.0007Z"/><path class="cls-2" d="m1656.98275,2142.98255c-.76547,1.28962-1.17715,2.65586-2.09492,3.38947-1.97542,1.58039-4.15352,2.93515-6.35036,4.20602-7.72947,4.47149-15.49527,8.88066-23.26246,13.28631-2.00869,1.13943-5.57106.3292-6.95299-1.5012-1.53563-2.03448-3.16335-4.00522-4.60432-6.1039-9.77425-14.23595-20.64083-27.60802-32.01913-40.5752-7.58819-8.64776-15.55665-16.92086-24.36861-24.34297-1.45901-1.22893-3.05065-2.29995-4.58183-3.44336-1.9787-1.47753-5.29271-1.67646-7.18565-.36388-3.14437,2.18115-6.24047,4.43213-9.39163,6.60344-6.32458,4.35715-13.01093,8.10112-19.96369,11.33806-17.73123,8.2553-36.38446,11.60329-55.89219,10.27431-15.36054-1.04641-30.41766-3.48014-44.73507-9.47439-1.55649-.6516-2.05977-1.44848-1.24837-2.98529.28843-.54617.54195-1.12209.90793-1.61249.37512-.50212.78867-1.06656,1.32101-1.34679,13.08029-6.89257,24.69758-15.83228,35.77784-25.52199,2.55087-2.23059,5.56567-2.95694,8.83563-2.96327,3.1924-.00633,6.39089.14386,9.57626-.00047,10.36142-.47049,20.13825-3.10174,29.22575-8.17587,1.42434-.79547,2.06188-3.30277,1.08694-5.01766-.62114-1.09304-1.39294-2.105-1.95597-3.22428-.2582-.51336-.43956-1.33273-.20877-1.78541,5.50241-10.79353,11.06199-21.55801,16.62133-32.32248,1.01712-1.96957,4.28403-3.3323,6.59263-2.64812,3.65937,1.08366,7.27984,2.29948,10.93101,3.41196,2.34937.7158,5.3077-.78071,6.12941-3.2217,1.21768-3.61815,2.28494-7.28714,3.40609-10.93763.53164-1.73011,2.8871-2.99021,4.42601-2.37141.59138.23782,1.25634.32076,1.80977.61927,10.70256,5.77283,20.79172,12.46811,29.99872,20.42045,1.99042,1.71934,2.88663,4.31802,2.26479,6.93569-.88145,3.70859-2.13475,7.33026-3.26175,10.97887-.83998,2.71888-.00984,5.12825,1.78657,7.02121,2.18934,2.30651,4.7053,4.30748,7.11911,6.39514,12.10418,10.46738,23.15398,21.96008,33.46455,34.18662,12.3584,14.65466,24.23694,29.66897,34.54212,45.86348.99767,1.56774,1.5511,3.41805,2.25424,5.00946Z"/><path class="cls-2" d="m878.57055,152.27059c1.49121-.4707,3.76904,2.1748,7.13965,7.2981,3.50928,5.33398,4.86963,8.19458,6.77563,11.58008,33.22559,59.01611,66.44751,118.03467,99.63818,177.07056,6.57349,11.69238,13.02173,23.45483,19.50488,35.19775,1.05396,1.90869.57983,5.62646-.89551,7.20508-6.10767,6.5354-12.21265,13.07422-18.38257,19.55054-1.32471,1.39038-3.08032,2.20435-4.99829,2.57471-1.31519-1.37329-2.82031-2.61353-3.89941-4.15234-1.46094-2.08374-2.61475-4.38574-3.86719-6.61279-11.27368-20.04883-22.52734-40.10913-33.81104-60.1521-28.83691-51.22217-57.69067-102.43457-86.52222-153.65991-2.36157-4.1958-4.13843-6.43481-6.38623-11.79541-2.56592-6.11938-2.54932-8.65796-1.40845-10.03271.85498-1.03027,1.8291-.78955,4.84521-1.90698,2.72241-1.00854,3.14624-1.65601,6.3916-3.35059,8.21436-4.28955,15.32031-8.63867,15.87573-8.81396Z"/><path class="cls-2" d="m2276.12068,1193.12924c-.46252,2.73447-.93909,6.55236-1.76642,10.2927-12.86801,58.18656-30.5259,114.86912-53.54305,169.85483-.71111,1.69872-2.10499,3.12705-3.26035,4.61957-.97728,1.26314-2.09468,1.17575-3.217-.10497-.41683-.47564-.9651-.85006-1.32171-1.36225-8.05539-11.57424-14.55711-24.04891-21.04102-36.5271-1.54219-2.96772-1.39763-6.22058-.31397-9.33076,1.4719-4.2243,3.12773-8.3844,4.68258-12.58058,17.14102-46.25571,29.99989-93.71716,39.8927-142.00724,1.92247-9.38442,3.59189-18.8205,5.39275-28.22986.27086-1.41532,1.254-2.08427,2.81423-1.88932.59818.07463,1.26829.24813,1.72917.60474.99087.76677,2.02463,1.56376,2.76597,2.55405,8.04907,10.74831,16.01167,21.56129,24.07503,32.29858,2.42529,3.22967,3.50449,6.75504,3.1111,11.80761Z"/><path class="cls-2" d="m474.71284,1484.6873c2.47637.35052,5.0502.51336,7.52282,1.10124,8.72644,2.07478,17.64794,2.76879,26.49856,3.96984,1.89377.25727,3.80546.54804,5.63374,1.08109,2.48281.72377,4.70027,2.04033,6.19044,4.21961,2.52147,3.68727,4.96339,7.43031,7.38188,11.18646,27.01052,41.94894,57.26264,81.42103,90.48937,118.6309,3.80944,4.26577,8.16376,8.1201,10.90946,13.24554.67128,1.25307.29241,2.64555-.66718,3.32363-1.02051.72143-2.18887,1.36132-3.38758,1.68349-11.71933,3.15024-23.6261,5.39536-35.64546,7.00855-3.29374.4419-6.28124-.61084-8.62007-3.13899-.86611-.93605-1.80567-1.80579-2.64928-2.76083-2.95798-3.34753-5.93025-6.68404-8.82333-10.08733-36.04706-42.4056-68.32087-87.51321-96.79123-135.3362-1.94274-3.26341-4.12177-6.42584-5.0898-10.20941-.37278-1.45762,1.54114-3.98507,3.17354-3.92673,1.27005.04569,2.54314.00914,3.87411.00914Z"/><path class="cls-2" d="m397.77097,1191.69517c4.98483,23.71257,10.92047,47.18333,17.85284,70.4028,1.45398,4.87005,3.30674,9.66652,3.67647,14.7861.09009,1.24955-1.04922,2.19334-2.25366,2.52183-.59455.16237-1.32581.20877-1.89716.0164-13.29866-4.47641-26.17487-10.03204-39.11668-15.41568-3.08474-1.28306-5.22827-3.68586-6.21071-6.86727-1.87877-6.08422-3.76188-12.17734-5.31871-18.34872-7.8-30.92028-14.38056-62.11025-19.19458-93.62918-2.1153-13.84935-4.46948-27.6933-5.42907-41.71885-.65242-9.5332-2.93549-18.91691-2.92225-28.52556.00258-1.89471.13226-3.82574.5307-5.66926.2247-1.03926,1.57464-1.80908,2.9588-1.62163,1.18933.16085,2.44075.84292,3.39332,1.62503,11.82734,9.7067,23.62142,19.45429,35.37999,29.24441,2.00834,1.67201,3.2498,3.94723,3.63242,6.54053,1.39528,9.45951,2.59434,18.94913,4.08287,28.39364,2.67927,16.99959,5.60644,33.95841,9.1155,50.81038.5198,2.49618,1.14399,4.97056,1.71991,7.45502Z"/><path class="cls-2" d="m1956.55827,1709.03838c.48032-7.13133.95877-15.40818,1.63287-23.66957.26476-3.24443,1.71816-6.13295,3.90703-8.55263,1.70925-1.89014,3.55253-3.66173,5.37706-5.44433,37.95898-37.08522,72.64965-77.0053,103.99375-119.83218,1.50447-2.05556,3.07853-4.06966,4.75099-5.98909.88919-1.02017,2.14248-1.30087,3.35149-1.20105,1.51056.12488,2.35054.91192,2.63194,2.34236,2.58555,13.13143,5.25006,26.24576,8.54954,39.22209.31327,1.23198.47564,2.50824.63075,3.77326.39996,3.25872-.09653,6.36445-1.92059,9.14003-1.04898,1.59633-2.23339,3.10853-3.41522,4.61254-22.48762,28.61834-46.43917,55.95691-71.89004,81.97329-14.72534,15.05204-29.84408,29.70248-45.60223,43.67788-2.37093,2.10266-4.95976,3.97031-7.53032,5.83281-1.02555.74298-2.3571.56515-3.50051-.3046-.43557-.33084-.72798-.9951-.85357-1.55907-.27367-1.23057-.57194-2.49653-.5553-3.74397.08552-6.37804.26758-12.75444.44237-20.27776Z"/><path class="cls-2" d="m2026.66666,343.98443c-4.99678-.1926-11.36471-.43265-17.73217-.68499-5.31637-.21076-9.94717-1.96512-13.58803-5.99963-1.28024-1.41884-2.65373-2.75368-3.97521-4.13573-35.31931-36.93397-73.35093-70.81963-114.13867-101.61286-3.54526-2.67665-7.33116-5.06183-10.334-8.42769-1.16403-1.30467-.96065-4.17375.54546-4.66591,12.7054-4.15131,25.41127-8.3004,38.12909-12.41288,4.64743-1.50278,8.73159-.30343,12.44907,2.71121,5.93986,4.81627,11.98398,9.50467,17.89267,14.35843,38.98922,32.02972,75.16023,67.00173,108.85182,104.54514,2.95271,3.29012,6.24117,6.3484,8.25572,10.43211.67245,1.36319-.5628,4.3138-2.14436,4.60505-1.24509.2295-2.47332.70081-3.72029.74521-6.36863.22646-12.74148.34912-20.49111.54254Z"/><path class="cls-2" d="m2216.32287,697.41515c13.5175,6.85415,26.90918,14.29699,40.01454,22.25472,2.87984,1.74874,4.66032,4.40214,5.56731,7.51583,1.96324,6.73899,3.80604,13.5171,5.52186,20.32368,5.6219,22.299,10.47646,44.78134,14.37435,67.43145,3.78917,22.01772,7.47268,44.0762,9.3532,66.38.69752,8.2731,1.74979,16.51598,2.60851,24.77596.13168,1.26701.1366,2.55229.12114,3.82809-.01734,1.43957-.54734,2.52008-1.55344,3.07726-1.23408.68324-2.56282.64094-3.6186-.31268-4.25567-3.8439-8.64115-7.57077-12.62738-11.68167-8.44762-8.71102-16.68975-17.62202-24.98554-26.47995-3.15468-3.36873-4.99233-7.42644-5.53474-11.9797-1.96558-16.49724-4.83581-32.84065-7.82741-49.17856-5.75733-31.43985-13.35466-62.41871-22.243-93.10738-1.94871-6.72833-4.73459-13.23207-5.69876-20.24156-.18698-1.35815-.02273-2.7094,1.0764-3.51131.96323-.70303,2.299-.47412,3.53776.05799.5867.25223,1.16848.51711,1.9138.84784Z"/><path class="cls-2" d="m1522.78105,23.08712c1.59163.16876,3.52699.18563,5.37424.5983,23.04339,5.1477,45.87309,11.12027,68.48934,17.90442,32.41557,9.72375,64.20438,21.19677,95.4107,34.28392,2.34117.9818,4.63173,2.14325,6.79038,3.4737.91332.56304,1.52228,1.72906,2.04103,2.73839.11457.22329-.66238,1.04623-1.16121,1.41374-1.01946.75107-2.04946,1.59099-3.21255,2.02798-15.52572,5.83433-31.14681,11.40155-46.98815,16.32625-3.12937.9729-6.29506.71393-9.38648-.40113-14.40364-5.19497-28.86679-10.20572-43.4642-14.84269-34.70051-11.02262-69.89165-20.05371-105.71214-26.61485-6.27327-1.14904-12.51069-2.49172-18.76639-3.73759-1.61225-.32106-2.44145-1.20808-1.95176-2.50303.42245-1.11735,1.02227-2.58902,1.95597-3.02899,15.04118-7.08816,29.33353-15.4831,43.32339-24.4289,1.59866-1.02239,3.38359-1.76046,5.10807-2.5759.56959-.26928,1.22002-.36681,2.14974-.63362Z"/><path class="cls-2" d="m631.38084,324.09011c0,4.35012.03807,8.18735-.0116,12.0234-.04323,3.33171-1.3674,6.22422-3.46618,8.72566-2.46582,2.93913-5.03696,5.79157-7.60963,8.63885-32.65292,36.14003-62.25403,74.63038-88.95889,115.35882-2.09738,3.19886-4.45167,6.23253-6.77574,9.27499-.31772.41589-1.15746.60908-1.75084.59994-1.14809-.01746-2.17142-.79605-2.5572-2.17307-.68827-2.45623-1.35205-4.94713-1.69121-7.4685-1.62467-12.07671-4.24806-23.91173-8.16938-35.45668-.40769-1.20058-.57205-2.48716-.81315-3.74069-.50739-2.6391.15066-5.12731,1.41204-7.37067,1.24861-2.22098,2.81447-4.26753,4.28977-6.35625,23.64403-33.47855,49.23302-65.39697,76.93778-95.60368,8.21284-8.95446,16.65168-17.70215,25.01729-26.5158,1.31773-1.38826,2.80217-2.6179,4.20096-3.92978,1.59983-1.50038,4.13114-1.97836,5.21796-1.07441.89504.74416,1.59854,1.67037,1.7328,3.09166,1.02356,10.82422,2.03001,21.64986,2.99523,31.97618Z"/><path class="cls-2" d="m728.17699,1780.91028c-1.75799-.55905-3.66101-.93347-5.33968-1.76245-1.69226-.8353-3.21161-2.05744-4.72159-3.22053-40.47834-31.18399-78.21802-65.39873-113.31813-102.52612-1.29043-1.36507-2.34879-2.9799-3.34271-4.5849-.80718-1.30368-.51207-2.55346.64235-3.31871,1.04301-.6912,2.11987-1.52791,3.29573-1.79127,12.42494-2.78332,24.86628-5.49517,37.32109-8.14213,1.94239-.41285,3.81424.34021,5.33254,1.55204,1.9855,1.58484,3.91195,3.26739,5.70707,5.06405,35.66666,35.70047,73.98964,68.28397,114.79238,97.96513,2.05661,1.49628,4.00696,3.13946,5.99644,4.72689,1.4671,1.17059,1.40395,4.05771-.07275,4.84872-.558.29944-1.02215.8271-1.60534,1.01829-12.11167,3.97148-24.47393,6.97903-36.9776,9.40082-2.48831.48197-5.06285.51805-7.70979.77016Z"/><path class="cls-2" d="m351.63335,801.00584c.28316-2.03143.54195-5.22467,1.1898-8.33683,9.49051-45.5897,21.40337-90.51221,37.20195-134.35586.64129-1.77944,1.46522-3.49327,2.21172-5.23439.74368-1.73515,3.92577-2.63535,4.77876-1.24744.65172,1.06035,1.72964,1.86332,2.35734,2.93363,7.74916,13.21274,14.30207,27.01874,20.24849,41.12078,1.02485,2.43022,1.15442,4.99669.45233,7.48572-3.80558,13.48934-7.82905,26.9181-11.52943,40.43579-7.74435,28.29043-14.01259,56.90866-18.63905,85.88092-1.20538,7.54828-2.52276,15.07875-3.77453,22.61965-.25609,1.54372-1.01337,2.33029-2.36296,2.38195-1.2663.04838-2.66264-.2199-3.33169-1.35265-8.42922-14.26957-17.14418-28.35815-26.33209-42.15325-1.81715-2.72837-2.63112-5.76369-2.47062-10.17801Z"/><path class="cls-2" d="m644.19742,292.45226c-1.88369-25.68238-3.72357-21.45081,11.52216-35.5156,32.48118-29.96543,67.0042-57.40146,103.33734-82.55642,1.56258-1.08179,3.24395-2.03664,4.97675-2.8119,1.17105-.52408,2.45364-.1277,3.42893.74662.46029.41261,1.02497,1.04887,1.0245,1.58332-.00515,6.42882-1.23842,12.74008-2.52979,18.97233-2.07336,10.00714-4.75603,19.88752-7.1436,29.83047-.94167,3.92169-3.27148,6.87881-6.31509,9.34347-2.48457,2.01204-5.02736,3.95291-7.56077,5.9041-29.93065,23.05159-58.33118,47.85567-85.25653,74.35437-2.71875,2.67566-5.19301,5.71214-8.71062,7.38696-1.29102.61482-2.65889-.01043-3.17975-1.06902-.55261-1.12303-1.03258-2.36344-1.17176-3.5946-1.00575-8.89483-1.91708-17.80045-2.42177-22.57407Z"/><path class="cls-2" d="m928.4636,122.36641c4.61123-14.50365,8.44375-26.64274,12.34574-38.75939.77895-2.41827,1.77158-4.77638,2.80064-7.10263.78445-1.77334,2.06961-3.19289,3.87153-4.01981,2.89132-1.32699,5.76307-2.71092,8.71683-3.88579,43.25321-17.20484,87.60203-30.95262,132.82505-41.91092,2.4274-.58822,5.02431-.51975,7.54789-.63555.57498-.02642,1.56164.32885,1.68617.72172.34126,1.0764.84889,2.59084.37114,3.36305-8.41036,13.59307-18.3915,25.99506-29.57498,37.37113-11.89799,12.10312-9.38484,11.02245-27.10728,16.48019-32.87762,10.12488-65.11582,22.02369-96.73054,35.60118-4.08241,1.75319-8.21694,3.3863-12.34586,5.02826-1.43066.56889-2.50202.10099-3.25894-1.11828-.64867-1.04442-.81515-2.1784-1.14739-1.13316Z"/><path class="cls-2" d="m858.90845,163.83822c-7.77661,2.93945-14.89746,7.1377-21.99634,11.3916-14.76318,8.84692-29.28687,18.06665-43.57007,27.66968-3.16626,2.12891-6.4209,4.15088-9.78198,5.94678-.85547.45728-2.31592-.00024-3.41138-.32837-.37817-.11304-.5769-1.0918-.7019-1.70703-.1228-.60376-.17163-1.27515-.04175-1.87061,3.26514-14.95532,5.39966-30.08301,6.95972-45.29956.20972-2.04468,1.61255-3.4021,2.85107-4.84033.4126-.479.90161-.91235,1.41772-1.27881,1.55786-1.10645,3.11108-2.22583,4.72778-3.2417,37.28101-23.42554,75.90942-44.36157,116.00269-62.56641,2.823-1.28174,5.5979-3.2666,8.97485-2.74756,1.19971.18408,2.36304,1.36914,2.17969,2.56543-.47852,3.12402-1.22437,6.23145-2.15112,9.25781-3.7356,12.19385-8.42969,24.04175-13.22388,35.84717-1.48584,3.65942-4.06567,6.40991-7.63696,8.20728-7.95996,4.00635-24.93555,15.47827-24.93579,15.47827-1.09497,1.42236-7.21265,3.69434-8.43945,4.31128,0,0,.74292-.521.74268-.521-.95752.50464-6.35718,3.0647-7.96558,3.72607Z"/><path class="cls-2" d="m1099.52422,68.27399c-1.7048-.19196-2.96606-.24772-4.18866-.49485-1.32007-.26699-1.9978-1.39406-1.42856-2.87148.66953-1.73761,1.52919-3.48026,2.65912-4.94953,8.95102-11.63832,17.70886-23.4058,25.25534-36.0278,2.09082-3.49719,5.19992-5.38651,9.23512-6.0619,6.91749-1.15806,13.8078-2.48341,20.69952-3.79025,24.47241-4.64066,49.23313-7.17772,73.96445-9.80488,12.03412-1.27831,24.19382-1.37778,36.2987-1.97385.59888-.02952,1.23807.24063,1.8175.47277.55999.22435,1.26384.4518,1.5593.9036.76828,1.17428.87724,2.51135.18487,3.57111-5.25803,8.0463-11.88487,14.97185-18.35167,22.00676-4.31437,4.6935-8.91131,9.13394-13.49325,13.57269-2.80966,2.7217-6.23426,4.39265-10.15054,4.94602-1.26325.17848-2.52428.40875-3.79456.49854-22.30802,1.57582-44.33746,5.3164-66.34756,8.99629-15.7134,2.62704-31.37561,5.71044-46.86478,9.54544-2.47133.61189-4.98881,1.03774-7.05433,1.46131Z"/><path class="cls-2" d="m956.37033,2183.45536c-10.65734.41964-21.09925-8.30028-21.47109-19.98558-.21427-6.73535,1.98175-12.4175,6.54038-17.27138.43276-.46111.91613-.87865,1.40161-1.28587,10.2001-8.56083,20.75763-16.65352,31.74148-24.18528,1.82687-1.2526,3.62223-.48618,5.39205.18838.58892.2247,1.1823.48993,1.69836.84584,9.40581,6.4884,18.30036,13.6052,26.50957,21.56761,2.00881,1.94872,2.01701,4.81569-.05002,6.56619-.48032.40652-.82874.97471-1.32417,1.35616-10.54804,8.12854-21.07406,16.2866-31.69286,24.32188-2.51432,1.9028-5.32106,3.42883-8.04192,5.04648-3.3522,1.99277-7.04097,2.79761-10.70339,2.83557Z"/><path class="cls-2" d="m1688.61012,2204.04639c-.05717,5.47034-1.49767,10.20613-4.97335,14.26594-8.35436,9.7586-23.08955,10.01446-31.95961.4808-2.1385-2.29854-4.01621-4.94409-5.53615-7.69413-4.90962-8.88441-9.60227-17.88901-14.36592-26.85379-1.08366-2.03916-.07802-5.22572,2.06235-6.61305,9.05564-5.86749,18.32098-11.37812,27.89912-16.35501,3.23083-1.6788,6.57763-.95737,8.37686,1.76221,6.32013,9.55265,11.41063,19.77025,16.26847,30.11064,1.64786,3.50756,2.15162,7.27965,2.22824,10.89639Z"/><path class="cls-1" d="m498.24206,1455.5331c.24333-.41589.66121-.82687.67257-1.24885.00855-.31936-.47693-.88497-.78785-.91801-.3538-.03772-.75774.39434-1.13977.62232.25668.34373.51348.68745.77028,1.03118,0,0,.48489.51336.48478.51336Z"/><path class="cls-1" d="m497.75729,1455.01974c.34829.0724.69647.1448,1.04476.21697-.18287-.29991-.36587-.60006-.54874-.89997-.03667.36809-.07334.73595-.06057,1.15021.04944.04616-.43546-.46721-.43546-.46721Z"/></svg>