<?xml version="1.0" encoding="UTF-8"?><svg id="Layer_1" xmlns="http://www.w3.org/2000/svg" viewBox="0 0 2348.46364 2661.33333"><defs><style>.cls-1{stroke:#fff;stroke-miterlimit:10;stroke-width:1.19568px;}</style></defs><path d="m774.81503,642.35648c-.44628-23.80167,4.0174-46.22135,12.25937-67.83347,22.39994-58.73782,61.28664-103.40753,115.96389-134.26911,19.46422-10.98613,40.47656-17.93887,62.41565-22.09679,2.25103-.42668,4.52742-.78303,6.80871-.97536,16.8071-1.41744,33.66477-1.80056,50.37046.55205,18.9668,2.671,37.45959,7.45618,55.16823,14.98968,36.7127,15.61779,67.10094,39.30348,91.07142,71.19925,4.12498,5.48879,8.12445,11.07186,12.20404,16.59511,1.15031,1.55752,4.91893,1.47558,6.05524-.11164,3.99807-5.58447,7.90929-11.23379,12.01858-16.73505,28.8247-38.58685,66.13665-65.2412,112.1821-79.53526,29.67581-9.21219,59.91865-11.6246,90.68761-7.2682,9.11731,1.29095,17.8962,3.9859,26.61541,6.82261,13.86787,4.51161,26.98129,10.73021,39.52964,18.12616,56.42822,33.25914,99.18074,89.86555,116.83685,145.26504,5.61848,17.62902,8.9072,35.61524,9.36245,54.04453.49531,20.04886-2.96458,39.56333-9.24982,58.61329-4.80183,14.55306-10.70074,28.64163-17.56478,42.31613-8.91812,17.76686-18.45651,35.20706-28.54875,52.33558-11.67091,19.80723-25.16646,38.3207-39.7081,56.11571-14.03036,17.16915-28.061,34.34978-41.61931,51.89042-41.21084,53.31543-78.53764,109.24119-111.62068,167.96333-16.14048,28.64961-31.10795,57.90086-44.56036,87.92687-5.95718,13.29601-10.8212,26.90509-14.45563,41.01915-8.96435,34.81722-16.37777,69.91866-21.43117,105.54287-3.54674,25.0034-5.79749,50.11382-7.93647,75.25029-.12943,1.51998-.39474,3.02847-.52305,4.54845-.24205,2.87131-3.14416,5.92948-5.77816,6.13021-9.90426.75502-28.65269.24906-38.82618-1.0433-1.43046-.18168-4.72339-3.13059-4.80435-4.40866-.28996-4.56862-.77238-9.13823-.79171-13.7091-.1468-34.41142-.07592-68.8241-.31489-103.23467-.31853-45.88082-.84746-91.76023-1.30972-137.63979-.05407-5.35194-.24906-10.70262-.39249-16.05343-1.04553-38.98439-2.06193-77.96975-3.16153-116.95274-.3233-11.46422-.82057-22.92465-1.3495-34.38158-.88136-19.09619-1.91233-38.18566-2.76539-57.28298-.6141-13.75294-1.30579-27.48865-2.87297-41.18122-.95588-8.35058-1.30608-16.76993-1.95715-25.15608-.82841-10.67502-2.21237-21.26081-5.35373-31.54081-.21124-.69198-.99202-1.83221-1.29291-1.76736-1.35034.29122-2.91247.64352-3.84567,1.54533-1.02312.98853-1.83304,2.54128-2.06137,3.95677-2.55668,15.8513-4.73599,31.74687-5.70336,47.7961-.82813,13.73781-1.97396,27.45629-2.85644,41.19117-.58832,9.15546-1.01444,18.32241-1.41982,27.48823-1.01359,22.91653-2.0877,45.83109-2.92088,68.75448-.72224,19.86774-1.2761,39.74361-1.6784,59.62059-.99006,48.9303-2.08742,97.86032-2.69816,146.79609-.64856,51.99422-.77995,103.99473-1.15311,155.99259-.05491,7.6436-.14512,15.28791-.34935,22.92857-.0395,1.46535-.58692,2.95017-1.08363,4.36103-.5533,1.57097-1.68428,2.59591-3.14444,2.97763-1.47081.38451-2.96907.82982-4.47181.9-9.16382.42808-18.33156.79774-27.50098,1.07804-1.48509.04539-2.98447-.46282-4.48049-.69534-1.71986-.26727-4.40009-2.95675-4.534-4.63152-.30481-3.8052-.72224-7.6083-.84074-11.42009-.85587-27.56219-4.12078-54.84577-8.67327-82.0334-4.93574-29.47397-12.12672-58.35345-21.41745-86.72109-12.90078-39.39047-30.18779-76.80347-51.58142-112.28312-9.867-16.36356-19.943-32.62137-30.51431-48.53528-15.65147-23.56158-31.72359-46.84679-47.80187-70.12149-41.28452-59.76193-82.68924-119.44065-123.99659-179.18689-6.08619-8.80275-12.12574-17.65214-17.80207-26.72089-13.03848-20.83091-23.47377-42.85276-30.2413-66.5823-5.70126-19.99059-9.00175-40.25839-8.58992-60.52535Z"/><path d="m581.86274,713.7608c21.76218-.27147,39.93923,1.79453,57.81063,6.37632,9.64904,2.47391,18.93053,6.01254,27.95146,10.20072,15.28699,7.098,29.70522,15.72089,43.61162,25.21688,17.06134,11.65024,33.31206,24.35274,49.00079,37.78392,41.32038,35.37417,79.21701,74.16231,114.5459,115.46287,19.87408,23.23338,39.04834,47.04906,57.30047,71.59441,54.63916,73.47887,97.29797,153.43464,129.33029,239.13428,9.91295,26.52156,17.91399,53.60721,23.47405,81.38456,3.14892,15.73125,6.16814,31.48534,7.61359,47.49759,1.0304,11.41309,3.28312,22.70767,3.43636,34.20452.03026,2.26365-.1412,4.61569-.76342,6.77008-.37821,1.31014-1.60836,2.6137-2.80237,3.38231-1.22063.78569-2.85112,1.21979-4.32487,1.28367-18.34767.79634-36.51631,3.49045-54.76593,5.27448-15.18964,1.48496-30.26693,4.13242-45.38457,6.33052-5.2907.76931-10.54189,1.80672-15.83091,2.58835-4.81794.71187-8.953-.48467-12.3021-4.34058-5.00746-5.76517-10.12614-11.44166-15.37692-16.98593-6.86614-7.25027-14.68886-13.38202-23.15846-18.64542-7.161-4.4504-14.71352-8.16371-22.87158-10.41209-18.64603-5.1393-30.56319-4.70898-49.51305,1.5627-17.68706,5.85398-33.29763,15.23916-46.99237,27.81573-10.17475,9.344-19.11347,19.78523-26.86979,31.21163-4.7203,6.954-9.17853,14.08534-13.87614,21.0549-12.89686,19.13444-28.08328,36.20399-46.01057,50.79319-22.85267,18.59752-48.36428,32.00377-76.97845,39.24969-26.20583,6.63631-52.68593,8.34189-79.57463,4.73854-24.46313-3.27865-47.94251-9.68215-69.94142-20.8735-59.95997-30.50298-98.35177-78.55065-115.87228-143.40426-21.81148-90.59143,14.2126-179.09388,83.46022-229.49289,6.1666-4.48822,12.44932-8.81647,18.66732-13.23423,1.51661-1.07734,1.22091-4.65954-.52249-5.89292-5.60405-3.96475-11.30265-7.79881-16.84352-11.84915-33.502-24.49001-58.43481-55.76944-74.28954-94.17671-13.98442-33.87646-19.29949-69.15762-15.36487-105.529,10.02585-92.67844,74.27875-165.15029,160.65158-188.96037,18.52332-5.10652,37.47304-7.34244,53.37595-7.11481Z"/><path d="m1783.08835,717.46501c99.79484.00882,182.54431,63.98246,210.41901,152.14607,3.92719,12.42038,7.05846,25.0048,8.26733,38.01855.42443,4.56722,1.17496,9.10615,1.5316,13.67716.41603,5.33135.91666,10.69309.7735,16.02542-1.40105,52.19663-17.72587,98.93038-51.37033,139.2441-12.81842,15.35907-27.56373,28.60493-44.01658,39.97669-4.3816,3.02819-9.39046,5.27391-12.82206,9.49347-.7721.9493-.92423,2.9992-.46141,4.19392.49671,1.28409,1.93866,2.32136,3.16769,3.182,5.0097,3.50796,10.20879,6.75257,15.13473,10.37105,38.13924,28.01576,64.85439,64.39849,79.68963,109.38716,7.4829,22.69212,11.49049,46.04555,10.97669,69.91796-2.37766,110.50399-78.75364,188.39894-164.60973,209.76411-32.44232,8.07322-65.02472,9.49445-97.75028,2.86542-28.0893-5.68994-53.74323-17.27743-76.96066-34.17637-21.87718-15.92372-40.15579-35.27514-55.20591-57.71358-4.25833-6.34887-8.33456-12.81932-12.5929-19.16805-8.12361-12.11081-17.39444-23.267-28.11591-33.17552-17.22383-15.91728-37.21193-26.6007-60.1607-31.66464-9.86672-2.17708-19.70851-2.12876-29.56963.0311-12.10263,2.65083-23.21323,7.55984-33.45452,14.49759-7.62381,5.16451-14.66799,11.01989-21.04905,17.65886-4.2376,4.4088-8.31551,8.97728-12.67638,13.25861-1.62181,1.59198-3.9751,2.17302-6.35024,2.05171-1.52291-.0776-3.07188-.04665-4.56174-.32008-21.81498-4.00607-43.76977-6.86772-65.84697-9.06791-15.98107-1.59268-31.93637-3.30134-47.98299-4.06757-2.27905-.1087-4.53764-.60359-6.81137-.87156-2.16082-.2548-5.41537-4.31144-5.31087-6.73968.295-6.87038.24065-13.7804.98866-20.60189,2.50037-22.7997,5.81907-45.47922,10.76742-67.90141,6.76935-30.67541,16.26739-60.49691,27.78421-89.69661,36.16052-91.67899,84.54077-176.28211,146.16835-253.28939,32.04703-40.04435,65.66599-78.64128,102.36777-114.51007,20.79579-20.32369,42.24181-39.90862,65.01464-58.00942,14.37551-11.4264,29.1875-22.23939,44.83015-31.89129,10.42255-6.43081,21.12917-12.30328,32.31233-17.32029,16.1783-7.25769,33.07099-11.84102,50.68143-13.73893,9.88045-1.06501,19.75446-2.40359,26.80508-1.8367Z"/><path d="m1127.61654,1578.77135c8.39844.41323,16.79828.8004,25.19391,1.26462,1.51143.08349,3.00044.52025,4.50851.73148,2.66118.37289,5.916,3.48288,6.08185,6.01576.34879,5.32518.78107,10.65261.88949,15.98479.77715,38.21564,1.40721,76.43492,2.25187,114.64916.27007,12.22372,1.08531,24.4351,1.58343,36.6549.68469,16.80341,1.39012,33.60681,1.92549,50.41526.46281,14.52183,1.14247,29.0218,2.47936,43.49544.7735,8.37047,1.33353,16.77007,1.67532,25.16911.71635,17.60353,3.22625,35.00423,5.61876,52.42033.20199,1.47053.92479,2.87691,1.45876,4.29281.59729,1.58372,1.76721,2.41718,3.34083,2.83909,1.47137.39474,2.55724-.16697,3.08589-2.08099,2.85869-10.34864,4.36227-20.92504,5.14502-31.61071,2.12132-28.96493,5.24363-57.8657,5.57113-86.94717.04286-3.81935.28239-7.64122.56423-11.45217,2.53595-34.32793,2.91668-68.73291,3.7689-103.12247.49251-19.86886,1.18365-39.73296,1.72995-59.6007.39978-14.51902.6945-29.04057,1.07523-43.56043.05995-2.2883.31909-4.57185.49923-6.85651.28127-3.56609,3.69382-6.5122,7.87259-6.82905.76118-.05743,1.51479-.24065,2.27541-.27063,14.51335-.57292,29.02585-1.17889,43.54256-1.64339,2.24039-.07144,4.58471.24822,6.72256.90378,1.29291.39642,2.85532,1.57055,3.31197,2.76989,3.00296,7.88916,4.12806,16.24758,5.66246,24.49674,4.75336,25.55628,10.55618,50.85763,18.2209,75.71352,3.83138,12.42431,8.31355,24.59115,13.56447,36.49969,9.3899,21.29597,22.5742,39.78675,39.70782,55.54882,18.71929,17.22084,39.58623,31.17871,62.57254,42.01174,22.92971,10.80669,46.86966,18.48574,71.75737,23.2691,2.20957.42471,4.32221,1.36575,6.4721,2.08996,1.70361.57432,3.0604,3.99445,2.32611,5.82638-1.13434,2.82872-2.12496,5.72636-3.4358,8.47104-60.87369,127.49118-165.97688,216.81239-285.65084,260.82359-1.43411.52725-2.85616,1.08644-4.27766,1.64675-6.77495,2.67072-13.35687,2.20706-19.99903-.73345-124.33866-55.04342-217.19438-143.09889-277.88191-264.89844-1.01696-2.04121-1.71342-4.24238-2.5634-6.36708-.60219-1.50527,1.15339-5.16998,2.76539-5.71516,6.5025-2.19894,13.0396-4.3029,19.49545-6.63155,25.28286-9.1196,49.2095-20.89115,71.16008-36.52295,10.60759-7.55381,20.53931-15.8915,29.96815-24.87467,15.12184-14.40752,26.9988-31.09354,36.14581-49.84095,9.4175-19.30211,16.48745-39.45981,22.42488-60.04222,5.50684-19.09031,10.23624-38.37337,14.15349-57.85926,1.50386-7.48097,3.43468-14.87566,5.1439-22.31573.36168-1.57503,3.33775-4.20036,4.91249-4.23958,5.33804-.13363,10.67637-.24542,16.01525-.32358,3.05479-.04482,6.11071-.00812,9.16606-.00812.00056.1143.00112.22861.00168.34319Z"/><path d="m1185.92627,1422.03761c34.44486.00252,68.83509,1.15648,103.19702,3.362,6.86796.44082,13.75245.62334,20.62713.96906,12.22057.6141,24.45403,1.04624,36.57627,2.93602,3.01781.47066,6.07905.70991,9.12992.91344,25.21773,1.68275,50.12757,5.67986,74.98053,10.04957,12.81282,2.25287,25.39394,5.53586,37.7347,9.65862,6.53654,2.18367,12.81394,4.99698,18.68483,8.67177,3.91935,2.45388,7.4885,5.30977,10.47213,8.83973,4.56006,5.39466,7.43275,11.48411,7.80283,18.68353.46029,8.9445-2.73346,16.43584-8.62816,22.95505-3.10634,3.43526-6.73825,6.21692-10.71251,8.55201-7.29183,4.28497-15.1266,7.2759-23.1642,9.84352-10.22,3.26492-20.67588,5.70143-31.17099,7.62666-13.51964,2.48077-27.12165,4.60294-40.74467,6.58168-24.25652,3.52323-48.74781,4.33259-73.03795,7.29243-3.0321.36952-6.09782.52697-9.15317.63735-46.62145,1.68401-93.22833,4.40628-139.90384,3.32852-35.17018-.81189-70.32551-2.24684-105.48742-3.40416-24.29476-2.91361-48.85945-3.08955-73.03585-7.20306-13.79307-.71131-27.27643-3.65014-40.86079-5.81041-13.59753-2.1628-26.99306-5.3518-40.14948-9.4443-7.31144-2.2743-14.39764-5.14028-21.07636-8.93302-4.69173-2.66427-8.9425-5.8995-12.40785-10.05896-5.04528-6.05555-8.1131-12.86219-7.95327-20.94522.14246-7.21343,2.89595-13.38118,7.27376-18.90331,3.35932-4.23706,7.54579-7.51739,12.2032-10.28855,5.95452-3.5427,12.32885-6.06521,18.80572-8.40927,9.37687-3.3938,19.07929-5.69569,28.79865-7.64697,12.72905-2.55571,25.53304-4.7786,38.39068-6.74361,21.19318-3.23901,42.58962-4.40137,63.8202-7.15922,6.0551-.78639,12.19956-.92549,18.30872-1.25019,19.85741-1.05534,39.70852-2.32094,59.57896-3.01461,23.69145-.82702,47.40027-1.14667,71.10125-1.68611Zm-2.15886,83.53321c24.03016-.31153,45.4448-.43956,66.85188-.91611,15.28853-.34039,30.61852-.55331,45.83786-1.879,26.65407-2.32164,53.42189-3.25568,79.97287-6.97558,11.3619-1.59212,22.71456-3.12233,33.95851-5.38906,1.92802-.38885,2.72701-1.53469,2.22442-2.62337-.30425-.66004-.82953-1.4089-1.45147-1.70054-4.18773-1.96445-8.64273-3.07442-13.21428-3.63585-6.07148-.74549-12.17715-1.2226-18.23799-2.04009-30.33277-4.0918-60.80785-6.54274-91.36867-7.98581-10.6943-.50498-21.39728-.85139-32.0997-1.13869-31.34272-.84102-62.68152-2.01109-94.04553-1.16951-10.70242.28716-21.40596.53748-32.10922.78639-59.40092,1.38144-96.74523,4.19322-153.18661,11.31293-5.33398.67265-10.5636,1.76498-15.49514,3.96419-.62082.27679-1.18841,1.0447-1.4313,1.71259-.38941,1.07047.51156,2.16672,2.404,2.5284,7.50909,1.43467,14.99409,3.20777,22.57728,4.00117,21.28732,2.22751,42.46747,5.58853,63.91069,6.25362,4.58317.14204,9.17488.43676,13.73074.94692,17.50552,1.9622,35.09061,2.48721,52.67304,2.87383,23.70098.52165,47.4084.75558,68.49863,1.07355Z"/><path d="m1495.69131,1816.07818c-44.53879-.24738-81.4532-14.28958-112.66117-43.04215-12.41836-11.44124-23.32669-24.18801-32.97882-38.00973-9.19912-13.17316-17.20282-27.0596-24.30499-41.47328-16.28868-33.05743-27.58502-67.8437-35.8997-103.65645-.50988-2.19417-.32526-4.54299-.55274-6.81084-.16949-1.69298,2.14121-4.94585,3.69634-5.13328,10.61221-1.27947,21.20397-2.79286,31.84644-3.73867,12.93636-1.14976,25.89262-1.97117,38.69395-4.35165,3.74285-.6959,7.59188-.81749,11.38964-1.22512,9.65549-1.03629,12.39006.34515,15.69587,9.04732,4.89092,12.8748,10.96885,25.19236,18.10323,36.98912,8.74835,14.46636,19.1129,27.62355,31.42649,39.22448,9.51457,8.96355,19.98838,16.58405,31.79965,22.23981,22.00297,10.5355,44.89934,14.24251,69.08919,9.45411,14.32901-2.83657,28.14253-7.12546,41.33803-13.25272,9.6863-4.49789,19.12383-9.54908,28.55604-14.57169,8.08775-4.30682,15.9326-9.07113,24.0324-13.35386,6.06588-3.20749,12.33431-6.04014,18.58033-8.89183,2.06529-.943,4.29615-1.68289,6.52813-2.07343,10.01716-1.75293,17.78162.64043,21.31659,12.05926,1.61508,5.21676,2.11124,10.52934,1.37219,15.85368-1.26041,9.07618-2.94021,18.06971-6.1446,26.73378-18.95686,51.25601-52.46264,88.94972-103.0449,110.75613-25.55951,11.01905-52.25757,16.77875-77.8776,17.227Z"/><path d="m875.9878,1812.03023c-42.35919-1.0447-81.22137-13.11601-115.81569-37.81726-26.08032-18.62217-44.98185-43.3125-58.85603-72.02949-4.67324-9.67291-8.21494-19.73159-10.99196-30.09087-2.4068-8.97784-2.97551-18.06102-1.89482-27.26831.45777-3.89779,2.03461-7.31652,4.48329-10.36069,3.07692-3.82467,7.11884-5.79949,11.96297-5.55939,3.01109.14904,6.07681.72084,8.96043,1.61229,6.58753,2.03589,12.7834,5.06492,18.82407,8.35926,8.04951,4.38975,15.95053,9.05432,24.03394,13.37879,10.10219,5.40447,20.19023,10.86693,30.53028,15.78729,12.44904,5.92359,25.5301,10.09454,39.03055,13.08183,12.87053,2.84805,25.80913,3.21057,38.74732,1.56999,9.08103-1.15116,17.91441-3.66891,26.46763-7.18121,14.33279-5.88549,26.93479-14.34113,38.28408-24.77101,13.04997-11.99259,23.75449-25.88715,32.79504-41.06734,5.86837-9.85333,11.06536-20.06273,15.35563-30.72598,1.4201-3.52995,3.26351-6.89013,4.93546-10.31726.69156-1.41786,4.11069-2.91137,5.97651-2.65923,7.56246,1.02369,15.14243,1.92915,22.68836,3.06153,18.14876,2.72367,36.39193,4.51918,54.67782,5.99811,3.75938.30425,7.45698,1.45428,11.16257,2.30371,2.07538.47598,4.04037,3.27921,3.7598,5.05736-1.66929,10.57837-4.47965,20.88554-7.4095,31.16302-7.97835,27.98803-18.07368,55.15128-31.3713,81.08914-7.68769,14.99557-16.38323,29.3535-26.42631,42.8861-11.44441,15.4214-24.45165,29.3507-39.62532,41.1822-15.22101,11.86848-31.95794,20.90655-50.48938,26.40403-16.21486,4.81026-32.76688,7.46809-49.79544,6.91338Z"/><path d="m1049.39729,2473.08918c-5.34785,0-10.69752-.09637-16.04298.01597-29.25684.61522-57.66173,6.09169-85.41723,15.16506-1.4201.46478-2.65725,1.47137-4.00577,2.17568-1.82338.95253-2.11656,4.38554-.71775,5.87905,2.65992,2.83965,5.89443,4.84612,9.21747,6.71587,6.01013,3.38175,12.35028,5.97178,18.96134,7.9917,2.86387.87492,5.53667,2.43146,8.2169,3.83056,1.59351.83178,2.03027,2.29895,1.45302,3.94374-.75165,2.1415-1.37415,4.35136-2.35441,6.38641-5.33356,11.07116-12.32801,21.07941-19.88669,30.71842-3.0314,3.86558-7.18201,4.75423-12.3028,2.81023-18.82715-7.14647-35.52639-17.62202-49.93818-31.71297-2.18534-2.13646-4.37838-4.26536-6.60672-6.35671-2.04022-1.91458-6.34954-2.66483-8.54426-1.37332-6.57282,3.86866-13.25196,7.58547-19.60724,11.78836-8.28021,5.47619-16.2608,11.40342-24.4326,17.04658-2.50149,1.72715-5.17415,3.21786-7.83253,4.70212-1.32933.74241-2.82367.48691-4.2827-.37653-.6571-.38885-1.40371-.66313-1.98195-1.14331-10.57509-8.78033-21.1555-17.55478-31.65439-26.42588-1.11221-.93992-2.47039-2.52027-2.40021-3.7269.13083-2.24992,1.66593-4.18299,3.43846-5.70171,1.15857-.99343,2.40596-1.88404,3.62378-2.80715,16.4464-12.46633,33.21891-24.45976,50.83635-35.24124,3.24348-1.9849,6.44185-4.09782,9.38262-6.49315,1.0248-.8343,1.63918-2.68528,1.6889-4.09839.10618-3.02315.09343-6.14127-.52221-9.08402-4.28607-20.48884-3.87032-40.91325-.46884-61.5122,2.1209-12.84398,4.87537-25.48372,8.31789-38.01057.80544-2.93098,1.26671-5.95861,1.84705-8.94927.31321-1.61425-1.30313-5.09209-2.75671-5.95189-2.61411-1.54617-5.18648-3.17976-7.88674-4.56064-33.33601-17.04546-67.49554-32.33911-101.6108-47.72718-4.85282-2.18885-10.01787-3.76108-14.21204-7.25209-1.27778-1.06375-1.37205-2.34462.04118-3.75351,1.06094-1.05786,2.17385-2.27065,3.50822-2.81584,16.28952-6.6534,32.05753-14.34029,47.2319-23.26014,2.76077-1.62322,5.90213-1.57447,8.8471-.41099,4.25903,1.68261,8.49159,3.45767,12.62805,5.41988,20.01136,9.49081,39.99008,19.05053,59.97202,28.60353,4.13296,1.97621,8.20891,4.07177,12.34762,6.03594,8.13201,3.85969,10.26062,3.56805,16.29834-2.0709.55835-.52137,1.10605-1.05478,1.6445-1.59716,19.21544-19.34301,42.42125-32.27076,67.56557-42.11203,6.41943-2.51243,12.96452-4.51946,19.69226-6.02977,3.27401-.73485,6.83574.85363,8.0652,2.96964,3.83558,6.60073,7.40053,13.35778,11.14296,20.01342,3.73094,6.63575,9.1365,12.26938,11.80931,19.52987.61564,1.67168.05001,3.26997-1.31672,3.82439-6.37405,2.58611-13.16245,3.78657-19.73681,5.71124-14.76661,4.32335-28.55071,10.77728-41.39266,19.22338-1.19359.78471-2.05479,2.1754-2.86457,3.41845-1.07229,1.64591-.66929,2.94583.88164,3.77985,6.10286,3.28173,13.42005,2.80491,19.44054,6.30264.59154.34347,1.30201,1.00492,1.37093,1.58792.07802.66061-.31363,1.6235-.83262,2.06642-2.88628,2.46368-5.74048,5.0002-8.84878,7.16188-11.32646,7.87627-21.9968,16.51345-31.40169,26.63348-2.89398,3.1142-6.42056,3.72046-10.37688,3.41985-1.50358-.1143-3.03518-.00504-4.54353.12439-1.52852.13111-2.7773.9699-3.68892,2.35022-.41295.62503-.82463,1.28647-1.05716,1.9905-7.26186,21.98095-11.16719,44.37232-8.30347,67.60584.20913,1.69634,3.23031,4.14993,4.99135,3.72298,1.48327-.35944,2.9863-.66313,4.43721-1.12678,3.63723-1.1632,7.26494-2.35946,10.86981-3.61876,18.80446-6.56935,38.18463-10.84732,57.72673-14.45543,3.74943-.69254,7.56302-1.12398,11.36694-1.4187,12.94897-1.00295,25.9013-1.97873,38.86442-2.76709,3.85841-.23505,7.6063.86624,10.92248,2.91865,15.86621,9.82055,28.93578,22.4432,38.16502,38.77511,1.08335,1.9171,1.51983,4.32811,1.74157,6.56095.15843,1.5952-.91372,3.03268-2.22302,3.5546-1.38438.55219-2.93377.9486-4.41452.95925-10.69598.07844-21.39293.04202-32.08947.04202-.00014.15549-.00014.31069-.00014.46618Z"/><path d="m1921.50178,2066.31416c-.30425,7.3748-.66368,16.53642-1.07019,25.6958-.14148,3.19601-1.69829,5.87036-3.67757,8.20209-1.4694,1.73108-3.31085,3.16827-5.08506,4.61583-48.05415,39.20291-98.91068,74.36038-152.53932,105.50127-2.61915,1.52096-5.51062,2.57546-8.28386,3.82804-1.94707.87997-5.03548-.58608-5.56861-2.35694-2.22974-7.40645-1.05394-15.24182-2.95674-22.65304-.55414-2.15775-1.85378-4.11127-4.39617-4.73294-2.94245-.71972-5.86753-1.51844-8.78085-2.34966-1.98237-.56619-4.50347,1.34502-4.52084,3.42181-.02549,3.05229-.19919,6.11522-.0084,9.1549.52669,8.38868,1.03124,16.78576,1.88935,25.14418.64771,6.30853-2.49589,10.06484-7.54929,12.80168-4.02889,2.18185-8.11716,4.25527-12.18779,6.35951-22.40107,11.57852-45.23077,22.24682-68.33418,32.34556-7.69273,3.36242-15.16666,7.22351-22.86136,10.58089-21.00814,9.16667-42.42727,17.24185-64.45461,23.64311-1.56998.45637-4.94975-1.92298-5.18564-3.5885-.21292-1.50135-.73344-2.97833-.79227-4.47912-.50876-12.99862.02942-25.97231,1.11305-38.92695.34991-4.18383,2.5875-7.26918,6.348-8.78986,11.32352-4.57941,22.63247-9.23923,34.15602-13.27065,26.01672-9.10251,50.97139-20.62388,75.6078-32.83891,19.15549-9.49809,38.01822-19.58787,57.00029-29.43559,2.66258-1.38144,3.41955-4.76123,1.75964-7.90457-2.49365-4.72145-4.99738-9.4401-7.61233-14.09487-18.33324-32.6358-36.69085-65.25815-55.05042-97.8791-35.22032-62.57847-70.4667-125.14208-105.62932-187.75305-2.60038-4.6304-5.95998-8.98933-6.83238-14.39996-.21096-1.31.49251-2.9999,1.28226-4.17431.81329-1.20831,2.12216-2.22611,3.42684-2.9377,8.05721-4.39395,15.83231-9.23418,23.47854-14.30415,4.59115-3.04416,8.17348-1.96669,11.23611,3.22962,2.71357,4.60491,5.31983,9.27312,7.94235,13.93126,51.72136,91.86221,103.42815,183.73254,155.17556,275.58019,3.74117,6.63967,7.74932,13.12974,11.67959,19.66183,1.17244,1.94876,4.33089,3.06629,5.89779,2.15971,4.61805-2.67268,9.35572-5.16073,13.82865-8.05753,42.38889-27.45181,82.76516-57.606,121.12656-90.45555,4.64214-3.9754,9.25095-7.99646,14.04493-11.78135,1.01331-.79984,2.76007-.80012,4.18885-.90994,1.78934-.13756,3.21308,2.34994,3.19179,5.23974-.02269,3.05509.02942,6.11354-.09245,9.16471-.2132,5.34451-.53509,10.68511-.90434,17.81252Z"/><path d="m1165.63027,357.46563c0-23.70894.02297-47.41803-.02017-71.1269-.0084-4.58109-.25326-9.16267-.43228-13.74229-.12719-3.2533-2.38803-6.08748-5.19404-6.4935-3.02061-.43704-6.08969-.61613-9.07025-1.23226-2.21797-.45854-4.45304-1.19227-6.46622-2.22212-8.24127-4.21612-12.50997-11.02227-12.35448-20.32005.15605-9.32138,4.79511-15.74288,13.09297-19.87138,4.93854-2.45717,10.34298-2.5396,15.5233-3.74497,1.7532-.40791,4.18521-2.95815,4.33145-4.66808.12999-1.52299.38969-3.03793.45777-4.56246.10254-2.29104.11766-4.58733.11794-6.88137.00812-44.35874.02129-88.71747-.01373-133.07621-.00308-3.81158-.35159-7.62231-.51212-11.43459-.11066-2.62316-3.30217-5.61766-6.13956-5.7513-3.04471-.14351-6.09754-.45154-9.13524-.34718-9.17138.31517-18.33548.8523-27.50658,1.18407-3.807.1377-7.62606-.07718-11.43838-.03075-1.86694.02276-2.83543-.76363-3.16209-2.65075-.2471-1.42592-.31713-2.99892.73736-4.25198,10.83073-12.87185,21.72982-25.68635,32.6121-38.51485.49475-.58307.99314-1.16509,1.52095-1.71749,3.28396-3.434,7.11982-5.64561,12.03539-5.73862,19.11991-.36168,38.23926-.50155,57.34376.4977,19.09301.99854,38.18155,2.09325,57.26503,3.26352,6.10202.37422,12.18639,1.0711,18.26824,1.72092,3.80028.40615,7.5661,1.18688,11.37199,1.48034,27.48221,2.11902,54.58537,6.95456,81.75016,11.34158,1.46912.23722,2.93965.882,4.24124,1.62959,1.42598.81924,2.12076,2.18682,1.99581,3.58178-.06444.71804-.4023,1.66475-.94272,2.04513-3.11475,2.19228-6.19811,4.48087-9.52746,6.3079-17.45104,9.57688-35.62935,17.59519-54.12423,24.91879-5.08534,2.01382-10.34522,2.6371-15.75583,2.13583-9.8981-.91695-19.80713-1.7413-29.68701-2.8262-19.78163-2.17225-39.61789-3.07974-59.50934-2.93623-2.86261.02066-5.98744,2.8587-6.24154,5.53117-.14456,1.51851-.47206,3.02525-.53425,4.54481-.12495,3.05544-.16921,6.11599-.16977,9.17444-.00868,43.59391-.01681,87.18783.01905,130.78174.00308,3.81732.31321,7.63457.48971,11.4514.0748,1.60739,2.70124,4.65239,4.21715,4.92127,5.24699.93081,10.52256,1.74207,15.72025,2.89911,11.07614,2.46585,17.02744,13.74384,16.48563,22.11066-.64575,9.97526-8.17516,19.3234-18.25031,20.7538-4.53456.6438-9.09854,1.07895-13.64571,1.63645-1.51647.18602-4.00255,3.1633-4.16728,4.9579-.27819,3.03163-.78779,6.06073-.81132,9.09397-.1017,13.00094-.0706,26.00306-.07228,39.00463-.00532,35.94597.01765,71.89179-.02493,107.83776-.00644,5.34507-.27455,10.69141-.48999,16.03424-.09609,2.37627-1.24836,4.44354-2.59282,6.27225-4.53624,6.16915-9.66893,11.79774-15.6348,16.64596-2.15186,1.74887-6.24042,1.43523-8.24688-.94118-20.59099-24.38384-17.44543-14.52813-17.69141-46.72702-.15773-20.64853-.0297-41.29916-.03222-61.94896Z"/><path d="m2192.45255,594.55186c-31.49228-55.27861-67.24184-107.65648-107.26619-157.10703-6.87516-8.49412-8.354-10.17729-21.70207-8.68532-5.22585.58412-10.513.62732-17.73028,1.00973-.23412.01226-.46589.01897-.70001.01897-4.81425-.00321-11.5382-.06772-18.25981.03999-2.26409.0362-4.51883.55434-6.78117.82641-2.00603.24112-3.08203,3.55697-2.00136,5.44595,3.07094,5.36976,7.44498,9.69564,11.3829,14.34816,26.7154,31.56351,51.57189,64.52879,74.56889,98.88475,8.93199,13.34427,17.49967,26.93579,26.07669,40.51331,3.04642,4.82271,7.10811,7.8773,12.65857,9.00643,3.73592.75985,47.1167,5.62694,49.14842,5.43486,1.89511-.17924,2.57585-1.32617,2.48711-3.25192-.10742-2.34028-.74788-4.49373-1.88168-6.48429Z"/><path d="m2289.48131,813.42996c-18.64222-56.75307-41.1885-111.90996-68.2145-165.2056-3.11064-6.1337-6.35672-12.21398-9.88129-18.11532-1.57809-2.64241-4.38397-4.26195-7.50803-4.79703-4.30749-.73767-7.65808-1.19218-9.1013-1.08738-6.93646.50384-22.85221.83692-44.82167,1.24968-1.23772-1.07395-4.01674-3.82991-4.76462-4.53022-1.083-1.01411-2.02472-1.75703-2.63131-2.21329-.6533-.48399-1.64231-1.09643-2.95534-1.51182-.85181-.26944-1.62304-.38737-2.24657-.43554-28.13352,16.00945-56.29214,31.97452-84.44376,47.95274-33.25311,18.87342-66.51731,37.72698-99.74064,56.65324-3.96303,2.25796-8.14616,4.21758-11.44274,7.54423-1.34835,1.36032-1.66041,2.56242-.58675,4.0217.44838.6101.72453,1.38922,1.26953,1.87993,9.08612,8.18469,18.29192,16.23451,28.60642,22.86914,1.90094,1.22254,4.17379,1.81483,6.48108.58003,4.04184-2.16279,8.16309-4.18313,12.15297-6.43612,17.31343-9.7765,34.59416-19.6105,51.8819-29.43254,35.23988-20.02093,70.47216-40.05646,105.72255-60.05929,3.98696-2.26204,8.0545-4.38455,12.11502-6.51319,3.29629-1.72813,7.6861-.16055,9.67871,3.40839,1.11862,2.00311,2.22263,4.01557,3.27061,6.05605,18.17983,35.40189,34.43069,71.66784,48.69478,108.82151,2.19169,5.70955,4.224,11.48069,6.45597,17.17389,1.99319,5.08427,5.03552,9.23354,9.79839,12.3214,16.71209,10.83556,34.33961,19.9681,52.19542,28.70217,1.80169.881,3.04116.35351,3.5777-1.34368.22244-.7041.60193-1.42045.592-2.12689-.07473-5.4801-2.50112-10.39302-4.15452-15.4262Z"/><path d="m1165.65969,2213.05198c0-16.06464-.04763-32.12928.04202-48.19336.01681-3.02539.57375-6.04882.89397-9.07141.18826-1.77758,3.06208-3.40724,5.23214-3.05453,5.25063.85363,10.21803,3.70729,15.69167,2.76233,5.25092-.90658,10.41134-2.33509,15.61379-3.52519,2.74298-.62755,6.28188,2.00003,6.55139,4.81502.1454,1.51704.48719,3.02315.52921,4.53991.1059,3.82271.12187,7.64851.12103,11.47318-.00532,25.24419-.06836,50.48866-.00392,75.73286.01345,5.33219.45917,10.66437.73989,15.9946.09161,1.74312,3.40639,4.11435,5.06994,3.6252,4.3914-1.29095,8.7957-2.54661,13.14676-3.96503,8.71949-2.84273,17.39276-5.82722,26.11506-8.66239,3.04275-.98867,6.06756-.4404,8.86629.97522,12.97811,6.56403,25.34212,14.19685,37.65178,21.90699,4.51355,2.82676,8.80354,6.01885,13.11314,9.1577,1.30383.95001,1.76301,2.55221,1.38928,4.15862-.12999.55863-.885,1.19906-1.48369,1.38453-3.63723,1.1251-7.27586,2.28718-10.98313,3.13633-5.20805,1.19206-10.63939,1.62294-15.68271,3.27333-8.69764,2.84665-17.1748,6.36764-25.73181,9.63873-1.65599.63315-2.39587,1.90954-2.2726,3.60643.1031,1.42095.95504,2.52083,2.56312,3.19937,2.07285.87548,4.25133,1.53973,6.23061,2.58555,1.52291.80488,1.88963,2.36451,1.48537,4.04067-.1765.73176-.13363,1.55682-.45693,2.20678-6.12892,12.31645-12.29313,24.6158-18.47247,36.90732-.33534.66705-.90546,1.21167-1.30664,1.85098-.72728,1.15844-4.73011,3.01755-6.08297,2.71022-5.95774-1.35483-11.92109-2.68893-17.85474-4.14321-2.22134-.54462-4.39925-1.31197-6.54242-2.12217-14.43995-5.45882-29.20459-8.87643-44.80381-7.71883-3.92523.29108-7.37308-1.54197-10.78254-3.38315-1.20634-.65136-2.97691-.80012-4.3449-.50512-3.72072.8018-7.42322,1.78739-11.02712,3.01138-18.82491,6.39089-37.73554,12.44056-56.98614,17.49539-20.05002,5.26495-40.36646,8.59459-60.96614,10.44697-17.59349,1.58231-35.16345,1.13827-52.67472-1.03097-6.04375-.74857-12.24719-.64211-18.06009-2.84161-.60471-.22889-1.15633-.82982-1.52936-1.39321-.9577-1.4456-.81469-2.8982.12145-4.34744,2.11166-3.26913,5.14698-5.59721,8.12585-7.95556,13.82571-10.94453,28.62145-20.42861,43.96657-29.08287,6.73125-3.7961,13.75217-6.12362,21.61117-6.81757,23.42895-2.06978,53.92014-9.22634,69.00262-15.76823,1.16768-.50624,1.26881-2.51719.78499-4.00453-.21992-.67629-.81188-1.42095-1.43691-1.74817-14.29889-7.47929-29.13931-13.455-45.24799-15.68251-5.75701-.79592-9.77875-3.93954-12.90443-8.57862-7.26242-10.77784-15.10671-21.17858-21.19571-32.71424-.71061-1.34614-1.28843-2.76765-1.85097-4.18467-1.08657-2.73767.83626-6.99995,3.38313-7.35995,15.26598-2.15887,30.44175-2.06978,45.60085.99119,15.82236,3.19433,30.93454,8.4702,45.71683,14.85913,11.9463,5.16241,23.51075,11.08489,35.08585,17.00204,3.3921,1.73388,6.92595,3.19292,10.41022,4.74358,1.69493.75418,4.98253-1.24529,5.08058-3.07582.20423-3.80282.67153-7.60088.69198-11.40286.08152-15.29898.0339-30.59879.0339-45.89833h.02241Z"/><path d="m819.19637,1838.47992c0,1.70978.26769,2.599-.04174,3.18116-2.86765,5.39214-5.67605,10.82574-8.79766,16.07136-38.30649,64.37174-76.66538,128.71238-115.00661,193.06366-19.95308,33.48887-39.90645,66.97746-59.83796,100.47921-2.73332,4.59454-5.32978,9.27032-8.00846,13.89764-1.4327,2.47461-.6197,6.98874,1.45204,8.27213,2.59772,1.60977,5.13605,3.32852,7.80956,4.80073,20.75839,11.432,41.90324,22.11066,63.28105,32.33127,6.90326,3.29994,14.04605,6.00232,21.24459,8.5747,15.84337,5.66165,31.28459,12.25649,46.21494,20.02967,1.84789.96177,2.17987,4.45586.55835,5.61542-.61704.44096-1.05618,1.1618-1.70571,1.52264-18.14301,10.07325-37.37512,17.40994-57.46464,22.4729-2.04162.51464-4.66287.02185-6.66429-.8287-7.02611-2.98673-13.89365-6.34635-20.83123-9.54319-29.86995-13.76401-58.92592-29.08904-87.46655-45.4187-29.87808-17.09533-58.91332-35.51243-87.10417-55.2597-3.10942-2.17764-6.03282-4.63544-8.93129-7.09464-1.36365-1.15704-1.43929-2.69341-.57544-4.13705.36966-.61774.69142-1.31813,1.21404-1.77618.55877-.48971,1.29123-.88305,2.01234-1.06991,16.27229-4.21773,32.51166-8.53716,48.44987-13.92874,2.97383-1.00604,6.12317-.63931,8.85439.98278,7.87777,4.67831,15.66926,9.50173,23.51215,14.23859,1.66369,1.00464,4.93182.15296,6.12723-1.45624.90952-1.22428,2.00464-2.32781,2.79495-3.621,3.58708-5.86868,7.10861-11.77771,10.62986-17.68617,56.35061-94.54973,112.69184-189.10507,169.06151-283.64332,2.72813-4.57549,5.02721-9.43814,8.78015-13.36339,1.3516-1.41338,4.49604-2.52223,6.16436-1.89385,1.42626.5365,2.94231.87716,4.30063,1.54477,8.93255,4.38919,18.24541,7.80679,27.62985,11.06612,1.59926.55555,2.31281,1.97817,2.3439,2.57602Z"/><path d="m202.79293,1760.98854c-2.05156,0-3.61216.21572-5.09515-.03278-16.55679-2.77802-33.18879-5.18483-49.42466-9.60707-3.07763-.83822-5.34799-2.8601-7.08214-5.45714-1.2698-1.90197-2.48118-3.85633-3.55347-5.87485-33.39414-62.8659-60.65307-128.30475-82.16787-196.14704-.6938-2.18801-.79718-4.45026.30018-6.56767.3317-.63987.97507-1.5543,1.5026-1.57307,1.50064-.05323,3.12105.00672,4.50837.52221,15.7379,5.84543,31.44666,11.76762,46.71208,18.79335,2.90869,1.33858,5.10566,3.39996,6.34631,6.26762,1.81539,4.19616,3.42137,8.48617,5.01096,12.77534,16.99523,45.85854,36.39067,90.66035,58.99792,134.04736,2.11348,4.05608,4.35274,8.04717,6.58851,12.03797,1.55667,2.77914,4.462,3.48317,7.09769,1.8748,5.20791-3.17864,10.36413-6.45113,15.66716-9.46419,87.6205-49.78323,175.25962-99.53397,262.89847-149.28527,5.97511-3.39211,12.0875-6.55618,17.94186-10.14329,6.40851-3.92665,12.50521-4.636,19.33899-.7242,11.35196,6.49763,23.83783,10.0654,36.54965,12.86135,1.78458.39222,2.41842,1.65375,1.85237,3.51622-.21306.70067-.49069,1.42655-.9175,2.01011-1.8633,2.54633-4.72983,3.78321-7.33946,5.27784-19.21166,11.00308-38.46016,21.94173-57.71384,32.87113-82.32952,46.73375-164.6659,93.45517-246.99514,140.18948-3.98266,2.26057-8.07276,4.37686-11.84573,6.95148-6.01405,4.10483-13.22744,3.0394-19.17818,4.8803Z"/><path d="m1110.66474,2420.68285c3.807.27903,7.61093.61046,11.42157.82842,22.15145,1.2677,43.98352,4.67046,65.67832,9.26808,6.65532,1.41058,13.4129,4.30514,20.21083,2.93098,5.89163-1.19038,11.43922-4.13537,17.1014-6.39846,21.31743-8.52203,43.24056-14.84064,65.7915-19.26177,13.5132-2.64886,27.12137-4.3735,40.73542-6.18246,12.9386-1.71875,25.89458-1.76329,38.7962.36868,6.75926,1.1167,13.66504,1.31729,20.28311,3.3585,2.47095.76202,4.38244,4.79793,3.31337,7.47733-5.39828,13.5312-12.02727,26.36341-21.32135,37.69035-2.05801,2.50795-4.71806,3.69328-7.93394,3.70253-1.526.0042-3.07552.1821-4.57434-.01737-13.81268-1.83838-27.39284-.01373-40.93685,2.48133-4.50403.82982-9.00609,1.67-13.51488,2.47461-1.76104.31461-2.76848,1.12678-3.2453,2.47433-.68105,1.92326.56787,3.75015,3.42628,5.12627,2.71132,1.30552,6.02246,1.46997,8.08439,3.98744.93851,1.14527,1.18085,2.79034.41715,4.14293-.72616,1.28619-1.89776,2.38608-3.05283,3.35485-13.6247,11.42303-29.44468,18.98217-45.70899,25.70224-4.37964,1.80952-9.01758,1.52096-13.48686.12691-10.19534-3.17976-20.34418-6.50968-30.52663-9.7323-2.17567-.68834-4.38608-1.3694-6.63263-1.69746-1.45316-.21208-3.12315-.09413-4.48245.42976-3.55403,1.36968-7.09068,2.85534-10.45813,4.62956-13.50339,7.11369-26.93143,14.37082-40.40372,21.54363-12.79825,6.81365-25.51217,13.79622-38.45189,20.33112-19.83346,10.01554-40.62462,17.48726-62.30107,22.46001-23.19502,5.32154-46.60366,8.13233-70.4223,5.99783-2.24109-.20087-4.43231-1.00716-6.63389-1.58175-1.71608-.44741-3.33705-4.17627-2.45526-5.62159.38773-.63539.5033-1.4428.91358-2.05802,8.06057-12.08336,15.15434-24.69761,21.46395-37.78925,1.67784-3.48092,5.01236-5.67454,9.21411-5.85748.76216-.03334,1.52151-.12719,2.28297-.1835.76118-.05659,1.52263-.12383,2.28521-.14764,21.65053-.67713,42.19194-6.35839,62.21843-14.09879,14.24174-5.50504,28.09897-11.88893,41.04962-20.06805,1.42542-.9007,1.94819-2.41437,1.63526-3.99221-.27147-1.36968-1.36687-2.30119-3.01025-2.82704-.727-.23225-1.46968-.41519-2.19752-.6452-2.25888-.71327-4.01684-2.07203-5.06573-4.20849-.67153-1.368-1.25117-2.7895-1.76216-4.22642-4.41494-12.41702-11.48853-23.19402-20.2048-32.97843-2.00856-2.25469-4.44996-4.21017-5.49283-7.18905-.22945-.65556-.19527-1.43355-.15436-2.14767.10716-1.87199,1.14653-2.78334,3.01179-2.88223,1.51465-.0804,3.03084-.46029,4.5326-.39446,6.8611.30173,13.71757.71355,20.57573,1.08588l-.01177.21348Z"/><path d="m2135.96844,1143.7325c44.33624,0,88.67219.02942,133.00843-.03082,6.85928-.00939,13.74797.5054,20.57587-.8287,2.53175-.49461,5.36326-3.54536,5.41228-6.39005.06584-3.81431.2852-7.63716.1171-11.44222-.60793-13.74342-1.40189-27.47871-1.96191-41.22394-.05267-1.29319.90574-2.72002,1.66579-3.9118.33674-.52809,1.36042-.87366,2.05324-.84523.65332.02689,1.39628.53748,1.90476,1.03447,14.19957,13.88924,28.34872,27.82988,42.57043,41.69628,3.49463,3.40724,5.02875,7.56824,5.37698,12.27134.50792,6.86001,1.20326,13.72016,1.34978,20.59026.53705,25.22178.83178,50.44594-.82701,75.64741-.45189,6.86435-.93291,13.73291-1.11641,20.60735-.69506,26.01546-3.49491,51.87137-6.58388,77.65976-2.26812,18.93398-4.27486,37.96742-8.70325,56.60052-.45217,1.90239-1.1971,2.94919-3.12455,2.51943-1.40609-.31377-3.22905-.58384-4.01992-1.55948-11.55717-14.2547-22.35988-29.07643-32.66729-44.2569-2.66622-3.92651-3.6462-8.25462-3.11979-13.05045,1.83444-16.71404,3.872-33.41743,5.16743-50.17615,1.29571-16.75928,1.90168-33.57586,2.60234-50.3759.41351-9.9221.52277-19.86102.53873-29.79265.00364-2.21532-.66004-4.56792-1.58595-6.59751-.56227-1.23324-2.0877-2.25693-3.41507-2.84721-1.34278-.59701-2.97159-.72098-4.48021-.74479-7.6423-.12047-15.28601-.18784-22.92943-.1891-77.97033-.01177-155.94094-.00252-233.91127-.01583-7.64314-.00126-15.28657-.09315-22.92943-.18532-4.13618-.05001-7.4829-1.89959-9.46722-5.41441-6.02134-10.66619-13.31569-20.49711-19.81721-30.84225-.72868-1.1597-.75753-2.83138-.87156-4.28441-.10226-1.30524,3.27583-3.25666,5.54788-3.35724,1.52684-.0678,3.05255-.20087,4.57939-.21194,5.35093-.03894,10.70158-.04889,16.05251-.04931,44.33624-.00322,88.67219-.00182,133.00843-.00322Z"/><path d="m210.69283,1187.995c-42.76752,0-85.53503-.0063-128.30255.00658-6.87244.0021-13.74853-.02732-20.61649.17426-6.07779.17818-10.28891,1.81694-10.234,9.35465.07242,9.92126.28912,19.84855.75613,29.75847.71887,15.25611,1.73709,30.49766,2.54589,45.74984.15997,3.01629.68273,6.12082-.62642,9.03429-.58818,1.30888-1.89622,2.04695-3.60473,2.02342-.71243-.00981-1.53048-.37835-2.11054-.82856-13.8725-10.76257-27.3256-22.02171-40.33817-33.81721-4.86094-4.40628-7.1264-9.73048-7.22277-16.17222-.04552-3.05285-.33618-6.10135-.39992-9.15434-.82841-39.71517-1.14597-79.41885,2.41352-119.04815.61452-6.84264.75711-13.72689,1.3233-20.57485.69184-8.36514,1.57656-16.71474,2.42291-25.06657.61592-6.07726,1.4575-12.13519,1.9311-18.22239,1.06752-13.72184,3.80224-27.19155,5.94317-40.75118.2562-1.6235,1.49182-2.47545,3.31379-2.42012.70052.02101,1.43635.27021,2.07384.583.66088.32442,1.40427.72756,1.80041,1.30832,12.49862,18.32521,23.13325,37.72719,33.02126,57.54871,2.08112,4.17165,2.68639,8.68228,2.15116,13.37459-2.42585,21.26599-2.98335,42.65287-4.00465,64.00838-.24317,5.08285,3.00128,8.19075,8.45895,8.40212,2.28871.08867,4.57855.19597,6.86824.21152,5.34575.03628,10.69177.02746,16.03766.02774,34.3667.00154,68.73353.0007,103.10023.0007,63.38751.00014,126.77515-.01975,190.16266.0297,6.85661.00532,13.71449.37527,20.56802.66439,1.54238.06486,3.05255,1.00814,3.4358,2.56496.31517,1.28059-.17341,2.82256-.54742,4.18229-.18532.67321-.86231,1.25103-1.40665,1.77954-9.86952,9.5841-19.36112,19.50396-27.69596,30.48841-2.46423,3.24755-6.0303,4.48808-10.0089,4.65785-1.52516.065-3.05143.13826-4.57757.14834-3.81835.02507-7.63698.02059-11.45547.02059-45.05861.00098-90.11722.0007-135.17583.0007v-.04777Z"/><path d="m1739.10483,209.78754c.288-1.51683-.12411-2.91011-1.27638-4.14244-2.65361-2.83832-6.07176-4.57227-9.37365-6.47963-33.77109-19.50858-68.58883-36.95179-104.20361-52.82151-5.58094-2.48686-11.22491-4.83505-16.76914-7.3998-2.08798-.96583-3.64732-2.69222-4.78222-4.73602,1.84285-1.31813,3.62182-2.74167,5.55124-3.91748,1.28955-.78583,2.76343-1.30762,4.20594-1.79733,15.91916-5.40384,31.68227-11.20773,47.07025-18.0059,2.87549-1.27029,5.95298-1.29775,8.90832-.10478,2.83011,1.14254,5.63753,2.35638,8.39031,3.6743,63.57157,30.43294,123.91577,66.30039,181.01215,107.62176,1.8182,1.31596,3.31421,3.08058,4.94331,4.65365,1.47501,1.42431.75445,5.00616-1.07803,5.7534-15.61463,6.36624-31.94169,10.31656-48.27379,14.2278-4.63822,1.11081-9.05008.26713-13.13135-2.38216-5.12064-3.32425-10.32842-6.51514-15.51826-9.73174-2.20509-1.3666-6.58276-.20921-8.06309,2.17694-3.62462,5.84242-7.24953,11.68659-10.76994,17.59218-51.6432,86.63319-103.25726,173.28354-154.92595,259.90139-3.51004,5.88437-6.56736,12.06557-11.00695,17.37702-1.36743,1.6361-4.87551,2.10102-6.14124.58622-8.31944-9.95824-16.37693-20.11778-22.92719-31.35689-.66901-1.14793-.78751-3.17471-.24009-4.37224,1.89832-4.15147,4.04401-8.21162,6.37797-12.13883,28.49664-47.94864,57.03335-95.87347,85.58042-143.79213,23.85422-40.04197,47.75551-80.05585,71.56743-120.1229,1.9283-3.24447,4.36731-6.31448,4.87355-10.26291Z"/><path d="m2106.59688,1825.28267c-.20759-6.53461.10029-10.27944,2.29502-13.66511,3.32794-5.13328,6.6486-10.2744,9.84291-15.49144,7.18734-11.73849,14.35702-23.48874,21.4082-35.30931,3.21028-5.38121,4.35162-9.1846-2.71805-13.23788-5.30695-3.04248-10.52256-6.24353-15.81746-9.3073-88.6946-51.32156-177.39733-102.6294-266.08997-153.95433-6.60854-3.82439-13.48322-7.22856-19.52641-11.96597-1.45932-1.14415-1.58959-2.63906-.60681-4.0205.4093-.57432.89705-1.4131,1.4582-1.512,14.34189-2.52335,28.28401-6.47634,41.90422-11.59057,6.0939-2.28774,11.92669-2.00563,17.60764,1.34026,5.27081,3.10468,10.64275,6.0365,15.93793,9.10027,27.13846,15.7024,54.26095,31.43169,81.39913,47.13493,50.30434,29.10809,100.60588,58.22038,150.93572,87.28476,5.94934,3.43582,12.05836,6.59597,18.1094,9.85445,1.52179.82001,5.17107-.36196,6.1065-1.92831,1.95267-3.26997,4.10509-6.44328,5.78881-9.84744,9.82834-19.87614,19.54182-39.80832,28.29857-60.19071,1.50526-3.50334,3.29292-6.88537,4.96824-10.31474.89705-1.83613,4.29671-2.17596,5.57001-.61942.4785.58524,1.28843.93432,1.66831,1.56018,7.53501,12.42263,15.03947,24.86402,22.51789,37.32083.78303,1.30496,1.48061,2.68837,2.01374,4.11155,1.08223,2.8884,1.78962,5.83843.65024,8.91621-.53089,1.43327-.85475,2.95535-1.49406,4.33456-31.61251,68.18604-69.0791,132.95924-113.15368,193.87135-.86707,1.1985-2.05969,2.19305-3.22176,3.13269-.54602.44124-1.36351.62727-2.08826.75053-1.84257.31265-3.03406-.43452-3.51396-2.11125-5.27725-18.43587-7.53753-37.42476-10.25025-53.64629Z"/><path d="m443.54373,718.3559c.24836,1.68261-.14764,3.19264-1.48831,4.07261-10.83956,7.11621-21.67729,14.23761-32.6226,21.18867-1.93124,1.22638-4.38944,1.15606-6.53458-.00812-6.71051-3.64117-13.46809-7.20404-20.07649-11.02367-53.5848-30.97084-107.13458-62.00191-160.70985-92.98927-6.60826-3.82229-13.30617-7.48966-19.95407-11.24373-1.641-.92647-4.9286-.03418-6.18677,1.3044-3.19795,3.40248-5.13829,7.58967-7.30374,11.59589-18.90475,34.97607-36.21725,70.72299-51.17366,107.57203-6.89261,16.98159-13.27941,34.16796-20.0496,51.20012-.4736,1.19122-2.12314,2.08449-3.41815,2.73207-1.31084.6557-2.90589.05925-3.75223-1.48104-8.82707-16.06688-17.61969-32.15323-26.29926-48.30009-1.07131-1.99302-1.33843-4.43219-.52417-6.67497,1.82338-5.02262,3.7168-10.0224,5.70602-14.9817,9.6751-24.12133,20.44111-47.76052,31.90065-71.07612,18.88906-38.4315,39.71469-75.79351,62.63824-111.97172,2.44182-3.85381,5.20189-7.51655,7.98283-11.13854.95028-1.23758,2.57433-1.63877,3.97888-1.26196.61059.16389,1.15241,1.01766,1.4949,1.67771,2.13281,4.11099,3.21588,8.55579,3.98028,13.08757,2.79747,16.58601,4.73319,33.26769,5.58682,50.07221.03236.63903.47346,1.41212.96779,1.84342,1.45988,1.27372,2.85,1.02186,3.987-.56941,1.76553-2.47027,3.47348-4.98409,5.30905-7.40099.91526-1.20495,1.96878-2.34434,3.12623-3.31465,1.23366-1.03433,2.83165-1.43383,4.24054-.8647,2.81442,1.13715,5.63487,2.33817,8.26382,3.84302,17.24092,9.86817,34.438,19.81325,51.63689,29.75482,47.63,27.53124,95.2684,55.0479,142.85904,82.64708,5.26506,3.05299,10.85762,5.6503,15.38574,9.86033.49489.46001.70599,1.22512,1.04875,1.84874Z"/><path d="m1526.11261,2289.38465c0,6.87556.18714,13.75924-.10954,20.62192-.09357,2.16392-1.29067,4.54411-3.60361,5.48991-5.63921,2.30595-11.3888,4.34072-17.03977,6.61922-3.53442,1.42543-7.07527,2.90717-10.39089,4.76123-1.10044.61522-2.06585,2.44967-2.11012,3.75968-.07536,2.22443.46674,4.51722,1.03068,6.70887,4.5962,17.87024,7.36131,35.93798,5.95214,54.4537-.17201,2.26113-.77378,4.48948-1.17861,6.73268-.33002,1.82745-3.77675,3.25708-5.57365,2.36227-1.3579-.67629-2.88782-1.07355-4.12722-1.9115-12.03567-8.13598-24.22374-16.01421-36.98277-22.99343-3.5347-1.93363-5.36354-5.19799-6.08521-9.20253-.81104-4.50041-1.7165-9.00306-2.95898-13.39812-.60177-2.12806-1.95631-4.08326-3.17834-5.98271-.90153-1.40161-2.39503-1.74873-3.98462-1.7801-3.16237-.06219-5.93225,1.27751-8.81419,2.23059-23.99318,7.93567-48.64051,13.26841-73.37834,18.16048-10.48838,2.07427-21.09499,3.67003-31.7128,4.94081-15.20953,1.82045-30.48209,2.07903-45.73952.25018-2.95338-.35384-5.18396-3.9782-4.16336-6.76014.25886-.70655.24934-1.51872.5463-2.20314,5.48764-12.63863,12.05668-24.72254,19.00841-36.59719,1.56746-2.678,4.0188-4.67158,7.17221-5.27419,4.49982-.85923,9.0215-1.77814,13.57651-2.14655,22.94148-1.85294,45.24926-7.20082,67.63911-12.08784,2.96374-.64688,5.81682-1.88012,8.65002-3.01923,1.82492-.73373,2.37542-1.97929,1.6798-3.17331-.37485-.64324-.83234-1.37052-1.44615-1.71763-1.98545-1.12342-3.95801-2.47825-6.11911-3.04668-8.86517-2.33117-17.74267-4.66178-26.92498-5.4944-3.0985-.28043-5.86277-1.52824-8.40908-3.33384-17.46336-12.38088-35.54082-23.82745-53.61352-35.28438-1.38732-.87941-1.52235-2.54885-1.36743-4.07737.16809-1.6602,1.03237-2.55361,2.85448-2.94303,4.48217-.95701,8.9086-2.2163,13.42047-2.98533,22.728-3.87314,45.62186-5.69947,68.45016-1.73472,23.57015,4.09306,45.70338,12.36491,65.37351,26.36593,5.59859,3.9852,10.86687,8.43322,16.43212,12.46773,1.84173,1.33494,4.26365,1.92046,6.5427,1.23632,5.84652-1.75517,11.65858-3.63753,17.43619-5.60954,10.12278-3.45431,20.19542-7.05542,30.32296-10.49488,2.15102-.73008,4.44912-1.02733,6.67774-1.53161,2.89483-.655,6.55727,1.94652,6.51889,4.72873-.10562,7.6317-.27175,15.26284-.41407,22.89397.04707-.00028.09441-.00056.14148-.00084Z"/><path d="m1582.7812,2562.32213c-.91526,1.54197-1.40749,3.17556-2.50485,4.05272-2.36197,1.88964-4.96628,3.5095-7.593,5.02906-9.24198,5.34647-18.52738,10.61843-27.81447,15.88618-2.40176,1.36239-6.66121.39362-8.31355-1.79495-1.83613-2.43258-3.78235-4.78897-5.50529-7.29831-11.68688-17.02165-24.67983-33.01036-38.28464-48.51497-9.07305-10.33995-18.60078-20.23194-29.13707-29.10641-1.74452-1.46941-3.6476-2.75-5.4784-4.11716-2.3659-1.76666-6.32838-2.00451-8.59174-.43508-3.75966,2.60796-7.46161,5.29941-11.22939,7.8956-7.56218,5.20976-15.55692,9.68635-23.87019,13.55669-21.20089,9.8707-43.50418,13.87383-66.82919,12.28479-18.3663-1.25117-36.36979-4.16114-53.48885-11.32834-1.86106-.77911-2.46283-1.73192-1.49266-3.56945.34487-.65304.64799-1.34166,1.08559-1.92803.44853-.60037.943-1.27526,1.5795-1.61033,15.63984-8.24131,29.53041-18.93034,42.77886-30.51615,3.05003-2.66707,6.65476-3.53555,10.56458-3.54312,3.81709-.00756,7.64146.17202,11.45015-.00056,12.38894-.56255,24.0789-3.70869,34.94465-9.77572,1.70305-.95113,2.46535-3.94906,1.29963-5.99952-.74269-1.30692-1.66551-2.51691-2.33872-3.85521-.30873-.61382-.52557-1.59352-.24962-2.13478,6.57912-12.90561,13.2266-25.77649,19.8738-38.64736,1.21615-2.35498,5.12232-3.98436,7.88268-3.16631,4.37544,1.29572,8.70437,2.74944,13.07,4.07961,2.8091.85587,6.34631-.93348,7.32881-3.85213,1.45596-4.32615,2.73206-8.7131,4.07259-13.07791.63567-2.06866,3.45205-3.57534,5.2921-2.83545.70711.28436,1.50218.38353,2.1639.74045,12.79685,6.90245,24.86025,14.90788,35.86888,24.41633,2.3799,2.05578,3.45149,5.16297,2.70796,8.29286-1.05394,4.43429-2.55248,8.76464-3.90002,13.12722-1.00435,3.25092-.01177,6.13175,2.13617,8.39512,2.61775,2.75784,5.62604,5.15037,8.51218,7.64655,14.47272,12.51564,27.68476,26.25723,40.01291,40.87627,14.77669,17.52228,28.97963,35.47461,41.30133,54.83807,1.19289,1.87452,1.85462,4.0869,2.69536,5.98971Z"/><path d="m652.04903,182.06695c1.78301-.56281,4.50657,2.60037,8.53674,8.72619,4.19597,6.37774,5.82252,9.7981,8.10149,13.84607,39.72718,70.56441,79.44998,141.13173,119.13542,211.71979,7.85979,13.98035,15.56982,28.04448,23.32161,42.08526,1.26019,2.28218.6933,6.72745-1.07074,8.61497-7.30282,7.81425-14.60242,15.63259-21.97968,23.37619-1.58393,1.66245-3.68308,2.63569-5.97636,3.07853-1.57254-1.64202-3.37219-3.12494-4.66245-4.96488-1.74681-2.49149-3.1264-5.24395-4.62392-7.90679-13.47972-23.97199-26.9355-47.9577-40.42719-71.92268-34.47973-61.24534-68.97961-122.479-103.45291-183.72814-2.82369-5.01684-4.94824-7.69398-7.63589-14.10354-3.06802-7.31683-3.04817-10.35215-1.68405-11.99592,1.02228-1.23188,2.18702-.94405,5.79333-2.28014,3.25513-1.2059,3.7619-1.98005,7.64231-4.00623,9.82174-5.12893,18.3182-10.32909,18.9823-10.53868Z"/><path d="m2323.07225,1426.60119c-.55302,3.26955-1.12285,7.83453-2.11208,12.30678-15.38602,69.57253-36.49922,137.34675-64.02037,203.09208-.85027,2.03112-2.5169,3.73895-3.89833,5.52353-1.16852,1.51031-2.50457,1.40582-3.84651-.12551-.49839-.56871-1.15395-1.0164-1.58035-1.62882-9.63167-13.83909-17.40565-28.75481-25.15833-43.67474-1.84397-3.54844-1.67111-7.43783-.37541-11.15661,1.75992-5.05091,3.73977-10.02506,5.59887-15.04235,20.49518-55.30705,35.87028-112.05577,47.69892-169.79526,2.29866-11.22076,4.29475-22.5033,6.44801-33.75389.32386-1.69228,1.49938-2.49212,3.36492-2.25903.71523.08923,1.51647.29668,2.06753.72308,1.18477.91681,2.42081,1.86975,3.30721,3.05383,9.62411,12.85154,19.14484,25.78041,28.78604,38.61878,2.89987,3.86165,4.19025,8.07686,3.71988,14.11812Z"/><path d="m169.1643,1775.21144c2.96094.41911,6.03843.61382,8.99488,1.31673,10.43403,2.48077,21.10129,3.31059,31.68381,4.74666,2.26434.30761,4.55011.65528,6.73615,1.29263,2.96865.8654,5.62002,2.43959,7.40179,5.04531,3.01487,4.4088,5.93463,8.88427,8.82637,13.37543,32.29594,50.15752,68.46781,97.35352,108.19636,141.84463,4.55487,5.1005,9.76124,9.70905,13.04422,15.83743.80264,1.49827.34963,3.16323-.79774,3.974-1.22021.8626-2.61719,1.6277-4.05046,2.01291-14.01257,3.76668-28.24927,6.45113-42.62058,8.37999-3.93826.52837-7.51035-.73036-10.30684-3.75323-1.03559-1.11922-2.159-2.15915-3.16769-3.30106-3.5368-4.00257-7.09068-7.99198-10.54988-12.06123-43.10076-50.70354-81.68993-104.63783-115.73137-161.81883-2.32289-3.902-4.92832-7.68325-6.08577-12.20719-.44572-1.74284,1.84271-4.76487,3.79454-4.69511,1.51857.05463,3.04078.01093,4.6322.01093Z"/><path d="m77.1664,1424.8865c5.96026,28.35265,13.05739,56.41618,21.34629,84.17924,1.73849,5.82302,3.9538,11.55807,4.39589,17.67945.10772,1.49407-1.25453,2.62253-2.69466,3.01531-.71089.19415-1.58525.24962-2.2684.01961-15.90095-5.35236-31.29678-11.99511-46.77105-18.43223-3.68836-1.53413-6.25134-4.40712-7.42603-8.21106-2.24641-7.27478-4.498-14.56021-6.35948-21.93921-9.32631-36.97077-17.19455-74.264-22.95059-111.95057-2.52922-16.55939-5.34407-33.11234-6.49143-49.88241-.78009-11.39866-3.5099-22.61858-3.49407-34.10745.00308-2.26547.15815-4.57437.63455-6.77863.26867-1.24263,1.88277-2.16308,3.53778-1.93895,1.42206.19233,2.91836,1.00786,4.05732,1.94301,14.14172,11.60611,28.24366,23.26112,42.30316,34.96697,2.40133,1.99918,3.88573,4.71963,4.34322,7.82038,1.66831,11.31055,3.102,22.6571,4.88181,33.94972,3.20355,20.32607,6.70351,40.6034,10.89923,60.75298.62152,2.98463,1.36785,5.9432,2.05647,8.91383Z"/><path d="m1940.97776,2043.46361c.57431-8.52679,1.14639-18.42326,1.95239-28.30124.31657-3.8793,2.05436-7.33305,4.67156-10.22621,2.04372-2.26001,4.24769-4.37826,6.42924-6.50968,45.38681-44.34207,86.86576-92.07373,124.34328-143.28099,1.79886-2.4578,3.68094-4.86601,5.68067-7.16104,1.06318-1.21979,2.56172-1.55542,4.00731-1.43607,1.80615.14932,2.8105,1.09036,3.14696,2.80071,3.09149,15.701,6.2774,31.38154,10.22252,46.89708.37457,1.47305.56871,2.99906.75417,4.51161.47822,3.89639-.11542,7.60985-2.29642,10.92856-1.25425,1.90869-2.67042,3.71681-4.08352,5.51513-26.888,34.21839-55.5264,66.90658-85.9575,98.01385-17.6068,17.99743-35.68398,35.51467-54.52569,52.22478-2.83487,2.51411-5.93029,4.74722-9.00385,6.97417-1.22623.88837-2.81834.67573-4.18549-.3642-.52081-.39558-.87044-1.18982-1.0206-1.86415-.32722-1.47137-.68385-2.98505-.66396-4.47659.10226-7.62609.31994-15.25023.52893-24.24572Z"/><path d="m2024.80498,411.29542c-5.97455-.23029-13.58856-.51731-21.20201-.81903-6.35668-.252-11.89363-2.34966-16.24694-7.17364-1.53076-1.69648-3.17302-3.29252-4.75308-4.94501-42.2306-44.16123-87.70426-84.67764-136.47336-121.4965-4.239-3.20042-8.76572-6.05232-12.35617-10.07682-1.3918-1.55997-1.14863-4.99047.6522-5.57893,15.1916-4.96364,30.38376-9.92463,45.5902-14.84183,5.55684-1.79684,10.4402-.3628,14.88511,3.24174,7.10217,5.75872,14.32901,11.36455,21.39391,17.1681,46.61865,38.29731,89.86761,80.11266,130.15198,125.00257,3.53049,3.93393,7.46245,7.59066,9.8712,12.47347.80404,1.62994-.67293,5.15793-2.56396,5.50616-1.48874.27441-2.9573.83794-4.44828.89103-7.61485.27077-15.23474.41743-24.50081.6487Z"/><path d="m2251.57318,833.88559c16.16261,8.19537,32.17478,17.09463,47.8446,26.60953,3.44337,2.09094,5.57225,5.26355,6.65672,8.98653,2.34741,8.05767,4.55081,16.16213,6.60238,24.30063,6.722,26.66248,12.5265,53.54417,17.18713,80.62646,4.53064,26.32615,8.93493,52.70105,11.18344,79.36927.83402,9.89199,2.09219,19.74783,3.11895,29.62413.15745,1.51494.16333,3.05173.14484,4.57717-.02073,1.72127-.65444,3.01321-1.85742,3.67941-1.47557.81693-3.06432.76636-4.32669-.37387-5.08843-4.59608-10.33206-9.05222-15.09831-13.96754-10.10065-10.4156-19.95561-21.0703-29.87472-31.66156-3.77199-4.02793-5.96923-8.87965-6.61778-14.3239-2.35021-19.72542-5.78209-39.26692-9.35908-58.80184-6.88393-37.59202-15.9679-74.63283-26.59552-111.32667-2.33004-8.04493-5.66106-15.82132-6.81389-24.20244-.22356-1.62392-.02717-3.23957,1.28702-4.1984,1.15171-.8406,2.74887-.56689,4.23004.06934.7015.30159,1.39712.6183,2.28829,1.01374Z"/><path d="m1422.31886,27.60482c1.90308.20178,4.21715.22195,6.42588.71538,27.55253,6.155,54.84955,13.29629,81.89136,21.40796,38.75866,11.6265,76.76791,25.34456,114.0807,40.99261,2.79929,1.17392,5.53807,2.56265,8.11913,4.15344,1.09204.67321,1.82016,2.0674,2.44042,3.27424.137.26699-.79199,1.25096-1.38844,1.69038-1.21895.89804-2.4505,1.90232-3.84118,2.42481-18.5638,6.976-37.24163,13.63261-56.1828,19.52098-3.74173,1.16327-7.52688.85363-11.22323-.47963-17.22215-6.21152-34.51546-12.20277-51.96929-17.74711-41.49072-13.17953-83.56808-23.97782-126.39793-31.82286-7.50083-1.37388-14.95879-2.97931-22.43861-4.46896-1.92774-.38388-2.9192-1.44448-2.33368-2.99282.50512-1.33599,1.22231-3.09564,2.33872-3.6217,17.98445-8.47517,35.07352-18.51284,51.80092-29.20915,1.91149-1.22246,4.0457-2.10494,6.10762-3.07995.68105-.32197,1.45876-.43858,2.57041-.75761Z"/><path d="m356.48914,387.50817c0,5.20135.04552,9.78945-.01387,14.37615-.05169,3.98366-1.63498,7.44217-4.14445,10.43311-2.94833,3.51426-6.0226,6.92487-9.09868,10.32931-39.04246,43.21192-74.43592,89.23408-106.3664,137.93227-2.50779,3.82481-5.32277,7.45212-8.10162,11.08993-.37989.49727-1.38396.72826-2.09345.71734-1.37275-.02087-2.59632-.95183-3.05759-2.5983-.82295-2.93686-1.61663-5.91519-2.02215-8.92994-1.94258-14.43988-5.07932-28.59078-9.76797-42.39485-.48747-1.43551-.68399-2.97384-.97227-4.47267-.60667-3.15552.18014-6.13063,1.68834-8.81297,1.49294-2.65559,3.3652-5.1026,5.12919-7.60004,28.2707-40.02964,58.86695-78.19388,91.99299-114.31144,9.81994-10.70668,19.91008-21.16612,29.91268-31.70442,1.57558-1.65992,3.35049-3.13017,5.02301-4.69876,1.91289-1.79397,4.93952-2.36549,6.23902-1.28465,1.07019.88977,1.91135,1.99722,2.07187,3.69664,1.22385,12.94231,2.42725,25.88631,3.58134,38.23329Z"/><path d="m472.22639,2129.39943c-2.10199-.66845-4.3774-1.11614-6.38456-2.10732-2.02341-.99875-3.84006-2.46004-5.64551-3.85073-48.39916-37.28609-93.52375-78.19598-135.49227-122.58847-1.54294-1.63218-2.8084-3.56301-3.99681-5.48207-.96513-1.55878-.61228-3.05313.76804-3.96811,1.2471-.82646,2.53469-1.82689,3.94064-2.14178,14.85625-3.32796,29.73212-6.57047,44.62409-9.73538,2.32247-.49363,4.56062.40678,6.37601,1.85575,2.37402,1.89497,4.67744,3.90676,6.82384,6.05499,42.64593,42.68635,88.46796,81.6458,137.25499,117.13498,2.45905,1.78907,4.79104,3.75379,7.16983,5.65184,1.75418,1.39965,1.67868,4.85172-.08699,5.79752-.66719.35804-1.22217.98895-1.91947,1.21755-14.48169,4.74862-29.263,8.34469-44.21339,11.24037-2.97523.57628-6.05355.61942-9.21845.92087Z"/><path d="m22.00056,957.74695c.33857-2.42894.64799-6.24703,1.42262-9.96819,11.34761-54.51071,25.59159-108.22367,44.48164-160.64666.76678-2.12764,1.75194-4.17683,2.64451-6.25866.88921-2.07469,4.69397-3.15104,5.71387-1.49154.77925,1.26784,2.06809,2.22793,2.81862,3.50768,9.26551,15.79821,17.1007,32.30577,24.21072,49.16731,1.22539,2.90577,1.38032,5.97444.54084,8.95053-4.55025,16.12893-9.36105,32.18545-13.78551,48.34828-9.25977,33.82631-16.75457,68.04457-22.28634,102.68613-1.44125,9.02533-3.01641,18.02936-4.51313,27.04587-.30621,1.8458-1.21166,2.78628-2.82535,2.84805-1.51409.05785-3.18366-.26293-3.98364-1.61733-10.07866-17.06185-20.49896-33.90728-31.48476-50.40182-2.17273-3.26226-3.14598-6.89153-2.95408-12.16965Z"/><path d="m371.81367,349.67943c-2.25229-30.70791-4.4522-25.64832,13.77682-42.46531,38.8371-35.82907,80.11561-68.6338,123.55843-98.71108,1.86834-1.29347,3.87872-2.43518,5.9506-3.36214,1.40021-.62664,2.93377-.15268,4.0999.89271.55036.49335,1.22553,1.25411,1.22497,1.89315-.00616,7.68682-1.48075,15.23307-3.02482,22.68484-2.47908,11.96534-5.68669,23.77912-8.54146,35.6677-1.12594,4.68909-3.91164,8.22486-7.55083,11.1718-2.97075,2.40576-6.01111,4.72642-9.04027,7.05941-35.78749,27.56233-69.74545,57.22008-101.93956,88.90405-3.25076,3.19923-6.20918,6.82989-10.41512,8.83244-1.54365.73513-3.17918-.01247-3.80196-1.27821-.66074-1.34278-1.23464-2.82592-1.40105-4.298-1.20256-10.63538-2.29222-21.28364-2.89567-26.99138Z"/><path d="m711.70515,146.31111c5.51356-17.34172,10.09603-31.8562,14.76156-46.34384.93137-2.89148,2.11824-5.71103,3.34867-8.49247.93795-2.12035,2.47459-3.81767,4.62911-4.80641,3.45709-1.58666,6.89079-3.24139,10.42255-4.64616,51.71702-20.57149,104.74403-37.00943,158.8163-50.11207,2.90239-.70333,6.00747-.62145,9.02486-.75992.6875-.03159,1.86722.3932,2.01612.86295.40804,1.28703,1.015,3.09781.44376,4.02113-10.05611,16.25297-21.99036,31.08178-35.36222,44.68393-14.22619,14.47147-11.22126,13.17932-32.41165,19.70504-39.31112,12.10612-77.85771,26.33329-115.65881,42.56764-4.88125,2.09626-9.82484,4.04894-14.7617,6.01219-1.71062.68022-2.99162.12075-3.89665-1.33711-.7756-1.24879-.97465-2.60467-1.37191-1.3549Z"/><path d="m628.53943,195.89813c-9.29834,3.51465-17.8126,8.5344-26.30059,13.62071-17.65205,10.57809-35.01773,21.60194-52.09587,33.08409-3.78583,2.54549-7.67734,4.96312-11.69612,7.11044-1.02287.54676-2.7691-.00029-4.07892-.39262-.45218-.13516-.68979-1.30544-.83925-2.04106-.14683-.7219-.20522-1.52467-.04992-2.23665,3.90406-17.88179,6.45627-35.96966,8.3216-54.16379.25075-2.44478,1.92809-4.06782,3.40897-5.78749.49333-.57274,1.07804-1.09088,1.69515-1.52905,1.8627-1.32295,3.71986-2.66138,5.65292-3.87604,44.57617-28.00945,90.76341-53.04226,138.70213-74.80942,3.3754-1.53255,6.6933-3.90581,10.73106-3.2852,1.43447.2201,2.82544,1.63705,2.60621,3.06743-.57215,3.73533-1.46395,7.45082-2.57206,11.06938-4.46658,14.57994-10.07921,28.74625-15.81153,42.86175-1.77659,4.3755-4.86125,7.66421-9.13137,9.81328-9.51757,4.79031-29.81494,18.50707-29.81524,18.50707-1.30923,1.70069-8.62402,4.41724-10.09089,5.15491,0,0,.88829-.62294.888-.62294-1.14489.60339-7.60115,3.6644-9.52428,4.45519Z"/><path d="m916.23898,81.63387c-2.0384-.22952-3.54646-.29619-5.0083-.59169-1.57838-.31924-2.38873-1.66685-1.7081-3.43337.80054-2.07763,1.82842-4.16128,3.17946-5.91806,10.70256-13.91571,21.17413-27.98586,30.19731-43.07773,2.49995-4.18152,6.21744-6.44055,11.04225-7.2481,8.27111-1.38467,16.50972-2.96936,24.75001-4.53192,29.26118-5.54875,58.86709-8.58226,88.43784-11.7235,14.38896-1.52845,28.92808-1.64738,43.40164-2.36009.71607-.0353,1.48033.28772,2.17315.56528.66957.26825,1.51115.54021,1.86442,1.08042.91862,1.40407,1.04889,3.00277.22104,4.26991-6.28692,9.6208-14.2105,17.90154-21.94273,26.31305-5.1586,5.61192-10.65507,10.92128-16.13361,16.2286-3.35946,3.25428-7.45418,5.2522-12.13681,5.91386-1.51045.21341-3.01823.48873-4.53708.5961-26.67326,1.88418-53.01343,6.35671-79.33048,10.75668-18.78821,3.1411-37.5152,6.82786-56.0353,11.4133-2.95492.73162-5.96503,1.24081-8.43472,1.74726Z"/><path d="m745.07268,2610.71468c-12.74278.50176-25.22795-9.92448-25.67256-23.89637-.2562-8.05333,2.36954-14.84737,7.8202-20.65105.51744-.55134,1.0954-1.05058,1.67588-1.53749,12.19606-10.23602,24.81949-19.91228,37.95266-28.91786,2.18436-1.49771,4.33103-.58132,6.44717.22524.70417.26867,1.41365.5858,2.03069,1.01136,11.24634,7.75805,21.88138,16.26747,31.69698,25.78797,2.4019,2.33005,2.4117,5.75802-.05981,7.85106-.57431.48607-.9909,1.16544-1.58329,1.62154-12.61209,9.71913-25.19784,19.47356-37.89453,29.08119-3.00633,2.27514-6.36228,4.09979-9.61556,6.03397-4.00815,2.38272-8.41875,3.34505-12.79783,3.39043Z"/><path d="m1620.59742,2635.33496c-.06836,6.54077-1.79074,12.20326-5.94654,17.05751-9.98915,11.66817-27.60772,11.9741-38.21348.57488-2.55696-2.74832-4.80211-5.91155-6.61946-9.19972-5.87033-10.62291-11.48125-21.38954-17.17704-32.10855-1.29571-2.43819-.09329-6.24829,2.46591-7.90709,10.82765-7.01564,21.90603-13.6046,33.35842-19.55537,3.86304-2.00731,7.86475-1.14471,10.01604,2.10704,7.55686,11.42191,13.64347,23.6389,19.45189,36.0027,1.97032,4.19392,2.57265,8.70413,2.66426,13.0286Z"/><path class="cls-1" d="m197.29772,1740.35233c.29094-.49727.79059-.98867.80418-1.49323.01023-.38185-.57025-1.05814-.94202-1.09765-.42303-.0451-.90602.4715-1.36281.74409.30691.41099.61396.82197.921,1.23296,0,0,.57978.61382.57964.61382Z"/><path class="cls-1" d="m196.71808,1739.73851c.41645.08657.83276.17314,1.2492.25942-.21866-.3586-.43746-.71748-.65612-1.07607-.04384.44012-.08769.87997-.07242,1.37528.05911.05519-.52067-.55863-.52067-.55863Z"/></svg>