<svg xmlns="http://www.w3.org/2000/svg" xmlns:xlink="http://www.w3.org/1999/xlink" xmlns:inkscape="http://www.inkscape.org/namespaces/inkscape" version="1.1" width="595.276" height="841.89" viewBox="0 0 595.276 841.89">
<defs>
<clipPath id="clip_0">
<path transform="matrix(1,0,0,-1,0,841.89)" d="M0 841.89H595.276V0H0Z"/>
</clipPath>
<clipPath id="clip_1">
<path transform="matrix(1,0,0,-1,0,841.89)" d="M185.325 393.031H407.492V641.032H185.325Z"/>
</clipPath>
<clipPath id="clip_2">
<path transform="matrix(1,0,0,-1,0,841.89)" d="M193.831 401.535H398.983V632.528H193.831Z"/>
</clipPath>
</defs>
<g>
<g inkscape:groupmode="layer" inkscape:label="Laag 1">
<g clip-path="url(#clip_0)">
<path transform="matrix(1,0,0,-1,164.7209,480.1409)" d="M0 0V264.069C0 294.19 24.505 318.695 54.626 318.695H184.995C215.116 318.695 239.621 294.19 239.621 264.069V0Z" fill="#ffffff"/>
<path transform="matrix(1,0,0,-1,164.7209,480.1409)" stroke-width="1" stroke-linecap="butt" stroke-miterlimit="10" stroke-linejoin="miter" fill="none" stroke="#ffffff" d="M0 0V264.069C0 294.19 24.505 318.695 54.626 318.695H184.995C215.116 318.695 239.621 294.19 239.621 264.069V0H0Z"/>
<path transform="matrix(1,0,0,-1,424.8997,605.3362)" d="M0 0C-2.672 1.496-5.461 3.201-8.525 5.213L-8.656 5.3C-11.373 7.156-14.281 9.199-17.133 11.555-20.445 14.237-23.546 17.068-26.293 19.921-29.036 22.706-31.707 25.799-34.458 29.374-39.469 35.904-43.737 43.067-47.148 50.673-50.384 57.871-52.916 65.606-54.673 73.659-55.566 77.845-56.201 81.682-56.622 85.427-57.084 89.331-57.366 93.285-57.454 97.13L-57.648 105.618-2.672 106.962-2.484 98.439C-2.437 96.295-2.276 94.061-2.008 91.798-1.783 89.762-1.431 87.645-.924 85.254 .009 81.004 1.333 76.938 2.999 73.227 4.681 69.475 6.765 65.971 9.194 62.809 10.606 60.982 11.835 59.555 13.046 58.336L13.164 58.216C14.414 56.907 15.847 55.603 17.543 54.227L17.642 54.146C18.91 53.085 20.453 52.016 21.952 50.98 23.916 49.703 25.47 48.754 26.98 47.911L34.44 43.744 7.392-4.14Z" fill="#ffffff"/>
<path transform="matrix(1,0,0,-1,424.8997,605.3362)" stroke-width="7.913" stroke-linecap="butt" stroke-miterlimit="10" stroke-linejoin="miter" fill="none" stroke="#ffffff" d="M0 0C-2.672 1.496-5.461 3.201-8.525 5.213L-8.656 5.3C-11.373 7.156-14.281 9.199-17.133 11.555-20.445 14.237-23.546 17.068-26.293 19.921-29.036 22.706-31.707 25.799-34.458 29.374-39.469 35.904-43.737 43.067-47.148 50.673-50.384 57.871-52.916 65.606-54.673 73.659-55.566 77.845-56.201 81.682-56.622 85.427-57.084 89.331-57.366 93.285-57.454 97.13L-57.648 105.618-2.672 106.962-2.484 98.439C-2.437 96.295-2.276 94.061-2.008 91.798-1.783 89.762-1.431 87.645-.924 85.254 .009 81.004 1.333 76.938 2.999 73.227 4.681 69.475 6.765 65.971 9.194 62.809 10.606 60.982 11.835 59.555 13.046 58.336L13.164 58.216C14.414 56.907 15.847 55.603 17.543 54.227L17.642 54.146C18.91 53.085 20.453 52.016 21.952 50.98 23.916 49.703 25.47 48.754 26.98 47.911L34.44 43.744 7.392-4.14 0 0Z"/>
<path transform="matrix(1,0,0,-1,464.1331,637.6624)" d="M0 0C-1.928 0-3.981 .177-6.104 .524L-6.307 .56C-9.575 1.178-12.358 2.063-14.813 3.265-19.94 5.713-22.375 8.714-24.614 11.831L-25.338 12.88C-25.983 13.821-26.65 14.795-27.458 15.85L-27.839 16.34C-28.29 16.922-28.778 17.556-29.333 18.216-29.698 18.654-30.067 19.082-30.462 19.527L-31.082 20.212C-31.366 20.52-31.604 20.806-31.839 21.098L-32 21.291C-34.232 23.968-36.105 25.375-37.917 26.736L-38.497 27.174C-39.753 28.123-41.1 29.193-42.359 30.533-43.955 32.266-45.164 34.117-46.117 36.259-47.541 39.48-48.322 42.765-48.449 46.038-48.559 48.847-48.184 51.686-47.334 54.473-45.959 58.95-43.702 62.352-42.208 64.603L-42.069 64.812C-40.297 67.498-38.159 70.053-35.724 72.389-34.002 74.048-32.089 75.644-30.053 77.114-27.752 78.776-25.294 80.278-22.746 81.578-17.827 84.075-13.055 85.662-8.14 86.438-6.748 86.654-5.544 86.789-4.335 86.865-3.79 86.903-3.192 86.934-2.601 86.955-2.186 86.966-1.857 86.969-1.528 86.969-1.249 86.969-.969 86.967-.693 86.963-.402 86.962-.1 86.953 .198 86.942 .294 86.939 .389 86.936 .479 86.934 .926 86.956 1.368 86.972 1.803 86.98 2.15 86.989 2.513 86.993 2.872 86.993 3.455 86.993 4.026 86.982 4.584 86.964 9.277 86.876 13.931 86.318 18.419 85.307L19.001 85.18C21.413 84.657 25.45 83.781 29.567 82.173 32.303 81.08 40.445 77.828 43.604 69.183 45.38 64.346 44.811 59.613 43.797 56.092 45.157 53.084 45.754 49.857 45.511 46.663 45.249 43.438 44.113 40.365 42.246 37.724 45.276 32.104 45.597 26.342 42.956 21.401 40.678 17.197 36.635 14.146 31.842 12.989 30.408 12.651 28.979 12.486 27.546 12.486 24.417 12.486 21.553 13.237 18.874 14.373 19 11.997 18.434 10.002 17.659 8.423 16.703 6.472 14.666 3.758 10.406 1.93 9.223 1.422 7.915 1.003 6.515 .684L6.408 .659C5.167 .393 3.816 .203 2.394 .095 1.665 .033 .838 0 0 0" fill="#ffffff"/>
<path transform="matrix(1,0,0,-1,464.1331,637.6624)" stroke-width="7.913" stroke-linecap="butt" stroke-miterlimit="10" stroke-linejoin="miter" fill="none" stroke="#ffffff" d="M0 0C-1.928 0-3.981 .177-6.104 .524L-6.307 .56C-9.575 1.178-12.358 2.063-14.813 3.265-19.94 5.713-22.375 8.714-24.614 11.831L-25.338 12.88C-25.983 13.821-26.65 14.795-27.458 15.85L-27.839 16.34C-28.29 16.922-28.778 17.556-29.333 18.216-29.698 18.654-30.067 19.082-30.462 19.527L-31.082 20.212C-31.366 20.52-31.604 20.806-31.839 21.098L-32 21.291C-34.232 23.968-36.105 25.375-37.917 26.736L-38.497 27.174C-39.753 28.123-41.1 29.193-42.359 30.533-43.955 32.266-45.164 34.117-46.117 36.259-47.541 39.48-48.322 42.765-48.449 46.038-48.559 48.847-48.184 51.686-47.334 54.473-45.959 58.95-43.702 62.352-42.208 64.603L-42.069 64.812C-40.297 67.498-38.159 70.053-35.724 72.389-34.002 74.048-32.089 75.644-30.053 77.114-27.752 78.776-25.294 80.278-22.746 81.578-17.827 84.075-13.055 85.662-8.14 86.438-6.748 86.654-5.544 86.789-4.335 86.865-3.79 86.903-3.192 86.934-2.601 86.955-2.186 86.966-1.857 86.969-1.528 86.969-1.249 86.969-.969 86.967-.693 86.963-.402 86.962-.1 86.953 .198 86.942 .294 86.939 .389 86.936 .479 86.934 .926 86.956 1.368 86.972 1.803 86.98 2.15 86.989 2.513 86.993 2.872 86.993 3.455 86.993 4.026 86.982 4.584 86.964 9.277 86.876 13.931 86.318 18.419 85.307L19.001 85.18C21.413 84.657 25.45 83.781 29.567 82.173 32.303 81.08 40.445 77.828 43.604 69.183 45.38 64.346 44.811 59.613 43.797 56.092 45.157 53.084 45.754 49.857 45.511 46.663 45.249 43.438 44.113 40.365 42.246 37.724 45.276 32.104 45.597 26.342 42.956 21.401 40.678 17.197 36.635 14.146 31.842 12.989 30.408 12.651 28.979 12.486 27.546 12.486 24.417 12.486 21.553 13.237 18.874 14.373 19 11.997 18.434 10.002 17.659 8.423 16.703 6.472 14.666 3.758 10.406 1.93 9.223 1.422 7.915 1.003 6.515 .684L6.408 .659C5.167 .393 3.816 .203 2.394 .095 1.665 .033 .838 0 0 0Z"/>
<path transform="matrix(1,0,0,-1,490.6887,606.1692)" d="M0 0C-1.635 .93-3.859 2.146-6.572 3.299-9.89 4.706-13.058 5.75-16.253 6.489-19.107 7.155-21.957 7.579-25.24 7.828L-23.957 24.787C-19.838 24.476-16.06 23.909-12.404 23.056-8.253 22.097-4.166 20.753 .076 18.953 3.593 17.458 6.377 15.939 8.41 14.783Z" fill="#ffffff"/>
<path transform="matrix(1,0,0,-1,490.6887,606.1692)" stroke-width="7.913" stroke-linecap="butt" stroke-miterlimit="10" stroke-linejoin="miter" fill="none" stroke="#ffffff" d="M0 0C-1.635 .93-3.859 2.146-6.572 3.299-9.89 4.706-13.058 5.75-16.253 6.489-19.107 7.155-21.957 7.579-25.24 7.828L-23.957 24.787C-19.838 24.476-16.06 23.909-12.404 23.056-8.253 22.097-4.166 20.753 .076 18.953 3.593 17.458 6.377 15.939 8.41 14.783L0 0Z"/>
<path transform="matrix(1,0,0,-1,496.0198,590.51016)" d="M0 0C-1.901 1.121-3.729 2.05-5.589 2.84-8.356 4.034-11.175 4.934-14.014 5.535-17.512 6.267-21.054 6.579-24.82 6.484L-25.248 23.486C-20.146 23.612-15.329 23.187-10.511 22.178-6.551 21.34-2.649 20.095 1.105 18.475 3.61 17.411 6.09 16.153 8.639 14.65Z" fill="#ffffff"/>
<path transform="matrix(1,0,0,-1,496.0198,590.51016)" stroke-width="7.913" stroke-linecap="butt" stroke-miterlimit="10" stroke-linejoin="miter" fill="none" stroke="#ffffff" d="M0 0C-1.901 1.121-3.729 2.05-5.589 2.84-8.356 4.034-11.175 4.934-14.014 5.535-17.512 6.267-21.054 6.579-24.82 6.484L-25.248 23.486C-20.146 23.612-15.329 23.187-10.511 22.178-6.551 21.34-2.649 20.095 1.105 18.475 3.61 17.411 6.09 16.153 8.639 14.65L0 0Z"/>
<path transform="matrix(1,0,0,-1,449.2097,612.4495)" d="M0 0-5.608 16.057C-3.059 16.947-.531 17.489 2.117 17.715 5.818 18.035 9.699 17.739 13.64 16.841L9.859 .259C7.607 .772 5.55 .94 3.565 .769 2.349 .665 1.185 .414 0 0" fill="#ffffff"/>
<path transform="matrix(1,0,0,-1,449.2097,612.4495)" stroke-width="7.913" stroke-linecap="butt" stroke-miterlimit="10" stroke-linejoin="miter" fill="none" stroke="#ffffff" d="M0 0-5.608 16.057C-3.059 16.947-.531 17.489 2.117 17.715 5.818 18.035 9.699 17.739 13.64 16.841L9.859 .259C7.607 .772 5.55 .94 3.565 .769 2.349 .665 1.185 .414 0 0Z"/>
<path transform="matrix(1,0,0,-1,376.4602,533.1731)" d="M0 0C-5.183 .368-9.947 2.979-13.073 7.163-16.089 11.2-17.286 16.356-16.274 20.956-15.363 25.098-12.772 28.652-9.243 31.002-9.38 36.289-8.501 43.389-4.337 50.317 1.303 59.704 11.104 65.535 21.238 65.535 21.504 65.535 21.769 65.531 22.035 65.523 32.51 65.208 39.243 58.82 41.777 56.416 47.797 50.701 50.848 43.838 52.388 38.602 56.406 35.927 59.056 31.265 59.132 25.984 59.235 18.734 54.398 12.277 47.629 10.63L1.274-.091Z" fill="#ffffff"/>
<path transform="matrix(1,0,0,-1,376.4602,533.1731)" stroke-width="7.193" stroke-linecap="butt" stroke-miterlimit="10" stroke-linejoin="miter" fill="none" stroke="#ffffff" d="M0 0C-5.183 .368-9.947 2.979-13.073 7.163-16.089 11.2-17.286 16.356-16.274 20.956-15.363 25.098-12.772 28.652-9.243 31.002-9.38 36.289-8.501 43.389-4.337 50.317 1.303 59.704 11.104 65.535 21.238 65.535 21.504 65.535 21.769 65.531 22.035 65.523 32.51 65.208 39.243 58.82 41.777 56.416 47.797 50.701 50.848 43.838 52.388 38.602 56.406 35.927 59.056 31.265 59.132 25.984 59.235 18.734 54.398 12.277 47.629 10.63L1.274-.091 0 0Z"/>
<path transform="matrix(1,0,0,-1,202.8796,627.2405)" d="M0 0 4.035 10.606C10.244 26.928 16.433 52.858 10.657 83.704 3.843 120.104-16.398 144.375-27.857 155.604L-35.466 163.06-26.509 168.827C-8.502 180.424 29.165 199.877 79.108 199.877 82.661 199.877 86.266 199.777 89.823 199.581 144.82 196.54 183.797 171.049 202.136 156.125L207.104 152.083 204.59 146.191C193.646 120.543 186.323 93.555 182.826 65.977 179.876 42.716 179.667 19.076 182.204-4.287L183.312-14.491Z" fill="#ffffff"/>
<path transform="matrix(1,0,0,-1,202.8796,627.2405)" stroke-width="7.193" stroke-linecap="butt" stroke-miterlimit="10" stroke-linejoin="miter" fill="none" stroke="#ffffff" d="M0 0 4.035 10.606C10.244 26.928 16.433 52.858 10.657 83.704 3.843 120.104-16.398 144.375-27.857 155.604L-35.466 163.06-26.509 168.827C-8.502 180.424 29.165 199.877 79.108 199.877 82.661 199.877 86.266 199.777 89.823 199.581 144.82 196.54 183.797 171.049 202.136 156.125L207.104 152.083 204.59 146.191C193.646 120.543 186.323 93.555 182.826 65.977 179.876 42.716 179.667 19.076 182.204-4.287L183.312-14.491 0 0Z"/>
<path transform="matrix(1,0,0,-1,289.5691,468.80894)" d="M0 0C-7.75 0-15.559 3.421-21.425 9.387-27.737 15.806-31.138 24.346-31.006 33.44V121.004H29.302V33.563C29.989 17.021 18.774 2.415 3.688 .261 2.477 .087 1.236 0 0 0" fill="#ffffff"/>
<path transform="matrix(1,0,0,-1,289.5691,468.80894)" stroke-width="7.193" stroke-linecap="butt" stroke-miterlimit="10" stroke-linejoin="miter" fill="none" stroke="#ffffff" d="M0 0C-7.75 0-15.559 3.421-21.425 9.387-27.737 15.806-31.138 24.346-31.006 33.44V121.004H29.302V33.563C29.989 17.021 18.774 2.415 3.688 .261 2.477 .087 1.236 0 0 0Z"/>
<path transform="matrix(1,0,0,-1,154.968,585.53067)" d="M0 0C-.608 1.457-1.057 2.866-1.452 4.11L-1.764 5.083-3.331 10.042C-3.434 10.367-3.536 10.693-3.628 11.021L-3.698 11.284-4.546 14.723-5.643 19.267C-5.914 20.325-6.088 21.303-6.242 22.167L-6.702 24.713C-6.996 26.333-7.299 28.009-7.504 29.814L-8.122 34.74-8.529 39.887C-8.955 46.752-8.91 53.618-8.396 60.293-7.306 73.856-4.355 87.163 .376 99.872L3.347 107.851 54.857 88.606 51.891 80.645C48.937 72.717 47.096 64.414 46.419 55.968 46.112 51.938 46.084 47.719 46.34 43.46L46.585 40.313 47.018 36.896C47.086 36.224 47.235 35.416 47.393 34.56L47.796 32.31C47.842 32.039 47.906 31.668 47.94 31.543L48.006 31.287 48.802 28.036 49.337 25.801 50.497 22.175C50.586 21.902 50.687 21.579 50.787 21.255 50.963 20.686 51.129 20.147 51.267 19.833L54.878 11.57 3.143-7.523Z" fill="#ffffff"/>
<path transform="matrix(1,0,0,-1,154.968,585.53067)" stroke-width="7.193" stroke-linecap="butt" stroke-miterlimit="10" stroke-linejoin="miter" fill="none" stroke="#ffffff" d="M0 0C-.608 1.457-1.057 2.866-1.452 4.11L-1.764 5.083-3.331 10.042C-3.434 10.367-3.536 10.693-3.628 11.021L-3.698 11.284-4.546 14.723-5.643 19.267C-5.914 20.325-6.088 21.303-6.242 22.167L-6.702 24.713C-6.996 26.333-7.299 28.009-7.504 29.814L-8.122 34.74-8.529 39.887C-8.955 46.752-8.91 53.618-8.396 60.293-7.306 73.856-4.355 87.163 .376 99.872L3.347 107.851 54.857 88.606 51.891 80.645C48.937 72.717 47.096 64.414 46.419 55.968 46.112 51.938 46.084 47.719 46.34 43.46L46.585 40.313 47.018 36.896C47.086 36.224 47.235 35.416 47.393 34.56L47.796 32.31C47.842 32.039 47.906 31.668 47.94 31.543L48.006 31.287 48.802 28.036 49.337 25.801 50.497 22.175C50.586 21.902 50.687 21.579 50.787 21.255 50.963 20.686 51.129 20.147 51.267 19.833L54.878 11.57 3.143-7.523 0 0Z"/>
<path transform="matrix(1,0,0,-1,197.155,653.90957)" d="M0 0C-8.539 0-16.457 5.888-20.44 9.424-26.146 14.386-30.431 20.333-33.177 24.419-34.299 25.995-35.892 28.702-37.473 31.725-38.384 33.405-39.269 35.366-40.334 38.067-41.19 40.25-42.154 42.805-42.86 45.743-43.202 47.08-43.509 48.42-43.773 49.728-44.017 50.951-44.344 52.591-44.499 54.402-44.805 57.489-44.896 60.494-44.77 63.337L-44.762 63.512-44.747 63.686C-44.114 71.063-42.259 77.146-39.076 82.281-35.825 87.666-31.32 91.942-25.739 94.909-21.483 97.163-17.835 98.063-16.277 98.446-13.191 99.199-9.589 100-5.393 100.085-5.143 100.091-4.882 100.094-4.621 100.094-3.701 100.094-2.785 100.058-1.898 99.987-.685 99.898 .559 99.742 1.739 99.526 4.467 99.029 7.075 98.194 9.488 97.044L9.592 96.993C13.479 95.075 15.424 92.763 16.937 90.546L17.727 89.418C17.762 89.368 17.844 89.261 17.844 89.261L17.922 89.182C18.526 88.571 19.227 87.997 20.057 87.431 22.527 85.979 24.043 85.702 25.511 85.435 28.596 84.85 31.821 84.029 35.037 80.932L35.165 80.807C36.058 79.909 36.855 78.888 37.535 77.771L37.791 77.338C38.119 76.787 38.563 76.041 38.973 75.089 39.888 73.04 40.308 71.025 40.598 69.32L40.629 69.122C40.946 66.954 40.915 64.705 40.541 62.612 40.086 59.931 39.014 57.498 37.439 55.572 36.533 54.461 35.463 53.507 34.256 52.722 36.172 51.211 37.873 49.233 39.055 46.504 41.417 41.202 40.16 36.088 39.508 34.14 38.12 30.024 35.107 26.601 31.017 24.482 29.98 23.943 28.879 23.49 27.727 23.129 27.242 19.865 25.987 16.99 23.978 14.549 21.749 11.814 18.615 9.879 15.02 8.946 11.77 3.179 7.093 1.04 3.361 .315 2.255 .104 1.134 0 0 0" fill="#ffffff"/>
<path transform="matrix(1,0,0,-1,197.155,653.90957)" stroke-width="7.193" stroke-linecap="butt" stroke-miterlimit="10" stroke-linejoin="miter" fill="none" stroke="#ffffff" d="M0 0C-8.539 0-16.457 5.888-20.44 9.424-26.146 14.386-30.431 20.333-33.177 24.419-34.299 25.995-35.892 28.702-37.473 31.725-38.384 33.405-39.269 35.366-40.334 38.067-41.19 40.25-42.154 42.805-42.86 45.743-43.202 47.08-43.509 48.42-43.773 49.728-44.017 50.951-44.344 52.591-44.499 54.402-44.805 57.489-44.896 60.494-44.77 63.337L-44.762 63.512-44.747 63.686C-44.114 71.063-42.259 77.146-39.076 82.281-35.825 87.666-31.32 91.942-25.739 94.909-21.483 97.163-17.835 98.063-16.277 98.446-13.191 99.199-9.589 100-5.393 100.085-5.143 100.091-4.882 100.094-4.621 100.094-3.701 100.094-2.785 100.058-1.898 99.987-.685 99.898 .559 99.742 1.739 99.526 4.467 99.029 7.075 98.194 9.488 97.044L9.592 96.993C13.479 95.075 15.424 92.763 16.937 90.546L17.727 89.418C17.762 89.368 17.844 89.261 17.844 89.261L17.922 89.182C18.526 88.571 19.227 87.997 20.057 87.431 22.527 85.979 24.043 85.702 25.511 85.435 28.596 84.85 31.821 84.029 35.037 80.932L35.165 80.807C36.058 79.909 36.855 78.888 37.535 77.771L37.791 77.338C38.119 76.787 38.563 76.041 38.973 75.089 39.888 73.04 40.308 71.025 40.598 69.32L40.629 69.122C40.946 66.954 40.915 64.705 40.541 62.612 40.086 59.931 39.014 57.498 37.439 55.572 36.533 54.461 35.463 53.507 34.256 52.722 36.172 51.211 37.873 49.233 39.055 46.504 41.417 41.202 40.16 36.088 39.508 34.14 38.12 30.024 35.107 26.601 31.017 24.482 29.98 23.943 28.879 23.49 27.727 23.129 27.242 19.865 25.987 16.99 23.978 14.549 21.749 11.814 18.615 9.879 15.02 8.946 11.77 3.179 7.093 1.04 3.361 .315 2.255 .104 1.134 0 0 0Z"/>
<path transform="matrix(1,0,0,-1,213.0632,631.263)" d="M0 0 2.916 7.988-.008 .003C-1.135 .414-2.678 .978-4.414 1.853-5.99 2.633-7.753 3.556-9.606 4.825-10.499 5.423-11.385 6.053-12.242 6.696L-12.348 6.777C-13.351 7.557-14.27 8.372-15.115 9.14-16.961 10.779-18.779 12.775-20.671 15.238L-20.742 15.331C-23.547 19.089-25.771 23.271-27.176 27.428L-11.063 32.871C-10.481 31.151-9.331 28.489-7.147 25.552-5.923 23.963-4.827 22.747-3.798 21.836L-3.715 21.762C-3.129 21.229-2.512 20.678-1.962 20.246-1.359 19.795-.736 19.354-.109 18.935L-.014 18.87C1.025 18.155 2.185 17.563 3.19 17.065 4.09 16.612 4.971 16.291 5.823 15.979Z" fill="#ffffff"/>
<path transform="matrix(1,0,0,-1,213.0632,631.263)" stroke-width="7.193" stroke-linecap="butt" stroke-miterlimit="10" stroke-linejoin="miter" fill="none" stroke="#ffffff" d="M0 0 2.916 7.988-.008 .003C-1.135 .414-2.678 .978-4.414 1.853-5.99 2.633-7.753 3.556-9.606 4.825-10.499 5.423-11.385 6.053-12.242 6.696L-12.348 6.777C-13.351 7.557-14.27 8.372-15.115 9.14-16.961 10.779-18.779 12.775-20.671 15.238L-20.742 15.331C-23.547 19.089-25.771 23.271-27.176 27.428L-11.063 32.871C-10.481 31.151-9.331 28.489-7.147 25.552-5.923 23.963-4.827 22.747-3.798 21.836L-3.715 21.762C-3.129 21.229-2.512 20.678-1.962 20.246-1.359 19.795-.736 19.354-.109 18.935L-.014 18.87C1.025 18.155 2.185 17.563 3.19 17.065 4.09 16.612 4.971 16.291 5.823 15.979L0 0Z"/>
<path transform="matrix(1,0,0,-1,205.5588,646.1321)" d="M0 0C-1.022 .392-2.732 1.047-4.602 1.989-5.359 2.362-6.235 2.814-7.153 3.317-8.211 3.901-9.162 4.504-10.125 5.123-14.599 7.971-18.946 11.84-22.667 16.295L-22.791 16.446C-24.012 17.979-25.185 19.578-26.276 21.202L-26.339 21.297C-27.431 22.969-28.277 24.541-29.051 26.009-30.777 29.204-31.795 32.27-32.403 34.101L-16.264 39.464C-15.774 37.992-15.105 35.978-14.045 34.015-13.404 32.8-12.807 31.687-12.128 30.642-11.32 29.442-10.454 28.26-9.553 27.125-6.271 23.215-3.075 20.796-.965 19.453-.224 18.978 .464 18.54 1.042 18.221 1.707 17.857 2.365 17.517 2.986 17.211 4.073 16.663 5.029 16.287 6.084 15.883Z" fill="#ffffff"/>
<path transform="matrix(1,0,0,-1,205.5588,646.1321)" stroke-width="7.193" stroke-linecap="butt" stroke-miterlimit="10" stroke-linejoin="miter" fill="none" stroke="#ffffff" d="M0 0C-1.022 .392-2.732 1.047-4.602 1.989-5.359 2.362-6.235 2.814-7.153 3.317-8.211 3.901-9.162 4.504-10.125 5.123-14.599 7.971-18.946 11.84-22.667 16.295L-22.791 16.446C-24.012 17.979-25.185 19.578-26.276 21.202L-26.339 21.297C-27.431 22.969-28.277 24.541-29.051 26.009-30.777 29.204-31.795 32.27-32.403 34.101L-16.264 39.464C-15.774 37.992-15.105 35.978-14.045 34.015-13.404 32.8-12.807 31.687-12.128 30.642-11.32 29.442-10.454 28.26-9.553 27.125-6.271 23.215-3.075 20.796-.965 19.453-.224 18.978 .464 18.54 1.042 18.221 1.707 17.857 2.365 17.517 2.986 17.211 4.073 16.663 5.029 16.287 6.084 15.883L0 0Z"/>
<path transform="matrix(1,0,0,-1,198.6404,596.4231)" d="M0 0C-.305 .612-.587 1.238-.84 1.859-.991 2.234-1.139 2.619-1.281 3.025L-1.424 3.471C-1.546 3.892-1.664 4.334-1.772 4.797-2.284 6.975-2.503 9.174-2.422 11.329-2.369 13.271-1.969 14.948-1.67 16.048-1.34 17.229-.941 18.328-.467 19.379L15.035 12.381C14.913 12.109 14.809 11.822 14.726 11.527 14.604 11.075 14.583 10.895 14.579 10.852L14.575 10.709C14.549 10.071 14.62 9.389 14.786 8.683 14.805 8.601 14.825 8.521 14.845 8.444 14.871 8.378 14.896 8.313 14.922 8.249 15.025 7.997 15.133 7.766 15.229 7.572Z" fill="#ffffff"/>
<path transform="matrix(1,0,0,-1,198.6404,596.4231)" stroke-width="7.193" stroke-linecap="butt" stroke-miterlimit="10" stroke-linejoin="miter" fill="none" stroke="#ffffff" d="M0 0C-.305 .612-.587 1.238-.84 1.859-.991 2.234-1.139 2.619-1.281 3.025L-1.424 3.471C-1.546 3.892-1.664 4.334-1.772 4.797-2.284 6.975-2.503 9.174-2.422 11.329-2.369 13.271-1.969 14.948-1.67 16.048-1.34 17.229-.941 18.328-.467 19.379L15.035 12.381C14.913 12.109 14.809 11.822 14.726 11.527 14.604 11.075 14.583 10.895 14.579 10.852L14.575 10.709C14.549 10.071 14.62 9.389 14.786 8.683 14.805 8.601 14.825 8.521 14.845 8.444 14.871 8.378 14.896 8.313 14.922 8.249 15.025 7.997 15.133 7.766 15.229 7.572L0 0Z"/>
<path transform="matrix(1,0,0,-1,0,841.89)" d="M225.732 454.685H226.851V437.677H225.732Z" fill="#ffffff"/>
<path transform="matrix(1,0,0,-1,0,841.89)" stroke-width="1" stroke-linecap="butt" stroke-miterlimit="10" stroke-linejoin="miter" fill="none" stroke="#ffffff" d="M225.732 454.685H226.851V437.677H225.732Z"/>
<path transform="matrix(1,0,0,-1,323.5593,538.302)" d="M0 0-23.298 28.009-38.666 4.997-45.429 17.193C-51.623 28.361-54.394 40.49-53.443 52.267-53.313 53.883-53.112 55.499-52.844 57.11-67.999 62.987-77.883 76.545-75.853 90.333-74.031 102.696-62.806 109.556-59.409 111.363L-51.418 96.35C-52.125 95.974-58.335 92.543-59.026 87.854-59.83 82.396-53.455 73.524-41.246 71.478L-31.521 69.848-34.563 60.468C-35.583 57.322-36.231 54.102-36.491 50.896-36.79 47.193-36.584 43.486-35.878 39.795L-24.789 56.399-15.442 45.161C-15.961 47.481-16.606 49.78-17.375 52.053-18.541 55.497-20.01 58.919-21.742 62.224L-25.17 68.768-19.169 73.077C-16.582 74.936-14.164 77.202-12.176 79.634L-11.701 80.214C-9.967 82.329-6.512 86.547-5.86 88.659-6.513 89.098-7.92 89.756-10.078 90.17L-6.872 106.873C1.854 105.198 7.941 100.851 10.269 94.632 13.978 84.718 6.74 75.884 1.455 69.434L.991 68.868C-.437 67.121-2.015 65.434-3.696 63.848-2.798 61.753-1.986 59.635-1.265 57.506 2.88 45.26 4.138 32.435 2.474 19.389Z" fill="#ffffff"/>
<path transform="matrix(1,0,0,-1,323.5593,538.302)" stroke-width="7.193" stroke-linecap="butt" stroke-miterlimit="10" stroke-linejoin="miter" fill="none" stroke="#ffffff" d="M0 0-23.298 28.009-38.666 4.997-45.429 17.193C-51.623 28.361-54.394 40.49-53.443 52.267-53.313 53.883-53.112 55.499-52.844 57.11-67.999 62.987-77.883 76.545-75.853 90.333-74.031 102.696-62.806 109.556-59.409 111.363L-51.418 96.35C-52.125 95.974-58.335 92.543-59.026 87.854-59.83 82.396-53.455 73.524-41.246 71.478L-31.521 69.848-34.563 60.468C-35.583 57.322-36.231 54.102-36.491 50.896-36.79 47.193-36.584 43.486-35.878 39.795L-24.789 56.399-15.442 45.161C-15.961 47.481-16.606 49.78-17.375 52.053-18.541 55.497-20.01 58.919-21.742 62.224L-25.17 68.768-19.169 73.077C-16.582 74.936-14.164 77.202-12.176 79.634L-11.701 80.214C-9.967 82.329-6.512 86.547-5.86 88.659-6.513 89.098-7.92 89.756-10.078 90.17L-6.872 106.873C1.854 105.198 7.941 100.851 10.269 94.632 13.978 84.718 6.74 75.884 1.455 69.434L.991 68.868C-.437 67.121-2.015 65.434-3.696 63.848-2.798 61.753-1.986 59.635-1.265 57.506 2.88 45.26 4.138 32.435 2.474 19.389L0 0Z"/>
<g>
<g clip-path="url(#clip_1)">
<path transform="matrix(1,0,0,-1,305.2383,448.8586)" d="M0 0C-53.84 0-91.912 46.968-93.506 48.968L-95.74 51.769-91.901 82.42C-91.999 82.418-92.096 82.417-92.193 82.417-96.513 82.417-100.758 84.365-104.468 88.051-110.164 93.716-113.356 102.321-112.605 109.977-111.925 117.045-107.957 124.345-102.499 128.559-99.315 131.017-95.906 132.262-92.366 132.262-91.609 132.262-90.846 132.202-90.098 132.084-89.583 132.001-89.074 131.891-88.571 131.754L-90.978 201.928-77.903 220.905-95.236 245.163-80.119 246.257C-64.132 247.414-47.9 248.001-31.873 248.001-20.513 248.001-9.001 247.706 2.343 247.124 23.314 246.041 44.433 243.953 65.112 240.917L72.277 239.865 74.197 104.158C88.217 101.578 96.842 96.149 100.469 87.666 103.944 79.54 102.324 69.006 95.782 57.205 82.688 33.585 50.515 6.732 14.356 1.11 9.613 .373 4.783 0 0 0" fill="#ffffff"/>
<path transform="matrix(1,0,0,-1,212.6943,334.14033)" d="M0 0C-1.542-1.469-2.927-4.242-3.133-6.387-3.389-8.997-2.027-12.501 .037-14.575 .243-14.314 .472-13.999 .717-13.622 1.961-11.716 3.671-10.236 5.643-9.29 3.621-7.732 2.093-5.541 1.389-2.964 1.018-1.612 .463-.618 0 0M.342-39.497C-5.832-39.497-11.992-36.749-17.002-31.76-24.265-24.526-28.182-13.913-27.227-4.061-26.353 4.906-21.3 14.166-14.354 19.535-9.945 22.939-4.931 24.737 .15 24.737 1.3 24.737 2.46 24.645 3.599 24.461 9.803 23.475 15.494 19.841 19.607 14.233 21.931 11.059 23.658 7.418 24.748 3.404 25.66-.02 25.041-3.623 23.062-6.522 21.842-8.309 20.185-9.714 18.278-10.626 21.197-12.883 22.988-16.423 22.988-20.217 22.988-22.546 22.316-24.811 21.046-26.765 19.45-29.239 17.614-31.432 15.604-33.261 11.697-36.834 7.275-38.9 2.476-39.388 1.762-39.46 1.046-39.497 .342-39.497" fill="#ffffff"/>
</g>
</g>
<path transform="matrix(1,0,0,-1,305.293,448.85563)" stroke-width="7.193" stroke-linecap="butt" stroke-miterlimit="10" stroke-linejoin="miter" fill="none" stroke="#ffffff" d="M0 0C-53.846-.002-91.837 46.804-93.561 48.965L-95.794 51.766-90.234 96.136-73.361 93.997-78.009 56.916C-68.886 46.607-33.593 10.871 11.688 17.914 42.119 22.646 70.035 45.936 80.852 65.448 85.254 73.389 85.717 78.775 84.776 80.976 84.222 82.271 81.151 86.625 64.873 88.297L57.346 89.071 55.422 225.097C37.569 227.513 19.436 229.205 1.414 230.136-20.186 231.243-42.028 231.268-63.707 230.212L-57.181 221.08-73.842 196.897-71.061 115.771-88.059 115.205-91.033 201.925-77.958 220.902-95.291 245.16-80.174 246.254C-52.829 248.234-25.085 248.525 2.288 247.121 23.26 246.038 44.378 243.95 65.058 240.914L72.223 239.862 74.143 104.155C88.162 101.575 96.787 96.146 100.414 87.663 103.89 79.537 102.27 69.003 95.728 57.202 82.634 33.582 50.46 6.729 14.302 1.107 9.426 .35 4.652 0 0 0Z"/>
<path transform="matrix(1,0,0,-1,273.0476,350.0237)" d="M0 0C-17.381 0-31.522 14.141-31.522 31.522V94.822C-31.522 112.204-17.381 126.344 0 126.344 17.381 126.344 31.522 112.204 31.522 94.822V31.522C31.522 14.141 17.381 0 0 0" fill="#ffffff"/>
<path transform="matrix(1,0,0,-1,273.0476,350.0237)" stroke-width="7.193" stroke-linecap="butt" stroke-miterlimit="10" stroke-linejoin="miter" fill="none" stroke="#ffffff" d="M0 0C-17.381 0-31.522 14.141-31.522 31.522V94.822C-31.522 112.204-17.381 126.344 0 126.344 17.381 126.344 31.522 112.204 31.522 94.822V31.522C31.522 14.141 17.381 0 0 0Z"/>
<path transform="matrix(1,0,0,-1,295.4451,382.18443)" d="M0 0V40.026H41.14C52.247 40.026 61.356 31.124 61.446 20.181 61.492 14.762 59.406 9.674 55.573 5.854 51.817 2.086 46.789 0 41.434 0Z" fill="#ffffff"/>
<path transform="matrix(1,0,0,-1,295.4451,382.18443)" stroke-width="1" stroke-linecap="butt" stroke-miterlimit="10" stroke-linejoin="miter" fill="none" stroke="#ffffff" d="M0 0V40.026H41.14C52.247 40.026 61.356 31.124 61.446 20.181 61.492 14.762 59.406 9.674 55.573 5.854 51.817 2.086 46.789 0 41.434 0H0Z"/>
<path transform="matrix(1,0,0,-1,303.949,385.78114)" d="M0 0C-6.672 0-12.101 5.428-12.101 12.101-12.101 17.468-8.587 22.031-3.74 23.61-8.587 25.189-12.101 29.751-12.101 35.119-12.101 41.791-6.672 47.219 0 47.219H32.537C38.899 47.219 45.145 44.605 49.673 40.048 54.141 35.551 56.58 29.658 56.54 23.454 56.499 17.2 54.038 11.323 49.61 6.907 45.173 2.458 39.244 0 32.93 0Z" fill="#ffffff"/>
<path transform="matrix(1,0,0,-1,303.949,385.78114)" stroke-width="1" stroke-linecap="butt" stroke-miterlimit="10" stroke-linejoin="miter" fill="none" stroke="#ffffff" d="M0 0C-6.672 0-12.101 5.428-12.101 12.101-12.101 17.468-8.587 22.031-3.74 23.61-8.587 25.189-12.101 29.751-12.101 35.119-12.101 41.791-6.672 47.219 0 47.219H32.537C38.899 47.219 45.145 44.605 49.673 40.048 54.141 35.551 56.58 29.658 56.54 23.454 56.499 17.2 54.038 11.323 49.61 6.907 45.173 2.458 39.244 0 32.93 0H0Z"/>
<path transform="matrix(1,0,0,-1,332.5115,350.0237)" d="M0 0C-17.381 0-31.522 14.141-31.522 31.522V94.822C-31.522 112.204-17.381 126.344 0 126.344 17.381 126.344 31.522 112.204 31.522 94.822V31.522C31.522 14.141 17.381 0 0 0" fill="#ffffff"/>
<path transform="matrix(1,0,0,-1,332.5115,350.0237)" stroke-width="7.193" stroke-linecap="butt" stroke-miterlimit="10" stroke-linejoin="miter" fill="none" stroke="#ffffff" d="M0 0C-17.381 0-31.522 14.141-31.522 31.522V94.822C-31.522 112.204-17.381 126.344 0 126.344 17.381 126.344 31.522 112.204 31.522 94.822V31.522C31.522 14.141 17.381 0 0 0Z"/>
<path transform="matrix(1,0,0,-1,279.5071,350.0237)" d="M0 0C-13.819 0-25.062 11.243-25.062 25.062V70.599C-25.062 84.418-13.819 95.661 0 95.661 13.819 95.661 25.062 84.418 25.062 70.599V25.062C25.062 11.243 13.819 0 0 0" fill="#ffffff"/>
<path transform="matrix(1,0,0,-1,279.5071,350.0237)" stroke-width="1" stroke-linecap="butt" stroke-miterlimit="10" stroke-linejoin="miter" fill="none" stroke="#ffffff" d="M0 0C-13.819 0-25.062 11.243-25.062 25.062V70.599C-25.062 84.418-13.819 95.661 0 95.661 13.819 95.661 25.062 84.418 25.062 70.599V25.062C25.062 11.243 13.819 0 0 0Z"/>
<path transform="matrix(1,0,0,-1,337.6672,350.0237)" d="M0 0C-13.819 0-25.062 11.243-25.062 25.062V70.599C-25.062 84.418-13.82 95.661 0 95.661 13.819 95.661 25.062 84.418 25.062 70.599V25.062C25.062 11.243 13.819 0 0 0" fill="#ffffff"/>
<path transform="matrix(1,0,0,-1,337.6672,350.0237)" stroke-width="1" stroke-linecap="butt" stroke-miterlimit="10" stroke-linejoin="miter" fill="none" stroke="#ffffff" d="M0 0C-13.819 0-25.062 11.243-25.062 25.062V70.599C-25.062 84.418-13.82 95.661 0 95.661 13.819 95.661 25.062 84.418 25.062 70.599V25.062C25.062 11.243 13.819 0 0 0Z"/>
<path transform="matrix(1,0,0,-1,325.7507,412.7347)" d="M0 0C-16.419 0-32.286 3.388-47.159 10.07-67.141 19.047-80.613 32.069-88.396 41.413-90.481 43.917-91.475 47.212-91.121 50.454-90.766 53.703-89.079 56.714-86.494 58.716-84.385 60.348-81.756 61.247-79.092 61.247-75.488 61.247-72.097 59.658-69.788 56.887-63.64 49.508-53.002 39.227-37.242 32.145-25.507 26.874-12.979 24.2-.007 24.2 1.479 24.2 2.98 24.237 4.454 24.31 4.654 24.319 4.854 24.324 5.052 24.324 11.086 24.324 16.075 20.006 16.999 14.141L17.047 13.952 17.107 13.25C17.384 9.993 16.31 6.713 14.158 4.252 12.014 1.799 8.92 .3 5.669 .139 3.794 .047 1.887 0 0 0" fill="#ffffff"/>
<path transform="matrix(1,0,0,-1,325.7507,412.7347)" stroke-width="1" stroke-linecap="butt" stroke-miterlimit="10" stroke-linejoin="miter" fill="none" stroke="#ffffff" d="M0 0C-16.419 0-32.286 3.388-47.159 10.07-67.141 19.047-80.613 32.069-88.396 41.413-90.481 43.917-91.475 47.212-91.121 50.454-90.766 53.703-89.079 56.714-86.494 58.716-84.385 60.348-81.756 61.247-79.092 61.247-75.488 61.247-72.097 59.658-69.788 56.887-63.64 49.508-53.002 39.227-37.242 32.145-25.507 26.874-12.979 24.2-.007 24.2 1.479 24.2 2.98 24.237 4.454 24.31 4.654 24.319 4.854 24.324 5.052 24.324 11.086 24.324 16.075 20.006 16.999 14.141L17.047 13.952 17.107 13.25C17.384 9.993 16.31 6.713 14.158 4.252 12.014 1.799 8.92 .3 5.669 .139 3.794 .047 1.887 0 0 0Z"/>
<path transform="matrix(1,0,0,-1,280.0325,416.81184)" d="M0 0C-2.823 0-5.619 .247-8.354 .749-18.155 2.548-26.153 7.415-30.875 14.454-39.908 27.921-34.08 44.892-32.078 49.772L-16.342 43.318C-18.232 38.709-20.446 29.438-16.75 23.929-14.637 20.778-10.458 18.427-5.283 17.477 3.656 15.836 13.831 18.475 22.63 24.716L32.469 10.843C22.5 3.773 11.035 0 0 0" fill="#ffffff"/>
<path transform="matrix(1,0,0,-1,280.0325,416.81184)" stroke-width="7.193" stroke-linecap="butt" stroke-miterlimit="10" stroke-linejoin="miter" fill="none" stroke="#ffffff" d="M0 0C-2.823 0-5.619 .247-8.354 .749-18.155 2.548-26.153 7.415-30.875 14.454-39.908 27.921-34.08 44.892-32.078 49.772L-16.342 43.318C-18.232 38.709-20.446 29.438-16.75 23.929-14.637 20.778-10.458 18.427-5.283 17.477 3.656 15.836 13.831 18.475 22.63 24.716L32.469 10.843C22.5 3.773 11.035 0 0 0Z"/>
<path transform="matrix(1,0,0,-1,256.3025,414.17613)" d="M0 0-8.335 20.473-2.707 24.351C.875 26.818 5.219 28.177 9.526 28.177 9.76 28.177 9.996 28.173 10.235 28.165 14.375 28.028 17.762 26.714 20.293 25.242 21.427 25.461 22.58 25.572 23.735 25.572 27.988 25.572 32.041 24.069 35.147 21.338 41.135 16.074 41.069 8.86 40.906 6.775L40.272-1.33Z" fill="#ffffff"/>
<path transform="matrix(1,0,0,-1,256.3025,414.17613)" stroke-width="1" stroke-linecap="butt" stroke-miterlimit="10" stroke-linejoin="miter" fill="none" stroke="#ffffff" d="M0 0-8.335 20.473-2.707 24.351C.875 26.818 5.219 28.177 9.526 28.177 9.76 28.177 9.996 28.173 10.235 28.165 14.375 28.028 17.762 26.714 20.293 25.242 21.427 25.461 22.58 25.572 23.735 25.572 27.988 25.572 32.041 24.069 35.147 21.338 41.135 16.074 41.069 8.86 40.906 6.775L40.272-1.33 0 0Z"/>
<path transform="matrix(1,0,0,-1,297.2185,626.28848)" d="M0 0-16.935 1.58-5.333 125.869 11.601 124.289Z" fill="#ffffff"/>
<path transform="matrix(1,0,0,-1,297.2185,626.28848)" stroke-width="7.193" stroke-linecap="butt" stroke-miterlimit="10" stroke-linejoin="miter" fill="none" stroke="#ffffff" d="M0 0-16.935 1.58-5.333 125.869 11.601 124.289 0 0Z"/>
<path transform="matrix(1,0,0,-1,364.4519,543.5228)" d="M0 0-44.99 5.922-39.057 48.506-22.212 46.158-25.78 20.548-11.985 18.732-4.241 43.63 12 38.579Z" fill="#ffffff"/>
<path transform="matrix(1,0,0,-1,364.4519,543.5228)" stroke-width="7.193" stroke-linecap="butt" stroke-miterlimit="10" stroke-linejoin="miter" fill="none" stroke="#ffffff" d="M0 0-44.99 5.922-39.057 48.506-22.212 46.158-25.78 20.548-11.985 18.732-4.241 43.63 12 38.579 0 0Z"/>
<path transform="matrix(1,0,0,-1,317.0076,505.74253)" d="M0 0 13.048 25.084 63.849 17 63.161-13.613Z" fill="#ffffff"/>
<path transform="matrix(1,0,0,-1,317.0076,505.74253)" stroke-width="7.193" stroke-linecap="butt" stroke-miterlimit="10" stroke-linejoin="miter" fill="none" stroke="#ffffff" d="M0 0 13.048 25.084 63.849 17 63.161-13.613 0 0Z"/>
<path transform="matrix(1,0,0,-1,232.7786,538.261)" d="M0 0-11.44 36.777 4.8 41.828 11.985 18.73 24.112 20.326 20.813 44.005 37.659 46.351 43.322 5.699Z" fill="#ffffff"/>
<path transform="matrix(1,0,0,-1,232.7786,538.261)" stroke-width="7.193" stroke-linecap="butt" stroke-miterlimit="10" stroke-linejoin="miter" fill="none" stroke="#ffffff" d="M0 0-11.44 36.777 4.8 41.828 11.985 18.73 24.112 20.326 20.813 44.005 37.659 46.351 43.322 5.699 0 0Z"/>
<path transform="matrix(1,0,0,-1,217.1511,485.64784)" d="M0 0 48.679 7.746 61.438-16.784 .672-29.881Z" fill="#ffffff"/>
<path transform="matrix(1,0,0,-1,217.1511,485.64784)" stroke-width="7.193" stroke-linecap="butt" stroke-miterlimit="10" stroke-linejoin="miter" fill="none" stroke="#ffffff" d="M0 0 48.679 7.746 61.438-16.784 .672-29.881 0 0Z"/>
<path transform="matrix(1,0,0,-1,206.344,519.1585)" d="M0 0C-.401 0-.804 .016-1.207 .049L-54.283 4.996-55.578 5.517C-60.595 7.639-64.451 11.87-66.158 17.125-67.851 22.337-67.279 28.073-64.629 32.469-62.206 36.488-58.133 39.341-53.458 40.455-51.76 46.177-48.28 53.766-41.173 59.901-34.682 65.505-26.691 68.592-18.674 68.592-15.116 68.592-11.676 67.98-8.451 66.774 2.272 62.764 6.893 53.58 8.632 50.123 12.857 41.726 13.405 33.137 13.011 27 16.233 22.909 17.324 17.162 15.514 11.676 13.245 4.801 6.866 0 0 0" fill="#ffffff"/>
<path transform="matrix(1,0,0,-1,206.344,519.1585)" stroke-width="7.193" stroke-linecap="butt" stroke-miterlimit="10" stroke-linejoin="miter" fill="none" stroke="#ffffff" d="M0 0C-.401 0-.804 .016-1.207 .049L-54.283 4.996-55.578 5.517C-60.595 7.639-64.451 11.87-66.158 17.125-67.851 22.337-67.279 28.073-64.629 32.469-62.206 36.488-58.133 39.341-53.458 40.455-51.76 46.177-48.28 53.766-41.173 59.901-34.682 65.505-26.691 68.592-18.674 68.592-15.116 68.592-11.676 67.98-8.451 66.774 2.272 62.764 6.893 53.58 8.632 50.123 12.857 41.726 13.405 33.137 13.011 27 16.233 22.909 17.324 17.162 15.514 11.676 13.245 4.801 6.866 0 0 0Z"/>
<path transform="matrix(1,0,0,-1,349.7156,169.94953)" d="M0 0H-130.368C-155.841 0-176.491-20.65-176.491-46.122V-301.687H46.122V-46.122C46.122-20.65 25.473 0 0 0" fill="#643d92"/>
<path transform="matrix(1,0,0,-1,429.0547,597.9163)" d="M0 0C-2.66 1.489-5.349 3.153-8.014 4.903-10.67 6.717-13.324 8.586-15.873 10.691-18.826 13.084-21.689 15.662-24.355 18.433-27.057 21.174-29.543 24.111-31.873 27.139-36.526 33.203-40.447 39.828-43.545 46.734-46.649 53.642-48.941 60.816-50.519 68.052-51.292 71.673-51.917 75.31-52.326 78.956-52.758 82.6-53.024 86.254-53.107 89.905L-15.141 90.832C-15.086 88.331-14.9 85.841-14.607 83.375-14.335 80.905-13.907 78.47-13.398 76.071-12.348 71.281-10.862 66.662-8.915 62.324-6.969 57.984-4.562 53.927-1.705 50.208-.273 48.355 1.224 46.567 2.86 44.921 4.464 43.242 6.198 41.688 8.033 40.201 9.596 38.894 11.319 37.7 13.059 36.497 14.855 35.328 16.693 34.175 18.678 33.067Z" fill="#ffffff"/>
<path transform="matrix(1,0,0,-1,429.0547,597.9163)" stroke-width="7.913" stroke-linecap="butt" stroke-miterlimit="10" stroke-linejoin="miter" fill="none" stroke="#643d92" d="M0 0C-2.66 1.489-5.349 3.153-8.014 4.903-10.67 6.717-13.324 8.586-15.873 10.691-18.826 13.084-21.689 15.662-24.355 18.433-27.057 21.174-29.543 24.111-31.873 27.139-36.526 33.203-40.447 39.828-43.545 46.734-46.649 53.642-48.941 60.816-50.519 68.052-51.292 71.673-51.917 75.31-52.326 78.956-52.758 82.6-53.024 86.254-53.107 89.905L-15.141 90.832C-15.086 88.331-14.9 85.841-14.607 83.375-14.335 80.905-13.907 78.47-13.398 76.071-12.348 71.281-10.862 66.662-8.915 62.324-6.969 57.984-4.562 53.927-1.705 50.208-.273 48.355 1.224 46.567 2.86 44.921 4.464 43.242 6.198 41.688 8.033 40.201 9.596 38.894 11.319 37.7 13.059 36.497 14.855 35.328 16.693 34.175 18.678 33.067L0 0Z"/>
<path transform="matrix(1,0,0,-1,499.7492,571.3978)" d="M0 0C-1.522 4.166-5.285 6.446-9.143 7.987-13.006 9.496-17.031 10.297-19.066 10.746-20.479 11.064-25.093 12.088-31.249 12.199-32.016 12.224-32.809 12.234-33.632 12.214-34.043 12.205-34.461 12.189-34.886 12.167-35.328 12.154-35.877 12.195-36.375 12.195-36.883 12.201-37.406 12.204-37.916 12.192-38.413 12.174-38.914 12.148-39.42 12.114-40.449 12.049-41.426 11.93-42.43 11.774-46.424 11.143-50.367 9.835-54.497 7.739-56.806 6.561-58.858 5.279-60.688 3.957-62.528 2.628-64.11 1.281-65.454-.013-68.148-2.597-69.825-4.979-70.598-6.151-71.943-8.181-73.772-10.871-74.817-14.272-75.338-15.982-75.648-17.848-75.567-19.898-75.487-21.967-75.014-24.172-73.963-26.549-73.332-27.968-72.611-29.004-71.78-29.907-70.966-30.772-70.029-31.519-68.978-32.313-66.888-33.896-64.221-35.768-61.086-39.527-60.857-39.791-60.688-40.031-60.432-40.303-60.189-40.571-59.952-40.833-59.721-41.09-59.263-41.605-58.836-42.102-58.436-42.581-57.634-43.536-56.951-44.44-56.327-45.239-55.088-46.855-54.175-48.248-53.324-49.472-51.6-51.872-50.167-53.71-46.725-55.345-44.768-56.309-42.552-56.932-40.345-57.348-38.121-57.712-35.902-57.86-33.865-57.69-32.849-57.614-31.885-57.483-30.995-57.291-30.101-57.087-29.283-56.829-28.564-56.521-27.124-55.902-26.08-55.092-25.591-54.094-24.511-51.894-26.024-48.629-29.443-44.944-32.87-41.25-38.164-37.083-44.845-32.708-43.893-32.569-42.629-32.452-41.128-32.436-39.617-32.396-37.897-32.533-35.997-32.854-29.364-34.017-24.463-37.5-19.712-40.543-15.006-43.57-10.494-46.12-5.769-45.009-2.086-44.12-.546-41.565-.159-40.854 1.884-37.031-.303-31.905-4.855-27.38-4.581-27.255-3.096-26.564-1.648-25.169-.197-23.792 1.192-21.712 1.415-18.956 1.741-14.686-.706-11.626-1.22-10.97 .063-8.432 1.493-4.065 0 0" fill="#ffffff"/>
<path transform="matrix(1,0,0,-1,499.7492,571.3978)" stroke-width="7.913" stroke-linecap="butt" stroke-miterlimit="10" stroke-linejoin="miter" fill="none" stroke="#643d92" d="M0 0C-1.522 4.166-5.285 6.446-9.143 7.987-13.006 9.496-17.031 10.297-19.066 10.746-20.479 11.064-25.093 12.088-31.249 12.199-32.016 12.224-32.809 12.234-33.632 12.214-34.043 12.205-34.461 12.189-34.886 12.167-35.328 12.154-35.877 12.195-36.375 12.195-36.883 12.201-37.406 12.204-37.916 12.192-38.413 12.174-38.914 12.148-39.42 12.114-40.449 12.049-41.426 11.93-42.43 11.774-46.424 11.143-50.367 9.835-54.497 7.739-56.806 6.561-58.858 5.279-60.688 3.957-62.528 2.628-64.11 1.281-65.454-.013-68.148-2.597-69.825-4.979-70.598-6.151-71.943-8.181-73.772-10.871-74.817-14.272-75.338-15.982-75.648-17.848-75.567-19.898-75.487-21.967-75.014-24.172-73.963-26.549-73.332-27.968-72.611-29.004-71.78-29.907-70.966-30.772-70.029-31.519-68.978-32.313-66.888-33.896-64.221-35.768-61.086-39.527-60.857-39.791-60.688-40.031-60.432-40.303-60.189-40.571-59.952-40.833-59.721-41.09-59.263-41.605-58.836-42.102-58.436-42.581-57.634-43.536-56.951-44.44-56.327-45.239-55.088-46.855-54.175-48.248-53.324-49.472-51.6-51.872-50.167-53.71-46.725-55.345-44.768-56.309-42.552-56.932-40.345-57.348-38.121-57.712-35.902-57.86-33.865-57.69-32.849-57.614-31.885-57.483-30.995-57.291-30.101-57.087-29.283-56.829-28.564-56.521-27.124-55.902-26.08-55.092-25.591-54.094-24.511-51.894-26.024-48.629-29.443-44.944-32.87-41.25-38.164-37.083-44.845-32.708-43.893-32.569-42.629-32.452-41.128-32.436-39.617-32.396-37.897-32.533-35.997-32.854-29.364-34.017-24.463-37.5-19.712-40.543-15.006-43.57-10.494-46.12-5.769-45.009-2.086-44.12-.546-41.565-.159-40.854 1.884-37.031-.303-31.905-4.855-27.38-4.581-27.255-3.096-26.564-1.648-25.169-.197-23.792 1.192-21.712 1.415-18.956 1.741-14.686-.706-11.626-1.22-10.97 .063-8.432 1.493-4.065 0 0Z"/>
<path transform="matrix(1,0,0,-1,494.894,598.7779)" stroke-width="7.913" stroke-linecap="butt" stroke-miterlimit="10" stroke-linejoin="miter" fill="none" stroke="#643d92" d="M0 0C-1.804 1.026-4.333 2.408-7.452 3.733-10.577 5.06-14.272 6.396-18.543 7.383-22.486 8.304-25.989 8.704-28.803 8.917"/>
<path transform="matrix(1,0,0,-1,500.3389,583.18508)" stroke-width="7.913" stroke-linecap="butt" stroke-miterlimit="10" stroke-linejoin="miter" fill="none" stroke="#643d92" d="M0 0C-1.555 .917-3.795 2.158-6.585 3.342-9.376 4.547-12.706 5.712-16.572 6.53-21.778 7.619-26.244 7.739-29.353 7.66"/>
<path transform="matrix(1,0,0,-1,460.9592,603.8998)" stroke-width="7.913" stroke-linecap="butt" stroke-miterlimit="10" stroke-linejoin="miter" fill="none" stroke="#643d92" d="M0 0C-1.863 .425-5.108 1.018-8.913 .692-11.338 .486-13.248-.065-14.554-.522"/>
<path transform="matrix(1,0,0,-1,422.0785,514.2805)" d="M0 0C-15.005-3.47-30.01-6.94-45.015-10.41-51.027-9.982-54.559-4.184-53.587 .237-52.866 3.515-49.616 6.263-45.649 6.582-46.007 8.069-48.198 17.84-42.667 27.045-38.422 34.108-31.125 38.35-23.839 38.131-16.606 37.913-11.82 33.371-9.693 31.352-2.914 24.918-1.041 16.578-.5 13.556 2.598 13.235 4.962 10.378 5.01 6.968 5.058 3.684 2.944 .717 0 0" fill="#ffffff"/>
<path transform="matrix(1,0,0,-1,422.0785,514.2805)" stroke-width="7.193" stroke-linecap="butt" stroke-miterlimit="10" stroke-linejoin="miter" fill="none" stroke="#643d92" d="M0 0C-15.005-3.47-30.01-6.94-45.015-10.41-51.027-9.982-54.559-4.184-53.587 .237-52.866 3.515-49.616 6.263-45.649 6.582-46.007 8.069-48.198 17.84-42.667 27.045-38.422 34.108-31.125 38.35-23.839 38.131-16.606 37.913-11.82 33.371-9.693 31.352-2.914 24.918-1.041 16.578-.5 13.556 2.598 13.235 4.962 10.378 5.01 6.968 5.058 3.684 2.944 .717 0 0Z"/>
<path transform="matrix(1,0,0,-1,376.6298,632.4452)" d="M0 0C-53.922 4.263-107.845 8.525-161.767 12.788-157.078 25.114-147.937 54.171-154.734 90.475-162.512 132.021-186.445 157.857-195.655 166.882-182.21 175.54-141.295 199.441-84.396 196.295-27.437 193.145 10.62 164.824 23.018 154.734 14.478 134.718 5.009 106.712 .639 72.252-2.956 43.901-2.084 19.194 0 0" fill="#ffffff"/>
<path transform="matrix(1,0,0,-1,376.6298,632.4452)" stroke-width="7.193" stroke-linecap="butt" stroke-miterlimit="10" stroke-linejoin="miter" fill="none" stroke="#643d92" d="M0 0C-53.922 4.263-107.845 8.525-161.767 12.788-157.078 25.114-147.937 54.171-154.734 90.475-162.512 132.021-186.445 157.857-195.655 166.882-182.21 175.54-141.295 199.441-84.396 196.295-27.437 193.145 10.62 164.824 23.018 154.734 14.478 134.718 5.009 106.712 .639 72.252-2.956 43.901-2.084 19.194 0 0Z"/>
<path transform="matrix(1,0,0,-1,310.3668,435.4335)" d="M0 0C.609-12.755-8.182-23.25-18.312-24.697-30.264-26.404-43.558-15.445-43.3 0V79.125H0Z" fill="#ffffff"/>
<path transform="matrix(1,0,0,-1,310.3668,435.4335)" stroke-width="7.193" stroke-linecap="butt" stroke-miterlimit="10" stroke-linejoin="miter" fill="none" stroke="#643d92" d="M0 0C.609-12.755-8.182-23.25-18.312-24.697-30.264-26.404-43.558-15.445-43.3 0V79.125H0V0Z"/>
<path transform="matrix(1,0,0,-1,162.815,582.2533)" d="M0 0C-.604 1.447-1.04 2.956-1.527 4.447L-2.946 8.932C-3.061 9.307-3.185 9.679-3.291 10.056L-3.575 11.196-4.136 13.478-5.238 18.047C-5.44 18.826-5.581 19.617-5.722 20.408L-6.15 22.781C-6.437 24.363-6.727 25.944-6.907 27.543L-7.507 32.329-7.888 37.136C-8.286 43.55-8.255 49.982-7.764 56.364-6.737 69.13-3.966 81.632 .499 93.628L36.075 80.337C32.858 71.704 30.83 62.547 30.095 53.369 29.746 48.775 29.731 44.173 30.009 39.596L30.276 36.167 30.711 32.757C30.827 31.617 31.046 30.491 31.252 29.363L31.555 27.671C31.652 27.106 31.746 26.54 31.9 25.987L32.695 22.736 33.086 21.109 33.28 20.295C33.356 20.027 33.449 19.764 33.532 19.498L34.549 16.313C34.894 15.253 35.18 14.173 35.628 13.15Z" fill="#ffffff"/>
<path transform="matrix(1,0,0,-1,162.815,582.2533)" stroke-width="7.193" stroke-linecap="butt" stroke-miterlimit="10" stroke-linejoin="miter" fill="none" stroke="#643d92" d="M0 0C-.604 1.447-1.04 2.956-1.527 4.447L-2.946 8.932C-3.061 9.307-3.185 9.679-3.291 10.056L-3.575 11.196-4.136 13.478-5.238 18.047C-5.44 18.826-5.581 19.617-5.722 20.408L-6.15 22.781C-6.437 24.363-6.727 25.944-6.907 27.543L-7.507 32.329-7.888 37.136C-8.286 43.55-8.255 49.982-7.764 56.364-6.737 69.13-3.966 81.632 .499 93.628L36.075 80.337C32.858 71.704 30.83 62.547 30.095 53.369 29.746 48.775 29.731 44.173 30.009 39.596L30.276 36.167 30.711 32.757C30.827 31.617 31.046 30.491 31.252 29.363L31.555 27.671C31.652 27.106 31.746 26.54 31.9 25.987L32.695 22.736 33.086 21.109 33.28 20.295C33.356 20.027 33.449 19.764 33.532 19.498L34.549 16.313C34.894 15.253 35.18 14.173 35.628 13.15L0 0Z"/>
<path transform="matrix(1,0,0,-1,198.8944,645.2464)" d="M0 0C-4.985-.951-11.314 2.477-16.566 7.149-21.886 11.765-25.958 17.666-27.93 20.607-28.646 21.592-30.052 23.893-31.708 27.063-32.56 28.626-33.363 30.497-34.163 32.526-34.96 34.557-35.774 36.73-36.345 39.124-36.648 40.308-36.928 41.519-37.177 42.749-37.423 43.982-37.662 45.217-37.77 46.519-38.028 49.096-38.128 51.714-38.014 54.295-37.562 59.567-36.377 64.638-33.587 69.138-30.577 74.122-26.857 76.945-23.487 78.736-20.154 80.502-17.324 81.195-15.962 81.531-13.597 82.108-10.43 82.849-6.96 82.92-6.093 82.939-5.207 82.918-4.312 82.847-3.401 82.781-2.464 82.669-1.527 82.498 .348 82.156 2.246 81.583 4.09 80.705 6.267 79.63 7.176 78.556 8.2 77.051 8.459 76.68 8.733 76.288 9.034 75.859 9.339 75.437 9.671 74.987 10.136 74.54 11.031 73.635 12.185 72.634 13.769 71.579 17.48 69.353 20.062 68.803 22.245 68.405 24.387 67.999 25.844 67.64 27.398 66.144 27.83 65.709 28.207 65.22 28.532 64.685 28.846 64.144 29.194 63.608 29.444 63.013 29.976 61.841 30.258 60.504 30.475 59.23 30.664 57.94 30.645 56.616 30.423 55.409 30.227 54.223 29.806 53.135 29.117 52.293 27.607 50.44 24.492 49.487 20.485 50.19 16.447 50.844 11.496 53.204 6.849 57.717 6.8 56.904 6.752 55.792 6.931 54.531 7.132 53.285 7.51 51.86 8.177 50.369 8.458 49.706 8.814 49.107 9.204 48.547 9.589 47.983 10 47.454 10.433 46.955 10.866 46.457 11.319 45.99 11.788 45.551 12.278 45.128 12.79 44.739 13.308 44.37 14.353 43.643 15.398 42.98 16.509 42.439 17.621 41.9 18.729 41.423 19.798 40.969 24.163 39.208 27.959 38.047 29.513 34.461 30.749 31.686 29.956 28.928 29.704 28.175 29.029 26.172 27.539 24.496 25.367 23.371 24.278 22.804 23.024 22.383 21.638 22.147 20.248 21.905 18.703 21.819 17.085 21.971 17.174 21.675 17.636 20.07 17.709 18.023 17.757 15.961 17.427 13.423 15.672 11.29 12.941 7.939 8.417 8.103 7.395 8.19 6.581 5.402 4.872 .946 0 0" fill="#ffffff"/>
<path transform="matrix(1,0,0,-1,198.8944,645.2464)" stroke-width="7.193" stroke-linecap="butt" stroke-miterlimit="10" stroke-linejoin="miter" fill="none" stroke="#643d92" d="M0 0C-4.985-.951-11.314 2.477-16.566 7.149-21.886 11.765-25.958 17.666-27.93 20.607-28.646 21.592-30.052 23.893-31.708 27.063-32.56 28.626-33.363 30.497-34.163 32.526-34.96 34.557-35.774 36.73-36.345 39.124-36.648 40.308-36.928 41.519-37.177 42.749-37.423 43.982-37.662 45.217-37.77 46.519-38.028 49.096-38.128 51.714-38.014 54.295-37.562 59.567-36.377 64.638-33.587 69.138-30.577 74.122-26.857 76.945-23.487 78.736-20.154 80.502-17.324 81.195-15.962 81.531-13.597 82.108-10.43 82.849-6.96 82.92-6.093 82.939-5.207 82.918-4.312 82.847-3.401 82.781-2.464 82.669-1.527 82.498 .348 82.156 2.246 81.583 4.09 80.705 6.267 79.63 7.176 78.556 8.2 77.051 8.459 76.68 8.733 76.288 9.034 75.859 9.339 75.437 9.671 74.987 10.136 74.54 11.031 73.635 12.185 72.634 13.769 71.579 17.48 69.353 20.062 68.803 22.245 68.405 24.387 67.999 25.844 67.64 27.398 66.144 27.83 65.709 28.207 65.22 28.532 64.685 28.846 64.144 29.194 63.608 29.444 63.013 29.976 61.841 30.258 60.504 30.475 59.23 30.664 57.94 30.645 56.616 30.423 55.409 30.227 54.223 29.806 53.135 29.117 52.293 27.607 50.44 24.492 49.487 20.485 50.19 16.447 50.844 11.496 53.204 6.849 57.717 6.8 56.904 6.752 55.792 6.931 54.531 7.132 53.285 7.51 51.86 8.177 50.369 8.458 49.706 8.814 49.107 9.204 48.547 9.589 47.983 10 47.454 10.433 46.955 10.866 46.457 11.319 45.99 11.788 45.551 12.278 45.128 12.79 44.739 13.308 44.37 14.353 43.643 15.398 42.98 16.509 42.439 17.621 41.9 18.729 41.423 19.798 40.969 24.163 39.208 27.959 38.047 29.513 34.461 30.749 31.686 29.956 28.928 29.704 28.175 29.029 26.172 27.539 24.496 25.367 23.371 24.278 22.804 23.024 22.383 21.638 22.147 20.248 21.905 18.703 21.819 17.085 21.971 17.174 21.675 17.636 20.07 17.709 18.023 17.757 15.961 17.427 13.423 15.672 11.29 12.941 7.939 8.417 8.103 7.395 8.19 6.581 5.402 4.872 .946 0 0Z"/>
<path transform="matrix(1,0,0,-1,215.979,623.2752)" stroke-width="7.193" stroke-linecap="butt" stroke-miterlimit="10" stroke-linejoin="miter" fill="none" stroke="#643d92" d="M0 0C-.993 .363-2.206 .805-3.5 1.458-4.801 2.102-6.274 2.861-7.75 3.876-8.497 4.375-9.265 4.917-10.047 5.505-10.817 6.104-11.574 6.775-12.35 7.48-13.922 8.871-15.404 10.557-16.843 12.431-19.459 15.936-21.087 19.355-22.035 22.162"/>
<path transform="matrix(1,0,0,-1,208.601,638.19058)" stroke-width="7.193" stroke-linecap="butt" stroke-miterlimit="10" stroke-linejoin="miter" fill="none" stroke="#643d92" d="M0 0C-1.063 .407-2.383 .919-3.816 1.642-4.539 1.998-5.306 2.394-6.111 2.835-6.912 3.278-7.721 3.79-8.574 4.337-11.992 6.514-15.706 9.643-19.183 13.805-20.323 15.235-21.346 16.644-22.261 18.005-23.159 19.381-23.898 20.756-24.57 22.033-25.94 24.569-26.751 26.96-27.376 28.841"/>
<path transform="matrix(1,0,0,-1,206.2549,592.6367)" stroke-width="7.193" stroke-linecap="butt" stroke-miterlimit="10" stroke-linejoin="miter" fill="none" stroke="#643d92" d="M0 0C-.178 .356-.377 .784-.576 1.274-.675 1.519-.775 1.78-.872 2.055-.954 2.339-1.034 2.638-1.107 2.951-1.401 4.201-1.602 5.671-1.536 7.271-1.514 8.279-1.297 9.227-1.078 10.033-.852 10.843-.584 11.531-.33 12.093"/>
<path transform="matrix(1,0,0,-1,226.8512,395.7088)" d="M0 0H-1.119Z" fill="#1b1c1c"/>
<path transform="matrix(1,0,0,-1,226.8512,395.7088)" stroke-width="1" stroke-linecap="butt" stroke-miterlimit="10" stroke-linejoin="miter" fill="none" stroke="#643d92" d="M0 0H-1.119 0Z"/>
<path transform="matrix(1,0,0,-1,268.1455,434.44554)" stroke-width="7.193" stroke-linecap="butt" stroke-miterlimit="10" stroke-linejoin="miter" fill="none" stroke="#643d92" d="M0 0C-1.539-.82-10.716-5.873-12.026-14.763-13.569-25.243-3.731-38.001 12.762-40.765 11.682-44.095 10.796-47.957 10.447-52.274 9.378-65.518 13.918-76.222 17.422-82.539 22.071-75.577 26.721-68.615 31.37-61.652 37.397-68.899 43.425-76.145 49.452-83.392 50.577-74.575 50.645-62.524 46.094-49.077 44.677-44.893 42.989-41.092 41.205-37.687 42.703-36.61 46.322-33.884 49.821-29.606 54.201-24.25 59.785-17.731 57.718-12.206 55.875-7.28 48.953-5.722 46.939-5.335"/>
<g>
<g clip-path="url(#clip_2)">
<path transform="matrix(1,0,0,-1,397.8877,364.5357)" d="M0 0C8.279-19.357-31.578-67.343-79.6-74.809-135.542-83.506-176.931-33.283-179.507-30.053-178.111-18.889-176.708-7.733-175.313 3.424-173.637 4.949-172.285 6.704-171.277 8.265-170.889 8.862-170.709 9.524-170.709 10.178-170.709 11.524-171.472 12.84-172.795 13.451-174.435 14.214-176.363 13.646-177.349 12.135-178.838 9.848-181.298 6.934-184.312 6.625-186.448 6.409-188.865 7.517-191.124 9.761-195.015 13.631-197.295 19.688-196.792 24.824-196.339 29.528-193.519 34.75-189.951 37.505-187.966 39.038-185.988 39.663-184.074 39.361-180.355 38.764-177.01 34.801-175.601 29.672-175.176 28.118-173.738 27.09-172.155 27.09-172.018 27.09-171.882 27.097-171.738 27.111-169.573 27.356-168.091 29.463-168.652 31.571-169.472 34.592-170.774 37.318-172.443 39.599-173.306 64.76-174.169 89.929-175.032 115.091L-160.164 136.671-172.155 153.453C-147.799 155.215-120.479 155.834-90.742 154.309-68.458 153.158-47.734 150.964-28.773 148.18L-26.852 12.437C-15.163 11.236-3.46 8.092 0 0" fill="#ffffff"/>
<path transform="matrix(1,0,0,-1,225.445,324.93714)" d="M0 0C1.669-2.28 2.971-5.006 3.791-8.028 4.352-10.135 2.87-12.243 .705-12.487 .561-12.502 .424-12.509 .288-12.509-1.295-12.509-2.733-11.48-3.158-9.927-4.568-4.798-7.913-.834-11.631-.237-13.545 .065-15.523-.561-17.508-2.093-21.076-4.848-23.896-10.07-24.349-14.775-24.853-19.911-22.572-25.967-18.681-29.837-16.422-32.082-14.005-33.189-11.869-32.974-8.855-32.664-6.395-29.751-4.906-27.464-3.92-25.953-1.993-25.385-.352-26.147 .971-26.759 1.734-28.075 1.734-29.42 1.734-30.075 1.554-30.737 1.165-31.334 .158-32.895-1.194-34.65-2.87-36.175-5.057-38.174-7.812-39.793-11.135-40.131-11.559-40.174-11.984-40.196-12.408-40.196-16.329-40.196-20.314-38.361-23.752-34.937-29.168-29.543-32.218-21.357-31.513-14.084-30.866-7.445-27.003-.338-21.903 3.604-18.335 6.359-14.394 7.488-10.502 6.862-6.388 6.208-2.712 3.697 0 0" fill="#643d92"/>
</g>
</g>
<path transform="matrix(1,0,0,-1,225.7327,333.36753)" stroke-width="7.193" stroke-linecap="butt" stroke-miterlimit="10" stroke-linejoin="miter" fill="none" stroke="#643d92" d="M0 0C-.094 2.813-.194 5.618-.288 8.43-1.151 33.592-2.014 58.761-2.877 83.923L11.991 105.503 0 122.284C24.356 124.047 51.676 124.665 81.413 123.141 103.697 121.99 124.421 119.796 143.382 117.012L145.303-18.731C156.992-19.932 168.695-23.076 172.155-31.168 180.434-50.525 140.577-98.511 92.555-105.978 36.613-114.674-4.776-64.451-7.351-61.221-5.956-50.058-4.553-38.901-3.158-27.744-2.849-25.306-2.546-22.86-2.237-20.422"/>
<path transform="matrix(1,0,0,-1,273.0476,341.51994)" d="M0 0V0C-12.713 0-23.018 10.306-23.018 23.018V86.319C-23.018 99.031-12.713 109.337 0 109.337 12.713 109.337 23.018 99.031 23.018 86.319V23.018C23.018 10.306 12.713 0 0 0" fill="#ffffff"/>
<path transform="matrix(1,0,0,-1,273.0476,341.51994)" stroke-width="7.193" stroke-linecap="butt" stroke-miterlimit="10" stroke-linejoin="miter" fill="none" stroke="#643d92" d="M0 0V0C-12.713 0-23.018 10.306-23.018 23.018V86.319C-23.018 99.031-12.713 109.337 0 109.337 12.713 109.337 23.018 99.031 23.018 86.319V23.018C23.018 10.306 12.713 0 0 0Z"/>
<path transform="matrix(1,0,0,-1,348.388,362.0733)" d="M0 0C.027-3.218-1.266-6.133-3.373-8.233-5.452-10.319-8.329-11.607-11.509-11.607H-44.439V-8.01H-11.509C-9.394-8.01-7.409-7.19-5.92-5.694-4.351-4.133-3.527-2.04-3.601 .177-3.745 4.48-7.451 7.815-11.757 7.815H-44.439V11.411H-11.803C-5.436 11.411-.053 6.366 0 0" fill="#643d92"/>
<path transform="matrix(1,0,0,-1,336.4857,347.06553)" d="M0 0H-32.537C-34.523 0-36.133-1.61-36.133-3.597-36.133-5.583-34.523-7.193-32.537-7.193H.145C4.451-7.193 8.158-10.527 8.302-14.831 8.376-17.048 7.551-19.141 5.983-20.702 4.494-22.198 2.508-23.018 .394-23.018H-32.537C-34.523-23.018-36.133-24.629-36.133-26.615-36.133-28.601-34.523-30.211-32.537-30.211H.394C4.436-30.211 8.227-28.636 11.068-25.788 13.9-22.963 15.473-19.211 15.499-15.206 15.553-6.842 8.365 0 0 0" fill="#643d92"/>
<path transform="matrix(1,0,0,-1,332.5114,341.51994)" d="M0 0V0C-12.713 0-23.018 10.306-23.018 23.018V86.319C-23.018 99.031-12.713 109.337 0 109.337 12.713 109.337 23.018 99.031 23.018 86.319V23.018C23.018 10.306 12.713 0 0 0" fill="#ffffff"/>
<path transform="matrix(1,0,0,-1,332.5114,341.51994)" stroke-width="7.193" stroke-linecap="butt" stroke-miterlimit="10" stroke-linejoin="miter" fill="none" stroke="#643d92" d="M0 0V0C-12.713 0-23.018 10.306-23.018 23.018V86.319C-23.018 99.031-12.713 109.337 0 109.337 12.713 109.337 23.018 99.031 23.018 86.319V23.018C23.018 10.306 12.713 0 0 0Z"/>
<path transform="matrix(1,0,0,-1,279.5073,341.51994)" d="M0 0V0C-9.145 0-16.559 7.414-16.559 16.559V62.095C-16.559 71.24-9.145 78.653 0 78.653 9.145 78.653 16.559 71.24 16.559 62.095V16.559C16.559 7.414 9.145 0 0 0" fill="#643d92"/>
<path transform="matrix(1,0,0,-1,337.667,341.51994)" d="M0 0V0C-9.145 0-16.559 7.414-16.559 16.559V62.095C-16.559 71.24-9.145 78.653 0 78.653 9.145 78.653 16.559 71.24 16.559 62.095V16.559C16.559 7.414 9.145 0 0 0" fill="#643d92"/>
<path transform="matrix(1,0,0,-1,334.3844,400.20564)" d="M0 0C.172-2.021-1.359-3.796-3.384-3.896-15.86-4.512-33.487-3.158-52.308 5.298-70.387 13.42-82.789 25.075-90.495 34.326-91.796 35.888-91.529 38.217-89.922 39.462-88.388 40.649-86.197 40.404-84.955 38.914-77.769 30.289-66.208 19.428-49.361 11.859-31.821 3.98-15.393 2.715-3.762 3.287-1.825 3.382-.165 1.934 0 .002Z" fill="#643d92"/>
<path transform="matrix(1,0,0,-1,255.8223,370.2662)" stroke-width="7.193" stroke-linecap="butt" stroke-miterlimit="10" stroke-linejoin="miter" fill="none" stroke="#643d92" d="M0 0C-.846-2.065-6.665-16.825 .398-27.354 8.491-39.418 31.584-43.075 51.76-28.766"/>
<path transform="matrix(1,0,0,-1,288.7301,406.7383)" d="M0 0C-8.877 .293-17.755 .586-26.632 .879-27.858 3.89-29.083 6.9-30.309 9.911-29.34 10.578-26.477 12.362-22.476 12.228-17.474 12.062-14.306 9.021-13.604 8.312-10.037 10.345-5.71 9.988-2.895 7.513 .298 4.706 .039 .5 0 0" fill="#643d92"/>
<path transform="matrix(1,0,0,-1,288.7512,625.4983)" stroke-width="7.193" stroke-linecap="butt" stroke-miterlimit="10" stroke-linejoin="miter" fill="none" stroke="#643d92" d="M0 0 11.601 124.289"/>
<path transform="matrix(1,0,0,-1,333.8172,496.1903)" stroke-width="7.193" stroke-linecap="butt" stroke-miterlimit="10" stroke-linejoin="miter" fill="none" stroke="#643d92" d="M0 0C-1.583-11.366-3.167-22.732-4.75-34.099 5.047-35.388 14.845-36.677 24.642-37.966L34.514-6.228"/>
<path transform="matrix(1,0,0,-1,334.7714,490.0197)" d="M0 0C12.472-1.985 24.945-3.969 37.417-5.954 37.32-10.254 37.224-14.554 37.127-18.853 23.059-15.821 8.992-12.789-5.076-9.757-3.384-6.505-1.692-3.253 0 0" fill="#ffffff"/>
<path transform="matrix(1,0,0,-1,334.7714,490.0197)" stroke-width="7.193" stroke-linecap="butt" stroke-miterlimit="10" stroke-linejoin="miter" fill="none" stroke="#643d92" d="M0 0C12.472-1.985 24.945-3.969 37.417-5.954 37.32-10.254 37.224-14.554 37.127-18.853 23.059-15.821 8.992-12.789-5.076-9.757-3.384-6.505-1.692-3.253 0 0Z"/>
<path transform="matrix(1,0,0,-1,262.0147,493.08363)" stroke-width="7.193" stroke-linecap="butt" stroke-miterlimit="10" stroke-linejoin="miter" fill="none" stroke="#643d92" d="M0 0C1.494-10.721 2.987-21.443 4.481-32.164-4.761-33.38-14.003-34.596-23.244-35.812-26.348-25.833-29.452-15.854-32.557-5.875"/>
<path transform="matrix(1,0,0,-1,261.1146,487.263)" d="M0 0C-11.765-1.872-23.53-3.744-35.295-5.616-35.203-9.672-35.112-13.728-35.021-17.784-21.751-14.924-8.482-12.064 4.788-9.204 3.192-6.136 1.596-3.068 0 0" fill="#ffffff"/>
<path transform="matrix(1,0,0,-1,261.1146,487.263)" stroke-width="7.193" stroke-linecap="butt" stroke-miterlimit="10" stroke-linejoin="miter" fill="none" stroke="#643d92" d="M0 0C-11.765-1.872-23.53-3.744-35.295-5.616-35.203-9.672-35.112-13.728-35.021-17.784-21.751-14.924-8.482-12.064 4.788-9.204 3.192-6.136 1.596-3.068 0 0Z"/>
<path transform="matrix(1,0,0,-1,205.8266,510.63423)" d="M0 0C-17.249 1.608-34.498 3.216-51.747 4.824-57.971 7.457-59.532 15.07-56.829 19.554-54.824 22.879-50.334 24.715-46 23.635-45.818 25.39-44.452 36.865-35.099 44.94-27.921 51.136-18.567 53.147-10.911 50.284-3.31 47.442 .056 40.751 1.553 37.777 6.321 28.3 5.159 18.505 4.592 15.005 7.761 13.538 9.192 9.562 7.955 5.816 6.764 2.208 3.399-.276 0 0" fill="#ffffff"/>
<path transform="matrix(1,0,0,-1,205.8266,510.63423)" stroke-width="7.193" stroke-linecap="butt" stroke-miterlimit="10" stroke-linejoin="miter" fill="none" stroke="#643d92" d="M0 0C-17.249 1.608-34.498 3.216-51.747 4.824-57.971 7.457-59.532 15.07-56.829 19.554-54.824 22.879-50.334 24.715-46 23.635-45.818 25.39-44.452 36.865-35.099 44.94-27.921 51.136-18.567 53.147-10.911 50.284-3.31 47.442 .056 40.751 1.553 37.777 6.321 28.3 5.159 18.505 4.592 15.005 7.761 13.538 9.192 9.562 7.955 5.816 6.764 2.208 3.399-.276 0 0Z"/>
</g>
</g>
</g>
</svg>
