<?xml version="1.0" encoding="utf-8"?>
<svg id="Layer_1" xmlns="http://www.w3.org/2000/svg" viewBox="0 0 4827.07502 2225.78997">
  <defs>
    <style>.cls-1{stroke:#fff;stroke-miterlimit:10;}.cls-1,.cls-2{fill:#6f35a5;}</style>
  </defs>
  <path class="cls-2" d="m4604.09716,984.68997c0,15.34422-.0232,30.68844.01593,46.03265.00984,3.83207.11481,7.67047.36036,11.4941.41261,6.43169,4.1411,10.68575,9.74684,13.12323,6.46821,2.81261,13.50368,3.7913,20.33576,5.40262,2.05415.48431,3.80159,3.19171,3.80065,5.9987-.00023.63755-.04756,1.28142-.14269,1.9117-.27109,1.79267-2.13194,3.70883-3.47169,4.18423-2.47402.87841-5.00756.94824-7.54648.9569-14.0653.04803-28.13084.05131-42.19615.05295-17.26216.00164-34.52431.00679-51.78647-.04335-2.54853-.0075-5.09683-.30389-7.64395-.4822-1.9609-.13707-4.58558-3.0441-4.6964-5.34498-.03046-.6352-.12606-1.27767-.06748-1.90514.25539-2.74185,2.06891-4.87426,4.51482-5.46495,4.32269-1.04407,8.83633-1.26221,12.88839-3.46819,4.22217-2.29831,6.74188-5.73159,7.76743-10.33546.27671-1.24182.43581-2.52488.50001-3.79646.12887-2.55276.21322-5.11091.21415-7.66672.01312-34.52449.02226-69.04875-.01804-103.57324-.00305-2.53777-.40371-5.07389-.59584-7.6126-.16331-2.15444-2.88124-4.64441-5.22476-4.77117-3.1842-.17292-6.36723-.36645-9.55283-.50821-5.10128-.22657-10.20443-.40605-15.30595-.63216-1.39083-.06139-3.77113-2.29784-3.84049-3.68469-.12723-2.5387-.24907-5.07834-.30249-7.61916-.01289-.61294.27343-1.22706.37981-1.8482.24649-1.44051,2.48855-3.81005,3.79175-3.93399,3.16592-.30038,6.33185-.6509,9.50644-.80531,5.10034-.24883,10.20889-.31959,15.31087-.5382,2.40818-.10333,5.15564-2.49887,5.44782-4.56592.17854-1.26455.49321-2.52183.54312-3.79036.27906-7.07627,1.94309-13.90441,3.51363-20.76371,1.86928-8.16392,4.8815-15.89601,8.88085-23.19955,12.05169-22.00858,30.51981-35.58027,54.84672-41.46228,9.39843-2.2723,18.87042-3.12892,28.51581-3.03192,7.78524.07826,15.23753,1.62679,22.54151,4.08114,4.28684,1.44075,8.08163,3.81848,11.45117,6.83564,5.50545,4.92933,8.66904,10.96129,8.67044,18.49282.00094,5.17675-.62208,10.18926-3.20013,14.81375-4.37681,7.85159-10.94577,12.3205-19.96486,12.93626-2.5422.17362-5.11956.16542-7.65989-.03023-7.35787-.56679-13.49032-3.75405-18.36198-9.23938-3.40937-3.83887-5.94009-8.29771-8.49846-12.73405-2.55017-4.42205-4.08627-9.37317-7.18964-13.50656-.99556-1.32594-3.74817-1.71699-5.01295-.69659-3.09188,2.49348-5.10151,5.7508-6.40893,9.35747-2.18348,6.02306-3.74044,12.24576-4.11462,18.67042-.81725,14.03984-1.40114,28.08811-.61528,42.15396.1366,2.44779,2.39178,5.15426,4.48272,5.40426.62911.07474,1.23244.34771,1.86085.44729.62864.09935,1.27345.10473,1.91193.13496,13.40363.6338,26.84545-.4986,40.23314.86881,8.91131-1.20082,17.88822-.31772,26.81663-.86248,1.87631-.11434,3.81167-.54195,5.54458-1.2526,1.07452-.44049,2.3721-1.56071,2.60758-2.59494.70409-3.09424.98666-6.29064,1.33999-9.45775,1.1413-10.223,3.53472-20.13929,7.38903-29.67389,9.37054-23.18081,25.587-39.47326,49.15921-48.07041,10.86986-3.96469,22.1528-5.97597,33.79609-6.08961,9.03807-.0881,17.85682.81515,26.4401,3.73718,4.91548,1.67341,9.30611,4.20298,13.08216,7.76279,5.38151,5.07366,8.24049,11.23684,8.18731,18.729-.03702,5.22455-1.08905,10.13654-3.70248,14.69378-4.1097,7.16601-10.34384,11.19255-18.45828,12.14009-3.14905.36763-6.40144.30764-9.56431.00094-7.34357-.71135-13.34833-4.17627-18.09136-9.75345-3.32502-3.90986-5.79107-8.39705-8.34218-12.83949-2.53307-4.41104-3.79292-9.53484-7.42558-13.32099-1.05414-1.09889-2.24651-1.32476-3.39484-.58858-1.05765.67855-2.28728,1.29524-2.99957,2.2641-1.50306,2.04362-3.03729,4.16971-3.98224,6.4966-1.9227,4.73532-3.57643,9.622-3.9888,14.76033-1.2779,15.93186-2.16287,31.87941-1.03211,47.86586.15862,2.24465,2.70364,4.59075,5.12541,4.79249,1.90583.15886,3.80792.4651,5.71445.4904,6.39253.08458,12.78717.015,19.179.11903,3.8283.06209,7.6545.30952,11.47835.52836,1.99065.11364,4.98178,2.97287,5.18703,4.9066.3381,3.1875.61974,6.42373-.49157,9.48118-.37582,1.03446-1.51548,2.1364-2.55579,2.50684-1.75518.62607-3.70529.91871-5.58114.95526-7.03054.1373-14.06484.06186-21.09608.17268-3.82619.06045-7.65098.30811-11.47366.52274-2.30017.1291-4.86065,2.6657-5.08464,4.93284-.18768,1.89881-.54218,3.79716-.54429,5.69597-.0396,35.16368-.04077,70.32735-.03351,105.49103.00023,1.91568.16425,3.83067.22236,5.74682.2261,7.41836,5.00053,12.95922,12.52522,15.0497,6.14745,1.70762,12.37035,3.14204,18.54052,4.7714.53867.14246.97471.79664,1.38685,1.27509,1.84421,2.13898,1.87936,4.69947,1.13005,7.14586-.57123,1.86554-2.24159,3.15305-4.12915,3.62612-1.8339.45947-3.78589.61388-5.68634.61529-32.60583.02765-65.21189.01429-97.81771-.00961-1.27321-.00094-2.54549-.21088-3.81987-.30061-4.51458-.31819-7.29835-5.774-4.99069-10.10584.54616-1.02556,1.75166-1.95224,2.86226-2.36696,1.77158-.66215,3.73927-.77649,5.58418-1.27041,2.45528-.65676,4.94383-1.27837,7.29156-2.22895,5.20039-2.10524,7.86842-6.27049,8.83188-11.64359.22493-1.25447.38403-2.53308.42737-3.80536.10895-3.19382.1851-6.39069.18651-9.58615.01406-32.60646.02156-65.21293-.00656-97.81939-.00281-3.18726-.22517-6.37663-.40347-9.56155-.168-3.00403-3.15374-5.68707-6.44642-5.88295-1.27438-.07568-2.54619-.22236-3.82127-.25328-8.30493-.20314-16.61079-.55648-24.91548-.53023-12.7771.0403-25.55349.32334-38.32895.56444-1.90466.03585-3.80276.40863-5.70508.61412-1.19566.12887-3.5209,2.68022-3.89813,3.82387-.82335,2.49606-.79148,5.04414-.79593,7.58682-.03046,17.90143-.01617,35.8031-.01617,53.70453h-.02648Z" style="fill: rgb(255, 255, 255);"/>
  <path class="cls-2" d="m2965.56698,825.9478c17.26333,0,34.52654-.01008,51.78987.00914,3.18127.00375,6.37941-.10708,9.4843.85615,1.36447.42316,2.23773,1.18582,2.69427,2.38922,1.19378,3.14626,1.14001,6.19434-.69061,9.09036-.33447.52906-.79511,1.16708-1.33284,1.34468-1.8018.59467-3.63922,1.228-5.50932,1.44121-5.7612.6577-11.27521,2.17881-16.68237,4.21165-3.39132,1.27533-5.93365,5.75478-5.07539,9.31576.59795,2.4806,1.21217,4.96611,1.99698,7.39188,5.50756,17.02232,10.99826,34.05096,16.61477,51.03766,9.02635,27.29873,18.15263,54.5649,27.20323,81.85567.42011,1.26689.89434,2.42952,2.00248,3.1793.47833.32358,1.09514.54125,1.66942.59678.56784.05459,1.42457.05225,1.69391-.28866.7718-.97706,1.53434-2.06705,1.90724-3.23787,5.23448-16.4396,10.41683-32.89606,15.58512-49.35675,11.29301-35.96735,22.56623-71.94078,33.86521-107.90625.76301-2.42905,1.52954-4.87543,2.55626-7.19811,1.08132-2.44592,3.04467-4.23765,5.78182-4.37004,9.569-.46322,19.15452-.90817,28.70618.23946,1.9145.23009,3.71759,1.27767,4.48623,3.14017,1.94613,4.71658,3.80686,9.47579,5.49948,14.2889,16.74633,47.62078,33.39286,95.27647,50.24146,142.86093,2.12011,5.98745,3.39367,12.37299,7.12532,17.72336.34126.48946,1.00001.92387,1.57546,1.02767.40628.0731,1.08354-.34232,1.36213-.73572,2.24534-3.17133,3.32502-6.85415,4.45155-10.50721,9.03795-29.3058,18.13365-58.59426,27.0712-87.93075,3.53741-11.61126,6.74621-23.32374,10.05096-35.00505,1.39892-4.94549,2.24487-9.99923,1.89939-15.1542-.22411-3.34542-1.7779-6.03033-4.65833-7.92094-2.15361-1.41357-4.4068-2.55979-6.87274-3.31496-7.35599-2.25332-15.02326-2.96327-22.4991-4.60598-1.93629-.42527-3.05451-2.03776-3.6077-4.00054-.53667-1.9042-.35977-3.77631-.0676-5.67606.25035-1.62866,2.26643-3.95696,3.53249-4.09754,1.90044-.21134,3.79972-.61505,5.69993-.61763,26.85365-.03819,53.70718-.03889,80.56071.01617,1.88111.00375,3.7641.49884,5.64053.80133,1.45316.23407,2.18056,1.11623,2.65479,2.39414,1.16906,3.14977,1.08202,6.21777-.25961,9.26351-.25363.57592-.52953,1.38522-1.00376,1.58086-2.95107,1.21769-5.97922,2.2477-8.94786,3.42532-2.96641,1.17668-5.95731,2.32127-8.82415,3.71351-7.15074,3.47241-12.62726,8.68454-15.68939,16.12235-2.43032,5.90357-4.84155,11.82658-6.93834,17.85363-12.80885,36.81319-25.55748,73.6477-38.261,110.49744-8.1217,23.55898-16.10867,47.16435-24.21561,70.72872-1.24545,3.61979-2.67716,7.19295-4.31284,10.6506-.47119.99603-1.87291,1.702-2.99933,2.19685-1.14259.50212-2.47051.79383-3.72076.80554-7.66867.07263-15.3384.06537-23.00766.03187-4.39696-.01898-7.01496-2.44404-8.44773-6.43146-2.15982-6.01158-4.39415-11.99646-6.5371-18.0139-16.5057-46.35107-32.9895-92.70988-49.50692-139.05674-1.28563-3.60737-2.71957-7.16507-4.19499-10.69957-.59853-1.43372-1.6563-1.97239-2.71676-1.69473-1.32417.34677-2.29618,1.17083-2.82173,2.43725-.72986,1.75917-1.49521,3.51248-2.08051,5.32179-5.11229,15.80697-10.19448,31.62355-15.27279,47.44153-11.52404,35.89448-23.02851,71.79504-34.58289,107.67968-.97553,3.02934-2.1679,5.99963-3.43936,8.91885-1.11342,2.55651-3.32759,3.83887-6.03779,3.91127-7.0248.18838-14.05347.28304-21.08074.29476-1.894.00328-3.80183-.34818-5.67966-.67246-1.98831-.34326-3.67343-1.5333-4.40247-3.28872-1.95808-4.714-3.7101-9.52102-5.36546-14.3524-20.29499-59.2393-40.54969-118.49219-60.84234-177.73219-1.86272-5.43777-3.70588-10.8992-5.94665-16.18491-1.75236-4.13362-4.47451-7.72295-7.95769-10.67567-5.41712-4.59169-11.31117-8.35277-18.12276-10.51541-2.43302-.77227-4.91969-1.37514-7.38048-2.06049-2.35699-.65652-3.91347-2.80206-4.19241-5.7194-.18276-1.91006-.04264-3.74725.62313-5.61748.49591-1.39365,1.16531-2.07782,2.57313-2.54597,2.49042-.82827,5.02326-.85826,7.56054-.86248,18.54205-.03093,37.08397-.01664,55.62602-.01664v-.02202Z" style="fill: rgb(255, 255, 255);"/>
  <path class="cls-2" d="m2270.41068,825.94663c19.18211,0,38.36451.06959,57.54614-.02062,17.3963-.08177,34.37817,2.70787,51.12702,7.12243,16.89401,4.45345,32.30023,12.09861,46.24153,22.56013,18.40843,13.8135,31.47548,31.6362,38.7244,53.5288,1.80057,5.43847,3.18168,11.07868,4.10765,16.73248,3.45301,21.08237,3.28923,42.13334-3.12726,62.64892-7.29168,23.3139-21.23081,42.06843-41.14553,56.26736-15.29183,10.90272-32.34177,17.98414-50.45374,22.60207-16.81288,4.28639-33.97212,6.02189-51.27252,6.3614-10.86605.21345-21.7389.09372-32.6087.09677-25.5761.00679-51.15232.02601-76.72831-.03561-3.81676-.00937-7.63505-.3934-11.44777-.67082-2.1013-.15253-4.28649-2.81425-4.45583-5.45862-.08048-1.25752.02074-2.54409.19424-3.79622.26646-1.92342,1.87409-3.66501,3.54175-3.98132,6.27591-1.19051,12.56634-2.30838,18.82497-3.583,3.21109-.65395,5.87776-2.4185,8.12879-4.78195,2.26004-2.37211,3.83135-5.14582,4.19751-8.42165.35421-3.16969.60866-6.36656.63608-9.55382.08798-10.22979.05922-20.46075.05992-30.69125.00299-41.5614.01587-83.12279-.01874-124.68419-.0048-5.75033-.07545-11.51215-.43651-17.24842-.44248-7.03081-4.36726-11.93226-10.55976-14.84069-4.62072-2.17061-9.51388-3.74069-14.62272-4.47501-1.89482-.27226-3.77605-.63942-5.66326-.96487-2.36706-.40816-4.18064-2.56049-4.5779-5.39208-.26717-1.90444-.16477-3.73952.49438-5.61444.48232-1.37233,1.14897-2.1207,2.46389-2.66734,1.83355-.76243,3.71964-.93113,5.61206-.94894,8.9509-.08318,17.90269-.09185,26.85412-.10075,12.78805-.01312,25.57604-.00328,38.3641-.00328v.01453Zm23.96233,114.7597c0,25.50981-.00609,51.01938.00592,76.52919.00205,4.46353-.11756,8.94064.19002,13.38589.2179,3.1493.82411,6.3211,1.6693,9.36848,2.46324,8.88136,8.86755,13.93745,17.39676,16.01199,12.01959,2.9232,24.20665,2.04151,35.99164-1.13919,14.74842-3.98062,26.1751-12.91915,34.21726-25.97772,4.02857-6.54111,7.01022-13.56982,9.3361-20.8968,2.71454-8.55122,4.04544-17.35854,5.307-26.20312,3.27441-22.95634,2.62281-45.80959-1.88223-68.51828-2.2403-11.29307-5.91145-22.16369-11.42504-32.34076-3.66552-6.76581-8.0599-13.0028-13.53701-18.43495-9.26557-9.18994-20.15377-15.3147-32.92729-18.42557-12.62187-3.07386-25.26225-2.8515-38.0028-1.6624-2.8639.26758-5.87911,3.50967-5.98947,6.48418-.16536,4.4572-.32984,8.91744-.33506,13.37652-.03075,26.14759-.01511,52.29494-.01511,78.44253Z" style="fill: rgb(255, 255, 255);"/>
  <path class="cls-2" d="m3797.67723,1151.13284c-14.40247.49813-28.36327-1.44895-42.27347-3.47616-8.20183-1.19543-16.28347-3.39064-23.90258-6.83681-3.48364-1.57571-6.99587-3.22616-10.16179-5.34194-11.58683-7.74357-17.29472-18.44947-15.86453-32.61794.53468-5.29672,2.62515-9.82491,6.09356-13.78351,3.42811-3.91338,7.57366-6.92514,12.31247-8.95165,5.28451-2.26058,10.69436-4.2161,16.49739-4.86489,3.15491-.35263,6.27725-1.03118,9.39397-1.6631.50539-.10263,1.02321-.6516,1.32991-1.12678.80929-1.25471.66332-2.60665-.6195-3.41524-3.23083-2.03705-6.66925-3.75569-9.82884-5.89138-2.63171-1.77955-5.15564-3.79552-7.43144-6.01088-8.03102-7.81808-10.37173-17.34917-7.84522-28.12021.42643-1.81704,1.366-3.5905,2.38967-5.17675,3.57244-5.53477,8.69621-9.34201,14.53509-12.14805,4.02231-1.93279,8.24471-3.44594,12.34059-5.23111,1.37373-.59865,2.05134-1.6385,1.81141-2.64836-.13496-.56702-.61247-1.22003-1.12044-1.50518-4.45202-2.4977-8.96074-4.89395-13.42331-7.37337-5.05582-2.80909-9.74379-6.1517-13.79093-10.29141-12.14494-12.42477-16.09883-27.24367-12.44415-44.10315,2.4035-11.08712,8.63623-19.77517,17.42359-26.78232,8.12381-6.47785,17.33268-10.94606,27.17886-13.86997,9.1838-2.72755,18.59207-4.71704,28.26721-4.95065,12.16158-.29359,24.25849-.32686,36.23028,2.60525,9.33633,2.28636,18.89362,2.98037,28.55095,2.81261,13.42518-.23384,26.85833-.07498,40.2875.01078,2.53635.01617,5.07012.46861,7.60389.73455,1.32944.13965,3.60431,2.48153,3.89508,3.80887.69354,3.16266.74251,6.30587.14738,9.4861-.27203,1.45457-2.30954,3.60245-3.80745,3.72804-3.17553.26641-6.35223.55413-9.53432.69917-5.73484.26125-11.49826-.39738-17.21553.63403-1.5129.27297-3.13734,2.85244-2.4855,4.32974,1.28516,2.91242,2.51737,5.85413,3.9471,8.69532,1.74463,3.46702,2.76456,7.13063,3.53706,10.90529,3.68585,18.01249-2.21816,32.7365-15.5358,44.78826-2.81845,2.55089-6.07528,4.70041-9.36773,6.62898-10.61283,6.21684-22.10875,9.96737-34.30032,11.51191-8.25783,1.04641-16.56533,1.34281-24.88783,1.35827-5.75288.01078-11.506.15277-17.25888.24298-8.09124.12676-12.86262,8.2089-11.37596,14.56234.60076,2.56729,1.88357,4.74797,4.05839,6.26604,2.65022,1.84984,5.58184,3.22639,8.7972,3.58722,4.44218.49813,8.91693.97073,13.37856.97752,19.85216.02999,39.58576,2.1453,59.377,3.21842,13.16323.71323,24.86956,5.60038,35.16326,13.73102,7.1805,5.67184,12.25741,12.90744,15.29751,21.62057,3.04971,8.74101,3.24957,17.59379,1.19027,26.45758-3.01222,12.96578-10.10157,23.39004-20.87701,31.18751-3.61227,2.61392-7.43284,5.00852-11.38275,7.07439-10.84619,5.67348-22.40959,9.48751-34.46597,11.35048-13.26258,2.04877-26.59896,3.84051-39.83389,3.16758Zm10.08986-13.25585c3.91898-.33131,9.00503-.67902,14.07186-1.21066,5.8063-.6092,11.1119-2.81026,16.11125-5.69551,7.62544-4.40097,12.12245-11.11078,13.88442-19.67161.90418-4.39323,1.09163-8.83895.75446-13.3238-.68651-9.12996-7.44667-17.0031-16.40624-18.81944-3.11813-.63216-6.27913-1.12279-9.44435-1.43981-15.89147-1.5914-31.82536-1.62538-47.76861-1.12068-2.69849.08552-4.88994,1.4466-6.79226,3.15071-5.91127,5.29484-9.25222,12.08315-10.97366,19.72082-1.3025,5.77986-.72541,11.36102,1.77228,16.79504,1.62631,3.53849,3.76153,6.67701,6.57248,9.3078,7.20229,6.74027,15.58172,10.9866,25.57692,11.60751,3.81659.23735,7.63599.42433,12.64144.69964Zm16.08454-189.42967c-.01312-4.16502-1.20995-12.34862-3.31775-20.36352-.79828-3.03449-2.23878-5.96097-3.76012-8.73164-2.86367-5.21729-7.25946-8.52381-12.93432-10.61663-8.19363-3.02184-19.31701,1.25752-23.73646,7.87385-2.12749,3.18562-4.06495,6.45958-4.89345,10.26353-.54171,2.48645-1.16848,4.95768-1.61225,7.4617-2.3714,13.37605-1.70995,26.61105,2.03564,39.67289,1.2376,4.31498,3.24184,8.28154,5.8377,11.94046,7.16995,10.10631,20.15277,10.9948,28.7241,4.83631,5.42743-3.89932,8.64537-9.38887,10.40992-15.57384,2.09539-7.34314,3.24067-14.91638,3.24699-26.76311Z" style="fill: rgb(255, 255, 255);"/>
  <path class="cls-2" d="m4272.61896,993.13061c-.39668,10.81907-.82288,21.03855-1.12255,31.26131-.13098,4.46915-.0649,8.94744.02976,13.41893.06795,3.22006.8517,6.31642,2.04735,9.31084,2.05532,5.1484,5.75499,8.39611,11.20913,9.39965,4.37634.80531,8.80095,1.3489,13.2047,2.00472,1.21463.18088,3.26972,2.70576,3.38617,4.28428.09302,1.26033-.01781,2.53706-.06279,3.80583-.07451,2.08743-1.34983,3.48788-2.82524,4.72759-.47775.40207-1.09748.66262-1.68793.89856-9.54487,3.81895-19.33809,6.65897-29.69084,6.94084-5.1062.13941-10.22505.00797-15.33313-.1605-5.14627-.16964-10.09009-1.39201-14.96878-3.0516-6.25406-2.12726-11.3373-5.80118-15.37647-10.95216-1.95457-2.49278-3.15749-5.60858-6.02936-7.31878-.42222-.25118-1.17035-.21533-1.66825-.03632-3.71466,1.33554-6.24703,4.37121-9.30705,6.64257-4.64345,3.44617-9.53292,6.42092-14.83078,8.73328-8.27704,3.613-16.84322,6.02635-25.93846,6.15334-4.47241.06256-8.95981.2083-13.41769-.05975-12.6159-.75892-23.49419-5.63552-32.58638-14.40863-6.20837-5.9905-9.72505-13.47539-11.0976-21.85464-1.80391-11.01308-.37372-21.69906,4.78637-31.684,3.90328-7.55308,9.7131-13.38776,16.95077-17.85668,6.02233-3.71867,12.53412-6.4181,19.11808-8.81857,8.99636-3.27981,18.18274-6.04532,27.32038-8.92658,8.52916-2.6896,17.13376-5.14301,25.63948-7.90313,3.62821-1.17715,7.18073-2.68678,10.59478-4.39136,2.37608-1.18559,3.69006-3.48342,3.96514-6.17724,1.11552-10.92638.16846-21.76092-2.51339-32.33467-1.80063-7.10017-6.24633-12.46554-13.35747-15.26479-5.55536-2.18678-11.16274-2.64367-16.87766-.8435-2.42974.76571-4.82527,1.65678-7.19268,2.60033-2.90913,1.15935-5.07808,4.89933-4.45132,7.69718.83553,3.73085,1.95316,7.40617,2.6289,11.1628.56186,3.12306.93324,6.33094.91402,9.49852-.05858,9.71666-7.52563,18.62544-16.89078,20.70443-8.25455,1.83251-16.50606,2.05369-24.70226.00328-7.94644-1.98762-13.48985-6.81057-16.45006-14.61857-3.84189-10.13373-1.14926-18.79343,5.6772-26.5438,4.27746-4.85716,9.64937-8.35816,15.28463-11.42381,6.19947-3.37189,12.77475-5.95746,19.56068-7.76489,6.77867-1.80579,13.68081-3.51834,20.63544-4.22336,18.52389-1.87749,37.03559-1.65889,55.26027,2.81917,3.70154.90934,7.3492,2.18842,10.86869,3.6622,15.30688,6.41108,24.43094,17.92275,27.87123,34.10485,1.47096,6.92022,2.10054,13.89035,1.98362,20.94905-.20103,12.1436-.3791,24.28767-.55788,35.83379Zm-58.01007,21.43265c.20572-10.69419.36294-17.06191.42971-23.43105.01992-1.9035-.22259-3.80911-.32685-5.71472-.11692-2.13265-3.48809-4.19923-5.65143-3.59683-8.03173,2.23551-15.53697,5.69176-22.74207,9.79703-2.75027,1.56727-5.39393,3.41571-7.80539,5.46612-6.03006,5.12591-9.79206,11.70943-11.24451,19.46659-1.0607,5.66528-1.04289,11.42967-.01172,17.10924.9419,5.18964,3.4991,9.53484,7.80375,12.6975,4.27559,3.14157,9.21778,4.37636,14.40177,4.12331,7.89911-.3859,14.82726-3.22006,20.51407-8.92471,2.3728-2.38031,3.8194-5.17183,3.99091-8.40338.40511-7.62993.53656-15.27439.64176-18.58912Z" style="fill: rgb(255, 255, 255);"/>
  <path class="cls-2" d="m4438.42108,979.32953c-14.04633,0-28.09289-.02531-42.13921.01921-3.18514.01008-6.37004.24626-9.55377.40793-2.51011.1277-4.9129,2.45342-5.10479,4.73977-1.08858,12.98007,1.24884,25.4271,6.04178,37.42848,1.41028,3.53122,3.27441,6.931,5.30325,10.15669,7.24868,11.52339,18.05926,17.73461,31.19602,20.13882,5.66103,1.03587,11.41954,1.10311,17.18249.94589,10.58729-.28866,19.95244-3.96492,28.43427-10.07937,5.72148-4.12495,10.71803-9.04702,15.3357-14.37841,1.22307-1.41193,2.77698-2.56448,4.28613-3.69266,1.13357-.84772,2.38147-.68698,3.62399-.14082,2.97567,1.30789,5.49843,3.14766,7.3246,5.86538.7561,1.12537.97143,2.39343.49837,3.67766-.4344,1.17903-.87091,2.40984-1.57992,3.42766-14.97698,21.50013-35.80549,34.0601-61.04993,39.83925-.62184.14246-1.24908.27812-1.88123.35825-23.18913,2.93843-45.86559,1.44614-67.62077-7.88744-1.75822-.75423-3.46677-1.6303-5.1704-2.50449-24.46468-12.55856-38.45688-32.80258-43.52255-59.52515-.83108-4.38456-1.45855-8.83145-1.81656-13.27858-1.69332-21.02824,2.84235-40.62605,14.12857-58.4996,12.1494-19.23955,29.69108-31.26483,51.32793-37.61123,9.24613-2.71232,18.68415-3.9675,28.34265-3.98531,11.53411-.02156,22.93584.59935,34.16723,3.59472,8.10647,2.16171,15.71832,5.33163,22.71958,9.87458,15.89874,10.31672,25.1704,25.00863,28.20488,43.65187,1.13005,6.94201,1.86483,13.9351,1.02907,20.97623-.14714,1.24041-.50633,2.60197-1.21323,3.58816-.69893.97495-1.89037,2.0394-2.99184,2.20013-3.1432.45901-6.34989.63263-9.53245.64481-15.32305.05834-30.64657.02671-45.96986.02671v.02085Zm-32.43713-13.09559c9.0957-.43909,16.7338-.77274,24.36697-1.19309,3.16405-.17432,5.57364-3.04691,5.5174-6.56478-.08201-5.09568-.27367-10.18996-.42761-15.28447-.21439-7.1072-2.14131-13.85263-4.60877-20.43334-.88169-2.35173-2.31704-4.53921-3.74887-6.63109-2.2102-3.22873-5.2674-5.39489-8.92818-6.90054-5.027-2.06705-9.86001-1.86484-14.86124.07615-4.30019,1.66919-7.75618,4.31966-10.62079,7.84924-2.84399,3.50404-4.95624,7.44764-6.42252,11.67405-3.5865,10.33851-5.32363,20.98091-4.78145,31.95697.10028,2.03377,2.84188,5.03031,4.95765,5.07741,7.00149.15628,14.00415.27015,19.5574.37348Z" style="fill: rgb(255, 255, 255);"/>
  <path class="cls-2" d="m2742.81337,979.33468c-14.70086,0-29.40195-.03561-44.10257.02835-3.18314.01382-6.36524.37817-9.54686.5949-1.2417.08482-3.63781,2.62165-3.71361,3.8944-.07533,1.26549-.40992,2.51762-.46029,3.7824-.41331,10.37553,1.92552,20.3436,4.93551,30.13079,1.68676,5.4851,4.21959,10.69372,7.54801,15.45528,7.35201,10.51799,17.55703,16.56847,30.00188,18.90356,6.29448,1.18114,12.69497,1.2772,19.10871.96323,9.21075-.45034,17.45358-3.54926,25.04657-8.63042,5.34074-3.57363,10.10497-7.80098,14.47159-12.50396,2.16263-2.3297,4.38595-4.60692,6.66386-6.82369.95151-.92551,2.22824-.91122,3.58076-.45643,2.47965.83366,4.45694,2.40796,6.42451,4.05513,2.0627,1.72613,2.81166,4.81217,1.62643,6.83751-.32111.54898-.4952,1.19098-.85322,1.70996-15.73051,22.80522-37.70172,35.95633-64.61933,40.89245-11.99183,2.19919-24.23904,1.69731-36.31862.17151-12.10476-1.52861-23.81331-4.72501-34.68259-10.4723-3.38394-1.78916-6.75957-3.64392-9.92877-5.78032-14.24443-9.60419-24.20343-22.64097-30.01067-38.74153-6.89781-19.12474-8.14993-38.87531-3.69862-58.56403,4.80313-21.24521,15.95474-38.92874,33.84987-51.82657,15.43001-11.12132,32.79245-17.10479,51.77593-17.96141,7.64384-.34513,15.3507-.18042,22.9854.36364,11.56481.82382,22.67858,3.73132,33.09599,8.94978,5.15868,2.58416,9.931,5.77634,14.31449,9.55499,9.49016,8.18055,15.88679,18.39347,19.01065,30.42273,2.08203,8.01724,3.63043,16.23388,3.38629,24.62109-.05506,1.89694-.42843,3.78662-.683,5.67559-.20068,1.48925-2.35804,3.84262-3.6698,3.98086-2.53143.26687-5.06625.69495-7.60108.70526-15.97899.06443-31.95821.03257-47.93743.03257v.03468Zm-31.27345-13.2828c6.54752-.20221,12.29209-.33529,18.03173-.58225,1.90056-.08177,3.78542-.48431,5.68306-.68956,2.11659-.22915,4.29761-3.02606,4.39579-5.4769.3333-8.31786-.29218-16.58979-1.48455-24.79893-.82932-5.71003-2.82759-11.11922-5.65892-16.17108-4.73565-8.44977-15.55782-12.96273-24.64896-9.30873-4.91864,1.97707-8.8737,4.88457-12.03353,9.06857-2.33625,3.09331-4.18632,6.47996-5.39053,10.09741-3.44123,10.33781-5.9231,20.87805-5.30477,31.90683.03479.62021.36926,1.22214.41448,1.84352.09314,1.28025,2.56411,3.60597,3.86415,3.81028,7.63564,1.20222,15.29189.12535,22.13206.30085Z" style="fill: rgb(255, 255, 255);"/>
  <path class="cls-2" d="m3525.67584,927.07277c0,31.91221-.00398,63.82443.00398,95.73664.00117,5.10552.16144,10.21339.06279,15.31634-.20056,10.37459,4.94781,16.75755,14.54352,19.94903,2.41779.80437,4.83675,1.60898,7.23392,2.47146,2.95364,1.06234,4.48881,4.16783,3.90867,7.77661-.35239,2.1924-3.04901,4.94174-5.01927,5.07014-2.54478.16565-5.09191.41542-7.63833.41777-28.08258.02835-56.16515.03116-84.24773-.01218-2.53529-.00398-5.07152-.36107-7.60471-.58389-1.86202-.16355-4.53016-3.36697-4.42496-5.5739.05986-1.25588.03456-2.62305.53234-3.72031.48923-1.07828,1.42774-2.34681,2.45727-2.70647,2.38311-.83225,4.97663-1.03938,7.41726-1.73644,2.43501-.69565,4.88092-1.4855,7.15648-2.57877,4.32151-2.07642,6.89922-5.67161,7.46776-10.40224.45525-3.78755.56432-7.63345.57674-11.45427.06022-18.50899.04007-37.01821.041-55.52719.00211-38.93295.00914-77.86567-.01218-116.79863-.00328-5.7426-.07978-11.48754-.25856-17.2271-.1216-3.90353-1.55227-7.44554-3.41171-10.85023-2.22238-4.06919-5.48343-6.94998-9.5929-9.00999-4.61217-2.3119-9.59231-3.41594-14.52747-4.71283-3.59048-.94355-5.71738-5.28008-4.59471-9.20775.5553-1.94286,1.97495-3.4225,3.73142-4.06685,1.74557-.64012,3.75473-.65418,5.65846-.7561,21.03001-1.12678,42.06013-2.25121,63.09483-3.28614,3.80417-.18698,7.62896-.00469,11.44297.07826,2.24932.04874,5.00849,2.62844,5.27771,4.75172.1598,1.25893.54242,2.50543.56491,3.76248.10356,5.74213.15136,11.48614.15347,17.22944.01242,32.55046.00609,65.10093.00703,97.65139Z" style="fill: rgb(255, 255, 255);"/>
  <path class="cls-2" d="m3590.03205,979.95723c0-15.35218.03327-30.7046-.02788-46.05655-.01265-3.18304-.35685-6.36585-.5874-9.54632-.15183-2.09212-2.96231-4.79132-5.15892-4.93893-3.18139-.21416-6.36652-.377-9.55096-.54382-3.81987-.20033-7.64231-.35544-11.46054-.58178-2.27416-.13449-4.30886-2.6029-4.60549-5.30257-.28117-2.55792-.25375-5.07647.28726-7.60486.47236-2.20739,3.08954-4.58138,5.39393-4.6737,6.3848-.2561,12.77405-.42386,19.15557-.74673,4.91688-.24883,6.6819-3.2128,6.85528-7.52356.20595-5.10951.1844-10.22932.22259-15.34492.04756-6.39631.01218-12.79356.10755-19.18894.02835-1.90725.3791-3.80934.57545-5.71448.11528-1.11975,2.74792-3.55184,3.99114-3.68305.63075-.06678,1.24135-.39715,1.86764-.41988,14.70261-.53843,29.4064-.59842,44.10784.03725,2.93865.12676,5.77139,3.26318,5.87167,6.47832.15933,5.11091.29288,10.22323.35661,15.33602.08763,7.03503.03866,14.07264.1851,21.10627.03913,1.88054.32568,3.84449.97846,5.59077.39621,1.06117,1.56914,2.18068,2.6453,2.56026,1.77228.6256,3.74489.89435,5.63971.92598,8.95325.14996,17.90954.10778,26.86232.27062,2.52674.04592,5.04762.53234,7.56546.86131,1.40606.18346,3.46162,2.35501,3.83065,3.92439.7404,3.15001.8688,6.28525-.00164,9.44651-.33506,1.21698-2.69099,3.62284-3.92554,3.65986-7.02586.21111-14.05242.38965-21.07874.57827-5.74515.15441-11.51302-.37137-17.2317.62935-1.27719.22376-3.79737,2.40843-4.03051,3.67602-.22962,1.24674-.69752,2.46771-.78492,3.71914-.17784,2.54901-.22774,5.11138-.22892,7.66813-.01312,25.58713-.06139,51.17449.03468,76.76116.0239,6.38741.46837,12.77623.84068,19.15731.2261,3.87518,1.44683,7.52075,3.12797,11.00605,2.98434,6.18661,7.77985,9.96948,14.62904,11.09204,5.73601.94027,11.47226.60451,17.22326.23126,3.79972-.24672,7.61232-.9794,11.4118.04663,1.40864.38051,2.17364,1.22495,2.57407,2.46209.81585,2.52019.78234,5.06757.13777,7.55941-.47353,1.83227-1.30906,3.46234-3.22684,4.46657-9.71849,5.08772-20.0628,8.45024-30.75388,10.5133-11.37619,2.19521-22.94967,2.13523-34.39052.48267-5.00311-.72236-10.00527-2.32525-14.67075-4.31755-7.85014-3.35221-13.94721-8.97907-18.11713-16.50286-3.12539-5.63904-5.4436-11.60071-5.92181-18.0952-.37512-5.09779-.64668-10.21386-.67737-15.3236-.0881-14.71206-.03093-29.42506-.03093-44.13759h-.0164Z" style="fill: rgb(255, 255, 255);"/>
  <path class="cls-2" d="m3974.18684,1073.80725c-15.35047,0-30.7014.04053-46.0514-.04053-2.52346-.01336-5.04575-.54898-7.56523-.86693-1.39435-.1762-3.33462-2.31119-3.5059-4.04904-.12278-1.24932.02366-2.52722.07732-3.79107.09325-2.19545,1.57851-3.6151,3.31564-4.23883,2.37819-.85428,5.03099-.91332,7.47385-1.62796,2.43396-.71229,4.8405-1.64248,7.10247-2.78683,2.9752-1.50448,4.9546-4.04435,5.78967-7.26981.63801-2.46419,1.1652-5.00337,1.32382-7.53527.27999-4.46306.31912-8.9465.32381-13.42127.02648-24.9449.03889-49.88956-.01031-74.83446-.01008-5.11044-.02015-10.24924-.52906-15.32477-.97752-9.74642-6.02631-16.65774-15.29236-20.22668-2.38405-.91848-4.86768-1.57571-7.27071-2.44896-4.42414-1.60781-5.52935-3.557-5.13947-8.82208.10872-1.46769,2.12022-3.75897,3.50637-3.98765,1.88849-.3121,3.76738-.77555,5.66853-.90442,12.7621-.86342,25.51975-1.88124,38.29708-2.4007,10.85205-.44143,21.70551-1.37397,32.58685-.75212,1.3182.07521,3.95694,2.1999,4.19663,3.4785.34982,1.86554.84771,3.7107,1.0764,5.58983.38426,3.16219.43135,6.37546,1.00048,9.49805.1769.97049,1.50377,1.83415,2.47379,2.49981.32756.22517,1.30836-.14996,1.76759-.52438,2.96138-2.41546,5.76155-5.03781,8.80446-7.34197,4.07104-3.08276,8.1613-6.18942,12.51468-8.84059,10.11423-6.15826,21.12443-9.08216,33.00297-7.77966,12.3038,1.3496,21.56329,7.36259,27.33632,18.49071,2.72449,5.25079,3.62141,10.84227,3.67811,16.68913.07053,7.26887-1.86319,13.91097-5.86254,19.92607-6.16971,9.27992-14.91841,13.70314-26.02983,13.35332-6.5364-.20572-12.5688-2.28612-18.09698-5.67067-6.53593-4.00171-9.45044-10.28954-9.97107-17.65424-.26804-3.79365.26195-7.64305.41964-11.46786.07053-1.71324-1.92739-3.56051-3.80417-3.36604-1.87772.19471-3.85548.28164-5.57832.95526-5.40588,2.11367-10.11516,5.39067-14.51915,9.16651-4.65399,3.9907-6.99563,8.83239-6.97361,15.06563.09981,28.14223.03585,56.28517.05084,84.42788.00258,4.49469.42479,8.94041,1.93231,13.22516,1.11623,3.17297,3.2095,5.68121,6.15448,7.02824,3.46091,1.5825,7.15777,2.72849,10.84643,3.70883,3.07361.81656,6.2892,1.08905,9.43099,1.66217,2.44567.44659,4.20366,2.64836,4.45202,5.50572.05483.62981-.01546,1.27673-.08177,1.9103-.2732,2.62024-2.44356,5.12216-4.62986,5.26977-3.1842.21556-6.37191.51688-9.55869.52906-14.71081.056-29.4221.0246-44.13314.0246v-.02976Z" style="fill: rgb(255, 255, 255);"/>
  <path class="cls-2" d="m3402.05463,973.31396c0,19.17418-.04323,38.34883.03245,57.52254.01757,4.46165.18932,8.95306.7438,13.37394.59127,4.7133,3.46466,8.19742,7.43202,10.63514,4.38173,2.69241,9.34489,4.06052,14.15153,5.77728,3.31108,1.18278,4.695,6.22058,2.80099,9.76141-.63579,1.18863-1.5491,2.05228-2.85465,2.42225-1.2096.34279-2.43454.76196-3.67308.84514-2.54736.17104-5.10819.18393-7.66352.1851-26.20474.01125-52.40937.03069-78.61411-.01804-3.82116-.00703-7.64372-.3285-11.46183-.56491-2.27135-.14011-4.37915-2.68889-4.49795-5.31944-.02859-.6338-.08927-1.27673-.0205-1.90303.31912-2.90492,1.99065-4.87403,4.44054-5.48135,3.70623-.91895,7.5514-1.10616,11.15782-2.62797,5.85879-2.47239,9.1073-6.87594,10.06362-12.96484.49274-3.13689.57381-6.36234.57791-9.5482.03866-30.03964.02941-60.07952.00246-90.11916-.00223-2.55136-.00586-5.13762-.39691-7.64727-1.26325-8.11003-5.41162-14.32967-12.96079-17.78732-4.04375-1.85195-8.3908-3.03707-12.58509-4.56685-3.14788-1.14786-4.59952-3.6301-4.46233-7.56058.02191-.62677.28937-1.24159.35075-1.87117.13484-1.3817.82159-2.41171,2.22074-2.81542,1.81235-.52297,3.65-1.18301,5.50616-1.29501,17.22256-1.04219,34.44816-2.04619,51.68033-2.91289,7.01496-.35286,14.04773-.40019,21.07335-.43698,1.20526-.00633,2.56704.5143,3.57947,1.20035,1.00376.68042,2.02322,1.75542,2.39483,2.87095,1.01794,3.05464.95139,6.29064.95128,9.48868-.00059,20.45255-.00023,40.90511-.00023,61.35766h.03093Z" style="fill: rgb(255, 255, 255);"/>
  <path class="cls-2" d="m2577.44201,973.46626c0,18.5125-.0253,37.025.01828,55.5375.01054,4.46353.0314,8.94626.43499,13.38519.5662,6.22738,4.11603,10.70965,9.56115,13.39479,3.98259,1.96419,8.32109,3.2046,12.49511,4.78335,3.37598,1.27697,4.73787,5.74119,2.97579,9.7108-.55882,1.25893-1.48069,2.10008-2.77124,2.45014-1.21733.33014-2.43794.76969-3.67952.86248-2.5422.19002-5.09941.24063-7.65051.24204-26.81112.015-53.62213.0239-80.43325-.01078-3.18514-.00422-6.37215-.24251-9.55424-.43885-3.14659-.19401-5.35363-3.12986-5.22956-6.82064.0922-2.74934,1.82383-5.27352,4.07538-5.77611,1.86424-.41566,3.7743-.64668,5.61499-1.14224,2.44907-.65934,4.94676-1.27814,7.25196-2.30135,4.99186-2.21536,8.14771-6.03501,8.87089-11.55948.33025-2.52324.52789-5.08373.53129-7.62759.04124-31.27959.03889-62.55941.03362-93.839-.00035-1.91358-.05284-3.83231-.19564-5.73979-.68733-9.17588-5.66666-15.31915-13.74091-19.20792-4.59834-2.21489-9.9706-2.45318-14.24466-5.43613-.94073-.65629-1.82582-1.93326-1.99206-3.0366-.27695-1.83766-.23606-3.84004.22997-5.62732.26277-1.00798,1.51829-1.96137,2.55427-2.50777,1.08542-.57264,2.43056-.77649,3.68479-.88638,24.17438-2.12726,48.40463-3.16664,72.66312-3.59659,1.24146-.02226,2.48562.46158,3.73856.63989,1.23174.17526,3.85794,2.62774,3.95588,3.75358.27589,3.16945.73689,6.34031.74743,9.51188.06783,20.42772.03468,40.8552.03468,61.28291h.01945Z" style="fill: rgb(255, 255, 255);"/>
  <path class="cls-2" d="m3402.70834,834.04869c.10485,7.4767-2.49441,13.87067-7.19374,19.41341-7.54437,8.89893-17.38036,12.76428-28.85906,12.29473-10.00809-.4091-18.52775-4.34637-25.22758-11.94186-8.75503-9.92496-10.15933-24.49784-2.98809-35.57769,6.24785-9.65316,15.08804-15.43817,26.84475-16.0626,2.54197-.13519,5.1192-.15441,7.64782.097,11.68735,1.16356,20.18698,7.28129,26.07131,17.22874,2.6583,4.49399,3.88641,9.41441,3.70459,14.54828Z" style="fill: rgb(255, 255, 255);"/>
  <path class="cls-2" d="m2577.98513,834.6136c.17772,8.05075-2.93056,14.79454-8.48745,20.58728-7.59065,7.91321-17.01555,11.04541-27.71331,10.53369-8.55868-.40957-16.11078-3.50498-22.42049-9.46595-5.82469-5.50291-9.0308-12.27294-9.90944-20.1592-.20923-1.87843-.17444-3.85199.1523-5.71074,2.30193-13.09559,10.05905-21.7656,22.2259-26.56114,4.81215-1.89671,9.97528-1.94825,15.11393-1.71184,8.71625.40066,16.00207,3.91994,22.10148,10.03579,6.16479,6.18075,9.39444,13.56068,8.93708,22.45212Z" style="fill: rgb(255, 255, 255);"/>
  <path class="cls-2" d="M 1174.37 651.181 C 1174.12 638.351 1176.69 626.281 1181.44 614.641 C 1194.35 583.001 1216.77 558.941 1248.29 542.311 C 1259.51 536.401 1271.62 532.651 1284.27 530.411 C 1285.57 530.181 1286.88 529.991 1288.19 529.891 C 1297.88 529.121 1307.6 528.921 1317.23 530.181 C 1328.16 531.621 1338.82 534.201 1349.03 538.261 C 1370.19 546.671 1387.71 559.431 1401.53 576.611 C 1403.91 579.571 1406.21 582.571 1408.56 585.551 C 1409.23 586.391 1411.4 586.341 1412.05 585.491 C 1414.36 582.481 1416.61 579.441 1418.98 576.471 C 1435.6 555.691 1457.11 541.331 1483.65 533.631 C 1500.76 528.671 1518.19 527.371 1535.93 529.721 C 1541.18 530.411 1546.24 531.871 1551.27 533.391 C 1559.26 535.821 1566.82 539.171 1574.06 543.161 C 1606.58 561.071 1631.23 591.561 1641.41 621.401 C 1644.65 630.901 1646.54 640.591 1646.8 650.511 C 1647.09 661.311 1645.09 671.821 1641.47 682.081 C 1638.7 689.921 1635.3 697.511 1631.35 704.881 C 1626.21 714.451 1620.71 723.841 1614.89 733.071 C 1608.16 743.741 1600.38 753.711 1592 763.291 C 1583.91 772.541 1575.82 781.801 1568.01 791.241 C 1544.25 819.961 1522.74 850.091 1503.67 881.721 C 1494.36 897.151 1485.73 912.901 1477.98 929.081 C 1474.54 936.241 1471.74 943.571 1469.65 951.171 C 1464.48 969.931 1460.2 988.831 1457.29 1008.02 C 1455.25 1021.49 1453.95 1035.02 1452.72 1048.55 C 1452.64 1049.37 1452.49 1050.19 1452.41 1051.01 C 1452.27 1052.55 1450.6 1054.2 1449.08 1054.31 C 1443.37 1054.71 1432.57 1054.44 1426.7 1053.75 C 1425.88 1053.65 1423.98 1052.06 1423.93 1051.37 C 1423.77 1048.91 1423.49 1046.45 1423.48 1043.99 C 1423.39 1025.45 1423.43 1006.91 1423.29 988.381 C 1423.11 963.671 1422.81 938.951 1422.54 914.241 C 1422.51 911.361 1422.4 908.481 1422.31 905.591 C 1421.71 884.591 1421.12 863.601 1420.49 842.601 C 1420.3 836.421 1420.02 830.251 1419.71 824.081 C 1419.21 813.791 1418.61 803.511 1418.12 793.221 C 1417.76 785.821 1417.37 778.421 1416.46 771.041 C 1415.91 766.541 1415.71 762.011 1415.33 757.491 C 1414.86 751.741 1414.06 746.041 1412.25 740.501 C 1412.13 740.131 1411.68 739.521 1411.5 739.551 C 1410.73 739.711 1409.82 739.901 1409.29 740.381 C 1408.7 740.921 1408.23 741.751 1408.1 742.511 C 1406.62 751.051 1405.37 759.611 1404.81 768.261 C 1404.33 775.661 1403.67 783.051 1403.16 790.451 C 1402.82 795.381 1402.58 800.321 1402.35 805.251 C 1401.76 817.601 1401.14 829.941 1400.66 842.291 C 1400.25 852.991 1399.93 863.691 1399.69 874.401 C 1399.12 900.761 1398.49 927.111 1398.14 953.471 C 1397.76 981.481 1397.69 1009.49 1397.47 1037.5 C 1397.44 1041.61 1397.39 1045.73 1397.27 1049.85 C 1397.25 1050.63 1396.94 1051.44 1396.65 1052.2 C 1396.33 1053.04 1395.68 1053.59 1394.84 1053.8 C 1393.99 1054.01 1393.12 1054.25 1392.26 1054.28 C 1386.98 1054.51 1381.69 1054.71 1376.41 1054.86 C 1375.55 1054.89 1374.69 1054.61 1373.82 1054.49 C 1372.83 1054.35 1371.29 1052.9 1371.21 1052 C 1371.03 1049.95 1370.79 1047.9 1370.72 1045.84 C 1370.23 1031 1368.35 1016.3 1365.72 1001.66 C 1362.88 985.781 1358.73 970.231 1353.38 954.951 C 1345.94 933.731 1335.98 913.581 1323.64 894.471 C 1317.96 885.651 1312.15 876.891 1306.05 868.321 C 1297.03 855.631 1287.77 843.091 1278.5 830.551 C 1254.7 798.361 1230.83 766.221 1207.02 734.031 C 1203.51 729.291 1200.03 724.531 1196.76 719.641 C 1189.24 708.421 1183.23 696.561 1179.33 683.781 C 1176.04 673.011 1174.14 662.091 1174.37 651.181 Z" style="fill: rgb(255, 255, 255);"/>
  <path class="cls-2" d="M 1063.14 689.641 C 1075.69 689.491 1086.17 690.601 1096.47 693.071 C 1102.03 694.401 1107.38 696.311 1112.58 698.571 C 1121.4 702.391 1129.71 707.031 1137.73 712.151 C 1147.56 718.421 1156.93 725.271 1165.97 732.501 C 1189.79 751.551 1211.64 772.451 1232 794.691 C 1243.46 807.211 1254.51 820.041 1265.03 833.261 C 1296.53 872.841 1321.12 915.901 1339.58 962.061 C 1345.3 976.351 1349.91 990.941 1353.12 1005.9 C 1354.93 1014.38 1356.67 1022.86 1357.51 1031.49 C 1358.1 1037.63 1359.4 1043.72 1359.49 1049.91 C 1359.5 1051.13 1359.4 1052.4 1359.05 1053.56 C 1358.83 1054.26 1358.12 1054.97 1357.43 1055.38 C 1356.73 1055.8 1355.79 1056.04 1354.94 1056.07 C 1344.36 1056.5 1333.89 1057.95 1323.37 1058.91 C 1314.61 1059.71 1305.92 1061.14 1297.21 1062.32 C 1294.16 1062.74 1291.13 1063.29 1288.08 1063.72 C 1285.3 1064.1 1282.92 1063.45 1280.99 1061.38 C 1278.1 1058.27 1275.15 1055.22 1272.12 1052.23 C 1268.17 1048.32 1263.66 1045.02 1258.77 1042.19 C 1254.65 1039.79 1250.29 1037.79 1245.59 1036.58 C 1234.84 1033.81 1227.97 1034.04 1217.05 1037.42 C 1206.85 1040.57 1197.85 1045.63 1189.96 1052.4 C 1184.09 1057.43 1178.94 1063.06 1174.47 1069.21 C 1171.75 1072.96 1169.18 1076.8 1166.47 1080.55 C 1159.04 1090.86 1150.28 1100.05 1139.95 1107.91 C 1126.78 1117.93 1112.07 1125.15 1095.57 1129.05 C 1080.46 1132.63 1065.2 1133.55 1049.7 1131.61 C 1035.6 1129.84 1022.06 1126.39 1009.38 1120.36 C 974.819 1103.93 952.688 1078.05 942.588 1043.12 C 930.015 994.321 950.781 946.651 990.699 919.511 C 994.254 917.091 997.875 914.761 1001.46 912.381 C 1002.33 911.801 1002.16 909.871 1001.16 909.201 C 997.928 907.071 994.643 905.001 991.449 902.821 C 972.137 889.631 957.764 872.781 948.625 852.091 C 940.564 833.851 937.5 814.841 939.768 795.251 C 945.547 745.331 982.586 706.291 1032.38 693.471 C 1043.05 690.721 1053.98 689.511 1063.14 689.641 Z" style="fill: rgb(255, 255, 255);"/>
  <path class="cls-2" d="M 1755.59 691.631 C 1813.12 691.641 1860.82 726.101 1876.89 773.581 C 1879.15 780.271 1880.96 787.051 1881.66 794.061 C 1881.9 796.521 1882.33 798.971 1882.54 801.431 C 1882.78 804.301 1883.07 807.191 1882.98 810.061 C 1882.18 838.181 1872.76 863.351 1853.37 885.061 C 1845.98 893.341 1837.48 900.471 1828 906.601 C 1825.47 908.231 1822.58 909.441 1820.61 911.711 C 1820.16 912.221 1820.07 913.331 1820.34 913.971 C 1820.63 914.661 1821.46 915.221 1822.17 915.681 C 1825.05 917.571 1828.05 919.321 1830.89 921.271 C 1852.88 936.361 1868.28 955.961 1876.83 980.191 C 1881.14 992.411 1883.45 1004.99 1883.16 1017.85 C 1881.78 1077.37 1837.76 1119.33 1788.27 1130.84 C 1769.56 1135.19 1750.78 1135.95 1731.92 1132.38 C 1715.73 1129.32 1700.94 1123.08 1687.55 1113.97 C 1674.94 1105.4 1664.41 1094.97 1655.73 1082.89 C 1653.28 1079.47 1650.93 1075.98 1648.47 1072.56 C 1643.79 1066.04 1638.45 1060.03 1632.26 1054.69 C 1622.34 1046.12 1610.81 1040.36 1597.58 1037.64 C 1591.9 1036.46 1586.22 1036.49 1580.54 1037.65 C 1573.56 1039.08 1567.16 1041.73 1561.26 1045.46 C 1556.86 1048.24 1552.8 1051.4 1549.12 1054.97 C 1546.68 1057.35 1544.33 1059.81 1541.81 1062.12 C 1540.88 1062.97 1539.52 1063.29 1538.15 1063.22 C 1537.27 1063.18 1536.38 1063.2 1535.52 1063.05 C 1522.95 1060.89 1510.29 1059.35 1497.57 1058.16 C 1488.35 1057.31 1479.16 1056.39 1469.91 1055.97 C 1468.59 1055.92 1467.29 1055.65 1465.98 1055.5 C 1464.73 1055.37 1462.86 1053.18 1462.92 1051.87 C 1463.09 1048.17 1463.06 1044.45 1463.49 1040.78 C 1464.93 1028.5 1466.84 1016.28 1469.7 1004.2 C 1473.6 987.681 1479.07 971.621 1485.71 955.891 C 1506.56 906.511 1534.45 860.941 1569.97 819.461 C 1588.44 797.891 1607.82 777.101 1628.98 757.781 C 1640.97 746.831 1653.33 736.281 1666.46 726.531 C 1674.74 720.371 1683.28 714.551 1692.3 709.351 C 1698.31 705.891 1704.48 702.721 1710.93 700.021 C 1720.25 696.111 1729.99 693.641 1740.14 692.621 C 1745.84 692.051 1751.53 691.331 1755.59 691.631 Z" style="fill: rgb(255, 255, 255);"/>
  <path class="cls-2" d="M 1377.75 1155.57 C 1382.59 1155.79 1387.43 1156 1392.27 1156.25 C 1393.14 1156.29 1394 1156.53 1394.87 1156.64 C 1396.4 1156.84 1398.28 1158.52 1398.37 1159.88 C 1398.58 1162.75 1398.82 1165.62 1398.89 1168.49 C 1399.34 1189.08 1399.7 1209.66 1400.19 1230.25 C 1400.34 1236.83 1400.81 1243.41 1401.1 1249.99 C 1401.49 1259.04 1401.9 1268.09 1402.21 1277.15 C 1402.48 1284.97 1402.87 1292.78 1403.64 1300.58 C 1404.08 1305.08 1404.41 1309.61 1404.6 1314.13 C 1405.02 1323.61 1406.46 1332.99 1407.84 1342.37 C 1407.96 1343.16 1408.37 1343.92 1408.68 1344.68 C 1409.03 1345.53 1409.7 1345.98 1410.61 1346.21 C 1411.46 1346.42 1412.08 1346.12 1412.39 1345.09 C 1414.04 1339.52 1414.9 1333.82 1415.35 1328.06 C 1416.58 1312.46 1418.38 1296.89 1418.56 1281.23 C 1418.59 1279.17 1418.73 1277.11 1418.89 1275.06 C 1420.35 1256.57 1420.57 1238.04 1421.06 1219.51 C 1421.35 1208.81 1421.75 1198.11 1422.06 1187.41 C 1422.29 1179.59 1422.46 1171.77 1422.68 1163.95 C 1422.72 1162.72 1422.86 1161.49 1422.97 1160.25 C 1423.13 1158.33 1425.1 1156.75 1427.51 1156.58 C 1427.95 1156.54 1428.38 1156.45 1428.82 1156.43 C 1437.18 1156.12 1445.55 1155.79 1453.92 1155.54 C 1455.21 1155.51 1456.56 1155.68 1457.79 1156.03 C 1458.54 1156.25 1459.44 1156.88 1459.7 1157.52 C 1461.43 1161.77 1462.08 1166.27 1462.97 1170.72 C 1465.71 1184.48 1469.05 1198.11 1473.47 1211.5 C 1475.68 1218.19 1478.26 1224.75 1481.29 1231.16 C 1486.7 1242.63 1494.3 1252.59 1504.18 1261.08 C 1514.97 1270.36 1527 1277.88 1540.25 1283.71 C 1553.47 1289.53 1567.27 1293.67 1581.61 1296.25 C 1582.89 1296.47 1584.1 1296.98 1585.34 1297.37 C 1586.33 1297.68 1587.11 1299.52 1586.68 1300.51 C 1586.03 1302.03 1585.46 1303.59 1584.7 1305.07 C 1549.61 1373.74 1489.03 1421.86 1420.04 1445.56 C 1419.21 1445.85 1418.39 1446.15 1417.57 1446.45 C 1413.67 1447.89 1409.87 1447.64 1406.05 1446.05 C 1334.37 1416.41 1280.84 1368.98 1245.86 1303.37 C 1245.27 1302.27 1244.87 1301.08 1244.38 1299.94 C 1244.04 1299.13 1245.05 1297.16 1245.98 1296.86 C 1249.73 1295.68 1253.5 1294.54 1257.22 1293.29 C 1271.79 1288.38 1285.58 1282.04 1298.24 1273.62 C 1304.35 1269.55 1310.08 1265.06 1315.51 1260.22 C 1324.23 1252.46 1331.07 1243.47 1336.35 1233.37 C 1341.78 1222.98 1345.85 1212.12 1349.27 1201.03 C 1352.45 1190.75 1355.18 1180.36 1357.43 1169.86 C 1358.3 1165.83 1359.41 1161.85 1360.4 1157.84 C 1360.61 1157 1362.32 1155.58 1363.23 1155.56 C 1366.31 1155.49 1369.39 1155.43 1372.46 1155.39 C 1374.22 1155.36 1375.99 1155.38 1377.75 1155.38 C 1377.75 1155.44 1377.75 1155.51 1377.75 1155.57 Z" style="fill: rgb(255, 255, 255);"/>
  <path class="cls-2" d="M 1411.36 1071.14 C 1431.22 1071.15 1451.04 1071.77 1470.85 1072.96 C 1474.81 1073.19 1478.77 1073.29 1482.74 1073.48 C 1489.78 1073.81 1496.83 1074.04 1503.82 1075.06 C 1505.56 1075.31 1507.33 1075.44 1509.08 1075.55 C 1523.62 1076.46 1537.98 1078.61 1552.31 1080.96 C 1559.69 1082.18 1566.95 1083.95 1574.06 1086.17 C 1577.83 1087.34 1581.45 1088.86 1584.83 1090.84 C 1587.09 1092.16 1589.15 1093.7 1590.87 1095.6 C 1593.5 1098.5 1595.15 1101.78 1595.36 1105.66 C 1595.63 1110.48 1593.79 1114.52 1590.39 1118.03 C 1588.6 1119.88 1586.51 1121.37 1584.22 1122.63 C 1580.01 1124.94 1575.5 1126.55 1570.86 1127.94 C 1564.97 1129.69 1558.95 1131.01 1552.9 1132.04 C 1545.1 1133.38 1537.26 1134.52 1529.41 1135.59 C 1515.43 1137.49 1501.31 1137.92 1487.3 1139.52 C 1485.56 1139.72 1483.79 1139.8 1482.03 1139.86 C 1455.15 1140.77 1428.29 1142.23 1401.38 1141.65 C 1381.11 1141.22 1360.84 1140.44 1340.57 1139.82 C 1326.57 1138.25 1312.41 1138.16 1298.47 1135.94 C 1290.52 1135.56 1282.75 1133.97 1274.92 1132.81 C 1267.08 1131.65 1259.36 1129.93 1251.77 1127.72 C 1247.56 1126.5 1243.47 1124.95 1239.62 1122.91 C 1236.92 1121.48 1234.47 1119.73 1232.47 1117.49 C 1229.56 1114.23 1227.79 1110.56 1227.89 1106.21 C 1227.97 1102.32 1229.56 1099 1232.08 1096.03 C 1234.02 1093.75 1236.43 1091.98 1239.11 1090.49 C 1242.55 1088.58 1246.22 1087.22 1249.96 1085.96 C 1255.36 1084.13 1260.95 1082.89 1266.56 1081.84 C 1273.89 1080.46 1281.27 1079.26 1288.69 1078.21 C 1300.9 1076.46 1313.24 1075.83 1325.48 1074.35 C 1328.97 1073.93 1332.51 1073.85 1336.03 1073.68 C 1347.48 1073.11 1358.92 1072.43 1370.37 1072.05 C 1384.03 1071.61 1397.7 1071.44 1411.36 1071.14 Z M 1410.11 1116.14 C 1423.97 1115.97 1436.31 1115.9 1448.65 1115.65 C 1457.47 1115.46 1466.3 1115.35 1475.07 1114.63 C 1490.44 1113.38 1505.87 1112.88 1521.18 1110.88 C 1527.73 1110.02 1534.27 1109.19 1540.75 1107.97 C 1541.86 1107.76 1542.32 1107.15 1542.03 1106.56 C 1541.86 1106.2 1541.55 1105.8 1541.2 1105.64 C 1538.78 1104.59 1536.21 1103.99 1533.58 1103.69 C 1530.08 1103.28 1526.56 1103.03 1523.07 1102.59 C 1505.58 1100.38 1488.01 1099.06 1470.4 1098.28 C 1464.23 1098.01 1458.06 1097.83 1451.89 1097.67 C 1433.82 1097.22 1415.76 1096.59 1397.68 1097.04 C 1391.51 1097.2 1385.34 1097.33 1379.17 1097.47 C 1344.93 1098.21 1323.4 1099.72 1290.87 1103.56 C 1287.79 1103.92 1284.78 1104.51 1281.93 1105.69 C 1281.58 1105.84 1281.25 1106.26 1281.11 1106.62 C 1280.89 1107.19 1281.4 1107.78 1282.5 1107.98 C 1286.82 1108.75 1291.14 1109.71 1295.51 1110.13 C 1307.78 1111.33 1319.99 1113.14 1332.35 1113.5 C 1334.99 1113.58 1337.64 1113.74 1340.27 1114.01 C 1350.36 1115.07 1360.49 1115.35 1370.63 1115.56 C 1384.29 1115.84 1397.96 1115.97 1410.11 1116.14 Z" style="fill: rgb(255, 255, 255);"/>
  <path class="cls-2" d="M 1589.92 1283.39 C 1564.25 1283.26 1542.97 1275.69 1524.98 1260.21 C 1517.82 1254.04 1511.53 1247.18 1505.97 1239.73 C 1500.67 1232.64 1496.05 1225.16 1491.96 1217.39 C 1482.57 1199.59 1476.06 1180.85 1471.26 1161.56 C 1470.97 1160.38 1471.08 1159.11 1470.95 1157.89 C 1470.85 1156.98 1472.18 1155.23 1473.08 1155.13 C 1479.19 1154.44 1485.3 1153.62 1491.43 1153.11 C 1498.89 1152.49 1506.36 1152.05 1513.74 1150.77 C 1515.9 1150.39 1518.12 1150.33 1520.3 1150.11 C 1525.87 1149.55 1527.45 1150.29 1529.35 1154.98 C 1532.17 1161.92 1535.68 1168.55 1539.79 1174.91 C 1544.83 1182.7 1550.81 1189.78 1557.9 1196.03 C 1563.39 1200.86 1569.43 1204.97 1576.24 1208.01 C 1588.92 1213.69 1602.12 1215.69 1616.06 1213.1 C 1624.32 1211.58 1632.28 1209.27 1639.89 1205.97 C 1645.47 1203.54 1650.92 1200.82 1656.35 1198.12 C 1661.01 1195.8 1665.54 1193.23 1670.21 1190.93 C 1673.7 1189.2 1677.31 1187.67 1680.92 1186.13 C 1682.11 1185.63 1683.39 1185.23 1684.68 1185.02 C 1690.45 1184.07 1694.93 1185.36 1696.97 1191.51 C 1697.9 1194.32 1698.18 1197.19 1697.76 1200.05 C 1697.03 1204.94 1696.06 1209.79 1694.22 1214.45 C 1683.29 1242.06 1663.97 1262.37 1634.82 1274.11 C 1620.08 1280.05 1604.69 1283.15 1589.92 1283.39 Z" style="fill: rgb(255, 255, 255);"/>
  <path class="cls-2" d="M 1232.7 1281.21 C 1208.28 1280.65 1185.88 1274.15 1165.93 1260.84 C 1150.9 1250.81 1140 1237.51 1132.01 1222.04 C 1129.31 1216.83 1127.27 1211.41 1125.67 1205.83 C 1124.28 1201 1123.96 1196.11 1124.58 1191.15 C 1124.84 1189.05 1125.75 1187.21 1127.16 1185.57 C 1128.94 1183.51 1131.27 1182.44 1134.06 1182.57 C 1135.79 1182.65 1137.56 1182.96 1139.22 1183.44 C 1143.02 1184.54 1146.59 1186.17 1150.07 1187.94 C 1154.72 1190.31 1159.27 1192.82 1163.93 1195.15 C 1169.75 1198.06 1175.57 1201 1181.53 1203.65 C 1188.7 1206.84 1196.25 1209.09 1204.03 1210.7 C 1211.45 1212.23 1218.91 1212.43 1226.36 1211.54 C 1231.6 1210.92 1236.69 1209.57 1241.62 1207.68 C 1249.88 1204.51 1257.15 1199.95 1263.69 1194.33 C 1271.21 1187.87 1277.38 1180.39 1282.59 1172.21 C 1285.98 1166.91 1288.97 1161.41 1291.45 1155.66 C 1292.26 1153.76 1293.33 1151.95 1294.29 1150.1 C 1294.69 1149.34 1296.66 1148.54 1297.74 1148.67 C 1302.09 1149.22 1306.47 1149.71 1310.81 1150.32 C 1321.28 1151.79 1331.79 1152.76 1342.33 1153.55 C 1344.5 1153.72 1346.63 1154.34 1348.77 1154.79 C 1349.97 1155.05 1351.1 1156.56 1350.94 1157.52 C 1349.97 1163.22 1348.35 1168.77 1346.66 1174.3 C 1342.06 1189.38 1336.25 1204.01 1328.58 1217.98 C 1324.15 1226.06 1319.14 1233.79 1313.35 1241.08 C 1306.75 1249.39 1299.25 1256.89 1290.51 1263.26 C 1281.73 1269.66 1272.08 1274.52 1261.4 1277.49 C 1252.05 1280.08 1242.51 1281.51 1232.7 1281.21 Z" style="fill: rgb(255, 255, 255);"/>
  <path class="cls-2" d="M 1332.66 1637.28 C 1329.57 1637.28 1326.49 1637.23 1323.41 1637.29 C 1306.54 1637.62 1290.17 1640.57 1274.17 1645.46 C 1273.35 1645.71 1272.64 1646.25 1271.86 1646.63 C 1270.81 1647.15 1270.64 1649 1271.45 1649.8 C 1272.98 1651.33 1274.85 1652.41 1276.76 1653.42 C 1280.23 1655.24 1283.88 1656.63 1287.69 1657.72 C 1289.34 1658.19 1290.88 1659.03 1292.43 1659.78 C 1293.35 1660.23 1293.6 1661.02 1293.27 1661.91 C 1292.83 1663.06 1292.47 1664.25 1291.91 1665.35 C 1288.83 1671.31 1284.8 1676.7 1280.45 1681.9 C 1278.7 1683.98 1276.3 1684.46 1273.35 1683.41 C 1262.5 1679.56 1252.87 1673.92 1244.57 1666.33 C 1243.31 1665.18 1242.04 1664.03 1240.76 1662.9 C 1239.58 1661.87 1237.1 1661.47 1235.83 1662.16 C 1232.04 1664.25 1228.19 1666.25 1224.53 1668.51 C 1219.76 1671.46 1215.16 1674.66 1210.45 1677.69 C 1209 1678.63 1207.46 1679.43 1205.93 1680.23 C 1205.16 1680.63 1204.3 1680.49 1203.46 1680.03 C 1203.08 1679.82 1202.65 1679.67 1202.32 1679.41 C 1196.22 1674.68 1190.12 1669.95 1184.07 1665.17 C 1183.43 1664.67 1182.65 1663.82 1182.69 1663.17 C 1182.76 1661.96 1183.65 1660.92 1184.67 1660.1 C 1185.34 1659.56 1186.06 1659.08 1186.76 1658.59 C 1196.24 1651.87 1205.91 1645.41 1216.06 1639.6 C 1217.93 1638.53 1219.78 1637.4 1221.47 1636.11 C 1222.06 1635.65 1222.42 1634.66 1222.45 1633.9 C 1222.51 1632.27 1222.5 1630.59 1222.15 1629 C 1219.68 1617.97 1219.91 1606.97 1221.87 1595.87 C 1223.1 1588.95 1224.69 1582.15 1226.67 1575.4 C 1227.13 1573.82 1227.4 1572.19 1227.74 1570.58 C 1227.92 1569.71 1226.98 1567.83 1226.15 1567.37 C 1224.64 1566.54 1223.16 1565.66 1221.6 1564.91 C 1202.38 1555.73 1182.69 1547.5 1163.03 1539.21 C 1160.23 1538.03 1157.25 1537.18 1154.83 1535.3 C 1154.1 1534.73 1154.04 1534.04 1154.86 1533.28 C 1155.47 1532.71 1156.11 1532.05 1156.88 1531.76 C 1166.27 1528.18 1175.36 1524.04 1184.11 1519.23 C 1185.7 1518.36 1187.51 1518.38 1189.21 1519.01 C 1191.66 1519.92 1194.1 1520.87 1196.49 1521.93 C 1208.02 1527.04 1219.54 1532.19 1231.06 1537.34 C 1233.44 1538.4 1235.79 1539.53 1238.17 1540.59 C 1242.86 1542.67 1244.09 1542.51 1247.57 1539.47 C 1247.89 1539.19 1248.21 1538.91 1248.52 1538.61 C 1259.59 1528.19 1272.97 1521.23 1287.47 1515.93 C 1291.17 1514.58 1294.94 1513.5 1298.82 1512.68 C 1300.7 1512.29 1302.76 1513.14 1303.47 1514.28 C 1305.68 1517.84 1307.73 1521.48 1309.89 1525.06 C 1312.04 1528.64 1315.16 1531.67 1316.7 1535.58 C 1317.05 1536.48 1316.73 1537.34 1315.94 1537.64 C 1312.26 1539.03 1308.35 1539.68 1304.56 1540.72 C 1296.05 1543.05 1288.1 1546.52 1280.7 1551.07 C 1280.01 1551.5 1279.52 1552.24 1279.05 1552.91 C 1278.43 1553.8 1278.66 1554.5 1279.56 1554.95 C 1283.07 1556.72 1287.29 1556.46 1290.76 1558.34 C 1291.1 1558.53 1291.51 1558.88 1291.55 1559.2 C 1291.6 1559.55 1291.37 1560.07 1291.07 1560.31 C 1289.41 1561.64 1287.76 1563.01 1285.97 1564.17 C 1279.44 1568.41 1273.29 1573.07 1267.87 1578.52 C 1266.2 1580.19 1264.17 1580.52 1261.89 1580.36 C 1261.02 1580.3 1260.14 1580.36 1259.27 1580.42 C 1258.39 1580.5 1257.67 1580.95 1257.14 1581.69 C 1256.91 1582.03 1256.67 1582.38 1256.53 1582.76 C 1252.35 1594.6 1250.1 1606.66 1251.75 1619.18 C 1251.87 1620.09 1253.61 1621.41 1254.62 1621.18 C 1255.48 1620.99 1256.35 1620.83 1257.18 1620.58 C 1259.28 1619.95 1261.37 1619.31 1263.45 1618.63 C 1274.29 1615.09 1285.46 1612.78 1296.73 1610.84 C 1298.89 1610.47 1301.08 1610.24 1303.28 1610.08 C 1310.74 1609.54 1318.21 1609.01 1325.68 1608.59 C 1327.91 1608.46 1330.07 1609.05 1331.98 1610.16 C 1341.12 1615.45 1348.66 1622.25 1353.98 1631.05 C 1354.6 1632.08 1354.85 1633.38 1354.98 1634.58 C 1355.07 1635.44 1354.46 1636.21 1353.7 1636.49 C 1352.9 1636.79 1352.01 1637 1351.16 1637.01 C 1344.99 1637.05 1338.82 1637.03 1332.66 1637.03 C 1332.66 1637.12 1332.66 1637.2 1332.66 1637.28 Z" style="fill: rgb(255, 255, 255);"/>
  <path class="cls-2" d="M 1835.38 1418.18 C 1835.21 1422.15 1835 1427.08 1834.76 1432.02 C 1834.68 1433.74 1833.79 1435.18 1832.65 1436.44 C 1831.8 1437.37 1830.74 1438.14 1829.71 1438.92 C 1802.01 1460.04 1772.7 1478.98 1741.78 1495.75 C 1740.27 1496.57 1738.61 1497.14 1737.01 1497.81 C 1735.89 1498.29 1734.1 1497.5 1733.8 1496.54 C 1732.51 1492.55 1733.19 1488.33 1732.09 1484.34 C 1731.77 1483.18 1731.02 1482.13 1729.56 1481.79 C 1727.86 1481.4 1726.18 1480.97 1724.5 1480.53 C 1723.35 1480.22 1721.9 1481.25 1721.89 1482.37 C 1721.88 1484.01 1721.78 1485.66 1721.89 1487.3 C 1722.19 1491.82 1722.48 1496.34 1722.98 1500.84 C 1723.35 1504.24 1721.54 1506.27 1718.62 1507.74 C 1716.3 1508.92 1713.94 1510.03 1711.6 1511.17 C 1698.68 1517.4 1685.52 1523.15 1672.21 1528.59 C 1667.77 1530.4 1663.46 1532.48 1659.03 1534.29 C 1646.92 1539.23 1634.57 1543.57 1621.87 1547.02 C 1620.97 1547.27 1619.02 1545.99 1618.88 1545.09 C 1618.76 1544.28 1618.46 1543.49 1618.43 1542.68 C 1618.13 1535.68 1618.44 1528.69 1619.07 1521.71 C 1619.27 1519.46 1620.56 1517.79 1622.73 1516.97 C 1629.26 1514.51 1635.77 1512 1642.42 1509.83 C 1657.42 1504.92 1671.8 1498.72 1686 1492.14 C 1697.04 1487.02 1707.92 1481.59 1718.86 1476.28 C 1720.39 1475.54 1720.83 1473.72 1719.87 1472.02 C 1718.44 1469.48 1716.99 1466.94 1715.49 1464.43 C 1704.92 1446.85 1694.33 1429.28 1683.75 1411.71 C 1663.45 1378 1643.13 1344.3 1622.86 1310.58 C 1621.36 1308.08 1619.43 1305.74 1618.92 1302.82 C 1618.8 1302.12 1619.21 1301.21 1619.66 1300.57 C 1620.13 1299.92 1620.89 1299.38 1621.64 1298.99 C 1626.28 1296.63 1630.76 1294.02 1635.17 1291.29 C 1637.82 1289.65 1639.88 1290.23 1641.65 1293.03 C 1643.21 1295.51 1644.72 1298.02 1646.23 1300.53 C 1676.04 1350.01 1705.85 1399.5 1735.68 1448.97 C 1737.83 1452.55 1740.15 1456.04 1742.41 1459.56 C 1743.09 1460.61 1744.91 1461.21 1745.81 1460.72 C 1748.47 1459.28 1751.2 1457.94 1753.78 1456.38 C 1778.22 1441.6 1801.49 1425.35 1823.6 1407.66 C 1826.28 1405.52 1828.94 1403.35 1831.7 1401.31 C 1832.29 1400.88 1833.29 1400.88 1834.12 1400.82 C 1835.15 1400.75 1835.97 1402.09 1835.96 1403.65 C 1835.94 1405.29 1835.97 1406.94 1835.9 1408.58 C 1835.78 1411.46 1835.59 1414.34 1835.38 1418.18 Z" style="fill: rgb(255, 255, 255);"/>
  <path class="cls-2" d="M 1399.66 497.723 C 1399.66 484.952 1399.67 472.181 1399.65 459.411 C 1399.64 456.943 1399.5 454.475 1399.4 452.009 C 1399.33 450.256 1398.02 448.73 1396.41 448.511 C 1394.66 448.276 1392.9 448.179 1391.18 447.847 C 1389.9 447.6 1388.61 447.205 1387.45 446.65 C 1382.7 444.379 1380.24 440.713 1380.33 435.705 C 1380.42 430.684 1383.09 427.225 1387.87 425.002 C 1390.72 423.678 1393.84 423.634 1396.82 422.984 C 1397.83 422.765 1399.24 421.391 1399.32 420.47 C 1399.4 419.65 1399.54 418.834 1399.58 418.012 C 1399.64 416.778 1399.65 415.541 1399.65 414.306 C 1399.66 390.412 1399.66 366.519 1399.64 342.625 C 1399.64 340.572 1399.44 338.52 1399.35 336.466 C 1399.28 335.053 1397.45 333.44 1395.81 333.368 C 1394.05 333.291 1392.29 333.125 1390.54 333.181 C 1385.26 333.351 1379.97 333.64 1374.69 333.819 C 1372.49 333.893 1370.29 333.778 1368.09 333.803 C 1367.02 333.815 1366.46 333.391 1366.27 332.375 C 1366.13 331.607 1366.09 330.759 1366.7 330.085 C 1372.94 323.151 1379.22 316.249 1385.5 309.339 C 1385.78 309.025 1386.07 308.711 1386.37 308.414 C 1388.26 306.564 1390.48 305.373 1393.31 305.323 C 1404.33 305.128 1415.35 305.053 1426.37 305.591 C 1437.37 306.129 1448.37 306.718 1459.38 307.349 C 1462.89 307.55 1466.4 307.926 1469.91 308.276 C 1472.1 308.494 1474.27 308.915 1476.46 309.073 C 1492.3 310.214 1507.93 312.819 1523.59 315.182 C 1524.43 315.31 1525.28 315.657 1526.03 316.06 C 1526.85 316.501 1527.25 317.238 1527.18 317.989 C 1527.15 318.376 1526.95 318.886 1526.64 319.091 C 1524.84 320.271 1523.07 321.504 1521.15 322.488 C 1511.09 327.647 1500.61 331.966 1489.95 335.911 C 1487.01 336.995 1483.98 337.331 1480.86 337.061 C 1475.16 336.567 1469.45 336.123 1463.75 335.539 C 1452.35 334.369 1440.91 333.88 1429.45 333.957 C 1427.8 333.968 1426 335.497 1425.85 336.936 C 1425.77 337.754 1425.58 338.566 1425.54 339.385 C 1425.47 341.03 1425.44 342.679 1425.44 344.326 C 1425.44 367.808 1425.43 391.289 1425.45 414.771 C 1425.46 416.827 1425.64 418.883 1425.74 420.939 C 1425.78 421.805 1427.29 423.445 1428.17 423.59 C 1431.19 424.091 1434.23 424.528 1437.23 425.151 C 1443.61 426.479 1447.04 432.554 1446.73 437.061 C 1446.36 442.434 1442.02 447.469 1436.21 448.24 C 1433.6 448.587 1430.97 448.821 1428.35 449.121 C 1427.47 449.222 1426.04 450.825 1425.94 451.792 C 1425.78 453.425 1425.49 455.056 1425.48 456.69 C 1425.42 463.693 1425.44 470.697 1425.44 477.7 C 1425.43 497.062 1425.45 516.421 1425.42 535.781 C 1425.42 538.661 1425.26 541.541 1425.14 544.421 C 1425.08 545.701 1424.42 546.811 1423.64 547.801 C 1421.03 551.121 1418.07 554.161 1414.63 556.771 C 1413.39 557.711 1411.03 557.541 1409.88 556.261 C 1398.01 543.121 1399.82 548.431 1399.68 531.091 C 1399.59 519.971 1399.66 508.845 1399.66 497.723 Z" style="fill: rgb(255, 255, 255);"/>
  <path class="cls-2" d="M 1991.57 625.431 C 1973.42 595.651 1952.81 567.441 1929.74 540.801 C 1925.77 536.231 1924.92 535.321 1917.23 536.121 C 1914.22 536.441 1911.17 536.461 1907.01 536.671 C 1906.87 536.671 1906.74 536.681 1906.6 536.681 C 1903.83 536.681 1899.95 536.641 1896.08 536.701 C 1894.77 536.721 1893.47 537.001 1892.17 537.141 C 1891.01 537.271 1890.39 539.061 1891.01 540.081 C 1892.78 542.971 1895.31 545.301 1897.58 547.811 C 1912.98 564.811 1927.3 582.561 1940.56 601.071 C 1945.71 608.261 1950.65 615.581 1955.59 622.891 C 1957.35 625.491 1959.69 627.131 1962.89 627.741 C 1965.04 628.151 1990.05 630.771 1991.22 630.671 C 1992.31 630.571 1992.71 629.961 1992.66 628.921 C 1992.59 627.661 1992.22 626.501 1991.57 625.431 Z" style="fill: rgb(255, 255, 255);"/>
  <path class="cls-2" d="M 2047.5 743.321 C 2036.76 712.751 2023.76 683.041 2008.18 654.341 C 2006.39 651.031 2004.52 647.761 2002.49 644.581 C 2001.57 643.161 1999.96 642.281 1998.16 642.001 C 1995.67 641.601 1993.74 641.351 1992.91 641.411 C 1988.91 641.681 1979.74 641.861 1967.07 642.081 C 1966.36 641.501 1964.76 640.021 1964.33 639.641 C 1963.7 639.101 1963.16 638.701 1962.81 638.451 C 1962.43 638.191 1961.86 637.861 1961.11 637.641 C 1960.61 637.491 1960.17 637.431 1959.81 637.401 C 1943.59 646.021 1927.36 654.621 1911.13 663.231 C 1891.97 673.401 1872.79 683.551 1853.64 693.751 C 1851.35 694.961 1848.94 696.021 1847.04 697.811 C 1846.26 698.541 1846.08 699.191 1846.7 699.981 C 1846.96 700.301 1847.12 700.721 1847.44 700.991 C 1852.67 705.401 1857.98 709.731 1863.93 713.311 C 1865.02 713.971 1866.33 714.281 1867.66 713.621 C 1869.99 712.451 1872.37 711.371 1874.67 710.151 C 1884.65 704.891 1894.61 699.591 1904.57 694.301 C 1924.89 683.521 1945.2 672.721 1965.52 661.951 C 1967.82 660.731 1970.16 659.591 1972.5 658.441 C 1974.4 657.511 1976.93 658.351 1978.08 660.281 C 1978.73 661.351 1979.36 662.441 1979.97 663.541 C 1990.45 682.611 1999.81 702.141 2008.04 722.151 C 2009.3 725.231 2010.47 728.341 2011.76 731.411 C 2012.91 734.141 2014.66 736.381 2017.41 738.041 C 2027.04 743.881 2037.2 748.801 2047.49 753.501 C 2048.53 753.981 2049.25 753.691 2049.56 752.781 C 2049.69 752.401 2049.9 752.011 2049.9 751.631 C 2049.85 748.681 2048.46 746.031 2047.5 743.321 Z" style="fill: rgb(255, 255, 255);"/>
  <path class="cls-2" d="M 1399.68 1497.22 C 1399.68 1488.56 1399.65 1479.91 1399.7 1471.26 C 1399.71 1469.63 1400.03 1468 1400.22 1466.37 C 1400.32 1465.42 1401.98 1464.54 1403.23 1464.73 C 1406.26 1465.19 1409.12 1466.72 1412.28 1466.22 C 1415.3 1465.73 1418.28 1464.96 1421.28 1464.32 C 1422.86 1463.98 1424.9 1465.39 1425.05 1466.91 C 1425.14 1467.73 1425.34 1468.54 1425.36 1469.35 C 1425.42 1471.41 1425.43 1473.48 1425.43 1475.53 C 1425.43 1489.13 1425.39 1502.73 1425.43 1516.33 C 1425.44 1519.2 1425.69 1522.07 1425.85 1524.94 C 1425.91 1525.88 1427.82 1527.16 1428.78 1526.9 C 1431.31 1526.2 1433.85 1525.52 1436.35 1524.76 C 1441.38 1523.23 1446.38 1521.62 1451.41 1520.09 C 1453.16 1519.56 1454.91 1519.86 1456.52 1520.62 C 1464 1524.16 1471.13 1528.27 1478.22 1532.42 C 1480.83 1533.94 1483.3 1535.66 1485.78 1537.35 C 1486.53 1537.86 1486.8 1538.73 1486.58 1539.59 C 1486.51 1539.89 1486.07 1540.24 1485.73 1540.34 C 1483.63 1540.94 1481.53 1541.57 1479.4 1542.03 C 1476.4 1542.67 1473.26 1542.9 1470.36 1543.79 C 1465.34 1545.32 1460.46 1547.22 1455.52 1548.98 C 1454.57 1549.32 1454.14 1550.01 1454.21 1550.93 C 1454.27 1551.69 1454.76 1552.28 1455.69 1552.65 C 1456.89 1553.12 1458.14 1553.48 1459.28 1554.04 C 1460.16 1554.47 1460.37 1555.31 1460.14 1556.22 C 1460.04 1556.61 1460.06 1557.06 1459.88 1557.41 C 1456.34 1564.04 1452.79 1570.67 1449.23 1577.29 C 1449.03 1577.65 1448.71 1577.94 1448.48 1578.28 C 1448.06 1578.91 1445.75 1579.91 1444.97 1579.74 C 1441.53 1579.01 1438.1 1578.29 1434.68 1577.51 C 1433.4 1577.22 1432.14 1576.8 1430.91 1576.37 C 1422.58 1573.43 1414.07 1571.59 1405.08 1572.21 C 1402.81 1572.37 1400.83 1571.38 1398.86 1570.39 C 1398.17 1570.04 1397.15 1569.96 1396.36 1570.12 C 1394.21 1570.55 1392.08 1571.08 1390 1571.74 C 1379.15 1575.18 1368.25 1578.44 1357.15 1581.16 C 1345.59 1584 1333.88 1585.79 1322.01 1586.79 C 1311.86 1587.64 1301.74 1587.4 1291.64 1586.23 C 1288.16 1585.83 1284.58 1585.89 1281.23 1584.7 C 1280.88 1584.58 1280.57 1584.26 1280.35 1583.95 C 1279.8 1583.17 1279.88 1582.39 1280.42 1581.61 C 1281.64 1579.85 1283.39 1578.6 1285.1 1577.32 C 1293.07 1571.43 1301.6 1566.32 1310.45 1561.66 C 1314.33 1559.61 1318.38 1558.36 1322.91 1557.99 C 1336.41 1556.87 1353.99 1553.02 1362.68 1549.49 C 1363.36 1549.22 1363.42 1548.14 1363.14 1547.34 C 1363.01 1546.97 1362.67 1546.57 1362.31 1546.4 C 1354.06 1542.37 1345.51 1539.15 1336.22 1537.95 C 1332.91 1537.52 1330.59 1535.83 1328.79 1533.33 C 1324.6 1527.52 1320.08 1521.92 1316.57 1515.71 C 1316.16 1514.98 1315.82 1514.22 1315.5 1513.45 C 1314.87 1511.98 1315.98 1509.68 1317.45 1509.49 C 1326.25 1508.32 1335 1508.37 1343.74 1510.02 C 1352.86 1511.74 1361.57 1514.58 1370.09 1518.03 C 1376.98 1520.81 1383.64 1524 1390.32 1527.18 C 1392.27 1528.12 1394.31 1528.9 1396.32 1529.74 C 1397.29 1530.15 1399.19 1529.07 1399.25 1528.08 C 1399.36 1526.03 1399.63 1523.99 1399.64 1521.94 C 1399.69 1513.7 1399.66 1505.46 1399.66 1497.22 L 1399.68 1497.22 Z" style="fill: rgb(255, 255, 255);"/>
  <path class="cls-2" d="M 1199.96 1295.46 C 1199.96 1296.38 1200.11 1296.86 1199.93 1297.17 C 1198.28 1300.07 1196.66 1303 1194.86 1305.83 C 1172.78 1340.5 1150.67 1375.16 1128.57 1409.82 C 1117.06 1427.86 1105.56 1445.9 1094.07 1463.94 C 1092.49 1466.42 1091 1468.94 1089.45 1471.43 C 1088.63 1472.76 1089.1 1475.19 1090.29 1475.88 C 1091.79 1476.75 1093.25 1477.68 1094.79 1478.47 C 1106.76 1484.63 1118.95 1490.38 1131.27 1495.88 C 1135.25 1497.66 1139.37 1499.12 1143.52 1500.5 C 1152.65 1503.55 1161.55 1507.1 1170.16 1511.29 C 1171.23 1511.81 1171.42 1513.69 1170.48 1514.32 C 1170.13 1514.55 1169.87 1514.94 1169.5 1515.14 C 1159.04 1520.56 1147.96 1524.51 1136.38 1527.24 C 1135.2 1527.52 1133.69 1527.25 1132.53 1526.79 C 1128.48 1525.19 1124.52 1523.38 1120.52 1521.66 C 1103.3 1514.24 1086.55 1505.99 1070.1 1497.19 C 1052.88 1487.98 1036.14 1478.06 1019.89 1467.43 C 1018.1 1466.25 1016.41 1464.93 1014.74 1463.6 C 1013.96 1462.98 1013.91 1462.15 1014.41 1461.37 C 1014.62 1461.04 1014.81 1460.67 1015.11 1460.42 C 1015.43 1460.16 1015.85 1459.94 1016.27 1459.84 C 1025.65 1457.57 1035.01 1455.24 1044.2 1452.34 C 1045.91 1451.8 1047.73 1452 1049.3 1452.87 C 1053.84 1455.39 1058.34 1457.99 1062.86 1460.54 C 1063.82 1461.08 1065.7 1460.62 1066.39 1459.75 C 1066.91 1459.09 1067.54 1458.5 1068 1457.8 C 1070.07 1454.64 1072.1 1451.46 1074.13 1448.28 C 1106.61 1397.35 1139.09 1346.42 1171.59 1295.5 C 1173.16 1293.03 1174.48 1290.41 1176.65 1288.3 C 1177.43 1287.54 1179.24 1286.94 1180.2 1287.28 C 1181.02 1287.57 1181.9 1287.75 1182.68 1288.11 C 1187.83 1290.47 1193.2 1292.31 1198.61 1294.07 C 1199.53 1294.37 1199.94 1295.13 1199.96 1295.46 Z" style="fill: rgb(255, 255, 255);"/>
  <path class="cls-2" d="M 844.629 1253.72 C 843.447 1253.72 842.547 1253.83 841.692 1253.7 C 832.148 1252.2 822.561 1250.91 813.201 1248.52 C 811.427 1248.07 810.119 1246.98 809.119 1245.58 C 808.387 1244.56 807.689 1243.51 807.07 1242.42 C 787.82 1208.56 772.107 1173.31 759.705 1136.77 C 759.305 1135.59 759.245 1134.37 759.878 1133.23 C 760.069 1132.89 760.44 1132.39 760.744 1132.38 C 761.609 1132.35 762.543 1132.39 763.343 1132.66 C 772.415 1135.81 781.47 1139 790.27 1142.79 C 791.947 1143.51 793.213 1144.62 793.928 1146.16 C 794.975 1148.42 795.901 1150.73 796.817 1153.04 C 806.614 1177.75 817.794 1201.88 830.826 1225.25 C 832.045 1227.43 833.335 1229.58 834.624 1231.73 C 835.522 1233.23 837.196 1233.61 838.716 1232.74 C 841.718 1231.03 844.69 1229.27 847.747 1227.64 C 898.256 1200.83 948.775 1174.03 999.295 1147.23 C 1002.74 1145.41 1006.26 1143.7 1009.64 1141.77 C 1013.33 1139.65 1016.85 1139.27 1020.78 1141.38 C 1027.33 1144.88 1034.53 1146.8 1041.85 1148.31 C 1042.88 1148.52 1043.25 1149.2 1042.92 1150.2 C 1042.8 1150.58 1042.64 1150.97 1042.39 1151.28 C 1041.32 1152.66 1039.67 1153.32 1038.16 1154.13 C 1027.09 1160.05 1015.99 1165.95 1004.89 1171.83 C 957.434 1197.01 909.972 1222.17 862.513 1247.34 C 860.217 1248.56 857.859 1249.7 855.685 1251.09 C 852.218 1253.3 848.06 1252.73 844.629 1253.72 Z" style="fill: rgb(255, 255, 255);"/>
  <path class="cls-2" d="M 1367.98 1609.06 C 1370.17 1609.21 1372.36 1609.38 1374.56 1609.5 C 1387.33 1610.19 1399.91 1612.02 1412.42 1614.49 C 1416.26 1615.25 1420.15 1616.81 1424.07 1616.07 C 1427.47 1615.43 1430.66 1613.84 1433.93 1612.63 C 1446.22 1608.04 1458.85 1604.63 1471.85 1602.25 C 1479.64 1600.82 1487.49 1599.9 1495.33 1598.92 C 1502.79 1598 1510.26 1597.97 1517.7 1599.12 C 1521.6 1599.72 1525.58 1599.83 1529.39 1600.93 C 1530.82 1601.34 1531.92 1603.51 1531.3 1604.96 C 1528.19 1612.25 1524.37 1619.16 1519.01 1625.26 C 1517.82 1626.61 1516.29 1627.25 1514.44 1627.25 C 1513.56 1627.25 1512.66 1627.35 1511.8 1627.24 C 1503.84 1626.25 1496.01 1627.23 1488.2 1628.58 C 1485.61 1629.03 1483.01 1629.48 1480.41 1629.91 C 1479.4 1630.08 1478.82 1630.52 1478.54 1631.25 C 1478.15 1632.28 1478.87 1633.27 1480.52 1634.01 C 1482.08 1634.71 1483.99 1634.8 1485.18 1636.15 C 1485.72 1636.77 1485.86 1637.66 1485.42 1638.39 C 1485 1639.08 1484.32 1639.67 1483.66 1640.19 C 1475.8 1646.35 1466.68 1650.42 1457.31 1654.04 C 1454.78 1655.01 1452.11 1654.86 1449.53 1654.11 C 1443.66 1652.39 1437.81 1650.6 1431.94 1648.86 C 1430.68 1648.49 1429.41 1648.13 1428.11 1647.95 C 1427.27 1647.84 1426.31 1647.9 1425.53 1648.18 C 1423.48 1648.92 1421.44 1649.72 1419.5 1650.67 C 1411.72 1654.51 1403.98 1658.42 1396.21 1662.28 C 1388.83 1665.95 1381.5 1669.71 1374.04 1673.23 C 1362.61 1678.62 1350.63 1682.65 1338.13 1685.33 C 1324.76 1688.19 1311.27 1689.71 1297.54 1688.56 C 1296.24 1688.45 1294.98 1688.02 1293.71 1687.71 C 1292.72 1687.46 1291.79 1685.46 1292.3 1684.68 C 1292.52 1684.34 1292.59 1683.9 1292.82 1683.57 C 1297.47 1677.06 1301.56 1670.27 1305.2 1663.21 C 1306.16 1661.34 1308.09 1660.16 1310.51 1660.06 C 1310.95 1660.04 1311.39 1659.99 1311.82 1659.96 C 1312.26 1659.93 1312.7 1659.89 1313.14 1659.88 C 1325.62 1659.52 1337.46 1656.46 1349.01 1652.29 C 1357.22 1649.32 1365.2 1645.88 1372.67 1641.48 C 1373.49 1640.99 1373.79 1640.18 1373.61 1639.33 C 1373.46 1638.59 1372.82 1638.09 1371.88 1637.8 C 1371.46 1637.68 1371.03 1637.58 1370.61 1637.46 C 1369.31 1637.07 1368.29 1636.34 1367.69 1635.19 C 1367.3 1634.45 1366.97 1633.69 1366.67 1632.91 C 1364.13 1626.23 1360.05 1620.42 1355.03 1615.15 C 1353.87 1613.94 1352.46 1612.88 1351.86 1611.28 C 1351.73 1610.92 1351.75 1610.5 1351.77 1610.12 C 1351.83 1609.11 1352.43 1608.62 1353.51 1608.57 C 1354.38 1608.53 1355.26 1608.32 1356.12 1608.36 C 1360.08 1608.52 1364.03 1608.74 1367.98 1608.94 L 1367.98 1609.06 Z" style="fill: rgb(255, 255, 255);"/>
  <path class="cls-2" d="M 1959.01 921.241 C 1984.57 921.241 2010.13 921.251 2035.68 921.221 C 2039.64 921.221 2043.61 921.491 2047.54 920.771 C 2049 920.511 2050.64 918.861 2050.66 917.331 C 2050.7 915.281 2050.83 913.221 2050.73 911.171 C 2050.38 903.771 2049.92 896.371 2049.6 888.961 C 2049.57 888.271 2050.12 887.501 2050.56 886.861 C 2050.76 886.571 2051.34 886.391 2051.74 886.401 C 2052.12 886.421 2052.55 886.691 2052.84 886.961 C 2061.03 894.441 2069.18 901.951 2077.38 909.421 C 2079.4 911.251 2080.28 913.501 2080.48 916.031 C 2080.77 919.721 2081.18 923.421 2081.26 927.121 C 2081.57 940.711 2081.74 954.291 2080.78 967.871 C 2080.52 971.561 2080.25 975.261 2080.14 978.971 C 2079.74 992.981 2078.12 1006.91 2076.34 1020.8 C 2075.04 1031 2073.88 1041.25 2071.33 1051.28 C 2071.07 1052.31 2070.64 1052.87 2069.53 1052.64 C 2068.72 1052.47 2067.67 1052.33 2067.21 1051.8 C 2060.55 1044.12 2054.32 1036.14 2048.38 1027.96 C 2046.84 1025.85 2046.28 1023.52 2046.58 1020.93 C 2047.64 1011.93 2048.81 1002.93 2049.56 993.911 C 2050.3 984.881 2050.65 975.821 2051.06 966.771 C 2051.3 961.431 2051.36 956.071 2051.37 950.721 C 2051.37 949.531 2050.99 948.261 2050.46 947.171 C 2050.13 946.511 2049.25 945.961 2048.49 945.641 C 2047.71 945.311 2046.77 945.251 2045.9 945.241 C 2041.5 945.171 2037.09 945.131 2032.69 945.131 C 1987.74 945.131 1942.79 945.131 1897.85 945.121 C 1893.44 945.121 1889.04 945.071 1884.63 945.021 C 1882.25 945.001 1880.32 944.001 1879.17 942.111 C 1875.7 936.361 1871.5 931.071 1867.75 925.501 C 1867.33 924.871 1867.31 923.971 1867.25 923.191 C 1867.19 922.491 1869.14 921.431 1870.45 921.381 C 1871.32 921.341 1872.2 921.271 1873.08 921.271 C 1876.17 921.251 1879.25 921.241 1882.34 921.241 C 1907.9 921.241 1933.45 921.241 1959.01 921.241 Z" style="fill: rgb(255, 255, 255);"/>
  <path class="cls-2" d="M 849.183 945.081 C 824.53 945.081 799.877 945.081 775.223 945.081 C 771.262 945.081 767.298 945.071 763.339 945.181 C 759.835 945.271 757.408 946.161 757.44 950.221 C 757.481 955.561 757.606 960.911 757.875 966.241 C 758.29 974.461 758.877 982.671 759.343 990.891 C 759.435 992.511 759.737 994.181 758.982 995.751 C 758.643 996.461 757.889 996.861 756.904 996.841 C 756.493 996.841 756.022 996.641 755.687 996.401 C 747.691 990.601 739.935 984.531 732.434 978.181 C 729.632 975.811 728.326 972.941 728.271 969.471 C 728.245 967.831 728.077 966.181 728.04 964.541 C 727.563 943.151 727.38 921.761 729.432 900.421 C 729.786 896.731 729.868 893.021 730.194 889.331 C 730.593 884.831 731.103 880.331 731.591 875.831 C 731.946 872.561 732.431 869.291 732.704 866.021 C 733.32 858.621 734.896 851.371 736.13 844.071 C 736.278 843.191 736.99 842.731 738.04 842.761 C 738.444 842.771 738.868 842.911 739.236 843.081 C 739.617 843.251 740.045 843.471 740.274 843.781 C 747.479 853.651 753.609 864.101 759.309 874.781 C 760.508 877.031 760.857 879.461 760.549 881.981 C 759.15 893.441 758.829 904.961 758.24 916.461 C 758.1 919.201 759.97 920.871 763.117 920.991 C 764.436 921.031 765.756 921.091 767.076 921.101 C 770.157 921.121 773.239 921.111 776.321 921.111 C 796.131 921.121 815.942 921.111 835.753 921.111 C 872.292 921.121 908.832 921.101 945.372 921.131 C 949.324 921.131 953.277 921.331 957.228 921.491 C 958.117 921.521 958.988 922.031 959.209 922.871 C 959.39 923.561 959.109 924.391 958.893 925.121 C 958.786 925.491 958.396 925.801 958.082 926.081 C 952.393 931.251 946.922 936.591 942.117 942.511 C 940.696 944.251 938.641 944.921 936.347 945.011 C 935.468 945.051 934.588 945.091 933.709 945.091 C 931.508 945.111 929.306 945.101 927.105 945.101 C 901.131 945.101 875.157 945.101 849.183 945.101 L 849.183 945.081 Z" style="fill: rgb(255, 255, 255);"/>
  <path class="cls-2" d="M 1730.24 418.177 C 1730.41 417.36 1730.17 416.61 1729.5 415.946 C 1727.97 414.417 1726 413.483 1724.1 412.456 C 1704.63 401.948 1684.56 392.552 1664.03 384.004 C 1660.81 382.664 1657.56 381.399 1654.36 380.018 C 1653.16 379.498 1652.26 378.568 1651.61 377.467 C 1652.67 376.757 1653.7 375.99 1654.81 375.357 C 1655.55 374.934 1656.4 374.653 1657.23 374.389 C 1666.41 371.478 1675.5 368.352 1684.37 364.69 C 1686.02 364.006 1687.8 363.991 1689.5 364.634 C 1691.13 365.249 1692.75 365.903 1694.34 366.613 C 1730.98 383.005 1765.77 402.325 1798.68 424.582 C 1799.73 425.291 1800.59 426.242 1801.53 427.089 C 1802.38 427.856 1801.97 429.785 1800.91 430.188 C 1791.91 433.617 1782.5 435.745 1773.08 437.852 C 1770.41 438.45 1767.87 437.995 1765.51 436.568 C 1762.56 434.778 1759.56 433.059 1756.57 431.327 C 1755.3 430.59 1752.77 431.214 1751.92 432.499 C 1749.83 435.646 1747.74 438.794 1745.71 441.975 C 1715.94 488.639 1686.19 535.311 1656.41 581.971 C 1654.38 585.141 1652.62 588.471 1650.06 591.331 C 1649.27 592.211 1647.25 592.461 1646.52 591.641 C 1641.72 586.281 1637.08 580.811 1633.3 574.751 C 1632.92 574.131 1632.85 573.041 1633.17 572.401 C 1634.26 570.161 1635.5 567.981 1636.84 565.861 C 1653.27 540.031 1669.72 514.221 1686.18 488.408 C 1699.93 466.84 1713.7 445.287 1727.43 423.705 C 1728.54 421.958 1729.95 420.304 1730.24 418.177 Z" style="fill: rgb(255, 255, 255);"/>
  <path class="cls-2" d="M 1942.08 1288.35 C 1941.96 1284.83 1942.14 1282.81 1943.4 1280.99 C 1945.32 1278.22 1947.24 1275.45 1949.08 1272.64 C 1953.22 1266.32 1957.35 1259.99 1961.42 1253.62 C 1963.27 1250.73 1963.93 1248.68 1959.85 1246.49 C 1956.79 1244.85 1953.78 1243.13 1950.73 1241.48 C 1899.6 1213.84 1848.47 1186.2 1797.34 1158.55 C 1793.53 1156.5 1789.57 1154.66 1786.09 1152.11 C 1785.25 1151.49 1785.17 1150.69 1785.74 1149.94 C 1785.98 1149.63 1786.26 1149.18 1786.58 1149.13 C 1794.85 1147.77 1802.88 1145.64 1810.74 1142.89 C 1814.25 1141.65 1817.61 1141.81 1820.89 1143.61 C 1823.92 1145.28 1827.02 1146.86 1830.07 1148.51 C 1845.72 1156.97 1861.35 1165.44 1877 1173.9 C 1905.99 1189.58 1934.99 1205.26 1964 1220.91 C 1967.43 1222.76 1970.95 1224.47 1974.44 1226.22 C 1975.32 1226.66 1977.42 1226.03 1977.96 1225.18 C 1979.09 1223.42 1980.33 1221.71 1981.3 1219.88 C 1986.96 1209.17 1992.56 1198.44 1997.61 1187.46 C 1998.48 1185.57 1999.51 1183.75 2000.48 1181.9 C 2000.99 1180.91 2002.95 1180.73 2003.69 1181.57 C 2003.96 1181.88 2004.43 1182.07 2004.65 1182.41 C 2008.99 1189.1 2013.32 1195.8 2017.63 1202.51 C 2018.08 1203.21 2018.48 1203.96 2018.79 1204.73 C 2019.41 1206.28 2019.82 1207.87 2019.16 1209.53 C 2018.86 1210.3 2018.67 1211.12 2018.3 1211.86 C 2000.08 1248.59 1978.48 1283.48 1953.07 1316.29 C 1952.57 1316.94 1951.89 1317.47 1951.22 1317.98 C 1950.9 1318.22 1950.43 1318.31 1950.01 1318.38 C 1948.95 1318.55 1948.26 1318.15 1947.99 1317.25 C 1944.95 1307.31 1943.64 1297.09 1942.08 1288.35 Z" style="fill: rgb(255, 255, 255);"/>
  <path class="cls-2" d="M 983.41 692.111 C 983.553 693.021 983.325 693.831 982.552 694.311 C 976.303 698.141 970.056 701.981 963.747 705.721 C 962.633 706.381 961.216 706.341 959.98 705.711 C 956.112 703.751 952.216 701.831 948.407 699.781 C 917.518 683.091 886.649 666.381 855.766 649.691 C 851.956 647.631 848.095 645.661 844.263 643.631 C 843.317 643.131 841.422 643.611 840.697 644.331 C 838.853 646.171 837.735 648.421 836.487 650.581 C 825.589 669.421 815.609 688.681 806.988 708.521 C 803.014 717.671 799.333 726.931 795.43 736.101 C 795.157 736.741 794.206 737.231 793.46 737.571 C 792.704 737.931 791.785 737.611 791.297 736.781 C 786.208 728.121 781.14 719.461 776.136 710.761 C 775.519 709.691 775.365 708.371 775.834 707.161 C 776.885 704.461 777.977 701.771 779.124 699.091 C 784.701 686.101 790.907 673.371 797.513 660.811 C 808.401 640.111 820.406 619.991 833.62 600.501 C 835.028 598.421 836.619 596.451 838.222 594.501 C 838.77 593.831 839.706 593.611 840.516 593.821 C 840.868 593.911 841.18 594.371 841.377 594.721 C 842.607 596.941 843.231 599.331 843.672 601.771 C 845.284 610.711 846.4 619.691 846.892 628.741 C 846.911 629.091 847.165 629.501 847.45 629.741 C 848.292 630.421 849.093 630.291 849.749 629.431 C 850.766 628.101 851.751 626.741 852.809 625.441 C 853.337 624.791 853.944 624.181 854.611 623.661 C 855.322 623.101 856.243 622.881 857.056 623.191 C 858.678 623.801 860.304 624.451 861.819 625.261 C 871.758 630.581 881.671 635.931 891.585 641.291 C 919.041 656.121 946.503 670.941 973.936 685.801 C 976.971 687.451 980.195 688.851 982.805 691.121 C 983.091 691.361 983.212 691.781 983.41 692.111 Z" style="fill: rgb(255, 255, 255);"/>
  <path class="cls-2" d="M 1607.46 1538.33 C 1607.46 1542.04 1607.57 1545.74 1607.4 1549.44 C 1607.34 1550.61 1606.65 1551.89 1605.32 1552.4 C 1602.07 1553.64 1598.75 1554.74 1595.5 1555.96 C 1593.46 1556.73 1591.42 1557.53 1589.51 1558.53 C 1588.87 1558.86 1588.32 1559.85 1588.29 1560.55 C 1588.25 1561.75 1588.56 1562.99 1588.89 1564.17 C 1591.53 1573.79 1593.13 1583.52 1592.32 1593.5 C 1592.22 1594.72 1591.87 1595.92 1591.64 1597.12 C 1591.45 1598.11 1589.46 1598.88 1588.42 1598.4 C 1587.64 1598.03 1586.76 1597.82 1586.04 1597.37 C 1579.11 1592.98 1572.08 1588.74 1564.73 1584.98 C 1562.69 1583.94 1561.63 1582.18 1561.22 1580.03 C 1560.75 1577.6 1560.23 1575.18 1559.51 1572.81 C 1559.17 1571.66 1558.38 1570.61 1557.68 1569.59 C 1557.16 1568.83 1556.3 1568.64 1555.38 1568.63 C 1553.56 1568.59 1551.96 1569.32 1550.3 1569.83 C 1536.47 1574.1 1522.26 1576.98 1508 1579.61 C 1501.96 1580.73 1495.84 1581.59 1489.72 1582.27 C 1480.96 1583.25 1472.15 1583.39 1463.36 1582.41 C 1461.65 1582.22 1460.37 1580.26 1460.96 1578.77 C 1461.1 1578.38 1461.1 1577.95 1461.27 1577.58 C 1464.43 1570.77 1468.22 1564.26 1472.23 1557.87 C 1473.13 1556.42 1474.54 1555.35 1476.36 1555.02 C 1478.96 1554.56 1481.56 1554.07 1484.19 1553.87 C 1497.41 1552.87 1510.27 1549.99 1523.18 1547.36 C 1524.89 1547.01 1526.53 1546.34 1528.17 1545.73 C 1529.22 1545.34 1529.53 1544.67 1529.13 1544.02 C 1528.92 1543.68 1528.65 1543.28 1528.3 1543.1 C 1527.16 1542.49 1526.02 1541.76 1524.77 1541.46 C 1519.66 1540.2 1514.54 1538.95 1509.25 1538.5 C 1507.47 1538.34 1505.87 1537.67 1504.41 1536.7 C 1494.34 1530.03 1483.92 1523.87 1473.5 1517.7 C 1472.7 1517.22 1472.62 1516.32 1472.71 1515.5 C 1472.81 1514.6 1473.31 1514.12 1474.36 1513.91 C 1476.94 1513.4 1479.49 1512.72 1482.09 1512.3 C 1495.19 1510.22 1508.39 1509.24 1521.55 1511.37 C 1535.14 1513.58 1547.9 1518.03 1559.24 1525.57 C 1562.46 1527.72 1565.5 1530.11 1568.71 1532.29 C 1569.77 1533.01 1571.17 1533.32 1572.48 1532.95 C 1575.85 1532.01 1579.2 1531 1582.53 1529.93 C 1588.36 1528.07 1594.17 1526.13 1600.01 1524.28 C 1601.25 1523.89 1602.57 1523.73 1603.86 1523.46 C 1605.53 1523.1 1607.64 1524.5 1607.62 1526 C 1607.56 1530.11 1607.46 1534.22 1607.38 1538.33 C 1607.41 1538.33 1607.43 1538.33 1607.46 1538.33 Z" style="fill: rgb(255, 255, 255);"/>
  <path class="cls-2" d="M 1640.13 1685.35 C 1639.6 1686.18 1639.31 1687.06 1638.68 1687.53 C 1637.32 1688.55 1635.82 1689.42 1634.3 1690.24 C 1628.98 1693.12 1623.62 1695.96 1618.27 1698.8 C 1616.89 1699.53 1614.43 1699.01 1613.48 1697.83 C 1612.42 1696.52 1611.3 1695.25 1610.31 1693.9 C 1603.57 1684.73 1596.08 1676.12 1588.24 1667.77 C 1583.01 1662.2 1577.51 1656.87 1571.44 1652.09 C 1570.44 1651.3 1569.34 1650.61 1568.28 1649.87 C 1566.92 1648.92 1564.64 1648.79 1563.33 1649.64 C 1561.16 1651.04 1559.03 1652.49 1556.86 1653.89 C 1552.5 1656.7 1547.89 1659.11 1543.1 1661.19 C 1530.88 1666.51 1518.02 1668.67 1504.57 1667.81 C 1493.99 1667.13 1483.61 1665.57 1473.74 1661.71 C 1472.67 1661.29 1472.32 1660.78 1472.88 1659.78 C 1473.08 1659.43 1473.25 1659.06 1473.51 1658.75 C 1473.76 1658.42 1474.05 1658.06 1474.42 1657.88 C 1483.43 1653.44 1491.44 1647.68 1499.07 1641.44 C 1500.83 1640 1502.91 1639.54 1505.17 1639.53 C 1507.37 1639.53 1509.57 1639.63 1511.77 1639.53 C 1518.91 1639.23 1525.65 1637.53 1531.91 1634.27 C 1532.89 1633.75 1533.33 1632.14 1532.66 1631.04 C 1532.23 1630.33 1531.7 1629.68 1531.31 1628.96 C 1531.13 1628.63 1531.01 1628.1 1531.17 1627.81 C 1534.96 1620.86 1538.79 1613.92 1542.62 1606.99 C 1543.32 1605.72 1545.58 1604.85 1547.17 1605.29 C 1549.69 1605.98 1552.18 1606.77 1554.7 1607.48 C 1556.32 1607.94 1558.36 1606.98 1558.93 1605.41 C 1559.76 1603.08 1560.5 1600.72 1561.27 1598.36 C 1561.64 1597.25 1563.26 1596.44 1564.32 1596.84 C 1564.73 1596.99 1565.19 1597.04 1565.57 1597.24 C 1572.95 1600.95 1579.9 1605.27 1586.25 1610.39 C 1587.62 1611.5 1588.24 1613.17 1587.81 1614.86 C 1587.2 1617.24 1586.34 1619.58 1585.56 1621.93 C 1584.98 1623.68 1585.55 1625.23 1586.79 1626.45 C 1588.3 1627.93 1590.03 1629.22 1591.7 1630.57 C 1600.04 1637.31 1607.66 1644.71 1614.76 1652.58 C 1623.28 1662.02 1631.47 1671.69 1638.57 1682.12 C 1639.26 1683.13 1639.64 1684.32 1640.13 1685.35 Z" style="fill: rgb(255, 255, 255);"/>
  <path class="cls-2" d="M 1103.6 403.246 C 1104.63 402.943 1106.2 404.646 1108.52 407.946 C 1110.94 411.381 1111.88 413.224 1113.19 415.404 C 1136.1 453.413 1159 491.423 1181.87 529.441 C 1186.4 536.971 1190.85 544.551 1195.32 552.111 C 1196.04 553.341 1195.72 555.741 1194.7 556.751 C 1190.49 560.961 1186.28 565.171 1182.03 569.341 C 1181.12 570.241 1179.91 570.761 1178.58 571.001 C 1177.68 570.121 1176.64 569.321 1175.9 568.331 C 1174.89 566.991 1174.09 565.501 1173.23 564.071 C 1165.46 551.161 1157.7 538.241 1149.93 525.331 C 1130.05 492.341 1110.16 459.358 1090.29 426.367 C 1088.66 423.664 1087.43 422.222 1085.89 418.77 C 1084.12 414.829 1084.13 413.194 1084.91 412.308 C 1085.51 411.645 1086.18 411.8 1088.26 411.08 C 1090.13 410.431 1090.42 410.014 1092.66 408.922 C 1098.32 406.16 1103.22 403.359 1103.6 403.246 Z" style="fill: rgb(255, 255, 255);"/>
  <path class="cls-2" d="M 2066.87 1073.6 C 2066.55 1075.36 2066.22 1077.82 2065.65 1080.23 C 2056.78 1117.71 2044.61 1154.21 2028.74 1189.62 C 2028.25 1190.72 2027.29 1191.64 2026.5 1192.6 C 2025.82 1193.41 2025.05 1193.36 2024.28 1192.53 C 2023.99 1192.23 2023.61 1191.99 2023.37 1191.66 C 2017.82 1184.2 2013.33 1176.17 2008.87 1168.13 C 2007.8 1166.22 2007.9 1164.12 2008.65 1162.12 C 2009.66 1159.4 2010.81 1156.72 2011.88 1154.02 C 2023.69 1124.23 2032.55 1093.66 2039.37 1062.56 C 2040.7 1056.52 2041.85 1050.44 2043.09 1044.38 C 2043.28 1043.47 2043.96 1043.04 2045.03 1043.16 C 2045.44 1043.21 2045.9 1043.32 2046.22 1043.55 C 2046.91 1044.04 2047.62 1044.56 2048.13 1045.2 C 2053.68 1052.12 2059.16 1059.08 2064.72 1066 C 2066.39 1068.08 2067.14 1070.35 2066.87 1073.6 Z" style="fill: rgb(255, 255, 255);"/>
  <path class="cls-2" d="M 825.244 1261.38 C 826.951 1261.6 828.725 1261.71 830.429 1262.09 C 836.444 1263.42 842.593 1263.87 848.693 1264.64 C 849.999 1264.81 851.316 1265 852.576 1265.34 C 854.288 1265.81 855.816 1266.65 856.843 1268.06 C 858.581 1270.43 860.264 1272.84 861.931 1275.26 C 880.548 1302.28 901.399 1327.7 924.301 1351.67 C 926.926 1354.41 929.928 1356.9 931.82 1360.2 C 932.283 1361 932.022 1361.9 931.36 1362.34 C 930.657 1362.8 929.852 1363.21 929.025 1363.42 C 920.948 1365.45 912.741 1366.9 904.457 1367.94 C 902.187 1368.22 900.127 1367.54 898.515 1365.91 C 897.918 1365.31 897.271 1364.75 896.689 1364.14 C 894.651 1361.98 892.602 1359.83 890.608 1357.64 C 865.762 1330.33 843.518 1301.28 823.895 1270.48 C 822.556 1268.37 821.054 1266.34 820.386 1263.9 C 820.13 1262.96 821.449 1261.33 822.574 1261.37 C 823.449 1261.4 824.327 1261.38 825.244 1261.38 Z" style="fill: rgb(255, 255, 255);"/>
  <path class="cls-2" d="M 772.212 1072.68 C 775.648 1087.95 779.739 1103.07 784.517 1118.02 C 785.519 1121.16 786.796 1124.25 787.051 1127.54 C 787.113 1128.35 786.328 1128.96 785.498 1129.17 C 785.088 1129.27 784.584 1129.3 784.19 1129.18 C 775.024 1126.3 766.149 1122.72 757.229 1119.25 C 755.103 1118.42 753.625 1116.88 752.948 1114.83 C 751.653 1110.91 750.355 1106.99 749.282 1103.01 C 743.906 1083.1 739.371 1063.01 736.052 1042.71 C 734.594 1033.79 732.972 1024.87 732.31 1015.84 C 731.861 1009.7 730.287 1003.66 730.296 997.471 C 730.298 996.251 730.387 995.011 730.662 993.821 C 730.817 993.151 731.747 992.651 732.701 992.771 C 733.521 992.881 734.384 993.321 735.04 993.821 C 743.192 1000.07 751.321 1006.35 759.426 1012.65 C 760.81 1013.73 761.666 1015.2 761.93 1016.87 C 762.891 1022.96 763.718 1029.07 764.744 1035.15 C 766.59 1046.1 768.608 1057.02 771.027 1067.88 C 771.385 1069.49 771.815 1071.08 772.212 1072.68 Z" style="fill: rgb(255, 255, 255);"/>
  <path class="cls-2" d="M 1846.61 1405.87 C 1846.94 1401.28 1847.27 1395.95 1847.73 1390.63 C 1847.92 1388.54 1848.92 1386.68 1850.43 1385.12 C 1851.6 1383.9 1852.87 1382.76 1854.13 1381.61 C 1880.3 1357.73 1904.21 1332.02 1925.81 1304.43 C 1926.85 1303.11 1927.93 1301.81 1929.08 1300.58 C 1929.7 1299.92 1930.56 1299.74 1931.4 1299.8 C 1932.44 1299.88 1933.01 1300.39 1933.21 1301.31 C 1934.99 1309.77 1936.83 1318.22 1939.1 1326.57 C 1939.32 1327.37 1939.43 1328.19 1939.54 1329 C 1939.81 1331.1 1939.47 1333.1 1938.21 1334.89 C 1937.49 1335.92 1936.67 1336.89 1935.86 1337.86 C 1920.36 1356.29 1903.85 1373.9 1886.31 1390.65 C 1876.16 1400.35 1865.74 1409.78 1854.88 1418.78 C 1853.24 1420.14 1851.46 1421.34 1849.69 1422.54 C 1848.98 1423.02 1848.06 1422.91 1847.27 1422.34 C 1846.97 1422.13 1846.77 1421.7 1846.69 1421.34 C 1846.5 1420.55 1846.29 1419.73 1846.3 1418.93 C 1846.36 1414.82 1846.49 1410.72 1846.61 1405.87 Z" style="fill: rgb(255, 255, 255);"/>
  <path class="cls-2" d="M 1894.93 526.721 C 1891.49 526.591 1887.1 526.441 1882.71 526.271 C 1879.04 526.141 1875.85 525.011 1873.34 522.411 C 1872.46 521.501 1871.51 520.641 1870.6 519.751 C 1846.26 495.962 1820.05 474.138 1791.93 454.306 C 1789.49 452.582 1786.88 451.046 1784.81 448.878 C 1784.01 448.038 1784.15 446.19 1785.19 445.873 C 1793.94 443.199 1802.7 440.527 1811.47 437.879 C 1814.67 436.911 1817.49 437.683 1820.05 439.625 C 1824.14 442.727 1828.31 445.746 1832.38 448.872 C 1859.25 469.501 1884.18 492.024 1907.41 516.201 C 1909.44 518.321 1911.71 520.291 1913.1 522.921 C 1913.56 523.801 1912.71 525.701 1911.62 525.891 C 1910.76 526.031 1909.91 526.341 1909.05 526.371 C 1904.66 526.511 1900.27 526.591 1894.93 526.721 Z" style="fill: rgb(255, 255, 255);"/>
  <path class="cls-2" d="M 2025.65 754.341 C 2034.97 758.761 2044.2 763.551 2053.23 768.671 C 2055.22 769.801 2056.44 771.511 2057.07 773.521 C 2058.42 777.851 2059.69 782.221 2060.87 786.601 C 2064.75 800.971 2068.09 815.451 2070.78 830.031 C 2073.39 844.211 2075.93 858.421 2077.23 872.781 C 2077.71 878.111 2078.43 883.421 2079.03 888.741 C 2079.12 889.561 2079.12 890.381 2079.11 891.211 C 2079.1 892.131 2078.73 892.831 2078.04 893.191 C 2077.19 893.631 2076.27 893.601 2075.54 892.991 C 2072.61 890.511 2069.59 888.111 2066.84 885.461 C 2061.02 879.851 2055.34 874.111 2049.62 868.411 C 2047.45 866.241 2046.18 863.631 2045.8 860.691 C 2044.45 850.071 2042.47 839.541 2040.41 829.021 C 2036.44 808.771 2031.21 788.821 2025.08 769.061 C 2023.74 764.721 2021.82 760.531 2021.15 756.021 C 2021.02 755.141 2021.14 754.271 2021.89 753.761 C 2022.56 753.301 2023.48 753.451 2024.33 753.791 C 2024.74 753.961 2025.14 754.131 2025.65 754.341 Z" style="fill: rgb(255, 255, 255);"/>
  <path class="cls-2" d="M 1547.63 320.046 C 1548.73 320.155 1550.06 320.166 1551.33 320.431 C 1567.22 323.747 1582.95 327.593 1598.54 331.963 C 1620.88 338.225 1642.79 345.614 1664.3 354.043 C 1665.91 354.675 1667.49 355.423 1668.98 356.28 C 1669.61 356.643 1670.03 357.394 1670.39 358.044 C 1670.47 358.188 1669.93 358.718 1669.59 358.954 C 1668.88 359.438 1668.17 359.979 1667.37 360.26 C 1656.67 364.018 1645.91 367.603 1634.99 370.775 C 1632.83 371.402 1630.65 371.235 1628.52 370.517 C 1618.59 367.171 1608.62 363.944 1598.56 360.957 C 1574.64 353.858 1550.39 348.042 1525.7 343.816 C 1521.37 343.076 1517.07 342.212 1512.76 341.409 C 1511.65 341.202 1511.08 340.631 1511.42 339.797 C 1511.71 339.077 1512.12 338.13 1512.76 337.846 C 1523.13 333.281 1532.98 327.875 1542.62 322.113 C 1543.73 321.455 1544.96 320.979 1546.15 320.454 C 1546.54 320.281 1546.99 320.218 1547.63 320.046 Z" style="fill: rgb(255, 255, 255);"/>
  <path class="cls-2" d="M 933.227 513.901 C 933.227 516.711 933.254 519.181 933.219 521.651 C 933.19 523.791 932.277 525.661 930.83 527.271 C 929.131 529.161 927.359 531.001 925.585 532.831 C 903.079 556.111 882.677 580.901 864.271 607.131 C 862.825 609.191 861.202 611.141 859.6 613.101 C 859.381 613.371 858.803 613.491 858.394 613.491 C 857.602 613.481 856.897 612.971 856.631 612.091 C 856.157 610.511 855.699 608.901 855.465 607.281 C 854.346 599.501 852.537 591.881 849.835 584.441 C 849.554 583.671 849.44 582.841 849.274 582.031 C 848.924 580.331 849.378 578.731 850.247 577.281 C 851.108 575.851 852.187 574.541 853.204 573.191 C 869.501 551.631 887.138 531.071 906.233 511.62 C 911.894 505.853 917.711 500.219 923.477 494.543 C 924.385 493.648 925.408 492.856 926.372 492.012 C 927.475 491.045 929.219 490.737 929.969 491.32 C 930.585 491.799 931.07 492.395 931.163 493.311 C 931.868 500.282 932.562 507.254 933.227 513.901 Z" style="fill: rgb(255, 255, 255);"/>
  <path class="cls-2" d="M 999.944 1452.16 C 998.732 1451.8 997.421 1451.56 996.264 1451.02 C 995.097 1450.49 994.05 1449.7 993.009 1448.95 C 965.11 1428.86 939.098 1406.83 914.905 1382.92 C 914.015 1382.04 913.286 1381 912.601 1379.97 C 912.045 1379.12 912.248 1378.32 913.044 1377.83 C 913.763 1377.38 914.505 1376.84 915.315 1376.67 C 923.879 1374.88 932.454 1373.13 941.039 1371.43 C 942.377 1371.16 943.668 1371.65 944.714 1372.43 C 946.083 1373.45 947.41 1374.53 948.648 1375.69 C 973.231 1398.68 999.645 1419.67 1027.77 1438.78 C 1029.19 1439.75 1030.53 1440.81 1031.9 1441.83 C 1032.91 1442.58 1032.87 1444.44 1031.85 1444.95 C 1031.47 1445.15 1031.15 1445.49 1030.74 1445.61 C 1022.4 1448.17 1013.88 1450.1 1005.26 1451.66 C 1003.54 1451.97 1001.77 1452 999.944 1452.16 Z" style="fill: rgb(255, 255, 255);"/>
  <path class="cls-2" d="M 740.412 821.061 C 740.607 819.751 740.785 817.691 741.232 815.691 C 747.773 786.331 755.984 757.401 766.873 729.161 C 767.315 728.011 767.883 726.911 768.398 725.791 C 768.91 724.671 771.103 724.091 771.691 724.981 C 772.141 725.671 772.883 726.181 773.316 726.871 C 778.657 735.381 783.174 744.271 787.272 753.361 C 787.979 754.921 788.068 756.571 787.584 758.181 C 784.961 766.861 782.188 775.511 779.637 784.221 C 774.3 802.441 769.979 820.871 766.791 839.531 C 765.96 844.391 765.052 849.241 764.189 854.101 C 764.012 855.091 763.49 855.601 762.56 855.631 C 761.687 855.661 760.725 855.491 760.264 854.761 C 754.454 845.571 748.447 836.501 742.115 827.611 C 740.862 825.861 740.301 823.901 740.412 821.061 Z" style="fill: rgb(255, 255, 255);"/>
  <path class="cls-2" d="M 942.061 493.529 C 940.763 476.988 939.495 479.713 950.003 470.655 C 972.39 451.356 996.185 433.686 1021.23 417.485 C 1022.3 416.789 1023.46 416.174 1024.66 415.674 C 1025.46 415.337 1026.35 415.592 1027.02 416.155 C 1027.34 416.421 1027.73 416.831 1027.73 417.175 C 1027.72 421.315 1026.87 425.38 1025.98 429.394 C 1024.56 435.839 1022.71 442.202 1021.06 448.606 C 1020.41 451.132 1018.8 453.036 1016.71 454.624 C 1015 455.919 1013.24 457.169 1011.5 458.426 C 990.867 473.272 971.292 489.247 952.733 506.313 C 950.859 508.037 949.154 509.992 946.73 511.071 C 945.84 511.467 944.897 511.064 944.538 510.382 C 944.157 509.659 943.826 508.86 943.73 508.067 C 943.037 502.339 942.409 496.603 942.061 493.529 Z" style="fill: rgb(255, 255, 255);"/>
  <path class="cls-2" d="M 1138 383.986 C 1141.17 374.645 1143.81 366.827 1146.51 359.023 C 1147.04 357.466 1147.73 355.947 1148.44 354.449 C 1148.98 353.307 1149.86 352.393 1151.1 351.86 C 1153.1 351.005 1155.08 350.114 1157.11 349.357 C 1186.92 338.277 1217.49 329.423 1248.66 322.365 C 1250.33 321.986 1252.12 322.03 1253.86 321.956 C 1254.26 321.939 1254.94 322.168 1255.02 322.421 C 1255.26 323.114 1255.61 324.089 1255.28 324.586 C 1249.48 333.341 1242.6 341.328 1234.9 348.655 C 1226.7 356.45 1228.43 355.754 1216.21 359.269 C 1193.55 365.79 1171.33 373.453 1149.54 382.198 C 1146.73 383.327 1143.88 384.379 1141.03 385.436 C 1140.05 385.803 1139.31 385.501 1138.79 384.716 C 1138.34 384.043 1138.22 383.313 1138 383.986 Z" style="fill: rgb(255, 255, 255);"/>
  <path class="cls-2" d="M 1090.05 410.696 C 1084.69 412.589 1079.78 415.293 1074.89 418.032 C 1064.71 423.73 1054.7 429.668 1044.86 435.853 C 1042.68 437.224 1040.43 438.526 1038.12 439.683 C 1037.53 439.977 1036.52 439.683 1035.77 439.471 C 1035.51 439.399 1035.37 438.768 1035.28 438.372 C 1035.2 437.983 1035.16 437.551 1035.25 437.167 C 1037.5 427.535 1038.97 417.792 1040.05 407.992 C 1040.19 406.675 1041.16 405.801 1042.02 404.875 C 1042.3 404.566 1042.64 404.287 1042.99 404.051 C 1044.07 403.339 1045.14 402.618 1046.25 401.964 C 1071.95 386.877 1098.57 373.393 1126.21 361.668 C 1128.15 360.843 1130.07 359.564 1132.39 359.899 C 1133.22 360.017 1134.02 360.78 1133.9 361.551 C 1133.57 363.563 1133.05 365.564 1132.41 367.513 C 1129.84 375.367 1126.61 382.997 1123.3 390.6 C 1122.28 392.957 1120.5 394.729 1118.04 395.886 C 1112.55 398.466 1100.85 405.855 1100.85 405.855 C 1100.09 406.771 1095.87 408.234 1095.03 408.632 C 1095.03 408.632 1095.54 408.296 1095.54 408.296 C 1094.88 408.621 1091.16 410.27 1090.05 410.696 Z" style="fill: rgb(255, 255, 255);"/>
  <path class="cls-2" d="M 1255.9 349.148 C 1254.72 349.025 1253.85 348.989 1253.01 348.83 C 1252.1 348.658 1251.64 347.932 1252.03 346.98 C 1252.49 345.861 1253.08 344.739 1253.86 343.793 C 1260.03 336.297 1266.07 328.718 1271.27 320.589 C 1272.71 318.337 1274.85 317.12 1277.63 316.685 C 1282.4 315.939 1287.15 315.086 1291.9 314.244 C 1308.77 311.255 1325.83 309.621 1342.88 307.929 C 1351.17 307.106 1359.55 307.042 1367.9 306.658 C 1368.31 306.639 1368.75 306.813 1369.15 306.962 C 1369.54 307.107 1370.02 307.253 1370.23 307.544 C 1370.76 308.301 1370.83 309.162 1370.35 309.844 C 1366.73 315.026 1362.16 319.487 1357.7 324.018 C 1354.73 327.04 1351.56 329.9 1348.4 332.759 C 1346.47 334.512 1344.11 335.588 1341.41 335.944 C 1340.54 336.059 1339.67 336.208 1338.79 336.265 C 1323.42 337.28 1308.23 339.689 1293.06 342.059 C 1282.23 343.751 1271.44 345.737 1260.76 348.207 C 1259.06 348.601 1257.32 348.875 1255.9 349.148 Z" style="fill: rgb(255, 255, 255);"/>
  <path class="cls-2" d="M 1157.23 1711.42 C 1149.88 1711.69 1142.69 1706.07 1142.43 1698.54 C 1142.28 1694.21 1143.8 1690.55 1146.94 1687.42 C 1147.24 1687.12 1147.57 1686.85 1147.91 1686.59 C 1154.94 1681.08 1162.21 1675.87 1169.78 1671.02 C 1171.04 1670.21 1172.28 1670.7 1173.5 1671.14 C 1173.91 1671.28 1174.31 1671.45 1174.67 1671.68 C 1181.15 1675.86 1187.28 1680.44 1192.94 1685.57 C 1194.33 1686.83 1194.33 1688.67 1192.91 1689.8 C 1192.58 1690.06 1192.34 1690.43 1191.99 1690.67 C 1184.72 1695.91 1177.47 1701.16 1170.15 1706.34 C 1168.42 1707.56 1166.48 1708.55 1164.61 1709.59 C 1162.3 1710.87 1159.75 1711.39 1157.23 1711.42 Z" style="fill: rgb(255, 255, 255);"/>
  <path class="cls-2" d="M 1661.93 1724.68 C 1661.89 1728.2 1660.89 1731.25 1658.5 1733.86 C 1652.74 1740.15 1642.58 1740.31 1636.47 1734.17 C 1635 1732.69 1633.7 1730.99 1632.65 1729.22 C 1629.27 1723.5 1626.03 1717.7 1622.75 1711.92 C 1622.01 1710.61 1622.7 1708.56 1624.17 1707.66 C 1630.42 1703.88 1636.8 1700.34 1643.4 1697.13 C 1645.63 1696.05 1647.94 1696.51 1649.18 1698.27 C 1653.53 1704.42 1657.04 1711 1660.39 1717.66 C 1661.52 1719.92 1661.87 1722.35 1661.93 1724.68 Z" style="fill: rgb(255, 255, 255);"/>
  <path class="cls-1" d="M 841.462 1242.6 C 841.629 1242.33 841.917 1242.07 841.925 1241.8 C 841.931 1241.59 841.596 1241.23 841.382 1241.21 C 841.138 1241.18 840.86 1241.46 840.597 1241.61 C 840.773 1241.83 840.95 1242.05 841.127 1242.27 C 841.127 1242.27 841.462 1242.6 841.462 1242.6 Z" style="fill: rgb(255, 255, 255);"/>
  <path class="cls-1" d="M 841.127 1242.27 C 841.367 1242.32 841.607 1242.36 841.848 1242.41 C 841.721 1242.22 841.595 1242.02 841.469 1241.83 C 841.444 1242.07 841.419 1242.3 841.428 1242.57 C 841.462 1242.6 841.127 1242.27 841.127 1242.27 Z" style="fill: rgb(255, 255, 255);"/>
</svg>